<svg xmlns="http://www.w3.org/2000/svg" width="652" height="425" viewBox="0 0 652 425">
    <defs>
        <linearGradient id="a" x1="58.984%" x2="-99.883%" y1="45.704%" y2="104.39%">
            <stop offset="0%" stop-color="#FFF"/>
            <stop offset="100%" stop-color="#231F20"/>
        </linearGradient>
        <linearGradient id="b" x1="33.665%" x2="80.457%" y1="-221.503%" y2="552.643%">
            <stop offset="0%" stop-color="#40E586"/>
            <stop offset="100%" stop-color="#328784"/>
        </linearGradient>
        <linearGradient id="c" x1="111.437%" x2="-86.566%" y1="-308.46%" y2="300.419%">
            <stop offset="0%" stop-color="#40E586"/>
            <stop offset="100%" stop-color="#328784"/>
        </linearGradient>
        <linearGradient id="d" x1="574.691%" x2="-202.255%" y1="-17.289%" y2="29.136%">
            <stop offset="0%" stop-color="#40E586"/>
            <stop offset="100%" stop-color="#328784"/>
        </linearGradient>
        <linearGradient id="e" x1="435.598%" x2="-112.118%" y1="-190.481%" y2="158.007%">
            <stop offset="0%" stop-color="#40E586"/>
            <stop offset="100%" stop-color="#328784"/>
        </linearGradient>
        <linearGradient id="f" x1="115.664%" x2="-57.309%" y1="-183.859%" y2="439.499%">
            <stop offset="0%" stop-color="#40E586"/>
            <stop offset="100%" stop-color="#328784"/>
        </linearGradient>
        <linearGradient id="g" x1="42.584%" x2="52.944%" y1="-25.46%" y2="89.644%">
            <stop offset="0%" stop-color="#40E586"/>
            <stop offset="100%" stop-color="#328784"/>
        </linearGradient>
        <linearGradient id="h" x1="-4153.49%" x2="1873.769%" y1="-5865.097%" y2="5099.938%">
            <stop offset="0%" stop-color="#40E586"/>
            <stop offset="100%" stop-color="#328784"/>
        </linearGradient>
        <linearGradient id="i" x1="-1.991%" x2="61.745%" y1="9.537%" y2="80.908%">
            <stop offset="0%" stop-color="#40E586"/>
            <stop offset="100%" stop-color="#328784"/>
        </linearGradient>
        <linearGradient id="j" x1="0%" y1="49.971%" y2="49.971%">
            <stop offset="0%" stop-color="#FFF"/>
            <stop offset="100%" stop-color="#231F20"/>
        </linearGradient>
    </defs>
    <g fill="none" fill-rule="nonzero">
        <path fill="url(#a)" d="M241 109.41c-1.137 1.432-2.409 2.353-3.854 2.49-8.788 1.001-29.146-5.812-29.146-5.812l.912-8.088c4.49 2.464 23.98 12.817 32.088 11.41z" opacity=".16" style="mix-blend-mode:multiply"/>
        <path fill="#6ED8E5" d="M645.732 214l-3.47 5.357c2.716 1.75 4.292 4.857 4.12 8.126-.173 3.268-2.067 6.186-4.952 7.63a8.749 8.749 0 0 1-8.959-.671l-3.471 5.35c6.968 4.26 15.997 2.178 20.48-4.724 4.484-6.903 2.832-16.176-3.748-21.035V214z"/>
        <path fill="#FFF" d="M543 60.126c-.006-4.25-2.442-8.108-6.236-9.875a10.517 10.517 0 0 0-11.41 1.658c-1.88-6.754-8.106-11.277-14.986-10.885-6.88.39-12.574 5.591-13.705 12.517a8.838 8.838 0 0 0-9.633 1.477c-2.646 2.382-3.673 6.123-2.625 9.558 1.047 3.435 3.976 5.924 7.48 6.357V71h42.161l-.13-.12c5.224-.798 9.087-5.372 9.084-10.754zM259.316 12.03c-2.357-.001-4.68.56-6.77 1.634C249.541 5.284 241.404-.23 232.397.007c-9.007.238-16.833 6.175-19.38 14.7-7.244.168-13.026 6.014-13.017 13.163.009 7.148 5.806 12.98 13.05 13.13h46.266c5.246 0 10.094-2.76 12.717-7.243a14.316 14.316 0 0 0 0-14.485c-2.623-4.481-7.47-7.242-12.717-7.242zM135.73 100.93a9.49 9.49 0 0 0-4.402 1.079 13.498 13.498 0 0 0-13.078-9.004 13.5 13.5 0 0 0-12.593 9.67c-4.781 0-8.657 3.878-8.657 8.662 0 4.785 3.876 8.663 8.657 8.663h30.053c5.17-.137 9.29-4.37 9.29-9.545 0-5.176-4.12-9.41-9.29-9.546l.02.02z"/>
        <path fill="#FFF" d="M427.84 140.743a1.714 1.714 0 1 1-3.429 0 1.714 1.714 0 0 1 3.429 0z" opacity=".2"/>
        <path fill="url(#b)" d="M561.45 174s3.565-22.403-7.464-24.778c-11.03-2.376-5.813 14.92 7.465 24.778z"/>
        <path fill="url(#c)" d="M563.997 183s17.257-14.945 10.387-24.323c-6.871-9.378-14.068 7.602-10.387 24.323z"/>
        <path fill="url(#d)" d="M566 196.52s22.515 3.341 24.795-7.62c2.28-10.96-15.025-5.634-24.795 7.62z"/>
        <path fill="url(#e)" d="M581 173.986s10.575-18.956 20.657-14.23c10.083 4.728-4.344 14.66-20.657 14.23z"/>
        <path fill="url(#f)" d="M578.78 158s16.966-16.481 9.172-25.552c-7.794-9.07-14.19 8.773-9.172 25.552z"/>
        <path fill="#683987" d="M548.67 227l-.67-.504c26.74-35.26 38.048-91.926 38.155-92.496l.845.166c-.127.57-11.469 57.422-38.33 92.834z"/>
        <path fill="#683987" d="M565.213 196s-.259-3.46-1.083-8.538c-1.648-10.165-5.093-24.481-12.13-34.983l.646-.479c7.117 10.598 10.598 25.038 12.26 35.287.83 5.124 1.088 8.583 1.094 8.616l-.787.097zM569.723 187l-.723-.435c7.817-12.514 26.41-22.468 26.595-22.565l.405.728c-.186.097-18.58 9.947-26.277 22.272z"/>
        <path fill="url(#g)" d="M166.18 280.893c-11.606 5.373-12.996 23.143.398 36.787 11.353 11.569 29.083 32.905 34.051 42.417 4.969 9.513 9.431 8.54-.85-33.837-10.283-42.378-25.56-49.112-33.6-45.367z"/>
        <path fill="#E7E9F8" d="M206 363.908l-.617.092c-3.35-21.033-13.878-42.661-22.122-57.102A262.615 262.615 0 0 0 166 280.353l.495-.353a261.795 261.795 0 0 1 17.308 26.63c8.258 14.467 18.807 36.16 22.197 57.278z"/>
        <path fill="#E7E9F8" d="M178.662 301c-5.976-4.697-21.528-5.359-21.662-5.359V295c.637 0 15.884.697 22 5.477l-.338.523zM191.734 325c-8.386-3.795-20.509-1.96-20.632-1.96l-.102-.587c.123 0 12.436-1.875 21 2.005l-.266.542zM187.937 315.865l-.586.135c-1.627-7.593 2.924-16.622 3.115-17l.534.283c-.046.128-4.644 9.218-3.063 16.582zM198.67 341.91l-.577.09c-.513-3.255 1.267-12.602 1.343-13l.564.116c-.013.096-1.831 9.636-1.33 12.794z"/>
        <path fill="url(#h)" d="M184 348l1-1"/>
        <path fill="url(#i)" d="M219.412 380.324s-30.913-42.699-57.886-54.937c-26.974-12.238-44.353 26.026-11.924 36.839a251.297 251.297 0 0 1 57.135 27.938s22.788 13.381 12.675-9.84z"/>
        <path fill="#E7E9F8" d="M220.48 393l.52-.301c-12.57-21.36-34.686-37.301-51.03-46.856A218.948 218.948 0 0 0 137.204 330l-.204.563a218.539 218.539 0 0 1 32.674 15.804c16.265 9.548 38.315 25.39 50.807 46.633z"/>
        <path fill="#E7E9F8" d="M166 342.591l-.08-.591c-.168 0-16.923 2.288-27.92 12.571l.423.429c10.856-10.12 27.416-12.389 27.577-12.409zM187 357.627l-.045-.627c-.135 0-13.867 1.288-22.955 11.566l.43.434c8.928-10.133 22.435-11.36 22.57-11.373zM178.49 351l.51-.285c-3.077-6.412-2.341-16.56-2.328-16.66l-.573-.055c-.038.447-.768 10.445 2.391 17zM201.631 370l.369-.449c-2.348-2.829-1.19-11.365-1.18-11.447l-.51-.104c-.051.359-1.214 8.943 1.321 12z"/>
        <path fill="#DE3577" d="M283.595 126.592c7.961-1.702 29.893.568 31.976 2.961 2.084 2.393 1.274 36.447 1.274 36.447h-37.569s-2.78-17.086-2.195-26.77c.371-5.81 2.195-11.738 6.514-12.638z"/>
        <path fill="url(#j)" d="M290 125l7.744 11.176 5.172-3.206 3.12 4.03 5.964-8.24-2.546-.838z" opacity=".16" style="mix-blend-mode:multiply"/>
        <path fill="#FFF" d="M309.607 126L303 131.299l2.872 4.701 5.128-7.278z"/>
        <path fill="#FFF" d="M296.033 124l7.967 7.575-4.915 4.425L291 125.921z"/>
        <path fill="#DE3577" d="M315.62 130s3.133 2.135 10.669 9.518c7.536 7.383 12.097 9.124 13.278 9.477 1.182.354 24.433 2.516 24.433 2.516v5.439s-25.468 1.924-28.137.564c-2.67-1.36-18.85-8.54-20.243-11.98-1.395-3.44 0-15.534 0-15.534z"/>
        <path fill="#1F1C37" d="M296.277 101.488c-1.075.585-3.808 1.476-3.186 7.913.621 6.438 4.055 10.28 6.306 10.593 2.252.312 15.472-11.503 15.472-11.503s3.969.078 5.131-1.437c0 0-2.719-1.593-3.574-5.852-.855-4.26-7.315-5.202-10.268-5.202-4.162 0-7.349 5.091-7.349 5.091a5.565 5.565 0 0 0-2.532.397z"/>
        <path fill="#F7B6B0" d="M312.202 116.783c-1.6 4.576-3.119 3.648-4.32 4.34a1.748 1.748 0 0 0-.688 1.491c-.032.691.03 1.383.186 2.06l-4.81.326-4.994-1.752c1.477-5.327-.838-7.38-1.642-8.295-.804-.915-1.278-2.74-.632-3.922.646-1.183 1.992-1.602 3.119 0 0 0 1.195 2.124 2 .536.803-1.589 1.751-8.688 5.269-5.942 3.517 2.745 8.003 1.902 8.244 2.13.24.23-.138 4.459-1.732 9.028z"/>
        <path fill="#E7E9F8" d="M205 422.003c0 1.656-26.64 2.997-59.5 2.997S86 423.686 86 422.003c0-1.682 26.64-3.003 59.5-3.003s59.5 1.34 59.5 3.003zM638 422.003c0 1.656-23.277 2.997-52 2.997s-52-1.314-52-2.997c0-1.682 23.284-3.003 52-3.003s52 1.34 52 3.003z"/>
        <rect width="361" height="232" x="200" y="165" fill="#FFF" rx="12.46"/>
        <rect width="333" height="205" x="214" y="179" fill="#001B73" rx="3.19"/>
        <path fill="#E7E9F8" d="M499.994 282H263.006a3.006 3.006 0 0 1-3.006-2.993v-47.014a3.006 3.006 0 0 1 3.006-2.993h236.988a3.006 3.006 0 0 1 3.006 2.993v47.014a3.006 3.006 0 0 1-3.006 2.993zm-236.988-52.159a2.163 2.163 0 0 0-2.168 2.158v47.015c0 1.192.97 2.158 2.168 2.158h236.988a2.163 2.163 0 0 0 2.168-2.158v-47.021c0-.573-.229-1.122-.635-1.526a2.173 2.173 0 0 0-1.533-.632l-236.988.006zM412.987 342H263.013c-1.663-.004-3.01-1.34-3.013-2.99v-47.02c.004-1.65 1.35-2.986 3.013-2.99h149.974c1.662.004 3.01 1.34 3.013 2.99v46.987a2.987 2.987 0 0 1-.873 2.134 3.03 3.03 0 0 1-2.14.889zm-149.961-52.127c-1.2 0-2.173.966-2.173 2.157v46.986c0 1.19.973 2.156 2.173 2.156h149.961c1.2 0 2.173-.965 2.173-2.156V291.99a2.165 2.165 0 0 0-2.173-2.157l-149.961.04zM500.174 342h-75.348a2.816 2.816 0 0 1-2.826-2.806v-47.388a2.816 2.816 0 0 1 2.826-2.806h75.348a2.816 2.816 0 0 1 2.826 2.806v47.388a2.816 2.816 0 0 1-2.826 2.806zm-75.348-52.573a2.404 2.404 0 0 0-1.7.697 2.37 2.37 0 0 0-.702 1.689V339.2a2.394 2.394 0 0 0 2.402 2.386h75.348a2.4 2.4 0 0 0 2.402-2.386v-47.394a2.394 2.394 0 0 0-2.402-2.385l-75.348.006z" opacity=".76"/>
        <path fill="#ACD0E2" d="M577 399.702c0 2.834-1.815 5.414-4.727 7.267-3.398 2.034-7.376 3.088-11.427 3.029H202.147c-8.915 0-16.147-4.603-16.147-10.296.045-.788.514-1.503 1.25-1.908a5.665 5.665 0 0 1 2.997-.793h382.5c2.346 0 4.253 1.211 4.253 2.7z"/>
        <path fill="#ACD0E2" d="M429 396c0 3.313-3.544 6-7.908 6h-80.184c-4.364 0-7.908-2.687-7.908-6h96z"/>
        <path fill="#E7E9F8" d="M518.838 362H243.162a2.17 2.17 0 0 1-2.162-2.177V201.177c0-.577.228-1.131.633-1.54a2.154 2.154 0 0 1 1.529-.637h275.676c.573 0 1.123.23 1.529.638.405.408.633.962.633 1.539v158.646c0 .577-.228 1.131-.633 1.54a2.154 2.154 0 0 1-1.529.637zM243.162 199.84c-.726 0-1.314.593-1.314 1.324v158.659c0 .73.588 1.323 1.314 1.323h275.676c.726 0 1.314-.592 1.314-1.323V201.177c0-.73-.588-1.323-1.314-1.323l-275.676-.014z" opacity=".76"/>
        <rect width="279" height="10" x="242" y="200" fill="#E7E9F8" rx="2.65"/>
        <path fill="#FFA171" d="M250 206a2 2 0 1 1-4 0 2 2 0 0 1 4 0z"/>
        <path fill="#CE4676" d="M259 206a2 2 0 1 1-4 0 2 2 0 0 1 4 0z"/>
        <path fill="#43BFCB" d="M269 206a2 2 0 1 1-4 0 2 2 0 0 1 4 0z"/>
        <path fill="#FC3C87" d="M284.617 127.028c3.782.495 2.54 7.926 1.169 15.68-1.372 7.753-3.21 14.999-2.87 15.461.342.462 22.821 3.923 23.044 4.498.224.574-.57 5.284-.57 5.284s-24.016.574-28.98-2.193c-4.963-2.768-3.466-15.105-1.969-25.719s7.543-13.355 10.176-13.011z"/>
        <path fill="#F7B6B0" d="M305 167.79a22.11 22.11 0 0 1 8.144 0c3.9.886.676-1.216-.825-2.76-1.5-1.545-6.758-.893-6.758-.893l-.561 3.652z"/>
        <path fill="#FC3C87" d="M295 125.498s.233-2.835 2.267-2.465c2.035.371 9.214 1.06 10.166 1.22.952.158.418 2.23.418 2.23-4.29.94-8.883.589-12.851-.985z"/>
        <path fill="#EF91B3" d="M166 331.498l-1.278 6.36v.02l-4.552 22.706-.511 2.57-5.864 29.226-.517 2.57-5.615 28.05H145l18.445-92 1.277.252 1.184.226zM143 423h-2.656l-17.06-85.115v-.007l-1.284-6.38 1.284-.246 1.278-.252z"/>
        <path fill="#EF91B3" d="M181.337 423l-5.621-28.05-.511-2.57-5.864-29.226-.511-2.57-4.552-22.7v-.026l-1.278-6.36 1.278-.246 1.277-.252L184 423h-2.656M125 331.498l-1.277 6.38v.007L106.662 423H104l18.439-92 1.284.252z"/>
        <path fill="#EF91B3" d="M111 392h66v3h-66zM118 360h53v3h-53z"/>
        <path fill="#CE4676" d="M184 423h-2.642l-5.591-28.05H153l.515-2.57h21.743l-5.832-29.226h-10.079l.508-2.57h9.063l-4.535-22.706v-.02l1.178-6.38.093-.478z"/>
        <path fill="#EF91B3" d="M122 331h3l-2.226 3zM163 331h3l-2.416 3z"/>
        <path fill="#FFA171" d="M121.062 246.003l61.79-36.545 6.524 11.007-61.79 36.545z"/>
        <path fill="#FF8C52" d="M125.532 253.54l61.79-36.544 2.055 3.467-61.79 36.545zM121.122 245.825l61.755-36.58 2.074 3.493-61.755 36.581z"/>
        <path fill="#FFE4D6" d="M205 204l-22 5.842L189.434 221z"/>
        <path fill="#1F1C37" d="M196 206.754l2.924 5.246 7.076-8z"/>
        <path fill="#F7B6B0" d="M67 325.613L62.479 324 60 329.542 64.141 332z"/>
        <path fill="#1777AA" d="M101.993 285s-4.284 9.8-4.867 20.377c-.583 10.577-1.173 30.56-1.756 30.368-.583-.19-29.031-9.115-29.031-9.115L64 332.782s29.032 18.026 37.993 16.07c8.96-1.956 15.007-41.927 15.007-41.927v-20.746L101.993 285z"/>
        <path fill="#FC3C87" d="M62 324.437s-5.216-2.8-5.901-2.397c-.686.403-6.096 12.81-6.096 12.81s-.128 1.466 1.344 1.087c1.472-.378 6.809-6.39 8.307-6.613L62 324.437z"/>
        <path fill="#F7B6B0" d="M126 381l.318 4h6.067l.615-4zM123.187 239s-1.351-7.938-.602-8.837c.75-.9 2.189.899 4.37-4.637 2.183-5.536.906-14.896-3.464-16.245-4.371-1.349-11.153 2.174-12.16 10.253-1.006 8.079.602 18.943.602 18.943l11.254.523z"/>
        <path fill="#42A1CD" d="M107.7 289s-5.643 12.987 3.634 26.932C120.611 329.876 126.252 382 126.252 382h6.64s4.23-39.73 2.82-50.763C134.302 320.204 126.64 289 126.64 289h-18.94z"/>
        <path fill="#FC3C87" d="M171 238.979s-15.045 13.125-18.734 13.713c-3.689.588-20.79-.886-20.79-.443s2.803 8.406-.886 17.104c-3.688 8.697-2.525 21.419-2.525 21.419C114.917 297.103 102 287.93 102 287.93s4.125-8.109 4.098-16.667a22.273 22.273 0 0 0-.482-4.712c-2.162-10.026 0-20.838 0-20.838s5.804-8.208 10.226-7.177c1.353.314 2.736.485 4.125.509 2.585.066 4.985-.324 7.82-.066 5.606.515 20.202 5.287 22.416 5.161 2.215-.126 17.108-9.14 17.108-9.14l3.689 3.979z"/>
        <path fill="#DE3577" d="M118 237.584c-1.541 1.134-.764 11.87-6.165 18.199A40.443 40.443 0 0 0 104.414 269a21.623 21.623 0 0 0-.473-4.595c-2.117-9.776 0-20.319 0-20.319s5.686-8.004 10.018-6.999a19.36 19.36 0 0 0 4.041.497z"/>
        <path fill="#1F1C37" d="M67.72 244.65c-1.595 6.166-1.68 15.366 12.129 17.118 13.808 1.753 20.712-6.806 25.092-13.129 4.38-6.323 5.054-7.683 10.5-12.155 5.447-4.472 5.688-10.017 4.446-11.965-1.242-1.949-2.112-3.112-2.112-4.374 0-1.262 1.504-1.962 2.112-1.073.608.89 2.753-2.236 4.015-4.472 1.261-2.236 1.654-3.4 0-5.643-1.655-2.242-12.35-5.348-16.437 0-4.086 5.349-1.458 7.003-9.807 8.951-8.349 1.949-9.153 8.265-9.918 10.697-.765 2.433-2.432 6.539-8.264 6.807-4.479.235-10.31 3.694-11.755 9.239z"/>
        <path fill="#F7B6B0" d="M167 234.121s4.853-4.392 5.715-4.108c.863.285-.257 4.458-3.063 6.987L167 234.121z"/>
        <path fill="#FC3C87" d="M127.275 385s-.619 6.315 0 6.79c.618.474 13.94 0 13.94 0s1.379-.553.482-1.82-8.349-3.632-9.11-4.956l-5.312-.014z"/>
        <g opacity=".41">
            <path fill="#44BECB" d="M350.482 219.155l-35.226.269a4.136 4.136 0 0 0-2.949 1.278 4.338 4.338 0 0 0-1.202 3.039l.158 21.739a4.327 4.327 0 0 0 1.246 3.02 4.126 4.126 0 0 0 2.97 1.23l18.44-.142 4.663 7a2.409 2.409 0 0 0 2.016 1.105c.81 0 1.567-.415 2.016-1.105l4.505-7.1h3.553c2.312-.02 4.172-1.95 4.157-4.318l-.164-21.739c0-1.135-.44-2.224-1.226-3.026a4.128 4.128 0 0 0-2.957-1.25z"/>
            <path fill="#FFF" d="M335.725 233.934c.011 1.556-1.212 2.827-2.732 2.838-1.52.01-2.76-1.241-2.77-2.797-.012-1.556 1.211-2.827 2.731-2.838a2.719 2.719 0 0 1 1.952.811c.52.525.814 1.24.82 1.986zM345.53 233.86c.011 1.556-1.212 2.827-2.732 2.838-1.52.01-2.76-1.241-2.771-2.797-.01-1.556 1.212-2.827 2.732-2.838a2.719 2.719 0 0 1 1.951.811c.52.525.815 1.24.82 1.986zM326.039 234.008c.01 1.556-1.212 2.827-2.732 2.838-1.52.01-2.76-1.241-2.771-2.797-.011-1.556 1.212-2.827 2.731-2.838 1.519-.007 2.757 1.243 2.772 2.797z"/>
        </g>
        <path fill="#44BECB" d="M344.601 226l-35.42.266c-2.325.018-4.196 1.924-4.181 4.259l.165 21.447c.018 2.332 1.913 4.208 4.234 4.193l18.552-.14 4.676 6.907a2.44 2.44 0 0 0 2.036 1.068 2.441 2.441 0 0 0 2.02-1.101l4.57-6.973h3.573a4.198 4.198 0 0 0 2.965-1.26 4.236 4.236 0 0 0 1.209-2.999l-.159-21.448a4.229 4.229 0 0 0-1.244-2.997 4.192 4.192 0 0 0-2.996-1.222z"/>
        <path fill="#FFF" d="M331 240.979a3 3 0 1 1-3.022-2.979 3.007 3.007 0 0 1 3.022 2.979zM341 240.971a3 3 0 1 1-3.022-2.97 2.993 2.993 0 0 1 3.022 2.97zM321 240.979a3 3 0 1 1-3.022-2.979 3.007 3.007 0 0 1 3.022 2.979z"/>
        <path fill="#B03C65" d="M293.05 257h-50.1a5.954 5.954 0 0 0-5.95 5.958v30.25a5.954 5.954 0 0 0 5.95 5.959h4.699l7.5 11.26a3.546 3.546 0 0 0 5.89 0l7.501-11.228h24.51a5.954 5.954 0 0 0 5.95-5.958v-30.283a5.954 5.954 0 0 0-5.95-5.958z" opacity=".47"/>
        <path fill="#CE4676" d="M289.074 264h-50.122a5.957 5.957 0 0 0-5.952 5.962v30.262a5.957 5.957 0 0 0 5.952 5.962h4.701l7.504 11.235a3.54 3.54 0 0 0 5.893 0l7.477-11.209h24.521A5.957 5.957 0 0 0 295 300.25v-30.288a5.957 5.957 0 0 0-5.926-5.962z"/>
        <path fill="#B03C65" d="M287.177 287h-46.354c-1.007 0-1.823-.895-1.823-2 .004-1.103.818-1.996 1.823-2h46.354c1.005.004 1.82.897 1.823 2 0 1.105-.816 2-1.823 2zM287.177 294h-46.354c-1.005-.004-1.82-.897-1.823-2 0-1.105.816-2 1.823-2h46.354c1.007 0 1.823.895 1.823 2-.004 1.103-.818 1.996-1.823 2zM287.157 278h-46.354c-.999-.012-1.803-.904-1.803-2 .004-1.103.818-1.996 1.823-2h46.354c1.005.004 1.82.897 1.823 2 0 .534-.195 1.046-.54 1.422a1.742 1.742 0 0 1-1.303.578z"/>
        <path fill="#E39E98" d="M308 121.39c-.431.392-.667.99-.633 1.61-1.628-.28-3.15-1.07-4.39-2.281-1.444-1.364-1.21-2.296.19-1.307A10.474 10.474 0 0 0 308 121.39z"/>
        <path fill="#BFB5F4" d="M530 165v172.828c0 2.964-1.176 5.807-3.269 7.902a11.149 11.149 0 0 1-7.89 3.27H386.159c-6.152-.018-11.136-5.008-11.158-11.172V165h155z" opacity=".44"/>
        <rect width="155" height="240" x="368" y="112" fill="#CAEBFC" rx="16.95"/>
        <ellipse cx="406.918" cy="149.978" fill="#FFF" rx="23.058" ry="23.074" transform="rotate(-63.96 406.918 149.978)"/>
        <path fill="#E39E98" d="M410 160.71c-.05-2.019-.64-3.99-1.712-5.71l-2.291 4.862-2.285-4.862a11.325 11.325 0 0 0-1.712 5.71c-.033 3.014 3.477 3.29 3.997 3.29h.06c.466.006 3.97-.276 3.943-3.29z"/>
        <path fill="#1F1C37" d="M420.833 154.963c-2-1.28-3.368-4.689-3.115-8.749.254-4.06-.76-9.713-5.022-11.562-2.668-1.159-3.962-.543-5.13.08a2.232 2.232 0 0 1-2.134 0c-1.167-.623-2.46-1.239-5.129-.08-4.262 1.849-5.275 7.47-5.022 11.562.254 4.093-1.147 7.47-3.115 8.75-1.967 1.279-1.08 2.551 0 3.576s4.422-.194 7.09 1.642c2.668 1.835 3.855.254 4.276-1.755.42-2.01 2.974-17.967 2.974-17.967s2.562 15.95 2.982 17.967c.42 2.016 1.614 3.604 4.268 1.755 2.655-1.85 6.003-.67 7.077-1.662 1.074-.991 1.974-2.277 0-3.557z"/>
        <path fill="#F7B6B0" d="M406.5 160c-1.295 0-2.49-.815-3.511-2.209-1.8-2.471-2.989-2.889-2.989-5.387V140h13v12.424c0 2.499-1.208 2.963-3.026 5.421-1.008 1.367-2.198 2.155-3.474 2.155z"/>
        <path fill="#F7B6B0" d="M399.818 145h-.346c-.503-.007-.974.27-1.244.733a1.705 1.705 0 0 0-.084 1.537l1.654 3.73s1.202-3.101 1.202-3.383a24.037 24.037 0 0 0-1.182-2.617zM414.182 145h.346c.503-.007.974.27 1.244.733.27.462.302 1.043.084 1.537l-1.654 3.73S413 147.899 413 147.617c.343-.899.738-1.773 1.182-2.617z"/>
        <path fill="#1F1C37" d="M407.507 138.564c-1.78-1.346-8.507.268-8.507.268l1.026 7.168c3.061-.734 5.736-2.656 7.474-5.37 1.738 2.714 4.413 4.636 7.474 5.37l1.026-7.168s-6.713-1.678-8.493-.268z"/>
        <path fill="#6ED8E5" d="M503.78 141h-55.554c-2.334 0-4.226-2.015-4.226-4.5s1.892-4.5 4.226-4.5h55.555c2.33.004 4.219 2.017 4.219 4.5s-1.888 4.496-4.22 4.5z"/>
        <path fill="#FFF" d="M506.274 152h-60.548c-.953 0-1.726-.67-1.726-1.497-.002-.398.18-.78.503-1.062.324-.282.764-.441 1.223-.441h60.548c.459 0 .899.159 1.223.44.324.283.505.665.503 1.063 0 .397-.182.778-.505 1.059-.324.28-.763.438-1.22.438zM506.274 160h-60.548c-.459 0-.899-.211-1.223-.586A2.16 2.16 0 0 1 444 158c0-1.102.772-1.996 1.726-2h60.548c.954.004 1.726.898 1.726 2a2.16 2.16 0 0 1-.503 1.414c-.324.375-.764.586-1.223.586zM481.255 167h-36.51a1.9 1.9 0 0 1-1.236-.44 1.397 1.397 0 0 1-.509-1.063c0-.827.781-1.497 1.745-1.497h36.51c.964 0 1.745.67 1.745 1.497.002.398-.181.78-.509 1.062a1.9 1.9 0 0 1-1.236.441z"/>
        <circle cx="407" cy="227" r="23" fill="#FFF"/>
        <path fill="#6ED8E5" d="M503.794 218h-55.555a4.1 4.1 0 0 1-2.999-1.315 4.647 4.647 0 0 1-1.24-3.189c0-2.483 1.892-4.496 4.226-4.496h55.555c2.33.004 4.219 2.016 4.219 4.496.004 2.478-1.877 4.492-4.206 4.504z"/>
        <path fill="#FFF" d="M506.274 229h-60.548c-.953 0-1.726-.67-1.726-1.497-.002-.398.18-.78.503-1.062.324-.282.764-.441 1.223-.441h60.548c.459 0 .899.159 1.223.44.324.283.505.665.503 1.063 0 .397-.182.778-.505 1.059-.324.28-.763.438-1.22.438zM506.274 237h-60.548c-.94 0-1.708-.66-1.726-1.483-.002-.402.18-.787.503-1.072a1.857 1.857 0 0 1 1.223-.445h60.548c.459 0 .899.16 1.223.445.324.285.505.67.503 1.072-.018.824-.785 1.483-1.726 1.483zM481.255 246h-36.51c-.965-.004-1.745-.898-1.745-2a2.146 2.146 0 0 1 .509-1.414 1.643 1.643 0 0 1 1.236-.586h36.51c.464 0 .909.211 1.236.586.328.376.51.884.509 1.414 0 1.102-.78 1.996-1.745 2z"/>
        <path fill="#FF8C52" d="M504.814 184a.653.653 0 0 1-.324-.084l-2.02-1.107-2.02 1.107a.702.702 0 0 1-.863-.175.757.757 0 0 1-.148-.589l.384-2.346-1.61-1.66a.72.72 0 0 1-.175-.742.681.681 0 0 1 .559-.49l2.263-.344 1.017-2.136a.674.674 0 0 1 .623-.434c.273 0 .52.172.623.434l1.017 2.136 2.263.344a.681.681 0 0 1 .56.49.72.72 0 0 1-.176.742l-1.637 1.66.384 2.346a.721.721 0 0 1-.139.594.663.663 0 0 1-.534.254h-.047zm-5.793-5.253l1.462 1.478c.167.166.24.409.195.644l-.343 2.101 1.811-.987a.651.651 0 0 1 .674 0l1.805.987-.344-2.1a.718.718 0 0 1 .196-.645l1.461-1.478-2.02-.308a.676.676 0 0 1-.519-.392l-.91-1.905-.908 1.905a.676.676 0 0 1-.519.392l-2.04.308zM488.244 175.2l1.036 2.18c.034.081.107.139.192.151l2.303.352a.26.26 0 0 1 .212.183.278.278 0 0 1-.067.28l-1.663 1.696a.27.27 0 0 0-.08.242l.397 2.4a.275.275 0 0 1-.104.265.248.248 0 0 1-.273.018l-2.065-1.131a.241.241 0 0 0-.238 0l-2.072 1.131a.248.248 0 0 1-.273-.018.275.275 0 0 1-.103-.264l.376-2.429a.291.291 0 0 0-.072-.241l-1.67-1.698a.278.278 0 0 1-.067-.279.26.26 0 0 1 .212-.183l2.303-.352a.265.265 0 0 0 .198-.151l1.03-2.18a.257.257 0 0 1 .254-.172.26.26 0 0 1 .234.2zM475.238 175.164l1.031 2.19a.266.266 0 0 0 .199.152l2.306.354a.261.261 0 0 1 .213.184.28.28 0 0 1-.067.28l-1.673 1.705a.293.293 0 0 0-.072.242l.39 2.412a.277.277 0 0 1-.104.266.248.248 0 0 1-.273.018l-2.062-1.136a.254.254 0 0 0-.245 0l-2.075 1.136a.248.248 0 0 1-.273-.018.277.277 0 0 1-.104-.266l.397-2.412a.27.27 0 0 0-.08-.242l-1.665-1.705a.28.28 0 0 1-.07-.278.262.262 0 0 1 .209-.186l2.313-.354a.266.266 0 0 0 .192-.152l1.03-2.19a.264.264 0 0 1 .242-.164c.104 0 .199.064.241.164zM461.248 175.172l1.03 2.187c.034.083.107.14.191.153l2.305.353a.26.26 0 0 1 .213.184c.031.099.005.208-.067.28l-1.665 1.703a.27.27 0 0 0-.079.242l.396 2.41a.276.276 0 0 1-.103.265.248.248 0 0 1-.273.018l-2.06-1.135a.253.253 0 0 0-.245 0l-2.08 1.135a.248.248 0 0 1-.273-.018.276.276 0 0 1-.104-.265l.39-2.41a.293.293 0 0 0-.073-.242l-1.67-1.703a.279.279 0 0 1-.068-.28.26.26 0 0 1 .213-.184l2.305-.353a.266.266 0 0 0 .198-.153l1.03-2.187a.264.264 0 0 1 .244-.172c.107 0 .204.068.245.172zM447.241 175.172l1.03 2.187a.266.266 0 0 0 .198.153l2.305.353a.26.26 0 0 1 .213.184c.031.099.005.208-.067.28l-1.671 1.703a.293.293 0 0 0-.073.242l.396 2.41a.283.283 0 0 1-.109.264.254.254 0 0 1-.274.02l-2.06-1.136a.253.253 0 0 0-.245 0l-2.08 1.135a.248.248 0 0 1-.273-.018.276.276 0 0 1-.103-.265l.396-2.41a.27.27 0 0 0-.08-.242l-1.664-1.703a.279.279 0 0 1-.067-.28.26.26 0 0 1 .213-.184l2.305-.353a.246.246 0 0 0 .191-.153l1.03-2.187a.264.264 0 0 1 .245-.172c.107 0 .203.068.244.172z"/>
        <ellipse cx="406.943" cy="304.371" fill="#FFF" rx="23.064" ry="23.067" transform="rotate(-48.15 406.943 304.371)"/>
        <path fill="#6ED8E5" d="M503.78 296h-55.554c-2.334 0-4.226-2.015-4.226-4.5s1.892-4.5 4.226-4.5h55.555c2.33.004 4.219 2.017 4.219 4.5s-1.888 4.496-4.22 4.5z"/>
        <path fill="#FFF" d="M506.274 307h-60.548c-.459 0-.899-.159-1.223-.44a1.403 1.403 0 0 1-.503-1.063c0-.827.773-1.497 1.726-1.497h60.548c.458 0 .897.158 1.22.438.324.281.506.662.506 1.06.002.397-.18.78-.503 1.061-.324.282-.764.441-1.223.441zM506.274 315h-60.548c-.46 0-.901-.212-1.225-.588a2.155 2.155 0 0 1-.501-1.416 2.154 2.154 0 0 1 .503-1.41c.324-.375.764-.586 1.223-.586h60.548c.459 0 .899.21 1.223.585.324.375.505.882.503 1.411.003.53-.177 1.04-.5 1.416-.325.376-.766.588-1.226.588zM481.255 322h-36.51c-.463 0-.907-.158-1.234-.438a1.398 1.398 0 0 1-.511-1.06c-.002-.397.181-.78.509-1.061a1.9 1.9 0 0 1 1.236-.441h36.51a1.9 1.9 0 0 1 1.236.44c.328.283.51.665.509 1.063 0 .397-.184.778-.511 1.059-.327.28-.771.438-1.234.438z"/>
        <path fill="#FF8C52" d="M504.795 338.978a.651.651 0 0 1-.323-.084l-2.015-1.104-2.015 1.104a.65.65 0 0 1-.75-.027.713.713 0 0 1-.257-.735l.383-2.34-1.606-1.656a.718.718 0 0 1-.174-.74.68.68 0 0 1 .557-.49l2.257-.342 1.014-2.13a.672.672 0 0 1 .621-.434c.273 0 .518.171.622.433l1.014 2.131 2.257.342a.677.677 0 0 1 .587.482.717.717 0 0 1-.204.748l-1.633 1.656.383 2.34a.719.719 0 0 1-.154.587.66.66 0 0 1-.564.259zm-5.777-5.24l1.458 1.481a.716.716 0 0 1 .195.636l-.343 2.096 1.807-.985a.7.7 0 0 1 .671 0l1.8.985-.342-2.096a.716.716 0 0 1 .195-.636l1.457-1.481-2.015-.3a.675.675 0 0 1-.517-.399l-.907-1.9-.906 1.9a.674.674 0 0 1-.524.398l-2.029.3zM490.797 338.986a.648.648 0 0 1-.323-.084l-2.013-1.109-2.014 1.11a.653.653 0 0 1-.892-.204.725.725 0 0 1-.155-.59l.39-2.352-1.578-1.636a.724.724 0 0 1-.174-.744.72.72 0 0 1 .564-.491l2.255-.344 1.013-2.142a.669.669 0 0 1 .618-.4c.265-.007.51.15.624.4l1.007 2.142 2.255.344c.272.019.507.209.592.48a.723.723 0 0 1-.203.755l-1.637 1.664.389 2.352a.725.725 0 0 1-.155.59.659.659 0 0 1-.563.26zm-2.343-2.106c.113 0 .223.029.322.085l1.8.99-.343-2.107a.722.722 0 0 1 .201-.639l1.457-1.488-2.014-.302a.674.674 0 0 1-.523-.4l-.9-1.91-.886 1.91a.674.674 0 0 1-.523.4l-2.014.302 1.457 1.488a.722.722 0 0 1 .2.64l-.341 2.105 1.798-.99a.65.65 0 0 1 .31-.09v.006zM475.236 330.166l1.034 2.19a.266.266 0 0 0 .198.153l2.313.347a.27.27 0 0 1 .206.186.287.287 0 0 1-.06.278l-1.677 1.713a.293.293 0 0 0-.073.242l.391 2.406a.283.283 0 0 1-.104.265.255.255 0 0 1-.273.026l-2.068-1.137a.255.255 0 0 0-.245 0l-2.08 1.137a.255.255 0 0 1-.273-.026.283.283 0 0 1-.105-.265l.397-2.406a.27.27 0 0 0-.079-.242l-1.657-1.727a.279.279 0 0 1-.07-.278.262.262 0 0 1 .21-.186l2.319-.347a.267.267 0 0 0 .192-.152l1.034-2.191a.257.257 0 0 1 .24-.152.259.259 0 0 1 .23.166zM461.235 330.166l1.034 2.19c.034.083.107.14.192.153l2.313.347c.099.013.182.084.213.184.031.099.005.208-.068.28l-1.67 1.713a.27.27 0 0 0-.08.242l.399 2.406a.283.283 0 0 1-.105.265.255.255 0 0 1-.273.026l-2.068-1.137a.255.255 0 0 0-.245 0l-2.087 1.137a.255.255 0 0 1-.273-.026.283.283 0 0 1-.105-.265l.39-2.406a.293.293 0 0 0-.072-.242l-1.657-1.727a.287.287 0 0 1-.06-.278.27.27 0 0 1 .206-.186l2.313-.347a.266.266 0 0 0 .199-.152l1.033-2.191a.257.257 0 0 1 .24-.152.259.259 0 0 1 .23.166zM447.236 330.166l1.033 2.19a.266.266 0 0 0 .2.152l2.312.346a.27.27 0 0 1 .206.187.286.286 0 0 1-.06.278l-1.677 1.711a.293.293 0 0 0-.073.243l.398 2.404a.283.283 0 0 1-.106.27.255.255 0 0 1-.278.021l-2.068-1.136a.255.255 0 0 0-.245 0l-2.088 1.136a.255.255 0 0 1-.273-.026.283.283 0 0 1-.104-.265l.397-2.404a.27.27 0 0 0-.08-.243l-1.65-1.725a.279.279 0 0 1-.067-.28c.031-.1.114-.172.213-.185l2.313-.346a.247.247 0 0 0 .192-.153l1.034-2.19a.257.257 0 0 1 .24-.15.259.259 0 0 1 .23.165zM503.238 253.146l1.032 2.19a.266.266 0 0 0 .198.152l2.308.346c.099.016.18.089.211.189.03.1.005.208-.066.282l-1.673 1.704a.271.271 0 0 0-.072.242l.39 2.404a.277.277 0 0 1-.1.272.248.248 0 0 1-.277.019l-2.063-1.136a.254.254 0 0 0-.245 0l-2.07 1.157a.248.248 0 0 1-.277-.02.277.277 0 0 1-.1-.271l.39-2.404a.271.271 0 0 0-.072-.242l-1.673-1.704a.286.286 0 0 1-.066-.283c.03-.1.112-.172.211-.188l2.308-.347a.266.266 0 0 0 .198-.152l1.032-2.189a.265.265 0 0 1 .232-.167.263.263 0 0 1 .244.146zM488.235 253.149l1.039 2.19c.034.082.107.14.192.152l2.31.346c.099.016.18.09.211.189.03.1.005.209-.066.283l-1.668 1.704a.27.27 0 0 0-.079.243l.397 2.404a.277.277 0 0 1-.1.272.249.249 0 0 1-.277.02l-2.072-1.137a.242.242 0 0 0-.238 0l-2.078 1.157a.255.255 0 0 1-.272-.026.283.283 0 0 1-.105-.265l.397-2.404a.293.293 0 0 0-.073-.243l-1.674-1.705a.286.286 0 0 1-.066-.282c.03-.1.112-.173.211-.189l2.31-.346a.266.266 0 0 0 .199-.153l1.032-2.19a.259.259 0 0 1 .229-.169.257.257 0 0 1 .24.149zM475.239 253.154l1.031 2.187a.266.266 0 0 0 .198.152l2.308.346c.099.016.18.089.211.188.03.1.005.209-.066.282l-1.672 1.703a.292.292 0 0 0-.073.242l.39 2.401a.276.276 0 0 1-.1.272.248.248 0 0 1-.277.019l-2.063-1.135a.254.254 0 0 0-.245 0l-2.076 1.156a.248.248 0 0 1-.277-.02.276.276 0 0 1-.1-.271l.397-2.401a.27.27 0 0 0-.08-.243l-1.665-1.702a.286.286 0 0 1-.068-.28c.029-.099.109-.172.206-.19l2.315-.346a.266.266 0 0 0 .191-.153l1.032-2.186a.265.265 0 0 1 .235-.175.263.263 0 0 1 .248.154zM461.248 253.162l1.03 2.184c.034.083.107.14.192.152l2.306.346c.099.016.18.089.211.188.03.1.005.209-.066.282l-1.665 1.7a.27.27 0 0 0-.079.243l.396 2.399a.276.276 0 0 1-.1.27.248.248 0 0 1-.276.02l-2.062-1.134a.254.254 0 0 0-.244 0l-2.081 1.155a.248.248 0 0 1-.277-.02.276.276 0 0 1-.1-.27l.39-2.4a.292.292 0 0 0-.073-.242l-1.671-1.7a.286.286 0 0 1-.066-.282c.03-.1.112-.172.211-.188l2.306-.346a.266.266 0 0 0 .198-.152l1.03-2.185a.266.266 0 0 1 .239-.182.263.263 0 0 1 .25.162zM447.241 253.162l1.03 2.184a.266.266 0 0 0 .2.152l2.305.346c.099.016.18.089.211.188.03.1.005.209-.066.282l-1.671 1.7a.292.292 0 0 0-.073.243l.396 2.399a.283.283 0 0 1-.105.269.255.255 0 0 1-.278.02l-2.061-1.133a.254.254 0 0 0-.245 0l-2.08 1.155a.248.248 0 0 1-.278-.02.276.276 0 0 1-.1-.27l.397-2.4a.27.27 0 0 0-.08-.242l-1.664-1.7a.286.286 0 0 1-.066-.282c.03-.1.112-.172.211-.188l2.306-.346a.246.246 0 0 0 .192-.152l1.03-2.185a.266.266 0 0 1 .238-.182.263.263 0 0 1 .251.162z"/>
        <path fill="#E39E98" d="M405.704 244h-1.408c-.91 0-1.78-.365-2.403-1.007a3.132 3.132 0 0 1-.886-2.387l.364-5.606h7.258l.364 5.606a3.132 3.132 0 0 1-.886 2.387 3.347 3.347 0 0 1-2.403 1.007z"/>
        <path fill="#F7B6B0" d="M398 219v11.877c0 2.274.83 4.458 2.313 6.082l2.638 2.894c.672.734 1.59 1.147 2.549 1.147.958 0 1.877-.413 2.549-1.147l2.638-2.894c1.483-1.624 2.313-3.808 2.313-6.082V219h-15z"/>
        <path fill="#F7B6B0" d="M398.31 227a1.361 1.361 0 0 0-1.006.407c-.25.263-.353.613-.282.951l.329 1.68c.102.56.65.97 1.288.962H399l-.69-4zM413.69 227c.387-.006.756.144 1.006.407s.353.613.282.951l-.329 1.68c-.102.56-.65.97-1.288.962H413l.69-4z"/>
        <path fill="#1F1C37" d="M398.137 226s1.3-.148 1.638-2.658c.339-2.511 1.002-2.462 2.932-2.136 1.93.326 9.364 3.342 13.013.573 1.89-1.428 2.824-4.154 1.95-5.89-1.26-2.51-5.904-3.79-10.67-2.166-3.941 1.342-4.794-1.513-8.863 1.533-4.808 3.593 0 10.744 0 10.744z"/>
        <path fill="#1F1C37" d="M414.393 226s-1.056-.367-1.363-4.872c-.307-4.504 1.854-.543 1.902 0a11.186 11.186 0 0 1-.539 4.872z"/>
        <path fill="#E39E98" d="M406.704 320h-1.408c-.91 0-1.78-.365-2.403-1.007a3.132 3.132 0 0 1-.886-2.387l.364-5.606h7.258l.364 5.606a3.132 3.132 0 0 1-.886 2.387 3.347 3.347 0 0 1-2.403 1.007z"/>
        <path fill="#F7B6B0" d="M399 295v11.88c.002 2.272.833 4.452 2.313 6.074l2.638 2.893c.67.737 1.59 1.153 2.549 1.153.96 0 1.879-.416 2.549-1.153l2.638-2.893c1.483-1.62 2.314-3.802 2.313-6.073V295h-15z"/>
        <path fill="#F7B6B0" d="M399.34 302a1.41 1.41 0 0 0-1.03.407 1.041 1.041 0 0 0-.287.951l.336 1.68c.104.56.665.97 1.318.962H400l-.66-4zM414.69 302c.387-.006.756.144 1.006.407s.353.613.282.951l-.329 1.68c-.102.56-.65.97-1.288.962H414l.69-4z"/>
        <path fill="#1F1C37" d="M399.115 302s1.28-.158 1.614-2.853c.333-2.694.986-2.635 2.886-2.279 1.9.356 8.666 3.017 11.639.586a4.576 4.576 0 0 0 1.26-5.645c-1.24-2.695-4.3-3.676-8.993-1.944-3.88 1.443-4.4-1.475-8.406 1.779-4.76 3.854 0 10.356 0 10.356z"/>
        <path fill="#1F1C37" d="M414.393 302s-1.056-.374-1.363-4.873c-.307-4.498 1.854-.55 1.902 0a11.21 11.21 0 0 1-.539 4.873zM413.977 306s-.805 2.566-2.319 2.95c-1.514.383-.425-.921-5.069-.893h-.089c-4.625 0-3.65 1.276-5.157.892-1.508-.383-2.319-2.949-2.319-2.949-.189 3.058.745 6.072 2.591 8.366 2.535 3.165 4.974 2.594 4.974 2.594.444.07 2.535.216 4.771-2.594 1.86-2.288 2.803-5.304 2.617-8.366z"/>
        <path fill="#F7B6B0" d="M409 311h-6s.53.976 2.974 1h.052c2.444-.015 2.974-1 2.974-1z"/>
        <path fill="#1F1C37" d="M409 310.837s.743 0 .112.604c-.632.604 1.917.875 1.888 0-.03-.875-1.048-1.417-1.442-1.44-.394-.024-.558.836-.558.836zM404 310.837s-.74 0-.111.604c.63.604-1.911.875-1.889 0 .022-.875 1.052-1.417 1.482-1.44.43-.024.518.836.518.836z"/>
        <path fill="#F2854E" d="M581.727 263s-5.52 1.975-11.25 11.983c-5.728 10.009-7.527 11.852-7.978 11.852-.451 0-21.844-5.61-21.844-5.61L539 286.81s15.965 8.342 22.747 9.1c6.782.756 11.445-3.188 16.566-11.372 5.12-8.184 3.414-21.537 3.414-21.537z"/>
        <path fill="#F7B6B0" d="M541 281.357s-2.806-5.844-5.086-5.324c-2.28.52 0 7.385 3.578 9.967l1.508-4.643zM621.744 404l2.256 4.055v1.999l-4.417.946-3.583-5.107z"/>
        <path fill="#1777AA" d="M581 347.178s5.269 21.748 16.996 40.002c11.727 18.254 16.564 21.331 18.067 21.794 1.504.462 9.805-5.336 9.936-5.944.13-.608-14.152-26.008-18.669-40.002-4.517-13.995-7.622-45.028-7.622-45.028L581 347.178z"/>
        <path fill="#FC3C87" d="M620.217 411.806l4.222-2.806s3.824 2.918 3.547 4.14c-.278 1.22-2.92 2.962-3.752 4.47-.833 1.51-2.642 4.04-5.556 4.26-2.913.218-4.306.344-3.408-1.172.9-1.515 3.891-2.436 4.307-5.135.308-2.067.64-3.757.64-3.757z"/>
        <path fill="#1F1C37" d="M569.35 234.028c-2.419 2.385-1.71 6.262 3.117 7.716C577.292 243.2 588.35 256 588.35 256a7.54 7.54 0 0 0 2.804-3.036c1.082-2.112 5.826-5.173 4.664-9.765-1.163-4.592-4.731-3.795-4.664-4.219.068-.423 1.237-4.515-2.575-6.773-3.812-2.258-6.934-.803-7.475 0-.54.803-8.867-1.025-11.753 1.821z"/>
        <path fill="#F7B6B0" d="M574.34 241.029s-.766 5.97 0 10.385 3.45 6.67 5.829 5.89c2.378-.781.36 5.465 5.049 4.617 4.69-.848 5.175-4.846 5.175-4.846s-1.938-3.837-1.172-5.56c.766-1.723 2.152-2.813 1.685-5.755-.466-2.94-2.91-1.346-3.37.155-.46 1.501-1.998 1.703-2.458-.935-.46-2.639.08-3.716-.993-3.951-1.072-.236-6.6 1.083-9.745 0zM566 409.645l-.162 6.557-3.47 1.798-3.368-1.798.574-9.202z"/>
        <path fill="#42A1CD" d="M573.342 317.882s-13.052 41.757-13.978 50.23c-.927 8.473-4.21 41.9-3.159 42.505 1.05.604 10.226 1.517 11.127 1.366.9-.15 10.069-37.368 13.704-45.98 3.635-8.61 19.238-31.916 17.88-45.23-1.357-13.315-25.574-2.89-25.574-2.89z"/>
        <path fill="#FF8C52" d="M582.045 263.283s-5.992 4.508-6.619 19.534c-.626 15.025-3.077 35.152-2.262 35.36.815.21 22.22 2.004 24.495 1.808.752-.106 1.51-.174 2.269-.202.62 0 4.807-40.072 3.959-46.779-.848-6.707-7.474-10.824-12.746-11.822-3.202-.565-6.501.197-9.096 2.101z"/>
        <path fill="#FFA171" d="M581.001 259.505s-.081 3.589 1.055 4.198c1.137.608 4.329.184 6.31-.39 3.035-.87 4.546-1.578 4.628-2.123.081-.545-.627-5.274-1.178-5.189-.551.085-2.273 1.14-5.799 2.124-3.525.984-5.016.977-5.016 1.38z"/>
        <path fill="#CE4676" d="M595.242 321.843c-1.594 1.872-5.213 1.425-8.078-.998l-50.694-42.692-.47-.395 5.769-6.758 51.164 43.08c2.898 2.423 3.91 5.898 2.309 7.763z"/>
        <path fill="#FC3C87" d="M559.51 415a50.36 50.36 0 0 1-5.98 2.12c-2.983.813-6.883 2.276-6.504 3.535.378 1.258 7.195 1.222 9.414.897a16.409 16.409 0 0 1 6.346.184c3.269.707 4.265 0 4.212-2.191a19.36 19.36 0 0 0-.764-4.503L559.51 415z"/>
        <path fill="#B53E68" d="M595 321.84c-1.573 1.877-5.145 1.43-7.971-1.003L537 278h6.803L595 321.84z"/>
        <path fill="#FC3C87" d="M539.403 223.14c-16.215-13.754-40.51-11.758-54.263 4.457-13.754 16.215-11.758 40.51 4.457 54.263 16.215 13.754 40.51 11.759 54.263-4.456a38.499 38.499 0 0 0-4.457-54.264zm-1.337 49.344a30.904 30.904 0 1 1-3.583-43.557 30.89 30.89 0 0 1 3.583 43.557z"/>
        <ellipse cx="514.086" cy="252.732" fill="#FFF" opacity=".33" rx="31.155" ry="31.129" transform="rotate(-21.35 514.086 252.732)"/>
        <path fill="#F7B6B0" d="M592.66 312s-4.669 4.016-5.993 4.845c-1.324.829-.64 2.103 1.72 2.154 2.361.051 7.613-3.5 7.613-3.5L592.66 312z"/>
        <path fill="#F2854E" d="M593.103 267s-1.83 11.509 9.915 29l.982-15.427L593.103 267z"/>
        <path fill="#FFA171" d="M591.183 268.876c.23 1.835 1.656 5.908 8.301 13.501 6.646 7.594 9.553 11.485 8.93 12.584-.621 1.1-17.414 17.185-17.414 17.484 0 .3 4.293 4.555 4.293 4.555s17.374-11.745 20.464-15.265c5.672-6.448 2.907-10.69-.73-17.184-3.638-6.494-13.521-19.631-19.214-20.458-5.692-.826-4.718 4.093-4.63 4.783z"/>
        <path fill="#E39E98" d="M580 257.013s1.911-.107 3.792-3.012c0 0 .468-.076 0 .905A5.912 5.912 0 0 1 580.77 258s-.485-1.038-.77-.987z"/>
        <path fill="#F7B6B0" d="M364 151.757s8-1.704 8 0c0 1.705-8 3.243-8 3.243v-3.243z"/>
        <path fill="#FF8450" d="M401 83c-8.837 0-16-7.163-16-16s7.163-16 16-16 16 7.163 16 16c-.007 8.834-7.166 15.993-16 16zm0-25.36a9.36 9.36 0 1 0 9.366 9.36A9.373 9.373 0 0 0 401 57.647v-.006zM51.087 387.695a20.065 20.065 0 0 1-17.898 9.054 20.06 20.06 0 0 1-16.795-10.962 20.032 20.032 0 0 1 1.103-20.014L5.583 358c-10.354 15.843-5.894 37.074 9.96 47.42C31.4 415.768 52.647 411.312 63 395.469l-11.913-7.773z"/>
    </g>
</svg>
