<svg xmlns="http://www.w3.org/2000/svg" width="96" height="87" viewBox="0 0 96 87">
    <defs>
        <linearGradient id="a" x1="50%" x2="50%" y1="0%" y2="100%">
            <stop offset="0%" stop-color="#DFDCFC"/>
            <stop offset="100%" stop-color="#DCF3FC"/>
        </linearGradient>
    </defs>
    <g fill="none" fill-rule="evenodd">
        <circle cx="43.5" cy="43.5" r="43.5" fill="url(#a)"/>
        <path fill="#DCF3FC" stroke="#3A3838" stroke-width="2" d="M49.415 55.293l7.423-1.066.31.193C60.862 56.734 65.318 58 70 58c12.179 0 22-8.54 22-19s-9.821-19-22-19-22 8.54-22 19c0 3.292.97 6.461 2.796 9.273l.235.362-1.616 6.658z"/>
        <text fill="#2396FF" font-family="ProximaNova-Bold, Proxima Nova" font-size="12" font-weight="bold" transform="translate(27 12)">
            <tspan x="29.538" y="32">VOIP</tspan>
        </text>
        <path fill="#FFF" fill-rule="nonzero" stroke="#3A3838" stroke-width="2" d="M69.036 70.429l-6.64-6.347c-1.323-1.259-3.514-1.22-4.883.088l-3.345 3.197-.66-.351c-2.113-1.12-5.005-2.653-8.047-5.562-3.052-2.917-4.658-5.684-5.832-7.705-.124-.214-.243-.42-.36-.616l2.245-2.143 1.104-1.056c1.37-1.31 1.409-3.403.089-4.666l-6.64-6.347c-1.32-1.261-3.512-1.223-4.883.088l-1.871 1.799.051.048a10.232 10.232 0 0 0-2.228 5.237c-.877 6.946 2.445 13.295 11.46 21.91C51.058 79.914 61.1 79.014 61.533 78.97a11.647 11.647 0 0 0 2.767-.665c.987-.368 1.91-.869 2.71-1.467l.042.035 1.896-1.775c1.368-1.31 1.407-3.403.088-4.668z"/>
        <path stroke="#3A3838" stroke-linecap="round" stroke-width="2" d="M79 16.173c7.142-.947 11.475 1.996 13 8.827M78 12.228C87.38 11.02 93.046 14.612 95 23"/>
        <path stroke="#2396FF" stroke-linecap="round" stroke-width="2" d="M72 64h17M72 68h9"/>
    </g>
</svg>
