<svg id="Layer_1" data-name="Layer 1" xmlns="http://www.w3.org/2000/svg" xmlns:xlink="http://www.w3.org/1999/xlink" width="806" height="611" viewBox="0 0 806 611"><defs><style>.cls-1,.cls-10,.cls-13,.cls-20,.cls-32{fill:#fff;}.cls-1{fill-rule:evenodd;}.cls-2{fill:url(#linear-gradient);}.cls-3{fill:#85b4c9;}.cls-4{fill:url(#linear-gradient-2);}.cls-5{fill:#91d6e2;}.cls-6{opacity:0.25;}.cls-7{fill:none;stroke:#fff;stroke-linecap:round;stroke-linejoin:round;stroke-width:1.13px;}.cls-8{fill:url(#linear-gradient-3);}.cls-34,.cls-9,.cls-91{fill:#373a5b;}.cls-52,.cls-9{opacity:0.1;}.cls-13,.cls-20,.cls-28,.cls-32,.cls-34,.cls-41,.cls-52,.cls-61,.cls-9,.cls-91{isolation:isolate;}.cls-11{fill:#fb8fb4;}.cls-12{fill:#d9eff3;}.cls-13,.cls-41,.cls-61,.cls-91{opacity:0.2;}.cls-14{fill:#99ff87;}.cls-15{fill:#41b0c3;}.cls-16{fill:#e0bef4;}.cls-17{fill:#f16c7b;}.cls-18{fill:url(#linear-gradient-4);}.cls-19{fill:url(#linear-gradient-5);}.cls-20{opacity:0.4;}.cls-21{clip-path:url(#clip-path);}.cls-22{mask:url(#mask);}.cls-23{fill:#d8e8f8;}.cls-24{clip-path:url(#clip-path-2);}.cls-25{mask:url(#mask-2);}.cls-26{fill:url(#linear-gradient-7);}.cls-27{mask:url(#mask-3-2);}.cls-28{fill:#151731;}.cls-28,.cls-34{opacity:0.3;}.cls-29{mask:url(#mask-4);}.cls-30{fill:url(#linear-gradient-8);}.cls-31{mask:url(#mask-5-2);}.cls-32{opacity:0.5;}.cls-33{mask:url(#mask-6);}.cls-35{mask:url(#mask-12);}.cls-36{mask:url(#mask-13);}.cls-37{mask:url(#mask-15);}.cls-38{fill:url(#linear-gradient-9);}.cls-39{fill:url(#linear-gradient-10);}.cls-40{mask:url(#mask-16);}.cls-41{fill:#da433d;}.cls-42{fill:url(#linear-gradient-11);}.cls-43{mask:url(#mask-17);}.cls-44{fill:url(#linear-gradient-12);}.cls-45{mask:url(#mask-18-2);}.cls-46{fill:url(#linear-gradient-13);}.cls-47{mask:url(#mask-19);}.cls-48{mask:url(#mask-20-2);}.cls-49{fill:#f8fdff;}.cls-50{fill:#ff769a;}.cls-51{fill:#e4e6e9;}.cls-52{fill:#37cedb;}.cls-53{fill:url(#linear-gradient-14);}.cls-54{fill:url(#linear-gradient-15);}.cls-55{mask:url(#mask-25);}.cls-56{mask:url(#mask-27);}.cls-57{fill:url(#linear-gradient-16);}.cls-58{mask:url(#mask-28);}.cls-59{fill:url(#linear-gradient-17);}.cls-60{mask:url(#mask-29);}.cls-61{fill:#50211f;}.cls-62{fill:url(#linear-gradient-18);}.cls-63{mask:url(#mask-30);}.cls-64{fill:url(#linear-gradient-19);}.cls-65{mask:url(#mask-31);}.cls-66{fill:url(#linear-gradient-20);}.cls-67{mask:url(#mask-32);}.cls-68{fill:url(#linear-gradient-21);}.cls-69{mask:url(#mask-33);}.cls-70{fill:url(#linear-gradient-22);}.cls-71{mask:url(#mask-34);}.cls-72{mask:url(#mask-35);}.cls-73{mask:url(#mask-36);}.cls-74{mask:url(#mask-40);}.cls-75{mask:url(#mask-41);}.cls-76{fill:url(#linear-gradient-23);}.cls-77{fill:url(#linear-gradient-24);}.cls-78{fill:url(#linear-gradient-25);}.cls-79{fill:url(#linear-gradient-26);}.cls-80{fill:url(#linear-gradient-27);}.cls-81{mask:url(#mask-42);}.cls-82{fill:url(#linear-gradient-28);}.cls-83{fill:url(#linear-gradient-29);}.cls-84{fill:#35b0e2;}.cls-85{fill:#bedef9;}.cls-86{fill:url(#linear-gradient-30);}.cls-87{fill:url(#linear-gradient-31);}.cls-88{fill:url(#linear-gradient-32);}.cls-89{fill:url(#linear-gradient-33);}.cls-90{mask:url(#mask-43);}.cls-92{fill:url(#linear-gradient-34);}.cls-93{mask:url(#mask-44);}.cls-94{fill:url(#linear-gradient-35);}.cls-95{fill:url(#linear-gradient-36);}.cls-96{fill:url(#linear-gradient-37);}.cls-97{mask:url(#mask-45);}.cls-98{fill:url(#linear-gradient-38);}.cls-99{mask:url(#mask-47);}.cls-100{mask:url(#mask-48);}.cls-101{fill:url(#linear-gradient-39);}.cls-102{fill:url(#linear-gradient-40);}.cls-103{fill:url(#linear-gradient-41);}.cls-104{opacity:0.3;}.cls-105{fill:#e6e6e6;}.cls-106{fill:url(#linear-gradient-42);}.cls-107{fill:url(#linear-gradient-43);}.cls-108{fill:#4d4d4d;}</style><linearGradient id="linear-gradient" x1="144.43" y1="553.91" x2="186.25" y2="553.91" gradientUnits="userSpaceOnUse"><stop offset="0" stop-color="#8bc1ce"/><stop offset="1" stop-color="#6974b1"/></linearGradient><linearGradient id="linear-gradient-2" x1="-3092.59" y1="1058.39" x2="-2310.03" y2="1058.39" gradientTransform="matrix(1, -0.01, -0.01, -1, 3109.75, 1346.2)" gradientUnits="userSpaceOnUse"><stop offset="0" stop-color="#f5f6f7" stop-opacity="0.5"/><stop offset="1" stop-color="#f5f6f7"/></linearGradient><linearGradient id="linear-gradient-3" x1="-2216.98" y1="371.52" x2="-2221.24" y2="362.74" gradientTransform="matrix(76.94, 0, 0, -51.02, 171175.04, 18985.83)" gradientUnits="userSpaceOnUse"><stop offset="0" stop-color="#ff90d7"/><stop offset="1" stop-color="#906efa"/></linearGradient><linearGradient id="linear-gradient-4" x1="-2210.55" y1="359.6" x2="-2211.17" y2="358.6" gradientTransform="matrix(57.5, 0, 0, -44.17, 127351.25, 16400.81)" gradientUnits="userSpaceOnUse"><stop offset="0" stop-color="#ffb782"/><stop offset="1" stop-color="#eb4878"/></linearGradient><linearGradient id="linear-gradient-5" x1="-2210.74" y1="347.91" x2="-2211.07" y2="346.37" gradientTransform="matrix(57.5, 0, 0, -27, 127351.25, 9911.81)" gradientUnits="userSpaceOnUse"><stop offset="0" stop-color="#ffc5a2"/><stop offset="1" stop-color="#fa96b9" stop-opacity="0.51"/></linearGradient><clipPath id="clip-path"><path class="cls-2" d="M163.87,546q1.81,7.37,12.8,7.93t9.37,7.93H149.3c-4,0-5.56-1.47-4.59-4.41l3-11.45Z"/></clipPath><mask id="mask" x="140.68" y="545.98" width="49.76" height="16.24" maskUnits="userSpaceOnUse"><g id="mask-3"><path id="path-2" class="cls-1" d="M167,546q-2,7.37-14.44,7.93T142,561.84h41.43q6.84,0,5.18-4.41L185.15,546Z"/></g></mask><clipPath id="clip-path-2"><path class="cls-3" d="M106.65,546a25.66,25.66,0,0,0,7.11,7.93c4.67,3.52,2.89,7.93.34,7.93H87.9q-6.06,0-4.59-4.41L90.52,546Z"/></clipPath><mask id="mask-2" x="81.74" y="545.32" width="45.65" height="17.3" maskUnits="userSpaceOnUse"><g id="mask-5"><path id="path-4" class="cls-1" d="M93,545.32a27,27,0,0,1-7.57,8.45c-5,3.75-3.08,8.45-.36,8.45h27.91q6.45,0,4.89-4.7l-7.69-12.2Z"/></g></mask><linearGradient id="linear-gradient-7" x1="-2145.82" y1="1179.71" x2="-2147.1" y2="1178.86" gradientTransform="matrix(83.79, 0, 0, -165.63, 179986.27, 195784.03)" gradientUnits="userSpaceOnUse"><stop offset="0" stop-color="#3067ac"/><stop offset="1" stop-color="#4e679a"/></linearGradient><mask id="mask-3-2" x="89.24" y="376.35" width="83.79" height="170.88" maskUnits="userSpaceOnUse"><g id="mask-8"><path id="path-7" class="cls-1" d="M116.65,381.6C104,441.88,109.58,437.28,103.26,474c-1.42,8.25-9.51,50.67-12.78,63.86-.78,3.13-3,8.44,1.39,8.89s12.44.5,15,.5,3.64-5.3,4.63-7.89q6.47-16.87,30.7-113.48a353.58,353.58,0,0,1,5.57,109.7c-.37,3.53-1.54,11.17.41,11.17s15.25.5,16.71.5,2-8.38,3.42-17.44,3.06-20.72,4.16-53.43q1.09-32.72,0-94.76Z"/></g></mask><mask id="mask-4" x="89.24" y="381.6" width="83.79" height="165.63" maskUnits="userSpaceOnUse"><g id="mask-8-2" data-name="mask-8"><path id="path-7-2" data-name="path-7" class="cls-1" d="M116.65,381.6C104,441.88,109.58,437.28,103.26,474c-1.42,8.25-9.51,50.67-12.78,63.86-.78,3.13-3,8.44,1.39,8.89s12.44.5,15,.5,3.64-5.3,4.63-7.89q6.47-16.87,30.7-113.48a353.58,353.58,0,0,1,5.57,109.7c-.37,3.53-1.54,11.17.41,11.17s15.25.5,16.71.5,2-8.38,3.42-17.44,3.06-20.72,4.16-53.43q1.09-32.72,0-94.76Z"/></g></mask><linearGradient id="linear-gradient-8" x1="-2148.77" y1="1175.41" x2="-2148.04" y2="1176.37" gradientTransform="matrix(90.41, 0, 0, -115.82, 194383.23, 136518.43)" gradientUnits="userSpaceOnUse"><stop offset="0" stop-color="#39abc5"/><stop offset="1" stop-color="#a8eb9d"/></linearGradient><mask id="mask-5-2" x="90.71" y="291.75" width="90.41" height="115.82" maskUnits="userSpaceOnUse"><g id="mask-11"><path id="path-10" class="cls-1" d="M159.87,294.25c-7.19-2.29-26.48-3.86-43-.81q-7.86,1.44-12.22,6.4a167.07,167.07,0,0,0-14,16.48,136.86,136.86,0,0,0,18,15.33,42.45,42.45,0,0,1,4.63-3.77q3.53,27.57,3.57,36c0,8.24-3.52,23.57-3.49,24.56.09,3-5.72,17.73-3.43,17.73,34.46,3.86,33-1.34,64.75-1.34,2.87,0,0-10.07-1.06-18q-1.07-7.92-4.41-52.39l11.87-15.64-11.87-18.06Q167.06,296.55,159.87,294.25Z"/></g></mask><mask id="mask-6" x="83.43" y="291.75" width="112.14" height="115.82" maskUnits="userSpaceOnUse"><g id="mask-11-2" data-name="mask-11"><path id="path-10-2" data-name="path-10" class="cls-1" d="M159.87,294.25c-7.19-2.29-26.48-3.86-43-.81q-7.86,1.44-12.22,6.4a167.07,167.07,0,0,0-14,16.48,136.86,136.86,0,0,0,18,15.33,42.45,42.45,0,0,1,4.63-3.77q3.53,27.57,3.57,36c0,8.24-3.52,23.57-3.49,24.56.09,3-5.72,17.73-3.43,17.73,34.46,3.86,33-1.34,64.75-1.34,2.87,0,0-10.07-1.06-18q-1.07-7.92-4.41-52.39l11.87-15.64-11.87-18.06Q167.06,296.55,159.87,294.25Z"/></g></mask><mask id="mask-12" x="90.71" y="291.75" width="104.87" height="115.82" maskUnits="userSpaceOnUse"><g id="mask-11-9" data-name="mask-11"><path id="path-10-8" data-name="path-10" class="cls-1" d="M159.87,294.25c-7.19-2.29-26.48-3.86-43-.81q-7.86,1.44-12.22,6.4a167.07,167.07,0,0,0-14,16.48,136.86,136.86,0,0,0,18,15.33,42.45,42.45,0,0,1,4.63-3.77q3.53,27.57,3.57,36c0,8.24-3.52,23.57-3.49,24.56.09,3-5.72,17.73-3.43,17.73,34.46,3.86,33-1.34,64.75-1.34,2.87,0,0-10.07-1.06-18q-1.07-7.92-4.41-52.39l11.87-15.64-11.87-18.06Q167.06,296.55,159.87,294.25Z"/></g></mask><mask id="mask-13" x="90.71" y="284.1" width="90.41" height="123.46" maskUnits="userSpaceOnUse"><g id="mask-11-10" data-name="mask-11"><path id="path-10-9" data-name="path-10" class="cls-1" d="M159.87,294.25c-7.19-2.29-26.48-3.86-43-.81q-7.86,1.44-12.22,6.4a167.07,167.07,0,0,0-14,16.48,136.86,136.86,0,0,0,18,15.33,42.45,42.45,0,0,1,4.63-3.77q3.53,27.57,3.57,36c0,8.24-3.52,23.57-3.49,24.56.09,3-5.72,17.73-3.43,17.73,34.46,3.86,33-1.34,64.75-1.34,2.87,0,0-10.07-1.06-18q-1.07-7.92-4.41-52.39l11.87-15.64-11.87-18.06Q167.06,296.55,159.87,294.25Z"/></g></mask><mask id="mask-15" x="90.71" y="291.75" width="127.01" height="115.82" maskUnits="userSpaceOnUse"><g id="mask-11-12" data-name="mask-11"><path id="path-10-11" data-name="path-10" class="cls-1" d="M159.87,294.25c-7.19-2.29-26.48-3.86-43-.81q-7.86,1.44-12.22,6.4a167.07,167.07,0,0,0-14,16.48,136.86,136.86,0,0,0,18,15.33,42.45,42.45,0,0,1,4.63-3.77q3.53,27.57,3.57,36c0,8.24-3.52,23.57-3.49,24.56.09,3-5.72,17.73-3.43,17.73,34.46,3.86,33-1.34,64.75-1.34,2.87,0,0-10.07-1.06-18q-1.07-7.92-4.41-52.39l11.87-15.64-11.87-18.06Q167.06,296.55,159.87,294.25Z"/></g></mask><linearGradient id="linear-gradient-9" x1="-2102.65" y1="1144.01" x2="-2101.71" y2="1145.08" gradientTransform="matrix(31.65, 0, 0, -31.62, 66678.01, 36458.79)" gradientUnits="userSpaceOnUse"><stop offset="0" stop-color="#ffa77b"/><stop offset="1" stop-color="#ffe6ca"/></linearGradient><linearGradient id="linear-gradient-10" x1="-2031.34" y1="1123.52" x2="-2031.94" y2="1122.65" gradientTransform="matrix(15.87, 0, 0, -21.25, 32380.85, 24161.03)" gradientUnits="userSpaceOnUse"><stop offset="0" stop-color="#f68585"/><stop offset="1" stop-color="#ff9b92"/></linearGradient><mask id="mask-16" x="129.96" y="278.83" width="22.38" height="21.25" maskUnits="userSpaceOnUse"><g id="mask-15-2" data-name="mask-15"><path id="path-14" class="cls-1" d="M130,291.75q9.54,8.33,13,8.33t2.67-8.33L144.55,285l-11.92-6.2Z"/></g></mask><linearGradient id="linear-gradient-11" x1="-2088.54" y1="1133.07" x2="-2087.76" y2="1133.94" gradientTransform="matrix(26.38, 0, 0, -25.33, 55235.36, 28991.36)" gradientUnits="userSpaceOnUse"><stop offset="0" stop-color="#ff9292"/><stop offset="1" stop-color="#ffb59d"/></linearGradient><mask id="mask-17" x="128.32" y="262.02" width="26.38" height="27.29" maskUnits="userSpaceOnUse"><g id="mask-18"><path id="path-17" class="cls-1" d="M152.34,264q2.66,7,2.33,9.86c-1.2,10.31-3.61,15.47-7,15.47-6.49,0-13.58-3.32-15.21-10.29l-.06-.23a4,4,0,0,1-.5,0,3.59,3.59,0,1,1,3-5.58C135.26,273.41,147.74,273.91,152.34,264Z"/></g></mask><linearGradient id="linear-gradient-12" x1="-2134.5" y1="1162.04" x2="-2133.71" y2="1162.91" gradientTransform="matrix(57.07, 0, 0, -54.74, 121987.18, 63959.93)" xlink:href="#linear-gradient-11"/><mask id="mask-18-2" x="166.36" y="296.19" width="59.96" height="59.75" maskUnits="userSpaceOnUse"><g id="mask-20"><path id="path-19" class="cls-1" d="M197.54,346.89c-2.45,3.91-7.2,5.6-12.14,2.22L169.48,337.7l-.23-3.3,11.25-14.9,7.94,10.05,16.31-21.33.1.12c0-.19-.06-.39-.1-.59q.83-5,4.1-7.25c3.26-2.22,4.39-5.05,5.57-3.63.78.94.37,2.58-1.24,4.9q8,0,9.73-3.49c1.08-2.19,3.34-2.67,3.41-1.41,0,.76-2.3,4.6-2.54,5.4-.63,2.14-.17,3.17-4.42,5.48a26.31,26.31,0,0,0-8.27,7.75l-.21.05Q201.21,341.05,197.54,346.89Z"/></g></mask><linearGradient id="linear-gradient-13" x1="-2128.57" y1="1167.06" x2="-2127.78" y2="1167.93" gradientTransform="matrix(49.66, 0, 0, -68.67, 105776.41, 80530.22)" xlink:href="#linear-gradient-11"/><mask id="mask-19" x="79.52" y="316.62" width="49.66" height="70.11" maskUnits="userSpaceOnUse"><g id="mask-22"><path id="path-21" class="cls-1" d="M104.92,378.21,82.5,347.78c-5.18-5.69-2.68-12.27.52-17.21a115.46,115.46,0,0,1,9.41-12.5q10.36,9.14,14.77,12.5L96.53,341.14l17,30.42,0,0,2.9.44-.16,1.68c-.12.88.2,2,1.26,2s5.75,0,6.84.4a33.71,33.71,0,0,1,4.76,2.83c-.23.93-2.44.79-3.66-.31a4.79,4.79,0,0,0-2.46-.85,54.76,54.76,0,0,0,3.68,4.19c.55.6-2.69.42-1.85,1.77,1.26,2-2.55,1-2.11,2.35.6,1.79-2.31-.35-3.91-1.62s-3.41,2-7.27.22Q110.48,384.14,104.92,378.21Z"/></g></mask><mask id="mask-20-2" x="321.68" y="233.07" width="166.32" height="148.58" maskUnits="userSpaceOnUse"><g id="mask-2-2" data-name="mask-2"><path id="path-1" class="cls-1" d="M330.55,233.07H479.13a8.87,8.87,0,0,1,8.87,8.87V372.79a8.87,8.87,0,0,1-8.87,8.87H330.55a8.87,8.87,0,0,1-8.87-8.87V241.94A8.87,8.87,0,0,1,330.55,233.07Z"/></g></mask><linearGradient id="linear-gradient-14" x1="-2290.82" y1="406.18" x2="-2291.25" y2="407.04" gradientTransform="matrix(117.05, 0, 0, -36.23, 268551.86, 15005.99)" gradientUnits="userSpaceOnUse"><stop offset="0" stop-color="#37cedb"/><stop offset="1" stop-color="#3488ed"/></linearGradient><linearGradient id="linear-gradient-15" x1="-2199.18" y1="357.34" x2="-2197.91" y2="358.99" gradientTransform="matrix(53.15, 0, 0, -26, 117555.5, 9526.8)" xlink:href="#linear-gradient-8"/><mask id="mask-25" x="666.85" y="193.26" width="69.15" height="33.83" maskUnits="userSpaceOnUse"><g id="mask-3-3" data-name="mask-3"><path id="path-2-2" data-name="path-2" class="cls-1" d="M728.84,227.08H674a7.15,7.15,0,0,0-7.15-7.15V200.41a7.15,7.15,0,0,0,7.15-7.15h54.84a7.16,7.16,0,0,0,7.16,7.15v19.52A7.16,7.16,0,0,0,728.84,227.08Z"/></g></mask><mask id="mask-27" x="666.85" y="189.7" width="69.15" height="44.23" maskUnits="userSpaceOnUse"><g id="mask-3-5" data-name="mask-3"><path id="path-2-4" data-name="path-2" class="cls-1" d="M728.84,227.08H674a7.15,7.15,0,0,0-7.15-7.15V200.41a7.15,7.15,0,0,0,7.15-7.15h54.84a7.16,7.16,0,0,0,7.16,7.15v19.52A7.16,7.16,0,0,0,728.84,227.08Z"/></g></mask><linearGradient id="linear-gradient-16" x1="-2106.18" y1="1175.6" x2="-2104.51" y2="1176.12" gradientTransform="matrix(41.42, 0, 0, -118.46, 87918.14, 139805.54)" xlink:href="#linear-gradient-11"/><mask id="mask-28" x="666.72" y="458.52" width="56" height="124.37" maskUnits="userSpaceOnUse"><g id="mask-3-6" data-name="mask-3"><path id="path-2-5" data-name="path-2" class="cls-1" d="M714.27,505.27c4.05,33.43-2.28,40.91,0,55.5l2.72,18.6c1,3.07-2.45,2.48-6.65,2.48l-.68-8.87q-2.89,8.47-6.68,8.48H678c-4.27,0-5.19-2.89-1.48-4.31,5.71-2.17,10.66-4,14.35-6.07a14.49,14.49,0,0,0,7.42-10.31q-4.81-57.94-4.82-67t-1.25-35.22h25.13C714.89,476.66,712.88,493.8,714.27,505.27Z"/></g></mask><linearGradient id="linear-gradient-17" x1="-2120.64" y1="1124.81" x2="-2121.59" y2="1123.8" gradientTransform="matrix(53.77, 0, 0, -21.92, 114759.52, 25218.23)" gradientUnits="userSpaceOnUse"><stop offset="0" stop-color="#ff8299"/><stop offset="1" stop-color="#cc2b32"/></linearGradient><mask id="mask-29" x="674.21" y="458.52" width="43.14" height="123.37" maskUnits="userSpaceOnUse"><g id="mask-3-7" data-name="mask-3"><path id="path-2-6" data-name="path-2" class="cls-1" d="M714.27,505.27c4.05,33.43-2.28,40.91,0,55.5l2.72,18.6c1,3.07-2.45,2.48-6.65,2.48l-.68-8.87q-2.89,8.47-6.68,8.48H678c-4.27,0-5.19-2.89-1.48-4.31,5.71-2.17,10.66-4,14.35-6.07a14.49,14.49,0,0,0,7.42-10.31q-4.81-57.94-4.82-67t-1.25-35.22h25.13C714.89,476.66,712.88,493.8,714.27,505.27Z"/></g></mask><linearGradient id="linear-gradient-18" x1="-2110.23" y1="1175.87" x2="-2108.55" y2="1176.4" gradientTransform="matrix(44.04, 0, 0, -121.38, 93572.61, 143274.84)" xlink:href="#linear-gradient-11"/><mask id="mask-30" x="645.46" y="455.41" width="56" height="127.41" maskUnits="userSpaceOnUse"><g id="mask-6-2" data-name="mask-6"><path id="path-5" class="cls-1" d="M683.58,502.87c6.87,35.92,4,43.25,6.33,57.83l2.72,18.61c1,3.06-2.45,2.48-6.65,2.48l-.68-8.87q-2.89,8.48-6.68,8.48h-25c-4.27,0-5.19-2.9-1.48-4.31,5.71-2.18,10.66-4,14.35-6.08a14.47,14.47,0,0,0,7.42-10.31c-6.07-38.78-11.87-56.06-11.87-62.12q0-6.12,1.39-34.66l32.26-8.51C687.71,474.36,681.51,492.07,683.58,502.87Z"/></g></mask><linearGradient id="linear-gradient-19" x1="-2120.65" y1="1124.81" x2="-2121.61" y2="1123.8" gradientTransform="matrix(53.77, 0, 0, -21.92, 114739.1, 25218.17)" xlink:href="#linear-gradient-17"/><mask id="mask-31" x="649.85" y="455.41" width="45.86" height="126.42" maskUnits="userSpaceOnUse"><g id="mask-6-3" data-name="mask-6"><path id="path-5-2" data-name="path-5" class="cls-1" d="M683.58,502.87c6.87,35.92,4,43.25,6.33,57.83l2.72,18.61c1,3.06-2.45,2.48-6.65,2.48l-.68-8.87q-2.89,8.48-6.68,8.48h-25c-4.27,0-5.19-2.9-1.48-4.31,5.71-2.18,10.66-4,14.35-6.08a14.47,14.47,0,0,0,7.42-10.31c-6.07-38.78-11.87-56.06-11.87-62.12q0-6.12,1.39-34.66l32.26-8.51C687.71,474.36,681.51,492.07,683.58,502.87Z"/></g></mask><linearGradient id="linear-gradient-20" x1="-2128.3" y1="1172.17" x2="-2129.63" y2="1171.28" gradientTransform="matrix(63.3, 0, 0, -87.13, 135471.1, 102518.98)" gradientUnits="userSpaceOnUse"><stop offset="0" stop-color="#404683"/><stop offset="1" stop-color="#373a5b"/></linearGradient><mask id="mask-32" x="655.78" y="385" width="69.23" height="90.75" maskUnits="userSpaceOnUse"><g id="mask-9-2" data-name="mask-9"><path id="path-8" class="cls-1" d="M722.83,396.46c5.92,19.79-2.56,67.5-2.56,74.31s-54.49,6.46-61.27,0q2.12-65.44,5.34-74.81C667.58,386.58,716.92,376.67,722.83,396.46Z"/></g></mask><linearGradient id="linear-gradient-21" x1="-2060.01" y1="1100.53" x2="-2059.19" y2="1101.44" gradientTransform="matrix(24.67, 0, 0, -15.94, 51527.75, 17927.93)" xlink:href="#linear-gradient-11"/><mask id="mask-33" x="703.53" y="370.36" width="28.13" height="18.95" maskUnits="userSpaceOnUse"><g id="mask-12-2" data-name="mask-12"><path id="path-11" class="cls-1" d="M729.23,379.1q-6.22,7.5-7.39,8c-4,1.85-5.91-1.55-7.58-.23s-4.69,3.56-4.06,1.68c.45-1.36-3.51-.35-2.2-2.45.87-1.4-2.51-1.21-1.93-1.84s3.31-3.49,3.83-4.35a4.82,4.82,0,0,0-2.56.87c-1.27,1.15-3.57,1.3-3.81.33a35.87,35.87,0,0,1,5-2.95c.76-.29,2.69-1.69,5.78-4.22l7.58-1.27A27,27,0,0,0,729.23,379.1Z"/></g></mask><linearGradient id="linear-gradient-22" x1="-1991.81" y1="1109.96" x2="-1990.99" y2="1110.87" gradientTransform="matrix(15.42, 0, 0, -17.91, 31378.06, 20303.4)" xlink:href="#linear-gradient-11"/><mask id="mask-34" x="655.16" y="407.26" width="18.78" height="18.65" maskUnits="userSpaceOnUse"><g id="mask-14-2" data-name="mask-14"><path id="path-13" class="cls-1" d="M660.34,408.35q-6.42,7.95-4.88,11.94c1.54,4,9.25,8.72,13.13,2.92,1.19-1.77.3-2.5-2.69-2.18,1-1.07,1.18-.85,3.4-3.28,2.89-3.16,1-4.73,1.79-7.51Q672.44,405.47,660.34,408.35Z"/></g></mask><mask id="mask-35" x="659" y="301.68" width="92.26" height="110.06" maskUnits="userSpaceOnUse"><g id="mask-17-2" data-name="mask-17"><path id="path-16" class="cls-1" d="M684.33,303.77c14.61-4.06,24.72-1.25,28.6.44a45.46,45.46,0,0,1,10.73,7.1c8,6.54,20.09,20.1,24.49,26.82s3.66,15.33.7,19.49c-.7,1-18.72,20.68-19.82,22.18a29.62,29.62,0,0,1-8.17-6.89c1.07-1.07,8.55-14.46,14.6-24.68-2.41-2.16-7.36-6.31-16.86-14.7Q715,358.45,715,367.17c0,8.58,1.86,7.55,8.65,30.16A130.83,130.83,0,0,1,674,400L671.67,411Q663.2,413.13,659,409c7-42.27,1.91-63.76,7-87.48C668.82,308.47,680.89,304.73,684.33,303.77Z"/></g></mask><mask id="mask-36" x="659" y="300.12" width="92.26" height="111.62" maskUnits="userSpaceOnUse"><g id="mask-17-3" data-name="mask-17"><path id="path-16-2" data-name="path-16" class="cls-1" d="M684.33,303.77c14.61-4.06,24.72-1.25,28.6.44a45.46,45.46,0,0,1,10.73,7.1c8,6.54,20.09,20.1,24.49,26.82s3.66,15.33.7,19.49c-.7,1-18.72,20.68-19.82,22.18a29.62,29.62,0,0,1-8.17-6.89c1.07-1.07,8.55-14.46,14.6-24.68-2.41-2.16-7.36-6.31-16.86-14.7Q715,358.45,715,367.17c0,8.58,1.86,7.55,8.65,30.16A130.83,130.83,0,0,1,674,400L671.67,411Q663.2,413.13,659,409c7-42.27,1.91-63.76,7-87.48C668.82,308.47,680.89,304.73,684.33,303.77Z"/></g></mask><mask id="mask-40" x="658.44" y="301.68" width="92.82" height="110.06" maskUnits="userSpaceOnUse"><g id="mask-17-7" data-name="mask-17"><path id="path-16-6" data-name="path-16" class="cls-1" d="M684.33,303.77c14.61-4.06,24.72-1.25,28.6.44a45.46,45.46,0,0,1,10.73,7.1c8,6.54,20.09,20.1,24.49,26.82s3.66,15.33.7,19.49c-.7,1-18.72,20.68-19.82,22.18a29.62,29.62,0,0,1-8.17-6.89c1.07-1.07,8.55-14.46,14.6-24.68-2.41-2.16-7.36-6.31-16.86-14.7Q715,358.45,715,367.17c0,8.58,1.86,7.55,8.65,30.16A130.83,130.83,0,0,1,674,400L671.67,411Q663.2,413.13,659,409c7-42.27,1.91-63.76,7-87.48C668.82,308.47,680.89,304.73,684.33,303.77Z"/></g></mask><mask id="mask-41" x="659" y="295.23" width="92.26" height="116.51" maskUnits="userSpaceOnUse"><g id="mask-17-8" data-name="mask-17"><path id="path-16-7" data-name="path-16" class="cls-1" d="M684.33,303.77c14.61-4.06,24.72-1.25,28.6.44a45.46,45.46,0,0,1,10.73,7.1c8,6.54,20.09,20.1,24.49,26.82s3.66,15.33.7,19.49c-.7,1-18.72,20.68-19.82,22.18a29.62,29.62,0,0,1-8.17-6.89c1.07-1.07,8.55-14.46,14.6-24.68-2.41-2.16-7.36-6.31-16.86-14.7Q715,358.45,715,367.17c0,8.58,1.86,7.55,8.65,30.16A130.83,130.83,0,0,1,674,400L671.67,411Q663.2,413.13,659,409c7-42.27,1.91-63.76,7-87.48C668.82,308.47,680.89,304.73,684.33,303.77Z"/></g></mask><linearGradient id="linear-gradient-23" x1="-2099.3" y1="1153.43" x2="-2100.6" y2="1153.79" gradientTransform="matrix(38.39, 0, 0, -40.7, 81327.95, 47249.93)" xlink:href="#linear-gradient-11"/><linearGradient id="linear-gradient-24" x1="-2093.41" y1="1148.09" x2="-2092.44" y2="1148.91" gradientTransform="matrix(35, 0, 0, -35, 73956.85, 40468.79)" gradientUnits="userSpaceOnUse"><stop offset="0" stop-color="#321847"/><stop offset="1" stop-color="#834a88"/></linearGradient><linearGradient id="linear-gradient-25" x1="-2007.83" y1="1103.53" x2="-2008.47" y2="1102.49" gradientTransform="matrix(17, 0, 0, -16.25, 34841.98, 18198.84)" xlink:href="#linear-gradient-4"/><linearGradient id="linear-gradient-26" x1="-2008.34" y1="1102.88" x2="-2007.37" y2="1103.7" gradientTransform="matrix(17, 0, 0, -16.25, 34844.12, 18196.81)" xlink:href="#linear-gradient-24"/><linearGradient id="linear-gradient-27" x1="-2129.76" y1="1161.67" x2="-2129.76" y2="1160.63" gradientTransform="matrix(64.24, 0, 0, -52.27, 137494.66, 61098.76)" gradientUnits="userSpaceOnUse"><stop offset="0" stop-color="#a3eded"/><stop offset="1" stop-color="#9fcfff"/></linearGradient><mask id="mask-42" x="635.78" y="373.77" width="66.91" height="54.59" maskUnits="userSpaceOnUse"><g id="mask-23-2" data-name="mask-23"><path id="path-22" class="cls-1" d="M665.47,421.18c3-2.54,4.71-4.53,5-6a13.57,13.57,0,0,0,.35-3.95l.83-.22q4.25-20.39,5.66-30.1l25.36,6.6-12.43,40.81Zm-3-43.46A233.55,233.55,0,0,1,659,409l.56.52q-4.1,5.16-4.36,8.94l-19.38-4.87,10.12-39.64Z"/></g></mask><linearGradient id="linear-gradient-28" x1="-2211.96" y1="370.06" x2="-2211.27" y2="370.95" gradientTransform="matrix(64, 0, 0, -70.37, 142002.58, 26296.13)" gradientUnits="userSpaceOnUse"><stop offset="0" stop-color="#efb990"/><stop offset="1" stop-color="#d566a1"/></linearGradient><linearGradient id="linear-gradient-29" x1="-2206.59" y1="369.74" x2="-2206.28" y2="370.33" gradientTransform="matrix(56.95, 0, 0, -65, 126123.27, 24273.5)" gradientUnits="userSpaceOnUse"><stop offset="0" stop-color="#d4c4ff"/><stop offset="1" stop-color="#e4f6ff"/></linearGradient><linearGradient id="linear-gradient-30" x1="-2212.02" y1="366.36" x2="-2211.32" y2="367.28" gradientTransform="matrix(64, 0, 0, -45.16, 142002.58, 16794.81)" gradientUnits="userSpaceOnUse"><stop offset="0" stop-color="#ffcfaa"/><stop offset="1" stop-color="#fa6eb9" stop-opacity="0.6"/></linearGradient><linearGradient id="linear-gradient-31" x1="-2069.16" y1="1147.16" x2="-2068.49" y2="1147.91" gradientTransform="translate(-54788.44 41788.32) rotate(180) scale(26.68 36.1)" xlink:href="#linear-gradient-11"/><linearGradient id="linear-gradient-32" x1="-2095.83" y1="1143.27" x2="-2095.04" y2="1143.94" gradientTransform="translate(-74812.57 37739.49) rotate(180) scale(35.89 32.7)" xlink:href="#linear-gradient-24"/><linearGradient id="linear-gradient-33" x1="-2107.08" y1="1100.16" x2="-2106.35" y2="1098.74" gradientTransform="translate(-87674.92 18031.5) rotate(180) scale(41.82 15.87)" gradientUnits="userSpaceOnUse"><stop offset="0" stop-color="#ce8ba0"/><stop offset="1" stop-color="#875151"/></linearGradient><mask id="mask-43" x="404.42" y="582.44" width="35.69" height="13.56" maskUnits="userSpaceOnUse"><g id="mask-5-3" data-name="mask-5"><path id="path-4-2" data-name="path-4" class="cls-1" d="M421,582.44q1.55,6.3,10.92,6.77t8,6.77H408.58c-3.45,0-4.75-1.26-3.92-3.77l2.58-9.77Z"/></g></mask><linearGradient id="linear-gradient-34" x1="-2257.04" y1="1100.14" x2="-2256.31" y2="1098.72" gradientTransform="matrix(33.64, 0, 0, -15.87, 76300.68, 18031.5)" xlink:href="#linear-gradient-33"/><mask id="mask-44" x="371.63" y="582.44" width="28.71" height="13.56" maskUnits="userSpaceOnUse"><g id="mask-7-2" data-name="mask-7"><path id="path-6" class="cls-1" d="M391.8,582.44a21.64,21.64,0,0,0,6.07,6.77c4,3,2.46,6.77.28,6.77H375.79q-5.16,0-3.92-3.77l6.16-9.77Z"/></g></mask><linearGradient id="linear-gradient-35" x1="-2043.86" y1="1113.09" x2="-2043.19" y2="1113.84" gradientTransform="translate(-43607.69 22002.7) rotate(180) scale(21.57 19.42)" xlink:href="#linear-gradient-11"/><linearGradient id="linear-gradient-36" x1="-2288.98" y1="1093.16" x2="-2288.31" y2="1093.9" gradientTransform="matrix(24.26, 0, 0, -15.19, 55891, 17053.58)" xlink:href="#linear-gradient-11"/><linearGradient id="linear-gradient-37" x1="-2138.36" y1="1179.35" x2="-2139.45" y2="1178.62" gradientTransform="translate(-173117.5 195862.88) rotate(180) scale(81.12 165.7)" xlink:href="#linear-gradient-20"/><mask id="mask-45" x="376.19" y="442.16" width="69.23" height="141.41" maskUnits="userSpaceOnUse"><g id="mask-10-2" data-name="mask-10"><path id="path-9" class="cls-1" d="M378.07,442.16c-5.27,36.48,2.46,51.56,0,83.66-.57,7.4,0,35.53.7,49.67.16,3.06-1.89,6.87,1.46,7.59s13.3.43,15.48.43,1-3.78,1-6.74c0-22.3,3.39-23.68,2.66-35.39-.92-14.81-.42-35.36,5.05-61.65,5.45,13.62,11.76,26.8,15.34,39.55,3,10.62-6.47,23-9.6,43.82-.44,2.93-6.7,19-3.34,19.53a121.29,121.29,0,0,0,14.26.43c2.32-.08,4.73-7.89,7.56-17s16.78-34.67,16.78-46.82q0-12.15-19.72-77.12Z"/></g></mask><linearGradient id="linear-gradient-38" x1="-2153.79" y1="1172.8" x2="-2153.49" y2="1173.58" gradientTransform="translate(-302544.52 117116.5) rotate(180) scale(140.67 99.49)" gradientUnits="userSpaceOnUse"><stop offset="0" stop-color="#5d63d3"/><stop offset="1" stop-color="#b986ff"/></linearGradient><mask id="mask-47" x="343.75" y="362.47" width="120.05" height="87.09" maskUnits="userSpaceOnUse"><g id="mask-13-2" data-name="mask-13"><path id="path-12" class="cls-1" d="M413.25,366.13a96.55,96.55,0,0,0-33.57,0,20,20,0,0,0-11,6.26c-14,14.52-19.71,26.37-23.26,30.73q-3.56,4.35.28,9.38c6.7,9.74,11.4,17.16,19.77,25.57.48.48,1.25,2.39,2.57,3.07q5,0,8.72-7.64-12.07-19.08-15.69-23.64a129.25,129.25,0,0,1,15-13.55q3,23.54,3,30.7a106.44,106.44,0,0,1-1.27,14.13c.08,2.54-3.28,3.22,5,6.67s30.54.89,38.28,0,8.53-3.34,6.42-8-3.36-15.42-3.76-32.16l12.85,7.59q7.15,2.25,10.78-2.71t16.34-28.71q0-5.71-9.65-5.15l-14.56,18.48-15.76-24C421.39,368.87,417.49,366.92,413.25,366.13Z"/></g></mask><mask id="mask-48" x="343.75" y="364.66" width="120.05" height="84.9" maskUnits="userSpaceOnUse"><g id="mask-13-3" data-name="mask-13"><path id="path-12-2" data-name="path-12" class="cls-1" d="M413.25,366.13a96.55,96.55,0,0,0-33.57,0,20,20,0,0,0-11,6.26c-14,14.52-19.71,26.37-23.26,30.73q-3.56,4.35.28,9.38c6.7,9.74,11.4,17.16,19.77,25.57.48.48,1.25,2.39,2.57,3.07q5,0,8.72-7.64-12.07-19.08-15.69-23.64a129.25,129.25,0,0,1,15-13.55q3,23.54,3,30.7a106.44,106.44,0,0,1-1.27,14.13c.08,2.54-3.28,3.22,5,6.67s30.54.89,38.28,0,8.53-3.34,6.42-8-3.36-15.42-3.76-32.16l12.85,7.59q7.15,2.25,10.78-2.71t16.34-28.71q0-5.71-9.65-5.15l-14.56,18.48-15.76-24C421.39,368.87,417.49,366.92,413.25,366.13Z"/></g></mask><linearGradient id="linear-gradient-39" x1="-2105.36" y1="359.35" x2="-2105.81" y2="358.61" gradientTransform="matrix(16.01, 0, 0, -25.57, 33852.09, 9363.89)" xlink:href="#linear-gradient-4"/><linearGradient id="linear-gradient-40" x1="-2206.82" y1="367.22" x2="-2207.27" y2="366.48" gradientTransform="matrix(51, 0, 0, -44, 112700.95, 16347.91)" xlink:href="#linear-gradient-4"/><linearGradient id="linear-gradient-41" x1="11.94" y1="447.76" x2="66.03" y2="447.76" gradientUnits="userSpaceOnUse"><stop offset="0" stop-color="#0cac9d"/><stop offset="1" stop-color="#009be0"/></linearGradient><linearGradient id="linear-gradient-42" x1="51.62" y1="477.94" x2="100.54" y2="477.94" gradientUnits="userSpaceOnUse"><stop offset="0" stop-color="#3076a1"/><stop offset="1" stop-color="#639c38"/></linearGradient><linearGradient id="linear-gradient-43" x1="42.54" y1="455.51" x2="85.3" y2="455.51" xlink:href="#linear-gradient-41"/></defs><path class="cls-4" d="M764.26,417.3C700.87,518.45,605.43,569.09,487.51,580.24,326.47,595.46,344,463,180.47,462.76c-145.42-.21-245.25-145-91.6-307.43C254.6-19.79,566.13-15.44,710,126.33,783.82,199.06,826.63,317.78,764.26,417.3Z"/><path class="cls-5" d="M727.05,137.41c2.17-4.54,4.38-9.3,4.26-14.33-.11-4.66.06-9.84-1.15-14.34a37.66,37.66,0,0,1-.92-13.87c1.57-14.54,7.71-13.64,10-12.8s3.51,3,4,6.78c.42,3-.17,17.34,4.2,14.76,5.07-3,3.32-17.71,3.64-22.7.47-7.48,2.64-15.65,7.72-21.35,2.51-2.81,6.39-5.09,9.92-3.79a8.7,8.7,0,0,1,4.58,4.73c2.85,6.16,1.34,13-.54,19.23-.79,2.59-8.1,15-1.18,13.1,1.65-.44,14.52-12.91,17.1-1.67.9,4-3.15,8.55-9.73,14.44-4.11,3.68-19.67,13.81-18.38,18.15s9.67-3.69,9.46,4.68c-.12,4.69-5.84,8.66-9.78,10.84-1.87,1-3.95,1.7-5.75,2.86-2.14,1.37-4.61,4.41-2.61,6.9.88,1.09,2.4,1.52,3.24,2.64a4,4,0,0,1,.17,4.05,9.28,9.28,0,0,1-2.83,3.12c-7.22,5.55-16.8,7.34-25.87,6.51s-17.73-4-26.07-7.68"/><g class="cls-6"><path class="cls-7" d="M765.19,64S761,113.27,734.78,146.5"/><path class="cls-7" d="M781.92,94.41s-15,14.51-28.32,17.77"/><path class="cls-7" d="M737.39,88.36c-.06,7.69,1.5,29,9.77,38.46"/><path class="cls-7" d="M764.18,130.65s-5.85,6.24-25.53,10.59"/><path class="cls-7" d="M751.39,153.42s-10.1,2.89-19.81-1.53"/></g><g id="Dashboard-2"><path id="Path" class="cls-8" d="M106.52,51.78H724.85A26.15,26.15,0,0,1,751,77.93V470.36a26.15,26.15,0,0,1-26.15,26.15H106.52a26.15,26.15,0,0,1-26.15-26.15V77.93A26.15,26.15,0,0,1,106.52,51.78Z"/><g id="Group-25"><path class="cls-9" d="M157.52,221.48H292.71A12.29,12.29,0,0,1,305,233.77v122.9A12.29,12.29,0,0,1,292.71,369H157.52a12.29,12.29,0,0,1-12.29-12.29V233.77A12.29,12.29,0,0,1,157.52,221.48Z"/><path class="cls-10" d="M157.52,209.19H292.71A12.29,12.29,0,0,1,305,221.48v122.9a12.29,12.29,0,0,1-12.29,12.29H157.52a12.29,12.29,0,0,1-12.29-12.29V221.48A12.29,12.29,0,0,1,157.52,209.19Z"/><path id="Oval" class="cls-11" d="M225.12,296.67a30.11,30.11,0,1,1,30.11-30.11A30.12,30.12,0,0,1,225.12,296.67Zm0-11.06a19.05,19.05,0,1,0-19.05-19.05A19,19,0,0,0,225.12,285.61Z"/><path id="Path-130" class="cls-12" d="M198,324.22a5.54,5.54,0,0,1,0-11.07h54.21a5.54,5.54,0,0,1,0,11.07Z"/></g><path class="cls-13" d="M106.52,51.78H724.85A26.15,26.15,0,0,1,751,77.93v47H80.37v-47A26.15,26.15,0,0,1,106.52,51.78Z"/><circle class="cls-14" cx="130.02" cy="88.35" r="8.72"/><circle id="Oval-Copy-58" class="cls-15" cx="164.89" cy="88.35" r="8.72"/><circle id="Oval-Copy-59" class="cls-15" cx="199.75" cy="88.35" r="8.72"/><path class="cls-10" d="M175.4,183.29a7.85,7.85,0,1,1,0-15.69h76.9a7.85,7.85,0,0,1,0,15.69Z"/></g><g id="Peopla-small-2"><circle id="Oval-2" data-name="Oval" class="cls-15" cx="225.1" cy="266.06" r="20.44"/><path id="Path-2-7" data-name="Path" class="cls-16" d="M231.78,274.21a1.34,1.34,0,0,1-2.67,0,4,4,0,0,0-7.92,0,1.34,1.34,0,0,1-2.67,0,6.63,6.63,0,0,1,13.26,0Z"/><path class="cls-10" d="M225.15,270.11a6.49,6.49,0,1,1,6.63-6.49A6.56,6.56,0,0,1,225.15,270.11Zm0-2.68a3.81,3.81,0,1,0-4-3.81A3.89,3.89,0,0,0,225.15,267.43Z"/></g><g id="Briefcase-1"><path id="Rectangle" class="cls-17" d="M222.34,512.52a2,2,0,0,0-2,2v6a2,2,0,0,0,2,2h13a2,2,0,0,0,2-2v-6a2,2,0,0,0-2-2Zm0-4h13a6,6,0,0,1,6,6v6a6,6,0,0,1-6,6h-13a6,6,0,0,1-6-6v-6A6,6,0,0,1,222.34,508.52Z"/><path id="Path-3" data-name="Path" class="cls-18" d="M208.09,516h41.5a8,8,0,0,1,8,8v28.17a8,8,0,0,1-8,8h-41.5a8,8,0,0,1-8-8V524A8,8,0,0,1,208.09,516Z"/><path class="cls-19" d="M208.09,516h41.5a8,8,0,0,1,8,8v11a8,8,0,0,1-8,8h-41.5a8,8,0,0,1-8-8V524A8,8,0,0,1,208.09,516Z"/><path class="cls-20" d="M228.84,538.16a3,3,0,0,1,3,3v3a3,3,0,0,1-6,0v-3A3,3,0,0,1,228.84,538.16Z"/></g><g id="Yogi-pose-1"><g id="Shoes"><g id="Path-24"><path class="cls-2" d="M163.87,546q1.81,7.37,12.8,7.93t9.37,7.93H149.3c-4,0-5.56-1.47-4.59-4.41l3-11.45Z"/><g class="cls-21"><g class="cls-22"><path id="Path-4-3" data-name="Path" class="cls-23" d="M190.44,556.22h-1.26v6h-48.5v-6h31.53a.27.27,0,0,0,.25-.18C174.23,551.18,188.57,547.36,190.44,556.22Z"/></g></g></g><g id="Path-23-Copy-2"><path class="cls-3" d="M106.65,546a25.66,25.66,0,0,0,7.11,7.93c4.67,3.52,2.89,7.93.34,7.93H87.9q-6.06,0-4.59-4.41L90.52,546Z"/><g class="cls-24"><g class="cls-25"><path class="cls-23" d="M102.51,549.45c5.63,0,12.51,2.31,15.73,6.44l5.21.15,3.94,6.17-45.65.41v-6.39h6.9A17.55,17.55,0,0,1,102.51,549.45Z"/></g></g></g></g><g id="Pants"><g id="Path-14-2" data-name="Path-14"><path class="cls-26" d="M116.65,381.6C104,441.88,109.58,437.28,103.26,474c-1.42,8.25-9.51,50.67-12.78,63.86-.78,3.13-3,8.44,1.39,8.89s12.44.5,15,.5,3.64-5.3,4.63-7.89q6.47-16.87,30.7-113.48a353.58,353.58,0,0,1,5.57,109.7c-.37,3.53-1.54,11.17.41,11.17s15.25.5,16.71.5,2-8.38,3.42-17.44,3.06-20.72,4.16-53.43q1.09-32.72,0-94.76Z"/></g><g class="cls-27"><path id="Path-16-8" data-name="Path-16" class="cls-28" d="M172.84,399.05q-.76,13.88-21.94,13.87c-21.17,0-3.07,23.63-24.7,29.09s-9.06,32.06-22.21,32.06q-13.15,0,11.34-95.85l57.51-1.87Z"/></g><g class="cls-29"><path id="Path-17-2" data-name="Path-17" class="cls-28" d="M142.16,426.34l10.18-24.2q3.14,9.51,0,21c-3.14,11.54,6.3,21.85,0,29.92s6.3,29.25-6.67,41.5q-13,12.25-5.74-2Z"/></g></g><g id="Shirt"><path class="cls-30" d="M159.87,294.25c-7.19-2.29-26.48-3.86-43-.81q-7.86,1.44-12.22,6.4a167.07,167.07,0,0,0-14,16.48,136.86,136.86,0,0,0,18,15.33,42.45,42.45,0,0,1,4.63-3.77q3.53,27.57,3.57,36c0,8.24-3.52,23.57-3.49,24.56.09,3-5.72,17.73-3.43,17.73,34.46,3.86,33-1.34,64.75-1.34,2.87,0,0-10.07-1.06-18q-1.07-7.92-4.41-52.39l11.87-15.64-11.87-18.06Q167.06,296.55,159.87,294.25Z"/><g class="cls-31"><polygon id="Rectangle-Copy" class="cls-32" points="124.84 316.51 166.76 316.22 167.76 321.22 118.1 321.22 124.84 316.51"/></g><g class="cls-33"><rect id="Rectangle-Copy-2" class="cls-32" x="83.43" y="332.22" width="112.14" height="5"/></g><g class="cls-33"><rect id="Rectangle-Copy-3" class="cls-32" x="83.43" y="348.22" width="112.14" height="5"/></g><g class="cls-33"><rect id="Rectangle-Copy-4" class="cls-32" x="83.43" y="364.22" width="112.14" height="5"/></g><g class="cls-33"><polygon id="Rectangle-Copy-5" class="cls-32" points="83.43 380.22 195.57 380.22 195.57 385.22 83.43 385.22 83.43 380.22"/></g><g class="cls-33"><polygon id="Rectangle-Copy-6" class="cls-32" points="83.43 396.22 195.57 396.22 195.57 401.22 83.43 401.22 83.43 396.22"/></g><g class="cls-31"><path id="Path-5-3" data-name="Path-5" class="cls-34" d="M113.21,328.07l13-12.95q-9.09,16.17-3.2,23.9c5.89,7.72,2.21,13.88-2.47,22.16s1.74,12.22-4.83,18l-4.21-38.69Z"/></g><g class="cls-35"><path id="Path-6-2" data-name="Path-6" class="cls-34" d="M169.25,334.41q-1.08-9.62-2.89-20,5.23,3.09,6,13.36c.8,10.27,6,.41,9.28,11.93s11.67,4,13.63,7.06q2,3.08-10.32,9.19Z"/></g><g class="cls-36"><path id="Path-7-3" data-name="Path-7" class="cls-34" d="M116.65,291.81q0,8.26,15,8.27t15.21-16Z"/></g><g class="cls-31"><path id="Path-13-2" data-name="Path-13" class="cls-34" d="M104,380.49q2.58-6.21,10.14-9.17l-.62,7.13-7.44,3.15Z"/></g><g class="cls-37"><path id="Path-20" class="cls-34" d="M204.74,307.12q1.2,8.37,6.1,8.37c3.27,0,5.56-1.68,6.88-5.06l-10.58-6.32Z"/></g></g><g id="Head"><path id="Path-2-8" data-name="Path-2" class="cls-38" d="M135,255.06c5.61-2.29,17.77-5,20.48,1.41s5.92,14.44,1,17.74-8.13,8.37-13.46,6.91c-3.54-1-6.69,0-9.42,3-1.94-.24-3.14-.89-3.62-2C125.11,271.42,127.36,258.19,135,255.06Z"/><g id="Path-8-2" data-name="Path-8"><g id="Path-3-2" data-name="Path-3"><path class="cls-39" d="M130,291.75q9.54,8.33,13,8.33t2.67-8.33L144.55,285l-11.92-6.2Z"/></g><g class="cls-40"><path id="Path-9-3" data-name="Path-9" class="cls-41" d="M132.36,279.09q2.16,13.47,11.4,14.54t8.53-5.86Z"/></g></g><g id="Group"><path class="cls-42" d="M152.34,264q2.66,7,2.33,9.86c-1.2,10.31-3.61,15.47-7,15.47-6.49,0-13.58-3.32-15.21-10.29l-.06-.23a4,4,0,0,1-.5,0,3.59,3.59,0,1,1,3-5.58C135.26,273.41,147.74,273.91,152.34,264Z"/><g class="cls-43"><path id="Path-50" class="cls-41" d="M152.34,262q0,9.9-7.1,11.8T135,273.24c.16-.28,0-.87-.61-1.76S139.83,267.44,152.34,262Z"/></g></g></g><g id="Hands"><g id="Path-21-2" data-name="Path-21"><path class="cls-44" d="M197.54,346.89c-2.45,3.91-7.2,5.6-12.14,2.22L169.48,337.7l-.23-3.3,11.25-14.9,7.94,10.05,16.31-21.33.1.12c0-.19-.06-.39-.1-.59q.83-5,4.1-7.25c3.26-2.22,4.39-5.05,5.57-3.63.78.94.37,2.58-1.24,4.9q8,0,9.73-3.49c1.08-2.19,3.34-2.67,3.41-1.41,0,.76-2.3,4.6-2.54,5.4-.63,2.14-.17,3.17-4.42,5.48a26.31,26.31,0,0,0-8.27,7.75l-.21.05Q201.21,341.05,197.54,346.89Z"/><g class="cls-45"><path class="cls-41" d="M169.25,340.08q-1.08-15.29-2.89-25.68,5.23,3.09,6,13.36c.8,10.27,6,.41,9.28,11.93s13.1,5.44,15.06,8.52q2,3.09-11.75,7.73Z"/></g></g><g id="Path-18"><path class="cls-46" d="M104.92,378.21,82.5,347.78c-5.18-5.69-2.68-12.27.52-17.21a115.46,115.46,0,0,1,9.41-12.5q10.36,9.14,14.77,12.5L96.53,341.14l17,30.42,0,0,2.9.44-.16,1.68c-.12.88.2,2,1.26,2s5.75,0,6.84.4a33.71,33.71,0,0,1,4.76,2.83c-.23.93-2.44.79-3.66-.31a4.79,4.79,0,0,0-2.46-.85,54.76,54.76,0,0,0,3.68,4.19c.55.6-2.69.42-1.85,1.77,1.26,2-2.55,1-2.11,2.35.6,1.79-2.31-.35-3.91-1.62s-3.41,2-7.27.22Q110.48,384.14,104.92,378.21Z"/><g class="cls-47"><polygon id="Path-52" class="cls-41" points="109.95 332.22 88.34 319.53 93.21 316.62 109.95 328.02 109.95 332.22"/></g></g></g></g><g id="Group-25-2" data-name="Group-25"><path class="cls-9" d="M528.91,216.18H687a14.37,14.37,0,0,1,14.37,14.38V374.29A14.37,14.37,0,0,1,687,388.66H528.91a14.38,14.38,0,0,1-14.38-14.37V230.56A14.38,14.38,0,0,1,528.91,216.18Z"/><path class="cls-10" d="M528.91,201.81H687a14.37,14.37,0,0,1,14.37,14.37V359.91A14.37,14.37,0,0,1,687,374.29H528.91a14.38,14.38,0,0,1-14.38-14.38V216.18A14.38,14.38,0,0,1,528.91,201.81Z"/><path id="Oval-3" data-name="Oval" class="cls-11" d="M608,304.12a35.22,35.22,0,1,1,35.21-35.22A35.22,35.22,0,0,1,608,304.12Zm0-12.94a22.28,22.28,0,1,0-22.28-22.28A22.27,22.27,0,0,0,608,291.18Z"/><path id="Path-130-2" data-name="Path-130" class="cls-12" d="M576.25,336.33a6.47,6.47,0,0,1,0-12.94h63.41a6.47,6.47,0,1,1,0,12.94Z"/></g><g id="Peopla-small-2-2" data-name="Peopla-small-2"><circle id="Oval-4" data-name="Oval" class="cls-15" cx="607.96" cy="268.85" r="23.9"/><path id="Path-5-4" data-name="Path" class="cls-16" d="M615.76,278.37a1.56,1.56,0,1,1-3.12,0,4.63,4.63,0,0,0-9.26,0,1.56,1.56,0,1,1-3.12,0,7.75,7.75,0,0,1,15.5,0Z"/><path class="cls-10" d="M608,273.58a7.59,7.59,0,1,1,7.75-7.59A7.67,7.67,0,0,1,608,273.58Zm0-3.13a4.46,4.46,0,1,0-4.63-4.46A4.54,4.54,0,0,0,608,270.45Z"/></g><g id="UI-light-1"><g id="Path-6-3" data-name="Path"><path class="cls-10" d="M330.55,233.07H479.13a8.87,8.87,0,0,1,8.87,8.87V372.79a8.87,8.87,0,0,1-8.87,8.87H330.55a8.87,8.87,0,0,1-8.87-8.87V241.94A8.87,8.87,0,0,1,330.55,233.07Z"/></g><g class="cls-48"><path class="cls-49" d="M321.68,332.87H488v39.88a8.87,8.87,0,0,1-8.87,8.87H330.55a8.87,8.87,0,0,1-8.87-8.87Z"/></g><g class="cls-48"><path id="Path-162-Copy-2" class="cls-50" d="M341.63,352.27a2.22,2.22,0,0,1,0-4.43H361.3a2.22,2.22,0,1,1,0,4.43Z"/></g><g class="cls-48"><path id="Path-162-Copy-3" class="cls-51" d="M341.63,363.36a2.22,2.22,0,0,1,0-4.44h41.85a2.22,2.22,0,0,1,0,4.44Z"/></g><g class="cls-48"><path id="Combined-Shape" class="cls-52" d="M340.53,247.49h17.74v77.62H340.53Zm37.33,0H395.6v77.62H377.86Zm37.33,0h17.74v77.62H415.19Zm37.33,0h17.74v77.62H452.52Z"/></g><g class="cls-48"><path id="Path-167" class="cls-53" d="M404.78,296.83a1.11,1.11,0,0,1-.72.53l-32,7.27a1.22,1.22,0,0,1-.6,0l-30.78-10.23a1.12,1.12,0,0,1-.7-1.41,1.11,1.11,0,0,1,1.4-.7l30.49,10.14,31.27-7.1L420.53,265a1.11,1.11,0,0,1,1.64-.33l24.88,19.17,21-10.77a1.11,1.11,0,1,1,1,2l-21.64,11.08a1.1,1.1,0,0,1-1.18-.1l-24.43-18.83Z"/></g></g><g id="TIcket"><g id="Path-7-4" data-name="Path"><path class="cls-54" d="M728.84,227.08H674a7.15,7.15,0,0,0-7.15-7.15V200.41a7.15,7.15,0,0,0,7.15-7.15h54.84a7.16,7.16,0,0,0,7.16,7.15v19.52A7.16,7.16,0,0,0,728.84,227.08Z"/></g><g class="cls-55"><path id="Path-130-3" data-name="Path-130" class="cls-10" d="M681.74,207.61a1.17,1.17,0,1,1,0-2.34h11.48a1.17,1.17,0,0,1,0,2.34Z"/></g><g class="cls-55"><path id="Path-130-Copy" class="cls-10" d="M681.74,214.57a1.17,1.17,0,1,1,0-2.34h19.17a1.17,1.17,0,1,1,0,2.34Z"/></g><g class="cls-56"><path id="Path-151" class="cls-10" d="M712.74,189.7H714V191h-1.3Zm0,3.9H714v1.3h-1.3Zm0,3.9H714v1.3h-1.3Zm0,3.91H714v1.3h-1.3Zm0,3.9H714v1.3h-1.3Zm0,3.9H714v1.3h-1.3Zm0,3.91H714v1.3h-1.3Zm0,3.9H714v1.3h-1.3Zm0,3.9H714v1.3h-1.3Zm0,3.9H714v1.31h-1.3Zm0,3.91H714V230h-1.3Zm0,3.9H714v1.3h-1.3Z"/></g></g><g id="Dini-pose-7"><g id="Shoes-2" data-name="Shoes"><g id="Path-24-2" data-name="Path-24"><g id="Path-8-3" data-name="Path"><path class="cls-57" d="M714.27,505.27c4.05,33.43-2.28,40.91,0,55.5l2.72,18.6c1,3.07-2.45,2.48-6.65,2.48l-.68-8.87q-2.89,8.47-6.68,8.48H678c-4.27,0-5.19-2.89-1.48-4.31,5.71-2.17,10.66-4,14.35-6.07a14.49,14.49,0,0,0,7.42-10.31q-4.81-57.94-4.82-67t-1.25-35.22h25.13C714.89,476.66,712.88,493.8,714.27,505.27Z"/></g><g class="cls-58"><path class="cls-59" d="M716.22,561.89l6.51,21-56-1.43q17.67-33.48,21.37-14.58T716.22,561.89Z"/></g><g class="cls-60"><path id="Path-76" class="cls-61" d="M716.7,473.45q-14.36,7.33-22.65,7.33T688.89,470Z"/></g></g><g id="Path-24-Copy-2"><path class="cls-62" d="M683.58,502.87c6.87,35.92,4,43.25,6.33,57.83l2.72,18.61c1,3.06-2.45,2.48-6.65,2.48l-.68-8.87q-2.89,8.48-6.68,8.48h-25c-4.27,0-5.19-2.9-1.48-4.31,5.71-2.18,10.66-4,14.35-6.08a14.47,14.47,0,0,0,7.42-10.31c-6.07-38.78-11.87-56.06-11.87-62.12q0-6.12,1.39-34.66l32.26-8.51C687.71,474.36,681.51,492.07,683.58,502.87Z"/><g class="cls-63"><path class="cls-64" d="M695,561.82l6.51,21-56-1.43q17.67-33.48,21.37-14.58T695,561.82Z"/></g><g class="cls-65"><path class="cls-61" d="M689.87,473.94q-18,6.84-26.28,6.84t-1.74-10.55Z"/></g></g></g><g id="Skirt"><g id="Path-75"><path class="cls-66" d="M722.83,396.46c5.92,19.79-2.56,67.5-2.56,74.31s-54.49,6.46-61.27,0q2.12-65.44,5.34-74.81C667.58,386.58,716.92,376.67,722.83,396.46Z"/><g class="cls-67"><path id="Path-16-9" data-name="Path-16" class="cls-28" d="M725,390q-.79,14.44-22.85,14.44c-22,0-1.69,7.37-24.22,13.06s-2.33,24.89-16,24.89q-13.7,0,3.18-50.8Z"/></g></g></g><g id="Hands-2" data-name="Hands"><g id="Path-124"><path class="cls-68" d="M729.23,379.1q-6.22,7.5-7.39,8c-4,1.85-5.91-1.55-7.58-.23s-4.69,3.56-4.06,1.68c.45-1.36-3.51-.35-2.2-2.45.87-1.4-2.51-1.21-1.93-1.84s3.31-3.49,3.83-4.35a4.82,4.82,0,0,0-2.56.87c-1.27,1.15-3.57,1.3-3.81.33a35.87,35.87,0,0,1,5-2.95c.76-.29,2.69-1.69,5.78-4.22l7.58-1.27A27,27,0,0,0,729.23,379.1Z"/><g class="cls-69"><path id="Path-111" class="cls-61" d="M719.15,372.2q3.78,8.43,10.35,8.08t-6.89-9.92Z"/></g></g><g id="Path-112"><g id="Path-39"><path class="cls-70" d="M660.34,408.35q-6.42,7.95-4.88,11.94c1.54,4,9.25,8.72,13.13,2.92,1.19-1.77.3-2.5-2.69-2.18,1-1.07,1.18-.85,3.4-3.28,2.89-3.16,1-4.73,1.79-7.51Q672.44,405.47,660.34,408.35Z"/></g><g class="cls-71"><path id="Path-113" class="cls-61" d="M657.76,410.54a14.85,14.85,0,0,0,14.09,1.55q7.7-2.79-13-4.17l-1.8,2.08Z"/></g></g></g><g id="Shirt-2" data-name="Shirt"><path class="cls-12" d="M684.33,303.77c14.61-4.06,24.72-1.25,28.6.44a45.46,45.46,0,0,1,10.73,7.1c8,6.54,20.09,20.1,24.49,26.82s3.66,15.33.7,19.49c-.7,1-18.72,20.68-19.82,22.18a29.62,29.62,0,0,1-8.17-6.89c1.07-1.07,8.55-14.46,14.6-24.68-2.41-2.16-7.36-6.31-16.86-14.7Q715,358.45,715,367.17c0,8.58,1.86,7.55,8.65,30.16A130.83,130.83,0,0,1,674,400L671.67,411Q663.2,413.13,659,409c7-42.27,1.91-63.76,7-87.48C668.82,308.47,680.89,304.73,684.33,303.77Z"/><g class="cls-72"><path id="Path-38" class="cls-34" d="M674,400.23q4.93-26.6,5.43-35.73t0-33.13q5.69,8.33,5.68,16.69c0,8.36,11.7,17.18,2.22,26.77s-1.46,23.16-6.65,25.8Q675.47,403.26,674,400.23Z"/></g><g class="cls-73"><path id="Path-7-5" data-name="Path-7" class="cls-34" d="M667,301.78q-4.49,5.63,11.13,5.63t27.21-7.29Z"/></g><g class="cls-72"><path id="Path-36" class="cls-34" d="M718,337.3l2.43-17.5q1.86,17.49,9,19.36c4.54,1.19,5.08,5.29,5.54,9q.25,2.07-14.5,7.1Z"/></g><g class="cls-72"><path id="Path-69" class="cls-32" d="M675.13,397.08a.52.52,0,0,1,.13-1l1,.12a.53.53,0,0,1,.46.58.53.53,0,0,1-.58.46Zm3.12.36a.52.52,0,1,1,.11-1l1,.11a.52.52,0,1,1-.1,1Zm3.12.29a.51.51,0,0,1-.47-.56.52.52,0,0,1,.56-.48l1,.08a.52.52,0,0,1,.48.56.51.51,0,0,1-.55.48Zm3.13.22a.52.52,0,0,1-.49-.55.54.54,0,0,1,.55-.49l1,.06a.52.52,0,0,1,.49.55.51.51,0,0,1-.54.49Q685,398,684.5,398Zm3.14.16a.52.52,0,1,1,0-1l1,0a.53.53,0,0,1,.51.54.52.52,0,0,1-.54.5Zm3.14.08a.53.53,0,0,1-.52-.53.52.52,0,0,1,.53-.51h1a.52.52,0,0,1,.52.52.53.53,0,0,1-.53.52Zm3.14,0a.52.52,0,1,1,0-1l1,0a.54.54,0,0,1,.54.51.52.52,0,0,1-.51.53Zm3.15-.08a.52.52,0,0,1-.54-.5.52.52,0,0,1,.5-.54l1,0a.52.52,0,1,1,.05,1Zm3.12-.16a.52.52,0,1,1-.07-1l1-.07a.53.53,0,0,1,.56.48.52.52,0,0,1-.48.56Zm3.13-.24a.52.52,0,0,1-.1-1l1-.1a.53.53,0,0,1,.58.46.52.52,0,0,1-.47.57Zm3.13-.34a.52.52,0,0,1-.13-1l1-.13a.52.52,0,0,1,.58.45.51.51,0,0,1-.44.58Zm3.11-.43a.53.53,0,0,1-.59-.44.52.52,0,0,1,.44-.59l1-.17a.53.53,0,0,1,.6.43.53.53,0,0,1-.43.6Zm3.11-.53a.52.52,0,1,1-.19-1l1-.19a.52.52,0,0,1,.61.41.53.53,0,0,1-.41.61Zm3.09-.63a.52.52,0,0,1-.62-.4.52.52,0,0,1,.4-.62l1-.23a.52.52,0,0,1,.62.39.52.52,0,0,1-.39.63Zm3-.72a.52.52,0,1,1-.25-1l1-.26a.52.52,0,1,1,.27,1Zm3-.83a.53.53,0,0,1-.65-.35.52.52,0,0,1,.36-.65l1-.29a.51.51,0,0,1,.65.34.52.52,0,0,1-.35.65Z"/></g><g class="cls-72"><path id="Path-125" class="cls-32" d="M721.55,371.24a.53.53,0,0,1,0-.74.54.54,0,0,1,.74,0l.71.75a.52.52,0,1,1-.74.73Zm2.22,2.24a.52.52,0,0,1,0-.74.53.53,0,0,1,.74,0l.75.71a.52.52,0,1,1-.71.76C724.28,374,724,373.73,723.77,373.48Zm2.35,2.12a.53.53,0,0,1-.07-.74.51.51,0,0,1,.73-.06l.8.64a.52.52,0,1,1-.64.82Zm2.57,1.89a.52.52,0,0,1-.17-.72.53.53,0,0,1,.72-.16c.3.19.59.36.87.52a.51.51,0,0,1,.21.7.52.52,0,0,1-.71.21C729.31,377.88,729,377.69,728.69,377.49Z"/></g><g class="cls-74"><path id="Path-126" class="cls-32" d="M658.73,406.77a.51.51,0,0,1-.24-.69.52.52,0,0,1,.69-.25q.47.23.93.42a.52.52,0,0,1-.41,1C659.38,407.07,659.06,406.93,658.73,406.77Zm3,1.19a.51.51,0,0,1-.33-.65A.53.53,0,0,1,662,407c.32.11.65.21,1,.3a.5.5,0,0,1,.36.63.51.51,0,0,1-.63.37C662.38,408.18,662,408.08,661.69,408Zm3.13.77a.53.53,0,0,1-.43-.6.52.52,0,0,1,.6-.43l1,.13a.52.52,0,1,1-.1,1C665.53,408.83,665.18,408.78,664.82,408.73ZM668,409a.51.51,0,0,1-.53-.51.52.52,0,0,1,.51-.53c.34,0,.67,0,1-.05a.52.52,0,0,1,.56.48.52.52,0,0,1-.48.56C668.74,408.93,668.39,409,668,409Zm3.23-.36a.52.52,0,0,1-.62-.4.53.53,0,0,1,.41-.62l1-.23a.52.52,0,1,1,.27,1C672,408.43,671.61,408.52,671.26,408.59Z"/></g><g class="cls-75"><path id="Path-127" class="cls-32" d="M671.73,310a.51.51,0,0,1-.12-.72.52.52,0,0,1,.72-.13c.27.2.55.38.84.57a.52.52,0,1,1-.55.88C672.31,310.39,672,310.19,671.73,310Zm2.77,1.63a.52.52,0,0,1-.25-.69.53.53,0,0,1,.7-.25c.3.15.61.29.92.42a.52.52,0,1,1-.4,1Zm3,1.19a.52.52,0,0,1,.32-1c.32.11.65.2,1,.3a.52.52,0,0,1,.36.64.52.52,0,0,1-.65.36Zm3.06.82a.52.52,0,1,1,.22-1l1,.2a.52.52,0,0,1-.19,1Zm3.14.54a.52.52,0,0,1,.13-1l1,.13a.52.52,0,0,1,.47.57.53.53,0,0,1-.58.46Zm3.16.3a.52.52,0,0,1-.49-.55.53.53,0,0,1,.56-.49c.33,0,.68.05,1,.06a.53.53,0,0,1,.49.55.51.51,0,0,1-.54.49Q687.35,314.51,686.84,314.46Zm3.17.13a.53.53,0,0,1,0-1h1a.52.52,0,0,1,.52.52.52.52,0,0,1-.52.52Zm3.1,0a.52.52,0,1,1,0-1l1,0a.52.52,0,0,1,.54.5.51.51,0,0,1-.5.54Zm3.14-.15a.52.52,0,0,1-.07-1l1-.08a.54.54,0,0,1,.56.48.53.53,0,0,1-.48.56Zm3.14-.26a.52.52,0,0,1-.57-.47.51.51,0,0,1,.47-.56l1-.11a.52.52,0,0,1,.11,1Zm3.13-.36a.53.53,0,0,1-.59-.44.52.52,0,0,1,.44-.59l1-.17a.52.52,0,0,1,.17,1Zm3.12-.59a.52.52,0,1,1-.24-1l1-.25a.52.52,0,0,1,.28,1Zm3.07-.91a.52.52,0,1,1-.36-1c.32-.12.64-.24.94-.37a.52.52,0,1,1,.41,1Zm2.91-1.35a.51.51,0,0,1-.71-.19.52.52,0,0,1,.19-.71c.29-.17.58-.35.85-.54a.52.52,0,0,1,.59.86C712.25,310.56,711.94,310.76,711.62,310.94Zm2.63-2a.52.52,0,0,1-.74-.74,8.88,8.88,0,0,0,.66-.73.52.52,0,1,1,.81.65C714.76,308.41,714.51,308.68,714.25,309Zm1.9-2.65a.51.51,0,0,1-.69.24.52.52,0,0,1-.24-.7,9,9,0,0,0,.38-.9.54.54,0,0,1,.67-.32.52.52,0,0,1,.31.67A9,9,0,0,1,716.15,306.3Zm1-3.18a.52.52,0,0,1-1-.14c0-.33.07-.66.08-1a.52.52,0,0,1,.55-.49.5.5,0,0,1,.49.54A9.81,9.81,0,0,1,717.11,303.12Zm0-3.3a.52.52,0,0,1-.46.57.52.52,0,0,1-.57-.46c0-.33-.08-.66-.14-1a.51.51,0,0,1,.43-.6.52.52,0,0,1,.6.42C717.05,299.11,717.09,299.47,717.13,299.82Zm-.62-3.21a.52.52,0,0,1-.36.64.51.51,0,0,1-.64-.36c-.09-.32-.19-.65-.29-1a.51.51,0,0,1,.33-.65.52.52,0,0,1,.66.33Q716.38,296.12,716.51,296.61Z"/></g></g><g id="Head-2" data-name="Head"><g id="Path-8-4" data-name="Path-8"><path class="cls-76" d="M699,289.56c-.15,4.92.47,9.4,2.06,12.2a31.94,31.94,0,0,1,13.16,3c-4,5.42-13.16,7.22-23.48,7.22q-10.32,0-16.5-3.25a26.34,26.34,0,0,1,11-5.15l.39-3.64a8.83,8.83,0,0,1-1.26,0c-4.86-.34-6.24-9.9-6.74-20.71-.07-1.45-.18-9.68,9.2-9.64C699,269.65,699.53,288.47,699,289.56Z"/></g><g id="Group-67"><path class="cls-77" d="M677.89,283.42a18.22,18.22,0,1,1,3.17,6.55,3.65,3.65,0,0,0-1.36-7A3.57,3.57,0,0,0,677.89,283.42Z"/><ellipse id="Oval-Copy-55" class="cls-78" cx="704.03" cy="270.57" rx="8.85" ry="8.46"/><ellipse id="Oval-Copy-54" class="cls-79" cx="706.25" cy="268.46" rx="8.85" ry="8.46"/></g></g><g id="Paper"><g id="Combined-Shape-2" data-name="Combined-Shape"><path class="cls-80" d="M665.47,421.18c3-2.54,4.71-4.53,5-6a13.57,13.57,0,0,0,.35-3.95l.83-.22q4.25-20.39,5.66-30.1l25.36,6.6-12.43,40.81Zm-3-43.46A233.55,233.55,0,0,1,659,409l.56.52q-4.1,5.16-4.36,8.94l-19.38-4.87,10.12-39.64Z"/></g><g class="cls-81"><path id="Path-42" class="cls-34" d="M683,382.31q3.4,9.09-2.39,16.64c-5.79,7.55.06,15.67-5.56,17.29q-5.62,1.62-7.2,7.93l-15.73-4.24q0-9.18,4.35-14.06c4.39-4.88-5-21.9,2.33-29.4Q666.14,369,683,382.31Z"/></g></g></g><g id="Mail-2"><path id="Path-9-4" data-name="Path" class="cls-82" d="M439.15,206.51l18.57-15.35a5,5,0,0,1,6.44,0l18.58,15.35a3.59,3.59,0,0,1,1.31,2.78v27.9a3.61,3.61,0,0,1-3.61,3.61h-39a3.61,3.61,0,0,1-3.61-3.61v-27.9A3.59,3.59,0,0,1,439.15,206.51Z"/><g id="Group-5-Copy"><path class="cls-83" d="M442.54,193.87h36.78a2.17,2.17,0,0,1,2.17,2.17v42.59a2.17,2.17,0,0,1-2.17,2.17H443.19a2.16,2.16,0,0,1-2.16-2.13l-.66-42.6a2.17,2.17,0,0,1,2.13-2.2Z"/><path id="Path-133" class="cls-84" d="M446.61,201.5a.65.65,0,0,1,0-1.29h17a.65.65,0,1,1,0,1.29Z"/><path id="Path-133-Copy" class="cls-85" d="M446.61,205.84a.65.65,0,0,1,0-1.3h7.62a.65.65,0,0,1,0,1.3Z"/></g><path class="cls-86" d="M483.88,208.19a3.72,3.72,0,0,1,.17,1.1v27.9a3.61,3.61,0,0,1-3.61,3.61h-39a3.61,3.61,0,0,1-3.61-3.61v-27.9a3.65,3.65,0,0,1,.17-1.09l20.11,20.36h0a3.6,3.6,0,0,0,5.1,0Z"/></g><g id="Rendi-pose-6"><g id="Head-3" data-name="Head"><g id="Group-2" data-name="Group"><path id="Combined-Shape-3" data-name="Combined-Shape" class="cls-87" d="M395.73,355.67l-4.31,0-.94,12.81c2.17,2.46,4.53,3.55,7.06,3.28s5-2,7.44-5.26l-1.49-4.68a18.74,18.74,0,0,0,4.94.79c3.7,0,4.91-7.44,4.81-21.62-2.91,1.89-13.91,1.41-17.82,0C395.45,342.62,393.68,350.6,395.73,355.67Z"/></g><path id="Path-10-12" data-name="Path" class="cls-88" d="M407.07,349.2a3.23,3.23,0,0,1,1.81.56c.37-1.54,1-4.55,2-5.2,4.23-2.82,6.77-7.24,3.76-10.13s-14.81-.73-17.79-1q-7.14-.63-7.13,5.85a3.73,3.73,0,0,0-3,0c-2.11,1.63-2,8.86,1.9,18,1,2.32,3.14,3.48,6.3,3.48,3,0,5.4.53,6.74-1.82a14.47,14.47,0,0,1,3.23-3.81,3.46,3.46,0,0,1-1.08-2.53A3.36,3.36,0,0,1,407.07,349.2Z"/></g><g id="Shoes-3" data-name="Shoes"><g id="Path-27"><g id="Path-23"><path class="cls-89" d="M421,582.44q1.55,6.3,10.92,6.77t8,6.77H408.58c-3.45,0-4.75-1.26-3.92-3.77l2.58-9.77Z"/></g><g class="cls-90"><rect id="Rectangle-2" data-name="Rectangle" class="cls-91" x="404.42" y="591.18" width="35.69" height="4.82"/></g></g><g id="Path-23-Copy-3"><g id="Path-23-Copy"><path class="cls-92" d="M380.17,582.44a21.73,21.73,0,0,1-6.06,6.77c-4,3-2.47,6.77-.29,6.77h22.36c3.45,0,4.75-1.26,3.92-3.77l-6.16-9.77Z"/></g><g class="cls-93"><rect class="cls-91" x="371.63" y="591.18" width="28.71" height="4.82"/></g></g></g><g id="Hands-3" data-name="Hands"><path class="cls-94" d="M458.09,373.47q-2.79,1.89-3.5,6.2.71,4.47,2.37,5.73a3.49,3.49,0,0,0,3,.88,22.33,22.33,0,0,1,7.06-6.61c3.63-2,3.23-2.85,3.77-4.68.21-.69,2.21-4,2.17-4.61-.06-1.07-2-.67-2.91,1.21s-3.76,3-8.31,3c1.38-2,1.73-3.38,1.06-4.18C461.84,369.17,460.87,371.59,458.09,373.47Z"/><path class="cls-95" d="M384.39,439.6a46.49,46.49,0,0,0,3.14,3.57c.47.52-2.3.36-1.58,1.51,1.07,1.72-2.18.89-1.8,2,.51,1.53-2-.3-3.33-1.38s-2.92,1.7-6.21.19c-.95-.44-3.1-2.34-5.7-5.18a14.65,14.65,0,0,1,7.39-6l2.48.37-.14,1.44c-.11.75.17,1.72,1.07,1.72s4.91,0,5.84.33a28.85,28.85,0,0,1,4.06,2.42c-.19.8-2.08.67-3.12-.27A4.1,4.1,0,0,0,384.39,439.6Z"/></g><g id="Pants-2" data-name="Pants"><path class="cls-96" d="M378.07,442.16c-5.27,36.48,2.46,51.56,0,83.66-.57,7.4,0,35.53.7,49.67.16,3.06-1.89,6.87,1.46,7.59s13.3.43,15.48.43,1-3.78,1-6.74c0-22.3,3.39-23.68,2.66-35.39-.92-14.81-.42-35.36,5.05-61.65,5.45,13.62,11.76,26.8,15.34,39.55,3,10.62-6.47,23-9.6,43.82-.44,2.93-6.7,19-3.34,19.53a121.29,121.29,0,0,0,14.26.43c2.32-.08,4.73-7.89,7.56-17s16.78-34.67,16.78-46.82q0-12.15-19.72-77.12Z"/><g class="cls-97"><path id="Path-16-10" data-name="Path-16" class="cls-28" d="M378.56,446.54q3.65,5.7,19,5.7c15.39,0,7.11,12,22.82,16s7.25,21.09,16.81,21.09q9.55,0,2.41-47.17Z"/></g><g class="cls-97"><path id="Path-37" class="cls-28" d="M404.42,479.73q-7.17-11.09-9-20-1.39,12.45,3.13,18.09c4.53,5.64-6.39,14-1.28,23.86q5.11,9.9,5.75,16.33Z"/></g></g><g id="Shirt-3" data-name="Shirt"><path class="cls-98" d="M413.25,366.13a96.55,96.55,0,0,0-33.57,0,20,20,0,0,0-11,6.26c-14,14.52-19.71,26.37-23.26,30.73q-3.56,4.35.28,9.38c6.7,9.74,11.4,17.16,19.77,25.57.48.48,1.25,2.39,2.57,3.07q5,0,8.72-7.64-12.07-19.08-15.69-23.64a129.25,129.25,0,0,1,15-13.55q3,23.54,3,30.7a106.44,106.44,0,0,1-1.27,14.13c.08,2.54-3.28,3.22,5,6.67s30.54.89,38.28,0,8.53-3.34,6.42-8-3.36-15.42-3.76-32.16l12.85,7.59q7.15,2.25,10.78-2.71t16.34-28.71q0-5.71-9.65-5.15l-14.56,18.48-15.76-24C421.39,368.87,417.49,366.92,413.25,366.13Z"/><g class="cls-99"><path id="Path-7-6" data-name="Path-7" class="cls-34" d="M418,363.83q3.68,4.6-9.12,4.61t-22.29-6Z"/></g><g class="cls-100"><path id="Path-35" class="cls-34" d="M424.12,407.72l-13.22-12.3a6.72,6.72,0,0,0,0,5.16c1.84,3.72,6.52,5.26,5.19,11.37-3.33,15.27,6.72,6.41,6.72,19.82q0,13.41,9.42,8.36Z"/></g><g class="cls-100"><path id="Path-36-2" data-name="Path-36" class="cls-34" d="M376.19,396.64l-2-14.33q-1.51,14.32-7.34,15.86c-5.81,1.53-3.61,8.86-5.69,11.65q4.32.44,13,1.53Z"/></g></g></g><g id="Moneybag-2"><path id="Path-11-2" data-name="Path" class="cls-101" d="M140.06,194.89v-16a3,3,0,0,1,4.54-2.51l5.94,3.72a3,3,0,0,1,.94,4.09l-.17.24-8.05,10.46Z"/><path class="cls-102" d="M136.78,188.5h12.61A12.61,12.61,0,0,1,162,201.11v7.42a12.61,12.61,0,0,1-12.61,12.61H136.78a12.61,12.61,0,0,1-12.6-12.61v-7.42A12.61,12.61,0,0,1,136.78,188.5Z"/><path class="cls-1" d="M146.43,205.62a2.26,2.26,0,0,1-.67,1.66,3.34,3.34,0,0,1-1.82.86v.69a.74.74,0,0,1-1.25.53.72.72,0,0,1-.2-.53v-.65a5.2,5.2,0,0,1-1.3-.28,4.3,4.3,0,0,1-1.09-.56.81.81,0,0,1-.28-.27.86.86,0,0,1-.08-.38.87.87,0,0,1,.19-.54.57.57,0,0,1,.43-.23,1.18,1.18,0,0,1,.57.2,6.12,6.12,0,0,0,1.07.48,3.6,3.6,0,0,0,1.05.15,1.86,1.86,0,0,0,1.11-.28.87.87,0,0,0,.39-.77.61.61,0,0,0-.22-.49,1.77,1.77,0,0,0-.56-.31l-.94-.28a10.6,10.6,0,0,1-1.48-.46,2.32,2.32,0,0,1-1-.73,2,2,0,0,1-.42-1.33,2.33,2.33,0,0,1,.69-1.69,3.31,3.31,0,0,1,1.83-.9v-.69a.67.67,0,0,1,.21-.52.69.69,0,0,1,.52-.21.71.71,0,0,1,.53.21.7.7,0,0,1,.2.52v.67a4.55,4.55,0,0,1,2.05.83.74.74,0,0,1,.26.27.92.92,0,0,1,.08.38.84.84,0,0,1-.19.53.55.55,0,0,1-.43.24,1,1,0,0,1-.25,0,2.33,2.33,0,0,1-.32-.16,5.2,5.2,0,0,0-.89-.47,2.56,2.56,0,0,0-1-.16,1.74,1.74,0,0,0-1.05.29.93.93,0,0,0-.39.78.7.7,0,0,0,.23.55,1.63,1.63,0,0,0,.58.33c.23.08.56.18,1,.28a11.67,11.67,0,0,1,1.45.45,2.33,2.33,0,0,1,1,.71A2,2,0,0,1,146.43,205.62Z"/></g><path class="cls-103" d="M16.67,376.28c4.66-2.23,9.3,12.62,9.3,12.62,7.93,10.47,19-3.46,17.93,12.2C42,428.5,75.44,409.71,60,438.32s13.62,16.18,4,39.24,2.83,50.58-11.59,39.28c0,0-12.7-27.85-25.8-36.47s7.85-18.84,3.75-30.54c-5.95-17-20.29-16.33-9.95-34.6S.81,383.86,16.67,376.28Z"/><g class="cls-104"><path class="cls-105" d="M57,506.36c-6.25-4.4-13.57-35-14-53.29-.22-9.35-3-13.25-5.42-16.68s-4.35-6.12-3.17-12.64c2.24-12.44-3.65-17.82-3.71-17.87l.68-.78c.26.23,6.4,5.77,4,18.84-1.09,6.08.71,8.63,3,11.85,2.4,3.38,5.39,7.59,5.62,17.25.46,19.59,7.95,48.52,13.56,52.47Z"/></g><path class="cls-106" d="M59.37,508.63a13.73,13.73,0,0,1-2.65-.29A5.76,5.76,0,0,1,52,504.56c-1.69-4.82,2.22-12.65,5.39-16.42a24.18,24.18,0,0,0,4.79-15.53c-.1-1.51-.25-2.91-.39-4.14-.4-3.55-.69-6.12.84-7.84,1.35-1.51,3.94-2.16,8.69-2.19,8.32,0,11.61-3.48,14.25-6.25a15.06,15.06,0,0,1,3.48-3h0c4.14-2.26,8.53-2.59,10.44-.79.9.86,1.67,2.54.17,5.67a21.8,21.8,0,0,1-4.58,6.13c-1.92,2-3.18,3.26-2.52,5.84.15.6.33,1.21.51,1.83,1.28,4.39,2.74,9.36-4.77,12.73-1.6.72-3,1.29-4.33,1.79-5.24,2.06-8.4,3.3-12,10.84-.7,1.46-1.31,2.84-1.9,4.18C67.32,503.8,65.19,508.63,59.37,508.63Z"/><g class="cls-104"><path class="cls-105" d="M56.84,514.6l-1-.06c.05-1,1.36-23.83,10.54-30.53,10.07-7.34,13.25-15.23,14.76-20.52,1.78-6.25,10.85-7.91,11.24-8l.18,1c-.09,0-8.82,1.62-10.43,7.24-1.55,5.44-4.81,13.55-15.14,21.08C58.16,491.25,56.85,514.36,56.84,514.6Z"/></g><path class="cls-107" d="M77.83,399.36C71.3,397.12,72.66,409.7,69.9,419s-30.68,4.06-19,27.37-14.82,7.79-6.89,28.12.69,42.09,9.31,36.56,4.84-31.14,13.8-34.19,10.42-6.59,1.55-14.86S92,445.52,84,428.81,85.37,401.94,77.83,399.36Z"/><g class="cls-104"><path class="cls-105" d="M57.35,510.07c-.82-3.48-7.83-34.11-1.29-37.82,5.77-3.26,5.63-16,4.73-27.95-.8-10.61,12.83-15.57,13.41-15.77l.35,1c-.14.05-13.47,4.9-12.73,14.73.92,12.31,1,25.37-5.25,28.92-5,2.81-.39,27.44,1.79,36.68Z"/></g><polygon class="cls-108" points="72.19 499.16 62.87 534.51 42.05 534.51 32.73 499.16 72.19 499.16"/></svg>