<svg xmlns="http://www.w3.org/2000/svg" width="230" height="170" viewBox="0 0 230 170">
    <defs>
        <linearGradient id="a" x1="58.94%" x2="-100.039%" y1="45.839%" y2="102.434%">
            <stop offset="0%" stop-color="#FFF"/>
            <stop offset="100%" stop-color="#231F20"/>
        </linearGradient>
        <linearGradient id="b" x1="0%" y1="50.029%" y2="50.029%">
            <stop offset="0%" stop-color="#FFF"/>
            <stop offset="100%" stop-color="#231F20"/>
        </linearGradient>
        <linearGradient id="c" x1="42.401%" x2="53.017%" y1="-25.347%" y2="89.758%">
            <stop offset="0%" stop-color="#40E586"/>
            <stop offset="100%" stop-color="#328784"/>
        </linearGradient>
        <linearGradient id="d" x1="-4609.114%" x2="1447.316%" y1="-4026.374%" y2="3618.535%">
            <stop offset="0%" stop-color="#40E586"/>
            <stop offset="100%" stop-color="#328784"/>
        </linearGradient>
        <linearGradient id="e" x1="-6.588%" x2="57.161%" y1="8.834%" y2="82.245%">
            <stop offset="0%" stop-color="#40E586"/>
            <stop offset="100%" stop-color="#328784"/>
        </linearGradient>
    </defs>
    <g fill="none" fill-rule="nonzero">
        <path fill="#BFB5F4" d="M142.922 36.127c28.093 0 50.95 22.859 50.95 50.959 0 1.315-.05 2.62-.148 3.914h36.19c.057-1.296.086-2.6.086-3.914C230 39.06 190.94 0 142.93 0A86.52 86.52 0 0 0 103 9.708v45.757a50.877 50.877 0 0 1 39.922-19.338z" opacity=".29"/>
        <path fill="url(#a)" d="M72 53.07c-.413.51-.878.839-1.393.896-3.2.347-10.607-2.08-10.607-2.08L60.332 49c1.625.876 8.717 4.571 11.668 4.07z" opacity=".16" style="mix-blend-mode:multiply"/>
        <path fill="url(#b)" d="M52 45l2.814 3.727 1.883-1.068L57.831 49 60 46.254l-.927-.28z" opacity=".16" style="mix-blend-mode:multiply"/>
        <path fill="#FFF" d="M53.549 45L56 47.524 54.488 49 52 45.638z"/>
        <path fill="#FFF" d="M57.477 46L55 47.588 56.077 49 58 46.816zM9.891 82L13 84.005 11.752 85 9 82.268zM14.434 82L13 83.745 13.883 85 15 82.515z"/>
        <path fill="#FDD08D" d="M28.991 169.574l-1.064-1.073L29 167.437l-.427-.428-1.07 1.063L26.436 167l-.428.426 1.064 1.073L26 169.563l.427.428 1.07-1.063L28.564 170z"/>
        <path fill="#FFF" d="M53.549 45L56 47.524 54.488 49 52 45.638zM9.891 82L13 84.005 11.752 85 9 82.268zM14.434 82L13 83.745 13.883 85 15 82.515z"/>
        <rect width="69" height="109" x="80" y="42" fill="#BBBCEA" rx="5"/>
        <rect width="63" height="102" x="83" y="46" fill="#E7E9F8" rx="2.23"/>
        <path fill="#FFF" d="M135.364 128h-43.73c-.35-.001-.633-.224-.634-.5 0-.275.284-.499.634-.5h43.73c.351 0 .636.224.636.5-.001.277-.286.5-.636.5zM135.364 122h-43.73c-.35-.001-.633-.224-.634-.5 0-.275.284-.499.634-.5h43.73c.351 0 .636.224.636.5-.001.277-.286.5-.636.5zM135.364 116h-43.73c-.35 0-.634-.223-.634-.5 0-.275.284-.499.634-.5h43.73c.351 0 .636.224.636.5 0 .134-.067.26-.187.354a.73.73 0 0 1-.45.146zM135.364 111h-43.73c-.35 0-.634-.223-.634-.5 0-.275.284-.499.634-.5h43.73c.351 0 .636.224.636.5 0 .134-.067.26-.187.354a.73.73 0 0 1-.45.146zM135.364 105h-43.73c-.35-.001-.634-.225-.634-.5s.284-.499.634-.5h43.73c.351 0 .636.224.636.5s-.285.5-.636.5zM135.364 100h-43.73c-.35-.001-.634-.225-.634-.5s.284-.499.634-.5h43.73c.351 0 .636.224.636.5s-.285.5-.636.5zM135.364 93h-43.73c-.35-.001-.634-.225-.634-.5s.284-.499.634-.5h43.73c.351 0 .636.224.636.5s-.285.5-.636.5zM135.364 88h-43.73a.733.733 0 0 1-.45-.148.45.45 0 0 1-.184-.355c0-.274.284-.497.634-.497h43.73c.168 0 .33.052.45.145a.45.45 0 0 1 .186.352.45.45 0 0 1-.185.356.734.734 0 0 1-.451.147zM138.398 82h-21.796c-.343-.009-.612-.233-.602-.5a.431.431 0 0 1 .169-.348.708.708 0 0 1 .433-.152h21.796c.342.009.61.232.602.5.01.267-.259.491-.602.5zM138.398 77h-21.796a.708.708 0 0 1-.433-.152.431.431 0 0 1-.169-.347c-.01-.268.259-.492.602-.501h21.796c.343.009.612.233.602.5.009.268-.26.491-.602.5zM138.398 71h-21.796a.708.708 0 0 1-.433-.152.431.431 0 0 1-.169-.347c-.01-.268.259-.492.602-.501h21.796c.343.009.612.233.602.5.009.268-.26.491-.602.5z"/>
        <path fill="#FFA171" d="M120.936 40.84c-.713-.005-1.322-.493-1.451-1.163-.578-2.721-3.082-4.677-5.99-4.677-2.907 0-5.412 1.956-5.989 4.677-.131.67-.74 1.157-1.454 1.163h-7.577c-.815 0-1.475.63-1.475 1.409v4.34c0 .374.155.733.431.998.277.264.652.413 1.044.413h30.048c.816 0 1.477-.632 1.477-1.411v-4.34c-.001-.779-.662-1.41-1.477-1.41h-7.587zm-7.04-1.954c1.027.193 1.744 1.083 1.677 2.08-.068.998-.9 1.793-1.944 1.858-1.044.065-1.977-.619-2.18-1.6a1.924 1.924 0 0 1 .565-1.797c.492-.471 1.199-.674 1.882-.541z"/>
        <ellipse cx="99.979" cy="70.842" fill="#FFF" rx="11.154" ry="11.15" transform="rotate(-68.18 99.979 70.842)"/>
        <path fill="#E7E9F8" d="M102 77.162a6.771 6.771 0 0 0-.852-3.162l-1.144 2.692L98.858 74A6.77 6.77 0 0 0 98 77.162c-.013 1.68 1.741 1.826 1.989 1.838h.029c.252-.012 1.995-.17 1.982-1.838z"/>
        <path fill="#BBBCEA" d="M107.361 72.86c-1.08-.66-1.847-2.415-1.71-4.532.138-2.116-.416-5.028-2.752-5.99-1.464-.6-2.167-.28-2.81.041a1.294 1.294 0 0 1-1.173 0c-.64-.322-1.349-.642-2.81-.04-2.337.96-2.89 3.87-2.756 5.99.135 2.118-.628 3.871-1.71 4.532-1.08.66-.592 1.323 0 1.853.593.53 2.428-.098 3.883.862 1.454.96 2.114.132 2.343-.914.229-1.047 1.633-9.31 1.633-9.31s1.406 8.265 1.635 9.31c.229 1.044.888 1.87 2.343.914 1.455-.956 3.287-.332 3.88-.862.592-.53 1.086-1.186.004-1.853z"/>
        <path fill="#E7E9F8" d="M99.999 77c-.795 0-1.54-.444-2.162-1.22C96.734 74.42 96 74.194 96 72.829V66h8v6.828c0 1.375-.744 1.629-1.862 2.982-.62.746-1.352 1.19-2.14 1.19z"/>
        <path fill="#E7E9F8" d="M96.201 68h-.23c-.334 0-.644.139-.822.369a.667.667 0 0 0-.053.764L96.198 71S97 69.448 97 69.31c0-.139-.799-1.31-.799-1.31zM103.799 68h.23c.334 0 .644.139.822.369.178.23.198.52.053.764L103.802 71S103 69.448 103 69.31c0-.139.799-1.31.799-1.31z"/>
        <path fill="#FF8C52" d="M121.053 138.031l.259.55c.008.02.027.035.048.037l.583.09c.025.002.046.02.054.045a.07.07 0 0 1-.017.07l-.418.428a.067.067 0 0 0-.02.06l.1.61a.07.07 0 0 1-.027.066.063.063 0 0 1-.068.006l-.517-.286a.063.063 0 0 0-.06 0l-.516.286a.063.063 0 0 1-.068-.006.07.07 0 0 1-.028-.066l.1-.61a.067.067 0 0 0-.02-.06l-.417-.428a.07.07 0 0 1-.018-.07.065.065 0 0 1 .053-.046l.582-.09a.06.06 0 0 0 .045-.032l.258-.55a.066.066 0 0 1 .055-.035c.023 0 .045.011.057.031zM118.053 138.032l.259.55c.009.02.027.033.048.036l.583.09c.025.002.046.02.054.045a.07.07 0 0 1-.017.07l-.42.428a.065.065 0 0 0-.017.06l.099.61a.07.07 0 0 1-.027.066.063.063 0 0 1-.069.005l-.516-.285a.067.067 0 0 0-.062 0l-.517.285a.062.062 0 0 1-.068-.005.069.069 0 0 1-.025-.066l.097-.61a.065.065 0 0 0-.017-.06l-.42-.427a.072.072 0 0 1-.015-.07.067.067 0 0 1 .052-.046l.583-.09a.06.06 0 0 0 .048-.037l.259-.55a.063.063 0 0 1 .054-.031c.022 0 .043.012.054.032zM114.055 138.03l.258.55a.06.06 0 0 0 .049.037l.582.09a.065.065 0 0 1 .053.046.07.07 0 0 1-.018.07l-.417.428a.067.067 0 0 0-.02.059l.1.611a.07.07 0 0 1-.028.066.063.063 0 0 1-.068.006l-.516-.286a.063.063 0 0 0-.06 0l-.517.286a.063.063 0 0 1-.068-.006.07.07 0 0 1-.027-.066l.1-.611a.067.067 0 0 0-.02-.06l-.418-.427a.07.07 0 0 1-.017-.07.065.065 0 0 1 .054-.046l.583-.09a.059.059 0 0 0 .048-.037l.26-.55a.063.063 0 0 1 .054-.03c.021 0 .041.011.053.03zM109.052 138.03l.258.55c.01.02.029.034.05.037l.583.09c.025.002.046.02.054.045a.07.07 0 0 1-.017.07l-.418.428a.067.067 0 0 0-.02.06l.1.61a.07.07 0 0 1-.027.067.063.063 0 0 1-.068.005l-.517-.285a.063.063 0 0 0-.06 0l-.518.285a.062.062 0 0 1-.068-.005.069.069 0 0 1-.026-.066l.1-.611a.073.073 0 0 0-.02-.06l-.417-.427a.07.07 0 0 1-.018-.07.065.065 0 0 1 .053-.047l.582-.09a.06.06 0 0 0 .049-.036l.258-.55a.063.063 0 0 1 .053-.03c.022 0 .042.011.054.03zM105.055 138.03l.258.55a.06.06 0 0 0 .049.037l.582.09a.065.065 0 0 1 .053.046.07.07 0 0 1-.018.07l-.417.427a.065.065 0 0 0-.018.06l.098.61a.069.069 0 0 1-.026.067.062.062 0 0 1-.068.005l-.518-.285a.063.063 0 0 0-.06 0l-.517.285a.063.063 0 0 1-.068-.005.07.07 0 0 1-.027-.066l.1-.611a.072.072 0 0 0-.018-.06l-.42-.427a.07.07 0 0 1-.017-.07.065.065 0 0 1 .054-.047l.583-.09a.064.064 0 0 0 .05-.036l.258-.55a.063.063 0 0 1 .054-.03c.021 0 .041.011.053.03z"/>
        <path fill="#BBBCEA" d="M137.48 65h-19.963a1.558 1.558 0 0 1-1.08-.445A1.459 1.459 0 0 1 116 63.5c-.009-.82.67-1.491 1.517-1.501h19.964c.847.01 1.527.681 1.519 1.501.008.82-.672 1.49-1.52 1.499zM96.468 69c.82-.768 1.548-1.61 2.174-2.511 0 0 2.167 2.105 5.524 2.511 0 0 .834-1.77.834-2.123 0-.353-.686-1.518-1.301-1.611-.616-.093-6.63-.549-7.397 0-.766.549.166 3.734.166 3.734z"/>
        <g fill="#3F0D86" opacity=".09" transform="translate(79 35)">
            <rect width="68.767" height="109.691" x=".189" y="8.188" rx="3"/>
            <rect width="61.786" height="102.637" x="3.678" y="11.716" rx="2.23"/>
            <path d="M56.308 94.258H12.383a.643.643 0 0 1-.637-.644c0-.356.285-.645.637-.646h43.925c.353 0 .639.29.639.646a.643.643 0 0 1-.64.644zM56.308 88.514H12.383a.643.643 0 0 1-.637-.644c0-.355.285-.644.637-.646h43.925c.353 0 .639.29.639.646a.643.643 0 0 1-.64.644zM56.308 82.77H12.383a.64.64 0 0 1-.637-.643c0-.356.285-.645.637-.646h43.925a.647.647 0 1 1 .452 1.102.634.634 0 0 1-.452.187zM56.308 77.026H12.383a.64.64 0 0 1-.637-.643c0-.356.285-.645.637-.646h43.925a.647.647 0 1 1 .452 1.102.634.634 0 0 1-.452.187zM56.308 71.285H12.383a.643.643 0 0 1-.637-.646c0-.356.285-.645.637-.646h43.925c.353 0 .639.29.639.646a.643.643 0 0 1-.64.646zM56.308 65.541H12.383a.643.643 0 0 1-.637-.646c0-.356.285-.644.637-.646h43.925c.353 0 .639.29.639.646a.643.643 0 0 1-.64.646zM56.308 59.798H12.383a.643.643 0 0 1-.637-.646c0-.356.285-.645.637-.646h43.925c.353 0 .639.289.639.646a.643.643 0 0 1-.64.646zM56.308 54.054H12.383a.636.636 0 0 1-.452-.192.65.65 0 0 1-.185-.459.64.64 0 0 1 .637-.643h43.925c.169-.001.332.066.452.187s.187.285.187.456a.65.65 0 0 1-.186.46.636.636 0 0 1-.453.19zM59.02 48.361H37.277a.625.625 0 0 1-.6-.646.629.629 0 0 1 .168-.447.616.616 0 0 1 .432-.196H59.02c.341.011.61.299.6.643a.625.625 0 0 1-.6.646zM59.02 42.618H37.277a.616.616 0 0 1-.432-.197.629.629 0 0 1-.168-.447.625.625 0 0 1 .6-.646H59.02c.342.011.61.3.6.646a.625.625 0 0 1-.6.644zM59.02 36.874H37.277a.616.616 0 0 1-.432-.196.629.629 0 0 1-.168-.448.625.625 0 0 1 .6-.646H59.02c.342.012.61.3.6.646a.625.625 0 0 1-.6.644zM41.908 6.115a1.47 1.47 0 0 1-1.431-1.213c-.57-2.838-3.038-4.878-5.903-4.878-2.865 0-5.334 2.04-5.903 4.878a1.474 1.474 0 0 1-1.433 1.213H19.77c-.803 0-1.454.657-1.454 1.469v4.526c0 .39.152.764.425 1.04.273.277.643.432 1.029.432h29.615c.804 0 1.456-.66 1.456-1.472V7.584a1.464 1.464 0 0 0-1.456-1.47h-7.477zm-6.94-2.039a2.072 2.072 0 0 1 1.653 2.17 2.065 2.065 0 0 1-1.915 1.938 2.058 2.058 0 0 1-2.15-1.668 2.08 2.08 0 0 1 .557-1.875 2.03 2.03 0 0 1 1.855-.565z"/>
            <ellipse cx="21.187" cy="36.916" rx="11.178" ry="11.093" transform="rotate(-68.18 21.187 36.916)"/>
            <path d="M23.28 42.622a6.204 6.204 0 0 0-.895-3.073l-1.203 2.616-1.204-2.616a6.204 6.204 0 0 0-.903 3.073c-.013 1.633 1.83 1.775 2.091 1.787h.03c.266-.012 2.098-.166 2.084-1.787z"/>
            <path d="M28.72 39.644c-1.037-.674-1.77-2.465-1.64-4.624.132-2.16-.398-5.13-2.637-6.112-1.403-.614-2.077-.287-2.693.042-.35.19-.773.19-1.124 0-.614-.33-1.292-.656-2.693-.042-2.238.98-2.77 3.95-2.64 6.112.13 2.162-.602 3.95-1.638 4.624-1.037.674-.568 1.35 0 1.892.567.54 2.326-.1 3.72.879 1.393.98 2.026.135 2.245-.933.22-1.068 1.565-9.498 1.565-9.498s1.347 8.432 1.567 9.498c.219 1.066.851 1.907 2.245.933 1.394-.975 3.15-.338 3.718-.88.567-.54 1.04-1.21.004-1.89z"/>
            <path d="M21.19 42.21c-.728 0-1.408-.425-1.978-1.167-1.009-1.3-1.68-1.518-1.68-2.824v-6.53h7.317v6.53c0 1.316-.68 1.558-1.703 2.852-.568.714-1.237 1.138-1.957 1.138z"/>
            <path d="M17.538 34.551h-.182a.764.764 0 0 0-.65.362.781.781 0 0 0-.042.748l.872 1.828s.635-1.52.635-1.655c0-.136-.633-1.283-.633-1.283zM24.835 34.551h.183c.264 0 .51.136.65.362.14.225.156.508.042.748l-.872 1.828s-.635-1.52-.635-1.655c0-.136.632-1.283.632-1.283zM42.902 105.006l.307.63a.07.07 0 0 0 .058.042l.692.102c.03.003.055.024.065.052.009.03.001.06-.02.081l-.497.49a.075.075 0 0 0-.023.068l.118.7a.08.08 0 0 1-.033.074.078.078 0 0 1-.08.007l-.614-.327a.078.078 0 0 0-.072 0l-.614.327a.078.078 0 0 1-.08-.007.08.08 0 0 1-.033-.075l.118-.7a.075.075 0 0 0-.023-.067l-.496-.49a.077.077 0 0 1 .041-.133l.692-.102a.072.072 0 0 0 .054-.038l.306-.63a.078.078 0 0 1 .134-.004zM38.77 105.006l.306.63a.076.076 0 0 0 .058.042l.692.102c.03.003.055.024.064.052.01.03.002.06-.02.081l-.498.49a.073.073 0 0 0-.021.068l.117.7a.08.08 0 0 1-.032.074.078.078 0 0 1-.08.007l-.614-.327a.082.082 0 0 0-.074 0l-.614.327a.075.075 0 0 1-.08-.006.077.077 0 0 1-.03-.076l.114-.7a.073.073 0 0 0-.02-.067l-.499-.49a.08.08 0 0 1 .044-.133l.692-.102a.072.072 0 0 0 .058-.042l.307-.63a.076.076 0 0 1 .13 0zM34.643 105.006l.307.63c.01.023.032.039.058.042l.692.102c.03.004.054.025.063.053.008.029 0 .06-.021.08l-.497.49a.075.075 0 0 0-.023.068l.118.7a.08.08 0 0 1-.032.074.078.078 0 0 1-.081.007l-.614-.327a.078.078 0 0 0-.071 0l-.614.327a.078.078 0 0 1-.081-.007.08.08 0 0 1-.032-.075l.117-.7a.075.075 0 0 0-.023-.067l-.496-.49a.078.078 0 0 1-.02-.08.076.076 0 0 1 .064-.053l.692-.102a.07.07 0 0 0 .058-.042l.31-.63a.076.076 0 0 1 .126 0zM30.512 105.006l.307.63c.012.023.034.039.06.042l.693.102c.03.003.054.024.064.052.01.03.001.06-.02.081l-.497.49a.075.075 0 0 0-.023.068l.118.7a.08.08 0 0 1-.032.074.078.078 0 0 1-.081.007l-.614-.327a.078.078 0 0 0-.072 0l-.616.327a.075.075 0 0 1-.08-.006.077.077 0 0 1-.03-.076l.117-.7a.082.082 0 0 0-.023-.067l-.496-.49a.077.077 0 0 1 .041-.133l.693-.102a.072.072 0 0 0 .057-.042l.307-.63a.076.076 0 0 1 .127 0zM26.384 105.006l.307.63c.01.023.032.039.057.042l.693.102c.03.004.053.025.062.053.01.029.001.06-.02.08l-.497.49a.073.073 0 0 0-.02.068l.115.7a.077.077 0 0 1-.03.075.075.075 0 0 1-.081.006l-.616-.327a.078.078 0 0 0-.072 0l-.614.327a.078.078 0 0 1-.08-.007.08.08 0 0 1-.033-.075l.118-.7a.08.08 0 0 0-.02-.067l-.5-.49a.078.078 0 0 1-.02-.08.076.076 0 0 1 .065-.053l.692-.102a.076.076 0 0 0 .06-.042l.307-.63a.076.076 0 0 1 .127 0zM58.276 30.925H38.2a1.534 1.534 0 0 1-1.085-.468 1.567 1.567 0 0 1-.44-1.106 1.553 1.553 0 0 1 1.525-1.577h20.077c.852.01 1.536.716 1.528 1.577a1.553 1.553 0 0 1-1.528 1.574z"/>
            <path d="M17.538 34.551a16.607 16.607 0 0 0 2.064-2.7s2.056 2.264 5.24 2.7c0 0 .792-1.903.792-2.283 0-.38-.65-1.632-1.235-1.733-.584-.1-6.29-.59-7.017 0-.727.59.156 4.016.156 4.016z"/>
        </g>
        <rect width="69" height="109" x="72" y="45" fill="#BBBCEA" rx="5"/>
        <rect width="63" height="102" x="75" y="48" fill="#E7E9F8" rx="2.23"/>
        <path fill="#FFF" d="M128.364 129h-43.73c-.35-.001-.634-.225-.634-.5s.284-.499.634-.5h43.73c.351 0 .636.224.636.5s-.285.5-.636.5zM128.364 124h-43.73c-.35-.001-.634-.225-.634-.5 0-.277.284-.5.634-.5h43.73a.73.73 0 0 1 .45.146c.119.093.186.22.186.353 0 .277-.285.501-.636.501zM128.364 118h-43.73c-.35-.001-.634-.225-.634-.5 0-.277.284-.5.634-.5h43.73a.73.73 0 0 1 .45.146c.119.093.186.22.186.353 0 .277-.285.501-.636.501zM128.364 113h-43.73c-.35-.001-.634-.225-.634-.5.001-.276.284-.499.634-.5h43.73c.35 0 .635.223.636.5 0 .276-.285.5-.636.5zM128.364 107h-43.73c-.35-.001-.634-.225-.634-.5.001-.276.284-.499.634-.5h43.73c.35 0 .635.223.636.5 0 .276-.285.5-.636.5zM128.364 101h-43.73c-.35-.001-.633-.224-.634-.5 0-.275.284-.499.634-.5h43.73c.351 0 .636.224.636.5-.001.277-.286.5-.636.5zM128.364 95h-43.73c-.35-.001-.633-.224-.634-.5 0-.275.284-.499.634-.5h43.73c.351 0 .636.224.636.5-.001.277-.286.5-.636.5zM128.364 90h-43.73c-.35 0-.634-.225-.634-.502.004-.275.286-.497.634-.498h43.73c.351 0 .636.225.636.504-.004.275-.288.497-.636.496zM130.398 84h-21.796c-.343-.009-.612-.232-.602-.5-.01-.268.259-.491.602-.5h21.796c.343.009.612.232.602.5.01.268-.259.491-.602.5zM130.398 79h-21.796c-.343-.009-.612-.232-.602-.5-.01-.268.259-.491.602-.5h21.796c.343.009.612.232.602.5.01.268-.259.491-.602.5zM130.398 73h-21.796c-.343-.009-.612-.232-.602-.5-.01-.268.259-.491.602-.5h21.796c.343.009.612.232.602.5.01.268-.259.491-.602.5z"/>
        <path fill="#FFA171" d="M112.954 42.282a1.499 1.499 0 0 1-1.451-1.249c-.578-2.928-3.083-5.033-5.99-5.033s-5.412 2.105-5.99 5.033a1.503 1.503 0 0 1-1.454 1.25h-7.594c-.815 0-1.475.68-1.475 1.518v4.67c-.003.405.151.794.428 1.08.277.288.654.449 1.047.449h30.047c.816 0 1.477-.678 1.478-1.516V43.8c-.001-.838-.662-1.517-1.478-1.519h-7.568zm-7.04-2.1c1.026.207 1.744 1.166 1.676 2.239-.067 1.073-.899 1.929-1.943 2-1.044.07-1.977-.667-2.18-1.722-.138-.7.073-1.423.563-1.929a2.041 2.041 0 0 1 1.874-.588h.01z"/>
        <ellipse cx="92.865" cy="72.867" fill="#FFF" rx="11.149" ry="11.154" transform="rotate(-9.36 92.865 72.867)"/>
        <path fill="#E7E9F8" d="M95 79.16a6.78 6.78 0 0 0-.857-3.16L93 78.69 91.855 76A6.78 6.78 0 0 0 91 79.16c-.013 1.667 1.739 1.826 1.987 1.84h.028c.246-.014 1.998-.173 1.985-1.84z"/>
        <path fill="#BBBCEA" d="M101.357 75.861c-1.081-.662-1.847-2.415-1.71-4.534.138-2.118-.416-5.028-2.751-5.99-1.464-.599-2.167-.281-2.81.043a1.306 1.306 0 0 1-1.172 0c-.64-.324-1.349-.642-2.81-.043-2.335.96-2.89 3.872-2.754 5.99.135 2.119-.629 3.872-1.71 4.534-1.08.663-.592 1.324 0 1.854.593.53 2.427-.1 3.881.86 1.454.96 2.114.132 2.343-.915.229-1.047 1.632-9.306 1.632-9.306s1.406 8.268 1.647 9.31c.24 1.043.888 1.87 2.342.915 1.455-.956 3.287-.332 3.879-.86.592-.527 1.074-1.197-.007-1.858z"/>
        <path fill="#E7E9F8" d="M93.004 78c-.796 0-1.541-.446-2.165-1.22C89.735 75.424 89 75.194 89 73.829V67h8v6.828c0 1.375-.758 1.629-1.867 2.984-.609.754-1.341 1.188-2.13 1.188z"/>
        <path fill="#E7E9F8" d="M89.202 70h-.23c-.335-.001-.646.139-.823.37a.667.667 0 0 0-.052.766L89.2 73S90 71.45 90 71.312c0-.138-.798-1.312-.798-1.312zM95.8 70h.23c.334-.001.644.139.822.37.177.23.197.52.051.766L95.8 73s-.8-1.55-.8-1.688c0-.138.8-1.312.8-1.312z"/>
        <path fill="#FF8C52" d="M115.053 140.03l.259.55c.01.02.027.033.048.036l.583.088c.025.003.046.02.054.045a.07.07 0 0 1-.017.07l-.418.428a.071.071 0 0 0-.02.061l.1.611a.07.07 0 0 1-.026.068.063.063 0 0 1-.07.005l-.516-.285a.063.063 0 0 0-.06 0l-.516.285a.063.063 0 0 1-.07-.005.07.07 0 0 1-.026-.068l.1-.61a.071.071 0 0 0-.02-.062l-.417-.427a.07.07 0 0 1-.018-.07.065.065 0 0 1 .053-.046l.582-.088a.07.07 0 0 0 .049-.036l.258-.55a.065.065 0 0 1 .054-.03c.022 0 .042.011.054.03zM110.051 140.027l.26.549c.01.019.027.032.048.037l.584.087c.025.003.046.02.054.046a.07.07 0 0 1-.018.07l-.416.431a.07.07 0 0 0-.017.061l.099.61a.07.07 0 0 1-.026.068.064.064 0 0 1-.07.006l-.517-.285a.067.067 0 0 0-.062 0l-.518.285a.062.062 0 0 1-.069-.005.069.069 0 0 1-.024-.068l.097-.61a.07.07 0 0 0-.017-.062l-.42-.427a.071.071 0 0 1-.016-.07.067.067 0 0 1 .052-.046l.584-.087a.07.07 0 0 0 .049-.037l.258-.55a.064.064 0 0 1 .052-.03c.02 0 .04.01.053.027zM106.055 140.03l.258.55a.07.07 0 0 0 .049.036l.582.088a.065.065 0 0 1 .053.046.07.07 0 0 1-.018.07l-.417.427a.071.071 0 0 0-.02.061l.1.611a.07.07 0 0 1-.026.068.063.063 0 0 1-.07.005l-.516-.285a.063.063 0 0 0-.06 0l-.517.285a.063.063 0 0 1-.069-.005.07.07 0 0 1-.026-.068l.1-.61a.071.071 0 0 0-.02-.062l-.418-.427a.07.07 0 0 1-.017-.07.065.065 0 0 1 .054-.046l.583-.088a.066.066 0 0 0 .048-.036l.26-.55a.063.063 0 0 1 .054-.03c.021 0 .041.011.053.03zM103.052 140.035l.258.548c.01.02.03.033.05.037l.583.087c.025.003.046.02.054.045a.07.07 0 0 1-.017.07l-.418.427a.071.071 0 0 0-.02.06l.1.61a.07.07 0 0 1-.026.067.064.064 0 0 1-.07.006l-.516-.284a.063.063 0 0 0-.06 0l-.518.284a.062.062 0 0 1-.07-.005.069.069 0 0 1-.024-.068l.1-.61a.077.077 0 0 0-.02-.06l-.417-.426a.069.069 0 0 1-.018-.07.065.065 0 0 1 .053-.046l.582-.087a.07.07 0 0 0 .049-.037l.252-.548a.064.064 0 0 1 .056-.035c.024 0 .045.013.057.035zM98.055 140.03l.258.55a.07.07 0 0 0 .049.036l.582.088a.065.065 0 0 1 .053.046.07.07 0 0 1-.018.07l-.417.427a.078.078 0 0 0-.02.061l.1.61a.069.069 0 0 1-.025.069.062.062 0 0 1-.069.005l-.518-.285a.063.063 0 0 0-.06 0l-.517.285a.063.063 0 0 1-.069-.006.07.07 0 0 1-.026-.067l.1-.61a.076.076 0 0 0-.018-.062l-.42-.427a.07.07 0 0 1-.017-.07.065.065 0 0 1 .054-.046l.583-.088a.074.074 0 0 0 .05-.036l.258-.55a.063.063 0 0 1 .054-.03c.021 0 .041.011.053.03z"/>
        <path fill="#FFF" d="M129.48 67h-19.963c-.847-.01-1.526-.681-1.517-1.501a1.459 1.459 0 0 1 .438-1.054 1.558 1.558 0 0 1 1.079-.445h19.964c.847.009 1.527.68 1.519 1.499.008.82-.672 1.491-1.52 1.501z"/>
        <path fill="#BBBCEA" d="M88.468 71c.819-.768 1.548-1.61 2.174-2.51 0 0 2.167 2.104 5.524 2.51 0 0 .834-1.768.834-2.124 0-.356-.686-1.52-1.301-1.61-.616-.092-6.63-.55-7.397 0-.766.549.166 3.734.166 3.734z"/>
        <path fill="#BFB5F4" d="M194 63.099c-.003-1.131-.622-2.157-1.584-2.627-.963-.47-2.093-.3-2.896.437-.478-1.801-2.061-3.007-3.81-2.903-1.75.105-3.197 1.492-3.484 3.338a2.167 2.167 0 0 0-2.453.389c-.674.635-.937 1.634-.67 2.551.266.918 1.012 1.582 1.905 1.697V66h10.718l-.033-.031c1.327-.216 2.308-1.435 2.307-2.87zM175.171 43.817c-.758-.001-1.504.176-2.177.516-.965-2.657-3.582-4.406-6.48-4.33-2.897.074-5.414 1.957-6.233 4.66-2.368.003-4.284 1.872-4.281 4.174.003 2.301 1.925 4.165 4.293 4.162h14.878c1.712.037 3.311-.83 4.178-2.265a4.483 4.483 0 0 0 0-4.652c-.867-1.436-2.466-2.303-4.178-2.265z"/>
        <path fill="url(#c)" d="M40.625 124.25c-3.32 1.517-3.714 6.534.114 10.39 3.242 3.266 8.3 9.288 9.723 11.976 1.423 2.687 2.697 2.409-.237-9.555-2.933-11.963-7.302-13.864-9.6-12.81z"/>
        <path fill="#E7E9F8" d="M52 148.974l-.168.026c-.93-6.008-3.817-12.184-6.086-16.31A75.809 75.809 0 0 0 41 125.1l.137-.1a75.631 75.631 0 0 1 4.76 7.606c2.273 4.137 5.177 10.337 6.103 16.368z"/>
        <path fill="#E7E9F8" d="M44.896 130c-1.901-1.565-6.848-1.785-6.896-1.788V128c.205 0 5.058.226 7 1.829l-.104.171zM48.922 137c-2.394-1.268-5.859-.658-5.893-.653l-.029-.196c.034 0 3.552-.626 6 .67l-.078.179zM47.235 134.963l-.146.037c-.41-2.228.73-4.889.78-5l.131.084c-.01.027-1.153 2.71-.765 4.879zM50.335 141.973l-.288.027c-.258-1.001.633-3.88.672-4l.281.035c-.008.03-.914 2.966-.665 3.938z"/>
        <path fill="url(#d)" d="M42.868 141.106l.264-.212"/>
        <path fill="url(#e)" d="M52.28 151.146s-8.587-12.022-16.076-15.473c-7.49-3.45-12.327 7.33-3.313 10.376a69.396 69.396 0 0 1 15.872 7.87s6.327 3.77 3.518-2.773z"/>
        <path fill="#E7E9F8" d="M52.852 155l.148-.091c-3.591-6.44-9.911-11.236-14.579-14.126A61.423 61.423 0 0 0 29.06 136l-.059.17a61.162 61.162 0 0 1 9.337 4.763c4.65 2.886 10.943 7.661 14.515 14.067z"/>
        <path fill="#E7E9F8" d="M38 141.182l-.024-.182c-.048 0-4.835.704-7.976 3.87l.12.13c3.102-3.119 7.832-3.818 7.88-3.818zM43 144.157l-.015-.157c-.041 0-4.22.322-6.985 2.89l.132.11c2.716-2.525 6.826-2.839 6.868-2.843zM40.83 142l.17-.066c-1.024-1.51-.784-3.898-.784-3.922l-.19-.012c-.003.1-.243 2.453.804 4zM47.819 148l.181-.112c-1.176-.708-.597-2.84-.59-2.862l-.255-.026c-.025.09-.608 2.236.664 3z"/>
        <path fill="#DDDDE6" d="M80 156c0 .55-7.612 1-17 1s-17-.446-17-1 7.612-1 17-1 17 .45 17 1z"/>
        <rect width="7" height="34" x="51" y="121" fill="#FFA171" rx="3.5"/>
        <path fill="#F2854E" d="M53.998 124a2 2 0 1 1 .004 4 2 2 0 0 1-.004-4z"/>
        <path fill="#FC3C87" d="M55 130.833v21.336c0 .459-.448.831-1 .831s-1-.372-1-.831v-21.336c0-.459.447-.832 1-.833.553.001 1 .374 1 .833z"/>
        <rect width="7" height="34" x="57" y="121" fill="#BBBCEA" rx="3.5"/>
        <path fill="#3F0D86" d="M60.998 124a2 2 0 1 1 .004 4 2 2 0 0 1-.004-4z"/>
        <ellipse cx="60.353" cy="125.627" fill="#FFF" rx="1.573" ry="1.573" transform="rotate(-6.12 60.353 125.627)"/>
        <path fill="#FFF" d="M53.498 124a1.5 1.5 0 1 1 .004 3 1.5 1.5 0 0 1-.004-3z"/>
        <path fill="#3F0D86" d="M62 130.833v21.336c0 .459-.448.831-1 .831s-1-.372-1-.831v-21.336c0-.459.447-.832 1-.833.553.001 1 .374 1 .833z"/>
        <path fill="#43BFCB" d="M70.527 122.305l6.438 30.998c.184.891-.377 1.765-1.254 1.953l-3.315.708a1.626 1.626 0 0 1-1.925-1.271l-6.436-30.997c-.184-.89.376-1.763 1.251-1.953l3.318-.708a1.626 1.626 0 0 1 1.923 1.27z"/>
        <path fill="#1777AA" d="M67.585 124.044a2 2 0 1 1 .83 3.912 2 2 0 0 1-.83-3.912z"/>
        <path fill="#FFF" d="M67.188 125.033a1.5 1.5 0 1 1 .624 2.933 1.5 1.5 0 0 1-.624-2.933z"/>
        <path fill="#1777AA" d="M68.896 130.645l5.084 20.378c.108.438-.224.867-.742.96a1.105 1.105 0 0 1-.722-.114.823.823 0 0 1-.415-.512l-5.08-20.378c-.109-.438.223-.869.741-.962.518-.091 1.026.19 1.134.628z"/>
        <path fill="#E7E9F8" d="M209.512 144a5.5 5.5 0 1 1-.024-11 5.5 5.5 0 0 1 .024 11zm0-8.715a3.217 3.217 0 1 0 0 6.435 3.217 3.217 0 0 0 0-6.435z"/>
        <path fill="#DDDDE6" d="M33 160c0 .55-6.715 1-15.001 1S3 160.55 3 160s6.718-1 15.004-1c8.285 0 14.996.45 14.996 1z"/>
        <circle cx="67" cy="78" r="22" fill="#FFF" opacity=".52"/>
        <path fill="#FFF" d="M65 85.125l3.149 12.539a.438.438 0 0 0 .423.336c.2 0 .376-.139.424-.336L72 85l-7 .125z"/>
        <path fill="#F7B6B0" d="M61.311 72a1.38 1.38 0 0 0-1.005.41c-.249.263-.354.61-.286.947l.329 1.68c.106.558.652.965 1.291.963H62l-.689-4zM74.689 72a1.38 1.38 0 0 1 1.005.41c.249.263.354.61.286.947l-.329 1.68c-.106.558-.652.965-1.291.963H74l.689-4z"/>
        <path fill="#E39E98" d="M69.111 88h-1.234a2.905 2.905 0 0 1-2.098-.897 2.808 2.808 0 0 1-.773-2.118L65.324 80h6.352l.318 4.985c.05.782-.23 1.55-.777 2.122a2.906 2.906 0 0 1-2.106.893z"/>
        <path fill="#F7B6B0" d="M61 67v10.255c0 1.96.774 3.842 2.156 5.242l2.468 2.511A3.336 3.336 0 0 0 68 86c.894 0 1.75-.357 2.376-.992l2.468-2.499A7.465 7.465 0 0 0 75 77.267V67H61z"/>
        <path fill="#1F1C37" d="M59.896 72s1.154-.144 1.451-2.63c.298-2.486.893-2.407 2.603-2.109 1.71.3 7.792 2.787 10.487.544 1.693-1.403 1.908-3.502 1.136-5.214-1.122-2.483-3.87-3.394-8.102-1.79-3.5 1.327-3.966-1.367-7.575 1.64-4.266 3.547 0 9.559 0 9.559z"/>
        <path fill="#1F1C37" d="M74.418 72s-1.07-.266-1.387-3.48c-.316-3.214 1.873-.392 1.92 0 .25 2.16-.533 3.48-.533 3.48zM74.978 76s-.749 2.107-2.166 2.423c-1.417.315-.398-.756-4.72-.737h-.083c-4.323-.021-3.414 1.05-4.82.737C61.786 78.109 61.022 76 61.022 76c-.17 2.5.701 4.963 2.422 6.84 2.362 2.595 4.65 2.127 4.65 2.127.415.058 2.369.175 4.464-2.128 1.722-1.875 2.594-4.338 2.421-6.839z"/>
        <path fill="#F7B6B0" d="M71 80h-6s.522.98 2.98 1h.049C70.47 80.986 71 80 71 80z"/>
        <path fill="#1F1C37" d="M70 79.842s.722 0 .11.6c-.611.602 1.914.873 1.89 0-.024-.871-1.05-1.417-1.445-1.441-.394-.025-.555.84-.555.84zM66 79.842s-.722 0-.11.6c.611.602-1.91.873-1.89 0 .021-.871 1.05-1.417 1.445-1.441.394-.025.555.84.555.84z"/>
        <path fill="#CE4676" d="M67.731 91h-.461c-.372 0-.697-.22-.787-.533l-.459-1.592a.634.634 0 0 1 .149-.604.862.862 0 0 1 .64-.271h1.375c.25 0 .485.1.639.271.154.171.209.394.15.604l-.46 1.588c-.087.315-.412.537-.786.537zM69 99h-2l.581-8h.838z"/>
        <path fill="#6B3485" d="M83 94.073v.99c-8.43 6.583-20.57 6.583-29 0v-.99C54 89.615 57.798 86 62.483 86h2.465l3.124 11.673a.43.43 0 0 0 .42.312.43.43 0 0 0 .422-.312l2.95-11.662h2.667c4.675.008 8.463 3.613 8.469 8.062z"/>
        <path fill="#CE4676" d="M21.133 103.173c.47.917 1.994 1.099 3.419.408l25.213-12.16.235-.113L48.33 88l-25.448 12.268c-1.427.688-2.212 1.991-1.75 2.905z"/>
        <path fill="#B53E68" d="M21 103.19c.476.898 2.02 1.076 3.463.4L50 91.673 47.146 91 21 103.19z"/>
        <path fill="#FC3C87" d="M90.47 67.39c-4.38-8.709-13.686-13.973-23.574-13.338-9.888.634-18.412 7.043-21.596 16.237-3.184 9.194-.4 19.361 7.052 25.76 7.453 6.399 18.106 7.769 26.992 3.47 12.125-5.865 17.105-20.247 11.126-32.13zM78.28 97.423c-8.016 3.88-17.63 2.646-24.355-3.127-6.725-5.773-9.237-14.947-6.365-23.242 2.873-8.296 10.565-14.078 19.487-14.65 8.922-.573 17.317 4.179 21.269 12.037 5.386 10.72.89 23.688-10.046 28.977l.01.005z"/>
        <path fill="#F7B6B0" d="M7.613 155L7 157.425l2.387.575.613-2.187z"/>
        <path fill="#FC3C87" d="M5.642 157s-.934 2.611-.55 2.976c.438.41 1.224.178 2.263.374s1.94.486 2.281.535a11.29 11.29 0 0 0 1.91.11s.686-.102.371-.746c-.127-.258-.848-.392-1.548-.826-.845-.517-2.128-1.498-2.271-1.89L5.642 157z"/>
        <path fill="#1777AA" d="M21 117.987s-2.437 13.397-5.4 22.146A119.571 119.571 0 0 1 8.87 156L6 155.325s3.355-12.222 4.024-20.505c.67-8.284 2.414-16.526 3.449-18.555 1.848-3.636 7.527 1.722 7.527 1.722z"/>
        <path fill="#F7B6B0" d="M24 156l.135 2h2.603l.262-2zM23.728 96s-.643-3.174-.287-3.532c.357-.358 1.034.358 2.065-1.856 1.031-2.215.429-5.959-1.636-6.5-2.065-.54-5.268.87-5.72 4.103-.453 3.232.267 7.576.267 7.576l5.311.209z"/>
        <path fill="#42A1CD" d="M17.689 116s-2.274 5.584 1.441 11.583c3.715 6 5.963 28.417 5.963 28.417h2.658s1.694-17.082 1.137-21.834C28.33 129.415 25.26 116 25.26 116H17.69z"/>
        <path fill="#FFA171" d="M43 95.648s-6.318 5.43-7.868 5.672c-1.55.244-8.735-.364-8.735-.18 0 .183 1.177 3.476-.373 7.074s-1.07 8.865-1.07 8.865C19.43 119.697 14 115.902 14 115.902s1.732-3.355 1.722-6.896a9.197 9.197 0 0 0-.202-1.95c-.91-4.15 0-8.622 0-8.622s2.442-3.397 4.307-2.97c.569.13 1.15.2 1.734.211 1.086.025 2.097-.135 3.283-.027 2.354.213 8.489 2.196 9.418 2.134C35.192 97.72 41.45 94 41.45 94L43 95.648z"/>
        <path fill="#FF8C52" d="M22 95.256c-.72.494-.358 5.19-2.876 7.96A17.379 17.379 0 0 0 15.66 109a9.004 9.004 0 0 0-.22-2.011c-.99-4.278 0-8.89 0-8.89s2.642-3.5 4.67-3.06c.62.133 1.254.205 1.89.217z"/>
        <path fill="#1F1C37" d="M.296 98.567c-.66 2.643-.68 6.584 5.02 7.334 5.701.75 8.57-2.918 10.383-5.627 1.811-2.709 2.09-3.292 4.345-5.208 2.255-1.916 2.352-4.294 1.84-5.126-.514-.832-.875-1.333-.875-1.88 0-.549.622-.833.874-.46.252.374 1.135-.956 1.662-1.916.527-.96.681-1.458 0-2.417-.68-.96-5.11-2.292-6.8 0-1.689 2.293-.604 3-4.064 3.835S8.9 90.643 8.576 91.685c-.322 1.041-1.005 2.793-3.421 2.918-1.853.1-4.264 1.587-4.859 3.964z"/>
        <path fill="#F7B6B0" d="M41 94.766s2.433-1.886 2.86-1.76c.427.126-.133 1.911-1.533 2.994L41 94.766z"/>
        <path fill="#FC3C87" d="M25.128 158s-.288 2.706 0 2.91c.288.203 6.505 0 6.505 0s.644-.237.225-.78c-.419-.542-3.895-1.555-4.249-2.13h-2.48z"/>
        <path fill="#1F1C37" d="M72.698 72h-2.827c-.72.001-1.302.512-1.302 1.142v.32h-1.14v-.32c0-.63-.583-1.14-1.302-1.142h-2.825c-.346 0-.677.12-.922.335a1.073 1.073 0 0 0-.38.807v.718c0 .302.137.592.381.806.244.214.576.334.92.334h2.826c.718-.001 1.3-.51 1.302-1.14v-.106h1.14v.106c.007.626.587 1.13 1.302 1.132h2.827c.719-.001 1.3-.511 1.302-1.14v-.718c-.005-.627-.586-1.133-1.302-1.134zm-5.602 1.86c0 .469-.434.849-.97.849h-2.824c-.536 0-.97-.38-.972-.85v-.717c0-.47.435-.85.972-.85h2.825c.535 0 .969.381.969.85v.718zm6.571 0c0 .469-.434.849-.969.849h-2.827c-.535 0-.97-.38-.97-.85v-.717a.8.8 0 0 1 .283-.603c.182-.16.429-.251.687-.252h2.827c.536.001.97.382.97.851v.722z"/>
        <g fill="#43BFCB" opacity=".44" transform="translate(28 30)">
            <ellipse cx="7.549" cy="33.823" rx="6.919" ry="6.911" transform="rotate(-3.82 7.549 33.823)"/>
            <ellipse cx="78.123" cy="58.213" rx="6.914" ry="6.916" transform="rotate(-51.87 78.123 58.213)"/>
            <ellipse cx="21.316" cy="15.366" rx="6.918" ry="6.912" transform="rotate(-15.23 21.316 15.366)"/>
            <ellipse cx="43.664" cy="9.388" rx="6.917" ry="6.912" transform="rotate(-25.76 43.664 9.388)"/>
            <ellipse cx="66.049" cy="17.132" rx="6.912" ry="6.918" transform="rotate(-69.89 66.049 17.132)"/>
            <ellipse cx="78.77" cy="35.239" rx="6.916" ry="6.914" transform="rotate(-36.52 78.77 35.24)"/>
        </g>
        <ellipse cx="32.152" cy="66.437" fill="#43BFCB" rx="6.942" ry="6.942" transform="rotate(-40.92 32.152 66.437)"/>
        <ellipse cx="102.953" cy="90.954" fill="#43BFCB" rx="6.944" ry="6.94" transform="rotate(-86.32 102.953 90.954)"/>
        <ellipse cx="45.959" cy="47.889" fill="#43BFCB" rx="6.942" ry="6.942" transform="rotate(-48 45.96 47.889)"/>
        <ellipse cx="68.63" cy="42.224" fill="#43BFCB" rx="6.942" ry="6.94" transform="rotate(-59.331 68.63 42.224)"/>
        <ellipse cx="90.83" cy="49.654" fill="#43BFCB" rx="6.941" ry="6.943" transform="rotate(-26.18 90.83 49.654)"/>
        <ellipse cx="103.594" cy="67.855" fill="#43BFCB" rx="6.943" ry="6.941" transform="rotate(-58.22 103.594 67.855)"/>
        <path fill="#FFF" d="M68.94 41.993l-3.863-1.464a.112.112 0 0 1-.077-.107c0-.05.031-.093.077-.108l3.912-1.308a.109.109 0 0 1 .074 0l3.861 1.464c.046.016.076.06.076.11 0 .048-.03.092-.076.108l-3.911 1.305a.102.102 0 0 1-.074 0zM70 43.067l-.032 1.533c0 .238-.895.416-1.992.399-1.097-.017-1.982-.228-1.976-.466L66.03 43l1.973.657 1.997-.59zM106 89.061c.006-1.376-.897-2.586-2.204-2.951a2.98 2.98 0 0 0-3.38 1.39 3.084 3.084 0 0 0 .438 3.677L103.005 94l2.146-2.823a3.057 3.057 0 0 0 .849-2.116zm-2.997 1.484a1.406 1.406 0 0 1-1.3-.882 1.445 1.445 0 0 1 .306-1.557 1.39 1.39 0 0 1 1.534-.308c.525.222.867.743.866 1.321 0 .379-.148.742-.412 1.01a1.393 1.393 0 0 1-.994.416zM90.001 47a.123.123 0 0 1-.123-.122v-.756a.123.123 0 0 1 .21-.086.12.12 0 0 1 .034.086v.756a.12.12 0 0 1-.12.122zM93.152 48a.148.148 0 0 1-.14-.093.152.152 0 0 1 .035-.167l.685-.683a.15.15 0 0 1 .264.063.155.155 0 0 1-.053.154l-.686.683a.155.155 0 0 1-.105.043zM94.88 49.122h-.76a.12.12 0 0 1-.12-.12c0-.069.055-.124.122-.124h.758a.12.12 0 0 1 .12.12.121.121 0 0 1-.12.124zM88.846 48a.145.145 0 0 1-.092-.038l-.694-.634a.21.21 0 0 1-.03-.256c.052-.08.147-.096.214-.035l.694.637a.202.202 0 0 1 .054.204c-.021.075-.08.124-.146.122zM87.122 49.122a.125.125 0 0 1-.122-.123c0-.033.013-.064.036-.086a.12.12 0 0 1 .086-.035h.756a.123.123 0 0 1 .086.21.12.12 0 0 1-.086.034h-.756z"/>
        <path fill="#FFF" d="M92 49.055c-.001-.932-.61-1.746-1.485-1.986a1.978 1.978 0 0 0-2.25.963 2.1 2.1 0 0 0 .324 2.483c.429.433.649.806.649 1.424 0 .034.026.061.06.061H90.7a.06.06 0 0 0 .059-.06v-.069c0-.587.218-.927.63-1.336.39-.387.611-.922.61-1.48zM90.058 53h-.116c-.52 0-.942-.349-.942-.78V52h2v.22c0 .431-.422.78-.942.78zM106.452 66.98h-2.148v-.371c0-.336-.36-.609-.806-.609h-1.007c-.445 0-.805.273-.805.609v.372h-2.149a.633.633 0 0 0-.384.122.36.36 0 0 0-.153.294v3.187a.36.36 0 0 0 .153.294c.1.078.24.122.384.122h6.926a.634.634 0 0 0 .384-.122.36.36 0 0 0 .153-.294v-3.197c-.007-.226-.25-.405-.548-.406zm-4.503-.371c0-.224.24-.406.537-.406h1.007c.296 0 .537.182.537.406v.372h-2.081v-.372zm3.458 3.362h-4.833a.204.204 0 0 1-.124-.038.116.116 0 0 1-.05-.094.117.117 0 0 1 .048-.096.206.206 0 0 1 .126-.04h4.833c.047 0 .092.015.125.04.033.026.05.06.05.096-.004.07-.081.126-.175.126v.006zm0-.849h-4.833c-.097 0-.175-.059-.175-.132 0-.073.078-.132.175-.132h4.833c.097 0 .175.06.175.132 0 .073-.078.132-.175.132zm0-.812h-4.833c-.098 0-.177-.06-.177-.134 0-.074.079-.134.177-.134h4.833c.098 0 .178.06.178.134 0 .074-.08.134-.178.134zM37 65.446v.418c0 .075-.055.136-.123.136h-7.754a.117.117 0 0 1-.087-.04.145.145 0 0 1-.036-.096v-.418c0-.246.18-.446.401-.446h7.195c.107 0 .21.046.286.13a.472.472 0 0 1 .118.316z"/>
        <path fill="#FFF" d="M36.89 65h-7.775c-.03 0-.06.01-.082.031a.103.103 0 0 0-.033.078v3.52a.36.36 0 0 0 .116.263c.075.07.175.109.28.108h7.208a.407.407 0 0 0 .28-.108.36.36 0 0 0 .116-.263v-3.518a.112.112 0 0 0-.11-.111zm-6.498 3.306a.097.097 0 0 1-.098.094h-.456a.097.097 0 0 1-.098-.094v-.432a.098.098 0 0 1 .098-.092h.459a.098.098 0 0 1 .097.092l-.002.432zm0-1.108c0 .051-.044.092-.098.092h-.456c-.054 0-.098-.04-.098-.092v-.427c0-.05.044-.092.098-.092h.459c.054 0 .097.041.097.092l-.002.427zm0-1.107a.097.097 0 0 1-.098.094h-.456a.097.097 0 0 1-.098-.094v-.427c0-.052.043-.094.098-.095h.459a.097.097 0 0 1 .097.095l-.002.427zm1.176 2.215a.09.09 0 0 1-.028.066.1.1 0 0 1-.07.028h-.454a.1.1 0 0 1-.07-.028.09.09 0 0 1-.027-.066v-.432c0-.051.043-.092.097-.092h.454c.054 0 .098.04.098.092v.432zm0-1.108c0 .025-.01.049-.028.066a.099.099 0 0 1-.07.026h-.454a.099.099 0 0 1-.07-.026.087.087 0 0 1-.027-.066v-.427c-.001-.025.009-.048.027-.066a.099.099 0 0 1 .07-.026h.454c.026 0 .052.009.07.026a.087.087 0 0 1 .028.066v.427zm0-1.107a.09.09 0 0 1-.028.067.1.1 0 0 1-.07.027h-.454a.1.1 0 0 1-.07-.027.09.09 0 0 1-.027-.067v-.427a.09.09 0 0 1 .027-.067.1.1 0 0 1 .07-.028h.454a.1.1 0 0 1 .07.028.09.09 0 0 1 .028.067v.427zm1.176 2.215a.097.097 0 0 1-.098.094h-.456a.097.097 0 0 1-.098-.094v-.432a.098.098 0 0 1 .098-.092h.456a.098.098 0 0 1 .098.092v.432zm0-1.108c0 .051-.044.092-.098.092h-.456c-.054 0-.098-.04-.098-.092v-.427c0-.05.044-.092.098-.092h.456c.054 0 .098.041.098.092v.427zm0-1.107a.097.097 0 0 1-.098.094h-.456a.097.097 0 0 1-.098-.094v-.427c0-.052.044-.094.098-.095h.456a.097.097 0 0 1 .098.095v.427zm1.176 2.215a.09.09 0 0 1-.027.066.1.1 0 0 1-.07.028h-.457a.1.1 0 0 1-.068-.028.09.09 0 0 1-.027-.066v-.432c0-.05.042-.091.095-.092h.457c.054 0 .097.04.097.092v.432zm0-1.108c.001.025-.009.049-.028.066a.099.099 0 0 1-.07.026h-.456a.098.098 0 0 1-.068-.027.087.087 0 0 1-.027-.065v-.427c0-.024.009-.048.027-.065a.098.098 0 0 1 .068-.027h.457c.026 0 .051.009.07.026a.087.087 0 0 1 .027.066v.427zm0-1.107a.09.09 0 0 1-.027.067.1.1 0 0 1-.07.027h-.457a.1.1 0 0 1-.068-.028.09.09 0 0 1-.027-.066v-.427a.09.09 0 0 1 .027-.066.1.1 0 0 1 .068-.029h.457a.1.1 0 0 1 .07.028.09.09 0 0 1 .027.067v.427zm1.177 2.215a.09.09 0 0 1-.028.066.1.1 0 0 1-.07.028h-.454c-.056 0-.1-.042-.1-.094v-.432a.098.098 0 0 1 .1-.092h.454c.054 0 .098.04.098.092v.432zm0-1.108c0 .025-.01.049-.028.066a.099.099 0 0 1-.07.026h-.454a.101.101 0 0 1-.071-.026.09.09 0 0 1-.03-.066v-.427a.09.09 0 0 1 .03-.066.101.101 0 0 1 .07-.026H35c.026 0 .051.009.07.026a.087.087 0 0 1 .028.066v.427zm0-1.107a.09.09 0 0 1-.028.067.1.1 0 0 1-.07.027h-.454c-.056 0-.1-.042-.1-.094v-.427c0-.053.044-.095.1-.095h.454a.1.1 0 0 1 .07.028.09.09 0 0 1 .028.067v.427zm1.176 2.215a.097.097 0 0 1-.098.094h-.457a.097.097 0 0 1-.097-.094v-.432a.098.098 0 0 1 .097-.092h.457a.098.098 0 0 1 .098.092v.432zm0-1.108c0 .051-.044.092-.098.092h-.457c-.054 0-.097-.04-.097-.092v-.427c0-.05.043-.092.097-.092h.457c.054 0 .098.041.098.092v.427zm0-1.107a.097.097 0 0 1-.098.094h-.457a.097.097 0 0 1-.097-.094v-.427c0-.052.043-.094.097-.095h.457a.097.097 0 0 1 .098.095v.427z"/>
        <rect width="1" height="1" x="29" y="63" fill="#FFF" rx=".5"/>
        <rect width="1" height="1" x="34" y="63" fill="#FFF" rx=".5"/>
        <path fill="#FFF" d="M50.973 50.79l-1.354-1.73a.165.165 0 0 0-.126-.06h-5.986a.157.157 0 0 0-.126.06l-1.354 1.73a.123.123 0 0 0-.01.14.153.153 0 0 0 .136.07h8.692a.153.153 0 0 0 .137-.07.123.123 0 0 0-.009-.14zm-5.354 0l.08-.336h1.602l.08.335h-1.762z"/>
        <path fill="#FFF" d="M48.787 45h-5.572a.21.21 0 0 0-.152.063.219.219 0 0 0-.063.154v3.569c0 .057.023.113.063.153.04.04.096.062.152.06h5.572c.057.002.111-.02.151-.06a.214.214 0 0 0 .062-.153v-3.57a.216.216 0 0 0-.062-.153.208.208 0 0 0-.15-.063zm-.152 3.679h-5.277v-3.37h5.277v3.37z"/>
        <ellipse cx="151" cy="160" fill="#DDDDE6" rx="15" ry="1"/>
        <path fill="#1F1C37" d="M138.073 81.316s-.547 1.925 1.352 3.233c1.9 1.309 5.237 7.445 5.237 7.445s.492.115.818-.686c.327-.8 1.9-1.639 2.337-3.015.437-1.377.035-2.252-.62-2.763 0 0 .62-1.526-.073-2.435-.694-.908-3.54-2.507-6.093-1.997s-2.958.218-2.958.218z"/>
        <path fill="#F7B6B0" d="M139.705 84s-.948 4.188-.645 6.355c.303 2.168 2.314 2.131 2.314 2.131l.34 3.29 2.126.224 2.16-1.794s-1.1-2.991-1.1-3.701.948-1.421.873-2.466c-.076-1.046-.91-1.048-1.222-.636-.313.412-1.17.71-1.08-.448.09-1.158.554-2.057 0-2.095-.555-.039-3.539-.672-3.766-.86zM160.154 151l.846 1.738v.86l-1.656.402-1.344-2.188z"/>
        <path fill="#FC3C87" d="M158.812 153.51l2.272-1.51s2.058 1.57 1.908 2.23c-.15.66-1.572 1.593-2.02 2.407-.449.815-1.423 2.175-2.995 2.291-1.573.116-2.31.197-1.834-.634.475-.831 2.098-1.313 2.322-2.77.17-1.108.347-2.014.347-2.014z"/>
        <path fill="#1777AA" d="M143 133.663s1.393 4.38 3.78 7.693c2.385 3.312 10.938 13.644 10.938 13.644l3.282-1.948s-9.447-15.19-9.646-16.937c-.2-1.748-2.487-14.115-2.487-14.115l-5.867.68v10.983z"/>
        <path fill="#F7B6B0" d="M144 155.962l-.066 2.384-1.49.654-1.444-.654.244-3.346z"/>
        <path fill="#FC3C87" d="M141.996 158c-.779.239-1.576.441-2.387.606-1.191.234-2.752.654-2.599 1.005.154.35 2.875.349 3.77.257a9.083 9.083 0 0 1 2.538.051c1.304.211 1.704.01 1.681-.628a4.063 4.063 0 0 0-.304-1.291h-2.699z"/>
        <path fill="#42A1CD" d="M138.175 120s-.394 13.886 0 18.927c.394 5.042 3.438 18.073 3.438 18.073h3.538s-.786-16.264 0-20.45c.786-4.188 2.849-15.22 2.849-15.22l-9.825-1.33z"/>
        <path fill="#6B3485" d="M142.311 95.48s-3.58 4.788-4.108 7.395c-.528 2.607.142 16.83.142 16.83s9.804 1.965 11.163 1.053c0 0 .558-13.448.486-15.7-.073-2.253-1.016-9.896-3.588-11.058l-4.095 1.48z"/>
        <path fill="#FF8C52" d="M150.299 123.983l-26.621-5.386a.843.843 0 0 1-.66-.994l1.682-18.93a.85.85 0 0 1 1.001-.656l26.62 5.384c.458.093.755.539.662.996l-1.683 18.927a.85.85 0 0 1-1.001.659z"/>
        <path fill="#6ED8E5" d="M150.08 123.984l-26.406-5.278a.841.841 0 0 1-.534-.353.814.814 0 0 1-.123-.62l1.921-18.073a.84.84 0 0 1 .99-.643l26.4 5.276a.828.828 0 0 1 .655.975l-1.912 18.068a.825.825 0 0 1-.359.526.853.853 0 0 1-.632.122z"/>
        <path fill="#FFA171" d="M140.816 101.341l.12-.594a.85.85 0 0 0-.665-1.001l-8.519-1.729a.854.854 0 0 0-1.006.664l-.12.592a.854.854 0 0 1-1.006.662l-2.053-.416a.853.853 0 0 0-1.003.664l-3.547 17.382a.847.847 0 0 0 .666 1l26.75 5.418a.853.853 0 0 0 1.003-.664l3.547-17.382a.847.847 0 0 0-.666-1l-12.845-2.607a.85.85 0 0 1-.656-.989z"/>
        <path fill="#6B3485" d="M146.193 96.01c-2.05-.268-3.284 4.648-3.395 8.25-.111 3.603-1.206 7.307-6.798 14.136l1.72 1.604s7.09-6.974 8.473-9.625c1.384-2.652 3.258-13.94 0-14.364z"/>
        <path fill="#F7B6B0" d="M136.313 120s-1.909.895-2.202.945c-.293.05-.05.648 1.273.963a4.683 4.683 0 0 0 2.616-.224L136.313 120z"/>
        <path fill="#E39E98" d="M141 92.937s1.988-1.12 2.667-1.802c.678-.682.545 1.362-2.555 2.865L141 92.937z"/>
        <path fill="#F7B6B0" d="M135 98.388c.28-.268.685-.41 1.1-.385.642.075.9.737.9.737s0 1.55-.686 1.212c-.687-.338-1.314-1.564-1.314-1.564z"/>
        <path fill="#DDDDE6" d="M199 160c0 .55-5.148 1-11.499 1-6.35 0-11.501-.446-11.501-1s5.148-1 11.501-1 11.499.45 11.499 1z"/>
        <path fill="#1F1C37" d="M179.768 86.819c-.982.695-1.073 2.78.025 3.108.886.254 3.37 3.27 4.298 4.424.322.41.883.528 1.337.283h.016c.682-.394 2.091-3.291 1.67-4.698 0 0-.052-.598.228-.575.28.023 2.571.862 2.33 2.577-.24 1.715-.186 4.689 1.382 6.105 1.569 1.416 3.549 1.27 4.922.927 1.373-.343 2.757.776 3.975 1.736 1.219.96 5.229-.429 3.71-4.172-1.518-3.743-6.16-3.462-7.501-2.939-1.341.524-2.203-.968-3.47-5.098-1.265-4.13-5.994-2.047-6.544-1.366-.55.682-4.448-1.67-6.378-.312z"/>
        <path fill="#F7B6B0" d="M180.42 90s-.712 2.5-.282 4.37c.43 1.869 1.964 2.15 1.964 2.15l.13 3.48 4.214-1.883s-.732-1.941-.684-3.246c.049-1.305 1.28-1.99 1.237-2.636-.044-.646-.622-.87-1.075-.39-.382.406-.912.667-.907.07.006-.596.256-1.901-.325-1.761-.58.14-3.36.33-4.272-.154z"/>
        <path fill="#FC3C87" d="M185.048 87.185c.468.326.867.703 1.183 1.12.382.57.552.787.735.66.232-.158-.786-1.656-1.35-1.88-.566-.225-.703.064-.568.1z"/>
        <path fill="#E39E98" d="M181 95.204s1.228-.206 1.72-.997c.491-.792.56.883-1.693 1.793l-.027-.796z"/>
        <path fill="#F7B6B0" d="M184 156l-.137 2h-2.6l-.263-2z"/>
        <path fill="#1F1C37" d="M182.871 158s.29 2.706 0 2.91c-.29.203-6.505 0-6.505 0s-.643-.237-.225-.778c.419-.541 3.897-1.558 4.252-2.132h2.478z"/>
        <path fill="#F7B6B0" d="M193.386 155l.614 1.615-2.386.385-.614-1.458z"/>
        <path fill="#1F1C37" d="M194.36 157s.931 1.961.547 2.234c-.435.308-1.223.135-2.258.282-1.035.147-1.935.363-2.277.397-.636.07-1.277.097-1.918.084 0 0-.685-.078-.372-.56.13-.2.849-.295 1.548-.62.844-.398 2.124-1.123 2.268-1.418l2.461-.399z"/>
        <path fill="#1777AA" d="M178.271 118.51s-2.25 9.624-.763 20.182A501.547 501.547 0 0 0 180.62 158l3.153-.252s1.134-26.732 1.218-28.425c.084-1.694-.452-11.323-.452-11.323l-6.268.51z"/>
        <path fill="#42A1CD" d="M181 118.51s1.099 14.171 3.9 22.817A121.41 121.41 0 0 0 191.28 157l2.719-.663s-3.19-12.077-3.81-20.281c-.331-4.288-.06-8.962-.705-12.346-.588-3.087-2.088-5.03-2.56-5.988-.998-2-5.925.788-5.925.788z"/>
        <path fill="#FC3C87" d="M185.068 97.034h-.019l-3.624 1.177s-3.568 6.027-3.42 7.645c.147 1.618 1.712 12.144 1.712 12.144l6.95-1.086s1.803-7.509 2.286-10.974c.38-2.672-1.643-6.67-2.573-8.34a1.185 1.185 0 0 0-1.312-.566z"/>
        <path fill="#1777AA" d="M196.076 126.997l-27.519-2.01a.862.862 0 0 1-.59-.293.852.852 0 0 1-.206-.623L167 104.794a.861.861 0 0 1 .922-.792l27.523 2.01a.86.86 0 0 1 .796.916l.759 19.28a.853.853 0 0 1-.297.586.864.864 0 0 1-.627.203z"/>
        <path fill="#FFA171" d="M198.068 125.998l-27.817-1.964a.883.883 0 0 1-.596-.287.813.813 0 0 1-.21-.607L169 104.775c.036-.46.453-.806.932-.773l27.817 1.964c.48.034.84.434.805.894l.446 18.365c-.036.46-.453.806-.932.773z"/>
        <path fill="#43BFCB" d="M184.472 106.112l.045-.593a.823.823 0 0 0-.202-.606.844.844 0 0 0-.578-.285l-8.61-.626a.851.851 0 0 0-.614.2.83.83 0 0 0-.291.57l-.044.593a.844.844 0 0 1-.906.773l-2.07-.152a.851.851 0 0 0-.615.2.83.83 0 0 0-.29.572l-1.295 17.385a.828.828 0 0 0 .203.606.848.848 0 0 0 .577.288l27.014 1.96a.851.851 0 0 0 .615-.2.83.83 0 0 0 .29-.572l1.297-17.37a.828.828 0 0 0-.203-.607.848.848 0 0 0-.577-.287l-12.964-.945a.85.85 0 0 1-.581-.29.83.83 0 0 1-.2-.614z"/>
        <path fill="#DE3577" d="M184.628 98.085c-1.82.57-.923 4.512-.508 5.648.415 1.136 2.36 8.15 2.055 8.67-.304.522-4.175 11.994-4.175 11.994l1.815.603s4.787-8.545 5.873-12.065c1.085-3.52-.944-9.623-1.744-12.196-.8-2.573-2.395-2.948-3.316-2.654z"/>
        <path fill="#F7B6B0" d="M181.361 125.904c.66.105 1.867.431 2.639-1.254l-1.625-.65s-2.225 1.71-1.014 1.904z"/>
    </g>
</svg>
