<?xml version="1.0" encoding="UTF-8"?>
<svg width="151px" height="50px" viewBox="0 0 151 50" version="1.1" xmlns="http://www.w3.org/2000/svg" xmlns:xlink="http://www.w3.org/1999/xlink">
    <!-- Generator: Sketch 63.1 (92452) - https://sketch.com -->
    <title>Hippo-Full-Logo</title>
    <desc>Created with Sketch.</desc>
    <defs>
        <linearGradient x1="0.0119906227%" y1="56.2094922%" x2="482.260381%" y2="56.2094922%" id="linearGradient-1">
            <stop stop-color="#1B899E" offset="0%"></stop>
            <stop stop-color="#19819F" offset="9%"></stop>
            <stop stop-color="#136FA2" offset="38%"></stop>
            <stop stop-color="#1064A4" offset="68%"></stop>
            <stop stop-color="#0F60A5" offset="100%"></stop>
        </linearGradient>
        <linearGradient x1="-352.112004%" y1="61.8050778%" x2="1053.12829%" y2="61.8050778%" id="linearGradient-2">
            <stop stop-color="#1B899E" offset="0%"></stop>
            <stop stop-color="#19819F" offset="9%"></stop>
            <stop stop-color="#136FA2" offset="38%"></stop>
            <stop stop-color="#1064A4" offset="68%"></stop>
            <stop stop-color="#0F60A5" offset="100%"></stop>
        </linearGradient>
        <linearGradient x1="-187.143424%" y1="34.5035423%" x2="332.961805%" y2="34.5035423%" id="linearGradient-3">
            <stop stop-color="#1B899E" offset="0%"></stop>
            <stop stop-color="#19819F" offset="9%"></stop>
            <stop stop-color="#136FA2" offset="38%"></stop>
            <stop stop-color="#1064A4" offset="68%"></stop>
            <stop stop-color="#0F60A5" offset="100%"></stop>
        </linearGradient>
        <linearGradient x1="-303.687533%" y1="34.5397734%" x2="216.57991%" y2="34.5397734%" id="linearGradient-4">
            <stop stop-color="#1B899E" offset="0%"></stop>
            <stop stop-color="#19819F" offset="9%"></stop>
            <stop stop-color="#136FA2" offset="38%"></stop>
            <stop stop-color="#1064A4" offset="68%"></stop>
            <stop stop-color="#0F60A5" offset="100%"></stop>
        </linearGradient>
        <linearGradient x1="-398.68339%" y1="45.3385914%" x2="99.9925552%" y2="45.3385914%" id="linearGradient-5">
            <stop stop-color="#1B899E" offset="0%"></stop>
            <stop stop-color="#19819F" offset="9%"></stop>
            <stop stop-color="#136FA2" offset="38%"></stop>
            <stop stop-color="#1064A4" offset="68%"></stop>
            <stop stop-color="#0F60A5" offset="100%"></stop>
        </linearGradient>
        <linearGradient x1="49.3512905%" y1="37.4547729%" x2="51.2242574%" y2="78.8895545%" id="linearGradient-6">
            <stop stop-color="#1B899E" offset="0%"></stop>
            <stop stop-color="#19819F" offset="9%"></stop>
            <stop stop-color="#136FA2" offset="38%"></stop>
            <stop stop-color="#1064A4" offset="68%"></stop>
            <stop stop-color="#0F60A5" offset="100%"></stop>
        </linearGradient>
    </defs>
    <g id="Hippo-Full-Logo" stroke="none" stroke-width="1" fill="none" fill-rule="evenodd">
        <g id="hippo_full_1" transform="translate(5.500000, 4.000000)" fill-rule="nonzero">
            <path d="M79.1160076,28.5016637 C78.7853593,28.5806948 78.4500517,28.6387735 78.112085,28.6755533 C77.663832,28.7334527 77.2123595,28.7628797 76.7603832,28.7636574 C76.3653989,28.7679546 75.9709343,28.7337883 75.5825711,28.6616421 C75.2724625,28.6077852 74.9789241,28.4832297 74.7247157,28.2976332 C74.482435,28.1125781 74.3001587,27.8601336 74.2007284,27.571934 C74.0721878,27.1778487 74.0133434,26.764369 74.0268388,26.3500698 L74.0268388,21.8127107 L68.4415051,21.8127107 L68.4415051,28.5016637 C68.1108568,28.5806948 67.7755491,28.6387735 67.4375825,28.6755533 C66.9893294,28.7334527 66.537857,28.7628797 66.0858807,28.7636574 C65.6908964,28.7679546 65.2964318,28.7337883 64.9080685,28.6616421 C64.5979599,28.6077852 64.3044215,28.4832297 64.0502132,28.2976332 C63.8079324,28.1125781 63.6256562,27.8601336 63.5262259,27.571934 C63.3976852,27.1778487 63.3388409,26.764369 63.3523363,26.3500698 L63.3523363,10.9921409 C63.5633223,10.9527259 63.9041459,10.8993997 64.3701701,10.8321624 C64.8130822,10.7661678 65.260163,10.732075 65.7079607,10.7301472 C66.1029367,10.7260691 66.4973801,10.7602335 66.8857728,10.8321624 C67.1955087,10.8872792 67.4887728,11.0117183 67.7436282,11.1961713 C67.981501,11.383958 68.1608639,11.6357096 68.2606599,11.9218706 C68.3892005,12.3159559 68.4480449,12.7294356 68.4345495,13.1437348 L68.4345495,17.7993388 L74.0198832,17.7993388 L74.0198832,10.9921409 C74.2331878,10.9527259 74.5716929,10.8993997 75.037717,10.8321624 C75.4806292,10.7661678 75.9277099,10.732075 76.3755076,10.7301472 C76.7704836,10.7260691 77.164927,10.7602335 77.5533198,10.8321624 C77.8630556,10.8872792 78.1563198,11.0117183 78.4111751,11.1961713 C78.6522797,11.3823683 78.8342782,11.6344282 78.9351624,11.9218706 C79.0637031,12.3159559 79.1225474,12.7294356 79.109052,13.1437348 L79.1160076,28.5016637 Z" id="Path" fill="url(#linearGradient-1)"></path>
            <path d="M82.4036802,10.5562576 C82.3878672,9.86315648 82.6548988,9.19348478 83.1432906,8.70143528 C84.2584109,7.69330369 85.9557566,7.69330369 87.0708769,8.70143528 C87.5601178,9.19309839 87.8280057,9.86281822 87.8128058,10.5562576 C87.8280057,11.249697 87.5601178,11.9194168 87.0708769,12.4110799 C85.9557566,13.4192115 84.2584109,13.4192115 83.1432906,12.4110799 C82.6548988,11.9190304 82.3878672,11.2493587 82.4036802,10.5562576 L82.4036802,10.5562576 Z M87.580953,28.5897678 L86.6349937,28.7497462 C86.2164196,28.8174747 85.7930956,28.8515887 85.3690774,28.8517614 C84.9808552,28.8553706 84.5930313,28.825896 84.2098135,28.7636574 C83.8996161,28.7185668 83.6051289,28.5983842 83.3519581,28.4135596 C83.1106417,28.2302492 82.9245254,27.983966 82.8140596,27.7017716 C82.6737991,27.3255032 82.6091912,26.925249 82.6239404,26.5239594 L82.6239404,14.6855558 L83.5698997,14.5255774 C83.9876845,14.4577646 84.410245,14.4236496 84.8334975,14.4235622 C85.2217119,14.4201874 85.6095159,14.4496605 85.9927614,14.5116662 C86.3023879,14.5574047 86.59655,14.6766596 86.8506168,14.8594454 C87.0908432,15.0448059 87.2766612,15.2914954 87.3885152,15.573552 C87.5274974,15.9501571 87.5920644,16.3501572 87.5786345,16.7513642 L87.580953,28.5897678 Z" id="Shape" fill="url(#linearGradient-2)"></path>
            <path d="M97.207481,14.0456421 C98.30637,14.0398449 99.4001098,14.1960935 100.45342,14.5093477 C101.400628,14.7843066 102.278098,15.2586145 103.026986,15.9004645 C103.759735,16.5421793 104.336923,17.3421559 104.714874,18.2398591 C105.144658,19.3065373 105.352152,20.449728 105.324647,21.5994061 C105.347204,22.7079185 105.169702,23.8114158 104.80066,24.8569378 C104.485088,25.7375338 103.978324,26.5372704 103.316802,27.198651 C102.660964,27.8389528 101.868144,28.3217803 100.998274,28.6106345 C100.026049,28.9304596 99.0075874,29.0871459 97.9841878,29.0743401 C97.1955082,29.0807288 96.4114865,28.9529332 95.6656599,28.6964201 L95.6656599,33.5259137 C95.3605045,33.606781 95.0508245,33.6694912 94.7382487,33.7137145 C94.3050537,33.7829519 93.8669717,33.817068 93.4282805,33.8157297 C93.0401267,33.8200269 92.6523098,33.7913284 92.2690165,33.7299442 C91.9585205,33.6833467 91.6636278,33.5633229 91.4088426,33.3798464 C91.1708346,33.1969891 90.989876,32.9500812 90.8871739,32.6680584 C90.756921,32.2895296 90.6971969,31.8903215 90.7109657,31.4902462 L90.7109657,17.5072043 C90.6937851,17.0561749 90.814277,16.6105975 91.0564264,16.2296954 C91.3033808,15.8750815 91.6138929,15.5692861 91.9722449,15.3277881 C92.6650712,14.9021587 93.4210318,14.5891315 94.2119429,14.4003769 C95.1911519,14.1543803 96.1978995,14.0351602 97.207481,14.0456421 Z M97.2654442,25.1560279 C99.2593782,25.1560279 100.256345,23.9635317 100.256345,21.5785393 C100.256345,20.3419911 100.009036,19.4215355 99.5144162,18.8171726 C99.019797,18.2128096 98.307236,17.9121739 97.3767335,17.9152652 C97.0429778,17.9109228 96.7103351,17.9546505 96.3890406,18.0451028 C96.1265881,18.1211193 95.8725583,18.2236634 95.630882,18.3511485 L95.630882,24.7502855 C95.8739501,24.8704611 96.1277889,24.9674942 96.3890406,25.0401015 C96.6741558,25.1203215 96.9692773,25.1593588 97.2654442,25.1560279 L97.2654442,25.1560279 Z" id="Shape" fill="url(#linearGradient-3)"></path>
            <path d="M114.223157,14.0456421 C115.322063,14.039608 116.415837,14.1958615 117.469096,14.5093477 C118.417207,14.7838027 119.295536,15.2581475 120.044981,15.9004645 C120.777737,16.541655 121.35427,17.341823 121.730551,18.2398591 C122.162265,19.3060416 122.370592,20.4494753 122.342642,21.5994061 C122.361597,22.7008522 122.184162,23.7968659 121.818655,24.8360711 C121.502253,25.7162614 120.995598,26.5158266 120.334797,27.1777843 C119.678959,27.8180861 118.886139,28.3009135 118.016269,28.5897678 C117.044043,28.9095928 116.025582,29.0662792 115.002183,29.0534734 C114.213503,29.059862 113.429481,28.9320665 112.683655,28.6755533 L112.683655,33.505047 C112.378522,33.5860101 112.068836,33.6487214 111.756244,33.6928477 C111.323827,33.7620812 110.886516,33.7961977 110.448594,33.7948629 C110.060447,33.7989268 109.67265,33.7702299 109.28933,33.7090774 C108.979643,33.6621252 108.685584,33.5421173 108.431475,33.3589797 C108.193525,33.1755432 108.011953,32.9288932 107.907487,32.6471916 C107.779277,32.2682124 107.720374,31.8692396 107.733598,31.4693794 L107.733598,17.5072043 C107.714818,17.0572688 107.831966,16.6121051 108.069784,16.2296954 C108.320376,15.8742001 108.634852,15.5683718 108.997195,15.3277881 C109.690022,14.9021587 110.445982,14.5891315 111.236893,14.4003769 C112.213096,14.1551679 113.216676,14.0359538 114.223157,14.0456421 Z M114.281121,25.1560279 C116.2766,25.1560279 117.275113,23.9635317 117.276659,21.5785393 C117.276659,20.3419911 117.029349,19.4215355 116.53473,18.8171726 C116.04011,18.2128096 115.328322,17.9121739 114.399365,17.9152652 C114.064859,17.911117 113.731479,17.954839 113.409354,18.0451028 C113.147785,18.1215217 112.894564,18.2240529 112.653514,18.3511485 L112.653514,24.7502855 C112.895947,24.8700783 113.14898,24.9671002 113.409354,25.0401015 C113.69302,25.1196694 113.986518,25.1586984 114.281121,25.1560279 L114.281121,25.1560279 Z" id="Shape" fill="url(#linearGradient-4)"></path>
            <path d="M139.381504,21.5623096 C139.3991,22.6584719 139.21196,23.7482903 138.829694,24.7757893 C138.488711,25.6634975 137.957731,26.4659024 137.273962,27.1267766 C136.587089,27.7777388 135.768882,28.274197 134.874286,28.5828122 C133.872051,28.9235348 132.818979,29.0905522 131.760503,29.0766586 C130.700212,29.0913653 129.64603,28.9138354 128.649038,28.5526713 C127.753184,28.2267675 126.93568,27.7165184 126.249362,27.0549023 C125.567068,26.3855907 125.036521,25.577515 124.693629,24.6853668 C124.313216,23.6886547 124.124427,22.6290742 124.137183,21.5623096 C124.122955,20.4986493 124.311,19.441975 124.691311,18.4485266 C125.034202,17.5563784 125.564749,16.7483027 126.247043,16.0789911 C126.933954,15.4181352 127.751288,14.9079924 128.64672,14.5812221 C129.643711,14.220058 130.697893,14.0425281 131.758184,14.0572348 C132.820359,14.0435158 133.875952,14.2258669 134.871967,14.5951332 C135.76645,14.9314491 136.582971,15.446607 137.271643,16.109132 C137.953212,16.7790399 138.483648,17.5869482 138.827376,18.4786675 C139.204802,19.4624318 139.392814,20.5086897 139.381504,21.5623096 Z M129.20084,21.5623096 C129.20084,22.7447589 129.428836,23.6513033 129.884813,24.2819429 C130.318151,24.9002739 131.036189,25.2557989 131.790643,25.2255838 C132.540939,25.2592842 133.253561,24.8954855 133.666332,24.2680317 C134.106853,23.6142069 134.320157,22.7215736 134.320157,21.5623096 C134.320157,20.4030457 134.088305,19.5011383 133.652421,18.8704987 C133.205162,18.2767782 132.504996,17.9276219 131.761662,17.9276219 C131.018328,17.9276219 130.318162,18.2767782 129.870902,18.8704987 C129.422654,19.4934099 129.199302,20.3906802 129.20084,21.5623096 Z" id="Shape" fill="url(#linearGradient-5)"></path>
            <path d="M0.0301408629,19.6309759 C-0.169252538,18.3395558 0.665417513,16.9739429 2.0263934,16.3850368 C2.98202112,15.9533834 4.06582461,15.9003533 5.05902792,16.236651 C7.68128299,17.110736 10.0021294,15.6384708 10.3406345,12.9095635 C10.5307538,11.3770165 9.58943147,9.54769797 8.10325508,8.85213959 C6.9240022,8.32825456 5.7191667,7.86396343 4.49330711,7.46102284 C2.47618782,6.76546447 1.64615482,5.22596193 2.22810533,3.15087944 C2.92366371,0.672373096 5.15872462,-0.104333756 7.18743655,0.0115926396 C7.34045939,0.0115926396 7.50275635,0.215623096 7.62795685,0.352416244 C8.64579061,1.46530964 9.62420939,2.61761802 10.6814581,3.68877792 C11.1057487,4.11770558 11.6876992,4.40288452 12.2279162,4.70197462 C13.0330706,5.13459234 13.9709322,5.25037772 14.8571269,5.02656853 C16.4383629,4.69733756 17.1316028,5.13553934 17.7228274,6.64953807 C17.7529683,6.72836802 17.7900647,6.80487944 17.8665761,6.98572462 C18.1911701,5.82646066 18.8589061,5.1656802 19.9532513,5.00570178 C20.6117132,4.91064213 21.3605977,4.9825165 21.6898287,5.54591878 C22.0190596,6.10932107 21.7199695,6.81879061 21.2840863,7.308 C20.9223959,7.71374239 20.430868,8.00355838 19.9810736,8.35365609 C20.1619188,8.4626269 20.4447792,8.64115355 20.7276396,8.81736168 C24.3862766,10.9712741 28.3185,12.0470711 32.5776358,11.7155216 C34.2979835,11.581047 36.0090571,11.3190533 37.7270863,11.1382081 C41.5016497,10.7255102 44.8171447,11.8244924 47.5947411,14.4235622 C49.6814162,16.3757627 50.8824137,18.810217 51.3530749,21.6434581 C51.7495431,24.0431345 51.6312982,26.4335368 51.4713198,28.8308947 C51.4110381,29.7165723 51.3438008,30.5999315 51.2742449,31.5435723 C50.4905825,31.2630305 50.2564112,30.6161612 49.9550025,29.8672766 C48.8930784,33.7291369 48.4309346,37.7312547 48.5847525,41.7335025 L42.4105127,41.7335025 C42.1322893,40.3076079 41.8656586,38.9002614 41.5758426,37.4998706 C41.4715089,37.0013871 41.2906637,36.5214518 41.1724188,36.0276053 C41.1005444,35.7192411 40.9591142,35.6195444 40.6391574,35.6612779 C37.9913985,36.0136942 35.498981,35.503618 33.096986,34.2214721 C31.8403439,36.5701409 31.3001269,39.1112475 30.9175698,41.7358211 L24.8337525,41.7358211 C24.8337525,41.4900571 24.8337525,41.2442931 24.8337525,40.9985292 C24.8801231,37.9264797 24.4396028,34.9378972 23.2316497,32.0930635 C21.713014,28.5178934 19.1811815,25.8330381 15.9491536,23.7463629 C13.5544248,22.1745926 10.9214073,21.0001869 8.15194416,20.2685711 C5.81701578,19.6710685 3.40097816,19.4542044 0.996967005,19.6263388 C0.723380711,19.6448871 0.452112944,19.6564797 0.17852665,19.6657538 C0.127654702,19.6613256 0.0776825289,19.6496133 0.0301408629,19.6309759 Z" id="Path" fill="url(#linearGradient-6)"></path>
        </g>
    </g>
</svg>