<svg xmlns="http://www.w3.org/2000/svg" xmlns:xlink="http://www.w3.org/1999/xlink" width="252" height="173" viewBox="0 0 252 173">
    <defs>
        <path id="a" d="M1.748 8.713l4.747-.05.362-6.26C6.845 1.24 5.93.306 4.814.318L2.38.34C1.218.353.285 1.344.296 2.553L.343 7.28c.008.8.637 1.441 1.405 1.433"/>
    </defs>
    <g fill="none" fill-rule="evenodd">
        <path fill="#F1F1F1" d="M236.083 149.822s26.102-37.858 11.455-66.513c-19.48-38.108-48.338-31.637-80.983-44.136-32.646-12.5-61.953-45.12-88.144-32.2C38.734 26.546 65.01 50.647 16.761 87.17-17.78 113.32 11.774 150 11.774 150l224.31-.178"/>
        <path fill="#E9E3EA" d="M73 14c0 7.732-6.492 14-14.5 14S44 21.732 44 14 50.492 0 58.5 0 73 6.268 73 14"/>
        <path fill="#FFFEF9" d="M62 16h31s-1.144-4.713-6.295-5.106c0 0-2.194-.394-4.388 2.114C80.123 15.517 77.262 10 70.107 10 62.955 10 62 16 62 16M181 60h21s-.775-3.142-4.265-3.404c0 0-1.486-.263-2.972 1.41-1.486 1.672-3.425-2.006-8.27-2.006-4.847 0-5.493 4-5.493 4"/>
        <path fill="#ECE9FC" d="M196.495 86.281v-7.308h-4.184v7.308h-3.55v-7.308h-4.184v7.308H67.568V74.548h-9.192V67h-4.184v7.548H44V151h162V86.281h-9.505"/>
        <path fill="#FFF" d="M78 150h91V37H78z"/>
        <path stroke="#E39B97" stroke-width="2.054" d="M78 75.223h91m-91 33.554h91"/>
        <path stroke="#E39B97" stroke-width="3.08" d="M79 44.218h3.467m78.065 0H164m-84.3 70.564h3.467m77.365-31.116H164M81.433 46.728H84.9"/>
        <path fill="#DBE9E9" d="M87 66h17V49H87z"/>
        <path fill="#FFFFFE" d="M100.904 49L87 57.931V61l17-10.936L100.904 49M103.582 52L87 62.03V64l17-10.298-.418-1.702"/>
        <path fill="#5C4278" d="M87.286 64.721h14.428V50.28H87.286V64.72zM86 66h17V49H86v17z"/>
        <path fill="#261F3A" d="M85 70h20v-5H85z"/>
        <path fill="#5C4278" d="M87 58h17v-2H87z"/>
        <path fill="#E39B97" d="M85 71h20v-2H85z"/>
        <path fill="#DBE9E9" d="M114 66h17V49h-17z"/>
        <path fill="#FFFFFE" d="M127.904 49L114 57.931V61l17-10.936L127.904 49M130.582 52L114 62.03V64l17-10.298-.418-1.702"/>
        <path fill="#5C4278" d="M114.286 64.721h14.428V50.28h-14.428V64.72zM113 66h17V49h-17v17z"/>
        <path fill="#261F3A" d="M112 70h20v-5h-20z"/>
        <path fill="#5C4278" d="M114 58h17v-2h-17z"/>
        <path fill="#E39B97" d="M112 71h20v-2h-20z"/>
        <path fill="#DBE9E9" d="M140 66h17V49h-17z"/>
        <path fill="#FFFFFE" d="M153.904 49L140 57.931V61l17-10.936L153.904 49M157.582 52L141 62.03V64l17-10.298-.418-1.702"/>
        <path fill="#5C4278" d="M142.286 64.721h14.428V50.28h-14.428V64.72zM141 66h17V49h-17v17z"/>
        <path fill="#261F3A" d="M139 70h20v-5h-20z"/>
        <path fill="#5C4278" d="M140 58h17v-2h-17z"/>
        <path fill="#E39B97" d="M139 71h20v-2h-20z"/>
        <path fill="#DBE9E9" d="M87 98h17V81H87z"/>
        <path fill="#FFFFFE" d="M100.904 81L87 89.931V93l17-10.936L100.904 81M103.582 85L87 95.03V97l17-10.298-.418-1.702"/>
        <path fill="#5C4278" d="M87.286 96.72h14.428V82.28H87.286V96.72zM86 98h17V81H86v17z"/>
        <path fill="#261F3A" d="M85 102h20v-5H85z"/>
        <path fill="#5C4278" d="M87 90h17v-2H87z"/>
        <path fill="#E39B97" d="M85 104h20v-2H85z"/>
        <path fill="#DBE9E9" d="M114 98h17V81h-17z"/>
        <path fill="#FFFFFE" d="M127.904 81L114 89.931V93l17-10.936L127.904 81M130.582 85L114 95.03V97l17-10.298-.418-1.702"/>
        <path fill="#5C4278" d="M114.286 96.72h14.428V82.28h-14.428V96.72zM113 98h17V81h-17v17z"/>
        <path fill="#261F3A" d="M112 102h20v-5h-20z"/>
        <path fill="#5C4278" d="M114 90h17v-2h-17z"/>
        <path fill="#E39B97" d="M112 104h20v-2h-20z"/>
        <path fill="#DBE9E9" d="M140 98h17V81h-17z"/>
        <path fill="#FFFFFE" d="M153.904 81L140 89.931V93l17-10.936L153.904 81M157.582 85L141 95.03V97l17-10.298-.418-1.702"/>
        <path fill="#5C4278" d="M142.286 96.72h14.428V82.28h-14.428V96.72zM141 98h17V81h-17v17z"/>
        <path fill="#261F3A" d="M139 102h20v-5h-20z"/>
        <path fill="#5C4278" d="M140 90h17v-2h-17z"/>
        <path fill="#E39B97" d="M139 104h20v-2h-20z"/>
        <path fill="#DBE9E9" d="M87 131h17v-17H87z"/>
        <path fill="#FFFFFE" d="M100.904 114L87 122.931V126l17-10.936-3.096-1.064M103.582 117L87 127.03V129l17-10.298-.418-1.702"/>
        <path fill="#5C4278" d="M87.286 129.721h14.428V115.28H87.286v14.442zM86 131h17v-17H86v17z"/>
        <path fill="#261F3A" d="M85 134h20v-5H85z"/>
        <path fill="#5C4278" d="M87 123h17v-2H87z"/>
        <path fill="#E39B97" d="M85 137h20v-2H85z"/>
        <path fill="#DBE9E9" d="M140 131h17v-17h-17z"/>
        <path fill="#FFFFFE" d="M153.904 114L140 122.931V126l17-10.936-3.096-1.064M157.582 117L141 127.03V129l17-10.298-.418-1.702"/>
        <path fill="#5C4278" d="M142.286 129.721h14.428V115.28h-14.428v14.442zM141 131h17v-17h-17v17z"/>
        <path fill="#261F3A" d="M139 134h20v-5h-20z"/>
        <path fill="#5C4278" d="M140 123h17v-2h-17z"/>
        <path fill="#E39B97" d="M139 137h20v-2h-20z"/>
        <path fill="#DBE9E9" d="M112 150h20v-33h-20z"/>
        <path fill="#FFFFFE" d="M112 139v-3.297L132 121v3.296L112 139M112 143l.007-1.321L132 127l-.003 1.318L112 143"/>
        <path stroke="#5C4278" stroke-width="3.08" d="M122.05 117v33-33zM112 149.845h20v-27.879h-20v27.879z"/>
        <path fill="#5C4278" d="M108 120l3.406-7h20.695l2.899 7h-27"/>
        <path fill="#261F3A" d="M108 123h27v-3h-27z"/>
        <path fill="#5C4278" d="M74 40h97v-7H74z"/>
        <path fill="#261F3A" d="M74 40h97v-2H74z"/>
        <path fill="#5C4278" d="M149 36H97v-9.458C97 24.033 98.99 22 101.445 22h43.11c2.455 0 4.445 2.033 4.445 4.542V36"/>
        <text fill="#FFFFFE" font-family="LucidaGrande, Lucida Grande" font-size="10" letter-spacing=".077" transform="translate(26)">
            <tspan x="81.261" y="33">H</tspan> <tspan x="88.686" y="33" letter-spacing="-.023">O</tspan> <tspan x="96.432" y="33">TEL</tspan>
        </text>
        <path fill="#F1B4AB" d="M74.198 131.809h.01l-6.79-13.555a.47.47 0 0 0-.835 0l-6.552 13.12a7.605 7.605 0 0 0-1.03 3.97c.078 4.073 3.483 7.479 7.655 7.649 4.575.186 8.344-3.376 8.344-7.796a7.598 7.598 0 0 0-.802-3.388"/>
        <path stroke="#5C4278" stroke-width="1.611" d="M66.336 150v-21m0 6.65L70 132.037m-7 3.513l3.336 3.71"/>
        <path fill="#F1B4AB" d="M188.198 131.809h.01l-6.79-13.555a.47.47 0 0 0-.835 0l-6.552 13.12a7.609 7.609 0 0 0-1.03 3.97c.078 4.073 3.484 7.479 7.655 7.649 4.575.186 8.344-3.376 8.344-7.796a7.598 7.598 0 0 0-.802-3.388"/>
        <path stroke="#5C4278" stroke-width="1.611" d="M180.336 150v-21m0 6.65l3.664-3.612m-7 3.513l3.336 3.71"/>
        <path stroke="#5C4278" stroke-width="3.08" d="M26 149.5h200"/>
        <path fill="#F1CBC8" d="M161 172c0 .552-17.46 1-39 1s-39-.448-39-1 17.46-1 39-1 39 .448 39 1"/>
        <path fill="#191625" d="M139.572 167.336L137 172l7-2.963-1.27-3.037-3.158 1.336"/>
        <path fill="#A785B0" d="M137.378 132.089L134 148.473 139.196 168l4.804-1.933-4.661-18.004 3.35-6.13-.871-9.933-4.44.089"/>
        <path fill="#191625" d="M142 144.685l-.52-6.144L140 138l1.724 7 .276-.315M141.348 158l.652 8.796-1 .204.348-9M142.71 169.125L139 172l7-.277-.133-2.723-3.157.125"/>
        <path fill="#A785B0" d="M141 132l1.844 37h4.073L148 132.484l-7-.484"/>
        <path fill="#EA8D8C" d="M137.893 122l-.852 6.747c-.04.27-.051.545-.032.818l.23 8.435L139 127.07l-1.107-5.07"/>
        <path fill="#D44D8A" d="M139.373 116s-2.084 1.55-2.373 8.018l3 .982-.627-9"/>
        <path fill="#191625" d="M137.86 125l.14-4-1 3.8.86.2"/>
        <path fill="#D44D8A" d="M145.034 113l4.32 2.754c.445.312.688.833.64 1.37l-1.312 14.662L138 132l.718-15.597c.02-.421.236-.81.586-1.05l3.153-2.175 2.577-.178"/>
        <path fill="#EA8D8C" d="M150.513 123l1.463 8.683c.073.433-.02.877-.26 1.242l-4.66 7.075-2.056-2.109s3.549-5.666 3.545-5.864c-.005-.197-2.005-7.248-2.005-7.248l3.973-1.779"/>
        <path fill="#D44D8A" d="M148.629 117s1.728.949 3.371 6.8l-5.31 1.2-1.69-4 3.629-4"/>
        <path fill="#191625" d="M147 125l-2-4 1 3.757 1 .243"/>
        <path fill="#EA8D8C" d="M145 114.534l-.051-2.447-3.945-1.087.033 3.141c-.107.815.034 1.15.237 1.444.228.328.724.42 1.153.415 2.687-.033 2.572-1.466 2.572-1.466"/>
        <path fill="#EA8D8C" d="M140.549 112l5.065-.048.386-5.967c-.012-1.107-.988-1.996-2.18-1.985l-2.596.02c-1.24.012-2.236.957-2.224 2.11l.05 4.504c.008.762.679 1.374 1.499 1.366"/>
        <g transform="translate(138 104)">
            <mask id="b" fill="#fff">
                <use xlink:href="#a"/>
            </mask>
            <path fill="#191625" d="M6.7 6.871s-1.778-.635-1.759-1.92l-1.248.03-.014-.947s-.791-.271-.688-1.821l-2.956.031L.749.068 3.98-.214l2.664.759c.13.037.244.12.322.234l1.105 1.613a.63.63 0 0 1 .085.523l-.65 2.329L6.7 6.871" mask="url(#b)"/>
        </g>
        <path fill="#EA8D8C" d="M139.698 107l-1.634 1.618c-.165.164.01.384.302.382l1.634-.011-.302-1.989M143 108.01a1 1 0 1 0 2.001-.021 1 1 0 0 0-2.001.02"/>
        <path fill="#191625" d="M141 112.83s1.066-.147 2-.83l-1.98 2-.02-1.17M141.229 105.97l-2.674.03s-.027-.012-.072-.038c-.846-.5-.508-1.906.455-1.919L142 104l-.771 1.97"/>
        <path fill="#EA8D8C" d="M94.659 168s1.137-2.76 1.341-3.87L93.32 163 92 166.713 94.659 168"/>
        <path fill="#191625" d="M95.546 167.397L98 172l-7-3.096L92.389 166l3.157 1.397"/>
        <path fill="#D44D8A" d="M97.3 134s-2.01 3.927-.014 8.361c0 0-2.131 13.312-5.286 20.957L97.788 165s5.795-15.713 8.212-30.592L97.3 134"/>
        <path fill="#EA8D8C" d="M117 168.368s-.619-3.237-1.083-4.368l-2.917.787 1.01 4.213 2.99-.632"/>
        <path fill="#D44D8A" d="M107.674 134s6.803 16.793 9.326 30.896L111.484 166s-3.01-11.506-8.484-24.466V134h4.674"/>
        <path fill="#191625" d="M116.918 168l4.082 1.898-6.47 1.102-.53-2.503 2.918-.497M104 144.505l2-7.505-.745 10-1.255-2.495"/>
        <path fill="#EA8D8C" d="M114.326 117l-.293-1.347c-.12-.48.093-.983.553-1.26.433-.262.98-.492 1.414-.35L114.326 117"/>
        <path fill="#EA8D8C" d="M116.105 119c.06-.156.394-.837.633-1.32.174-.352.266-.743.262-1.142-.009-.886-.141-2.394-.924-2.538L114 116.777l.177 1.716 1.928.507"/>
        <path fill="#EA8D8C" d="M113 120.196l.954-2.196 2.046.975-1.5 3.025-1.5-1.804"/>
        <path fill="#A785B0" d="M104.68 117s1.808.255 2.734 2.676l3.405 7.486a2.008 2.008 0 0 1-.743 2.523 1.996 1.996 0 0 1-2.878-.824L104 122.167l.68-5.167"/>
        <path fill="#A785B0" d="M112.897 119L108 126.096l2.535 2.904 5.465-8.03-3.103-1.97"/>
        <path fill="#110F12" d="M116.926 111.097l-2.91 5.578c-.05.096.02.208.135.216l1.619.108a.461.461 0 0 0 .444-.239l2.766-5.367c.062-.12-.026-.26-.17-.27L117.11 111a.19.19 0 0 0-.183.096"/>
        <path fill="#FFFFFE" d="M116.52 111.104l-2.52 5.78 1.468.116 2.532-5.885-1.317-.114a.165.165 0 0 0-.163.103"/>
        <path fill="#191625" d="M107.84 122l.16 7-2-3.31 1.84-3.69"/>
        <path fill="#A785B0" d="M106.965 120.032S106.71 117 104.579 117c-.475 0-.744.256-.878.652l-1.254-.652-3.855 1.697s-1.766 5.528-1.578 15.893c0 0 7.04 1.162 10.85-.428l-.505-7.653s1.677-4.34-.394-6.477"/>
        <path fill="#191625" d="M98.167 124.742L99 124l-1 4 .167-3.258"/>
        <path fill="#EA8D8C" d="M100.456 137.537c-.758.707-2.023.591-2.827-.257-.804-.85-.842-2.11-.085-2.817.757-.707 2.023-.592 2.827.257.804.85.842 2.11.085 2.817"/>
        <path fill="#EA8D8C" d="M98 134.548c-.124-.195-1.66-2.548-1.66-2.548L95 133.262 96.687 136 98 134.548"/>
        <path fill="#A785B0" d="M98.442 118.433c-1.968 1.456-5.336 4.081-7.818 6.718a2.326 2.326 0 0 0-.345 2.69c.663 1.225 2.234 1.538 3.29.654l7.597-6.36c1.017-.85 1.12-2.415.223-3.4a2.196 2.196 0 0 0-2.947-.302"/>
        <path fill="#A785B0" d="M98 133.643L95.308 136 90 128.009 93.495 125 98 133.643"/>
        <path fill="#EA8D8C" d="M102.01 116.535l-.01-2.685 3-.85-.024 3.141c.01.943.04 1.154-.178 1.443-.217.287-.542.421-.863.416-2.011-.032-1.926-1.465-1.926-1.465"/>
        <path fill="#EA8D8C" d="M105.714 115l-4.328-.041-.386-5.972c.012-1.109.988-1.998 2.18-1.987l2.597.02c1.24.012 2.236.957 2.223 2.112l-.042 3.823c-.012 1.14-1.017 2.056-2.244 2.045"/>
        <path fill="#EA8D8C" d="M107.16 111l.806 1.618c.088.163-.005.384-.16.382l-.806-.011.16-1.989"/>
        <path fill="#191625" d="M105 114.83s-1.067-.147-2-.83l1.98 2 .02-1.17M102.729 111.024s3.626-.406 4.239-2.745c.076-.29.024-.694-.222-1.07-.56-.86-2.68-1.879-4.982-.617-3.287 1.8-1.143 5.465-.23 6.266.911.8.95-2.053.95-2.053l.245.219"/>
        <path fill="#EA8D8C" d="M104 111.01a1 1 0 1 1-2-.02 1 1 0 0 1 2 .02"/>
        <path fill="#191625" d="M101.912 108.172c-.395 1.33-2.02 2.107-3.629 1.735-1.608-.37-2.591-1.75-2.195-3.08.395-1.328 2.02-2.106 3.629-1.734 1.608.371 2.591 1.75 2.195 3.079"/>
        <path fill="#FFFEF9" d="M200 24c0 6.075-4.925 11-11 11s-11-4.925-11-11 4.925-11 11-11 11 4.925 11 11"/>
        <path fill="#D44D8A" d="M191.422 21.053c-2.223-.024-2.403 1.305-2.403 1.305s-.15-1.333-2.373-1.358c-2.224-.025-3.034 2.467-2.475 3.966.43 1.154 3.02 3.696 4.187 4.803a.849.849 0 0 0 1.15.013c1.192-1.08 3.84-3.565 4.297-4.71.593-1.485-.159-3.994-2.383-4.019"/>
        <path fill="#FFFEF9" d="M64.262 101H31.739C30.226 101 29 99.755 29 98.219V85.782C29 84.245 30.226 83 31.739 83h32.523C65.774 83 67 84.245 67 85.782v12.437c0 1.536-1.226 2.781-2.738 2.781"/>
        <path fill="#FFFEF9" d="M61 98v7l-7-6.926h7"/>
        <path fill="#E6B143" d="M37.059 94.038l.567 1.207c.01.02.028.034.05.038l1.268.193c.053.009.075.078.036.117l-.918.94a.072.072 0 0 0-.019.06l.217 1.326c.01.057-.047.1-.095.073l-1.134-.626a.06.06 0 0 0-.062 0l-1.134.626c-.048.026-.104-.016-.095-.073l.216-1.326a.07.07 0 0 0-.019-.06l-.917-.94c-.04-.039-.017-.108.036-.117l1.268-.193a.066.066 0 0 0 .05-.038l.567-1.207a.064.064 0 0 1 .118 0M43.059 94.038l.567 1.207c.01.02.028.034.05.038l1.268.193c.053.009.075.078.036.117l-.918.94a.07.07 0 0 0-.018.06l.216 1.326c.01.057-.047.1-.095.073l-1.134-.626a.06.06 0 0 0-.062 0l-1.134.626c-.048.026-.104-.016-.095-.073l.217-1.326a.072.072 0 0 0-.02-.06l-.917-.94c-.04-.039-.017-.108.036-.117l1.268-.193a.066.066 0 0 0 .05-.038l.567-1.207a.064.064 0 0 1 .118 0M48.059 94.038l.567 1.207c.01.02.028.034.05.038l1.268.193c.054.009.075.078.036.117l-.918.94a.072.072 0 0 0-.019.06l.217 1.326c.01.057-.047.1-.095.073l-1.135-.626a.06.06 0 0 0-.06 0l-1.135.626c-.048.026-.105-.016-.095-.073l.217-1.326a.072.072 0 0 0-.02-.06l-.917-.94c-.039-.039-.018-.108.037-.117l1.268-.193a.065.065 0 0 0 .049-.038l.567-1.207a.064.064 0 0 1 .118 0"/>
        <path fill="#A585B0" d="M54.059 94.038l.567 1.207c.01.02.028.034.05.038l1.268.193c.053.009.075.078.036.117l-.918.94a.072.072 0 0 0-.019.06l.217 1.326c.01.057-.047.1-.095.073l-1.134-.626a.06.06 0 0 0-.062 0l-1.134.626c-.048.026-.104-.016-.095-.073l.216-1.326a.072.072 0 0 0-.018-.06l-.918-.94c-.04-.039-.017-.108.036-.117l1.268-.193a.066.066 0 0 0 .05-.038l.567-1.207a.064.064 0 0 1 .118 0M60.059 94.038l.567 1.207c.01.02.028.034.05.038l1.268.193c.053.009.075.078.036.117l-.918.94a.072.072 0 0 0-.018.06l.216 1.326c.01.057-.047.1-.095.073l-1.135-.626a.06.06 0 0 0-.06 0l-1.135.626c-.048.026-.104-.016-.095-.073l.216-1.326a.072.072 0 0 0-.018-.06l-.918-.94c-.039-.039-.018-.108.036-.117l1.268-.193a.065.065 0 0 0 .05-.038l.567-1.207a.064.064 0 0 1 .118 0M33 92h30v-1H33zM34 89h16v-1H34z"/>
        <path fill="#FFFEF9" d="M198.013 112h-11.026c-2.754 0-4.987-1.584-4.987-3.538V95.538c0-1.954 2.233-3.538 4.987-3.538h11.026c2.755 0 4.987 1.584 4.987 3.538v12.924c0 1.954-2.232 3.538-4.987 3.538"/>
        <path fill="#FFFEF9" d="M186 108h-8l7.916-7v7"/>
        <path fill="#FFFFFE" d="M201 101a2 2 0 1 1-4 0 2 2 0 0 1 4 0"/>
        <path fill="#A585B0" d="M193 102.176c-.882 0-1.597-.7-1.597-1.563 0-.864.715-1.563 1.597-1.563s1.597.7 1.597 1.563-.715 1.563-1.597 1.563zm4-1.262c0-2.162-1.79-3.914-4-3.914-2.209 0-4 1.752-4 3.914 0 .64.16 1.241.438 1.774h-.005l.033.057c.014.027.03.054.045.08l3.49 6.175 3.494-6.184.035-.063.017-.028h-.002a3.837 3.837 0 0 0 .455-1.81z"/>
    </g>
</svg>
