<svg xmlns="http://www.w3.org/2000/svg" width="855" height="698" viewBox="0 0 855 698">
    <g fill="none" fill-rule="evenodd">
        <path fill="#EEF" d="M.81 0c162.682 36.667 247.3 116.667 253.857 240C264.5 425 280.552 612.652 599 600.677c170.471-11.559 255.756 20.862 255.853 97.264L855.72-4 .81 0z"/>
        <path fill="#BFB5F4" fill-rule="nonzero" d="M737.481 158.194c-83.396 0-151.24-67.57-151.24-150.622 0-3.894.148-7.751.444-11.572H479.257c-.167 3.83-.252 7.687-.257 11.572C479 149.518 594.951 265 737.481 265A257.692 257.692 0 0 0 856 236.304V101.066c-28.656 36.092-72.32 57.138-118.519 57.128z" opacity=".29"/>
    </g>
</svg>
