<?xml version="1.0" encoding="utf-8"?>
<!-- Generator: Adobe Illustrator 15.0.0, SVG Export Plug-In . SVG Version: 6.00 Build 0)  -->
<!DOCTYPE svg PUBLIC "-//W3C//DTD SVG 1.1//EN" "http://www.w3.org/Graphics/SVG/1.1/DTD/svg11.dtd">
<svg version="1.1" xmlns="http://www.w3.org/2000/svg" xmlns:xlink="http://www.w3.org/1999/xlink" x="0px" y="0px" width="1856px"
	 height="687.267px" viewBox="0 0 1856 687.267" enable-background="new 0 0 1856 687.267" xml:space="preserve">
<g id="Shape_9_1_" enable-background="new    ">
	<g id="Shape_9">
		<g>
			<linearGradient id="SVGID_1_" gradientUnits="userSpaceOnUse" x1="38.5059" y1="332.8828" x2="1825.5996" y2="332.8828">
				<stop  offset="0" style="stop-color:#63DAFB"/>
				<stop  offset="1" style="stop-color:#E939CE"/>
			</linearGradient>
			<path fill-rule="evenodd" clip-rule="evenodd" fill="url(#SVGID_1_)" d="M1758.63,30.9H105.475
				c-36.986,0-66.969,29.983-66.969,66.97v470.026c0,36.986,29.982,66.97,66.969,66.97H1758.63c36.986,0,66.97-29.983,66.97-66.97
				V97.87C1825.6,60.883,1795.616,30.9,1758.63,30.9z"/>
		</g>
	</g>
</g>
<g id="Shape_1_1_" enable-background="new    ">
	<g id="Shape_1_2_">
		<g>
			<path fill-rule="evenodd" clip-rule="evenodd" fill="#FFFFFF" d="M335.217,180.962H205.309c0,0-26.664,6.2-14.882,35.034
				c0,0,48.368,51.778,96.734,96.424c0,0,16.123,15.812,33.485-1.24c0,0,16.122-16.743-1.55-34.105l-48.367-46.816h57.978
				c0,0,40.926,9.921,40.616,53.328c0,0-3.101,46.816-43.097,50.536H209.03c0,0-18.913,1.241-20.153,20.773v111.306
				c0,0,1.395,21.083,23.409,21.704c0,0,23.485,1.395,24.415-24.417v-80.456h98.129c0,0,81.619-8.604,82.859-101.616
				C417.689,281.416,417.432,188.004,335.217,180.962z"/>
		</g>
	</g>
</g>
<g id="Shape_2_1_" enable-background="new    ">
	<g id="Shape_2">
		<g>
			<path fill-rule="evenodd" clip-rule="evenodd" fill="#FFFFFF" d="M459.933,260.254c-24.881,0-24.416,20.696-24.416,20.696
				v184.632c2.093,23.02,25.114,21.16,25.114,21.16c21.625,0.466,22.09-21.16,22.09-21.16V281.648
				C481.791,260.953,459.933,260.254,459.933,260.254z"/>
		</g>
	</g>
</g>
<g id="Shape_3_1_" enable-background="new    ">
	<g id="Shape_3_2_">
		<g>
			<circle fill-rule="evenodd" clip-rule="evenodd" fill="#FFFFFF" cx="457.491" cy="205.029" r="24.3"/>
		</g>
	</g>
</g>
<g id="Shape_4_1_" enable-background="new    ">
	<g id="Shape_4">
		<g>
			<path fill-rule="evenodd" clip-rule="evenodd" fill="#FFFFFF" d="M594.57,261.418c0,0-26.509-1.628-48.135,12.091
				c0,0-2.558-12.557-21.394-12.324c0,0-21.393,0.697-23.021,24.88v177.655c0,0-0.93,22.556,23.486,23.719
				c0,0,24.416,2.325,25.811-23.487V343.037c0,0,0-34.415,39.996-33.02c0,0,32.787-0.697,37.438,31.16v122.312
				c0,0,0,23.022,24.184,23.952c0,0,23.021,3.953,24.648-26.276V341.177C677.584,341.177,673.862,264.905,594.57,261.418z"/>
		</g>
	</g>
</g>
<g id="Shape_5_1_" enable-background="new    ">
	<g id="Shape_5_2_">
		<g>
			<path fill-rule="evenodd" clip-rule="evenodd" fill="#FFFFFF" d="M896.165,180.962c-23.253-0.698-23.253,19.765-23.253,19.765
				v84.061c-22.672-21.858-66.737-22.439-66.737-22.439c-116.646,8.003-111.15,113.476-111.15,113.476
				c3.72,106.965,109.29,112.082,109.29,112.082c39.066,1.859,65.574-20.696,65.574-20.696h3.023
				c3.953,22.555,23.952,19.301,23.952,19.301c22.787-0.233,22.555-19.069,22.555-19.069V200.261
				C918.255,180.264,896.165,180.962,896.165,180.962z M806.988,439.771c-36.151,0-65.458-29.307-65.458-65.459
				c0-36.151,29.306-65.458,65.458-65.458c36.152,0,65.458,29.307,65.458,65.458C872.446,410.464,843.14,439.771,806.988,439.771z"
				/>
		</g>
	</g>
</g>
<g id="Shape_6_1_" enable-background="new    ">
	<g id="Shape_6">
		<g>
			<path fill-rule="evenodd" clip-rule="evenodd" fill="#FFFFFF" d="M1162.726,358.926
				c-20.967-101.138-111.306-98.903-111.306-98.903c-118.748,4.082-114.718,117.196-114.718,117.196
				c4.447,107.754,112.547,109.755,112.547,109.755c55.039-3.459,77.82-29.144,77.82-29.144
				c17.786-14.229,8.372-32.245,8.372-32.245c-14.881-22.633-30.384-11.782-30.384-11.782
				c-22.323,25.114-53.018,25.424-53.018,25.424c-44.956-0.932-61.699-40.617-61.699-40.617h150.681
				C1169.546,397.062,1162.726,358.926,1162.726,358.926z M990.961,350.556c0,0,16.123-42.167,60.149-41.236
				c0,0,43.405-1.861,58.907,41.856L990.961,350.556z"/>
		</g>
	</g>
</g>
<g id="Shape_7_1_" enable-background="new    ">
	<g id="Shape_7_2_">
		<g>
			<path fill-rule="evenodd" clip-rule="evenodd" fill="#FFFFFF" d="M1319.375,462.559c-1.488-27.669-33.02-24.649-33.02-24.649
				c-56.506-11.627-56.738-64.412-56.738-64.412V199.564c-2.325-20.23-23.021-18.835-23.021-18.835
				c-24.804-1.551-24.338,21.625-24.338,21.625v184.166c14.982,94.237,96.191,99.524,96.191,99.524
				C1322.63,491.161,1319.375,462.559,1319.375,462.559z"/>
		</g>
	</g>
</g>
<g id="Shape_7_copy_1_" enable-background="new    ">
	<g id="Shape_7_copy">
		<g>
			<path fill-rule="evenodd" clip-rule="evenodd" fill="#FFFFFF" d="M1453.746,462.559c-1.488-27.669-33.02-24.649-33.02-24.649
				c-56.504-11.627-56.737-64.412-56.737-64.412V199.564c-2.326-20.23-23.021-18.835-23.021-18.835
				c-24.804-1.551-24.338,21.625-24.338,21.625v184.166c14.982,94.237,96.19,99.524,96.19,99.524
				C1457.003,491.161,1453.746,462.559,1453.746,462.559z"/>
		</g>
	</g>
</g>
<g id="Shape_8_1_" enable-background="new    ">
	<g id="Shape_8_2_">
		<g>
			<path fill-rule="evenodd" clip-rule="evenodd" fill="#FFFFFF" d="M1564.93,258.626c-63.911,0-115.724,51.812-115.724,115.725
				c0,63.912,51.813,115.724,115.724,115.724c63.914,0,115.725-51.812,115.725-115.724
				C1680.654,310.438,1628.844,258.626,1564.93,258.626z M1563.457,440.158c-36.386,0-65.884-29.497-65.884-65.884
				c0-36.387,29.498-65.885,65.884-65.885c36.389,0,65.885,29.498,65.885,65.885
				C1629.342,410.661,1599.846,440.158,1563.457,440.158z"/>
		</g>
	</g>
</g>
</svg>
