<svg xmlns="http://www.w3.org/2000/svg" width="103" height="87" viewBox="0 0 103 87">
    <defs>
        <linearGradient id="a" x1="50%" x2="50%" y1="0%" y2="100%">
            <stop offset="0%" stop-color="#DFDCFC"/>
            <stop offset="100%" stop-color="#DCF3FC"/>
        </linearGradient>
    </defs>
    <g fill="none" fill-rule="evenodd">
        <circle cx="43.5" cy="43.5" r="43.5" fill="url(#a)"/>
        <path stroke="#3A3838" stroke-width="2" d="M48.424 63.137l9.17-6.077H60a3 3 0 0 0 3-3V29a3 3 0 0 0-3-3H33a3 3 0 0 0-3 3v25.06a3 3 0 0 0 3 3h15.424v6.077z"/>
        <path fill="#FFF" stroke="#3A3838" stroke-width="2" d="M67.91 82.118l6.875-4.644H76a3 3 0 0 0 3-3V58a3 3 0 0 0-3-3H57a3 3 0 0 0-3 3v16.474a3 3 0 0 0 3 3h10.91v4.644zM83.2 52.103l11.49-7.869H99a3 3 0 0 0 3-3V7a3 3 0 0 0-3-3H63a3 3 0 0 0-3 3v34.234a3 3 0 0 0 3 3h20.2v7.87z"/>
        <text fill="#3A3838" font-family="ProximaNova-Bold, Proxima Nova" font-size="22" font-weight="bold" transform="translate(29 3)">
            <tspan x="12" y="46">#</tspan>
        </text>
        <path fill="#DCF3FC" stroke="#3A3838" stroke-width="2" d="M73 19.682c3.168-.4 5.266-4.083 6.292-11.048 2.058-1.276 3.23-.626 3.514 1.95.183 3.916-.178 6.234-1.085 6.955l7.31.15c1.356.514 2.002 1.714 1.939 3.6l.03 8.95c.016 2.388-.58 3.629-1.791 3.72l-11.893-.025c-2.044.325-3.403-.552-4.077-2.631"/>
        <path fill="#FFF" stroke="#3A3838" stroke-width="2" d="M68 19h6v13h-6z"/>
        <path fill="#2396FF" fill-rule="nonzero" d="M67 74a.801.801 0 0 1-.541-.212 164.39 164.39 0 0 0-1.592-1.43l-.003-.002c-1.41-1.254-2.628-2.337-3.475-3.405C60.44 67.758 60 66.627 60 65.391c0-1.2.394-2.308 1.11-3.119A3.694 3.694 0 0 1 63.912 61c.808 0 1.548.267 2.2.793.328.265.626.59.889.969.263-.38.56-.704.89-.97a3.429 3.429 0 0 1 2.2-.792c1.08 0 2.075.452 2.8 1.272.716.811 1.11 1.919 1.11 3.12 0 1.235-.441 2.366-1.388 3.56-.848 1.067-2.066 2.15-3.476 3.404-.482.429-1.028.915-1.595 1.432A.802.802 0 0 1 67 74z"/>
        <path stroke="#2396FF" stroke-linecap="round" stroke-width="2" d="M97.5 59.5h-13M84.5 64.5v5"/>
    </g>
</svg>
