<svg xmlns="http://www.w3.org/2000/svg" xmlns:xlink="http://www.w3.org/1999/xlink" width="238" height="170" viewBox="0 0 238 170">
    <defs>
        <path id="a" d="M22.983.75v25.468c0 6.369-5.137 11.532-11.475 11.532-8.563 0-14.191-9.123-10.234-16.753C4.72 14.35 11.13 6.854 22.983.75"/>
    </defs>
    <g fill="none" fill-rule="evenodd">
        <path fill="#60BEBC" d="M217.52 62h-11.04c-4.131 0-7.48-3.154-7.48-7.045v-3.91c0-3.891 3.349-7.045 7.48-7.045h11.04c4.13 0 7.48 3.154 7.48 7.044v3.911c0 3.89-3.35 7.045-7.48 7.045"/>
        <path fill="#60BEBC" d="M208 60l3.9 6 4.1-6h-8"/>
        <path fill="#FFFFFE" d="M212.932 57.583V59h-1.587v-1.366c-1.322-.09-2.578-.46-3.345-.97l.86-1.864c.82.524 1.983.88 3.054.88 1.085 0 1.508-.293 1.508-.727 0-1.417-5.263-.383-5.263-3.702 0-1.404 1.045-2.591 3.186-2.847V47h1.587v1.379c.98.076 1.944.332 2.684.753l-.806 1.877c-.886-.46-1.758-.69-2.565-.69-1.098 0-1.494.357-1.494.804 0 1.367 5.249.345 5.249 3.639 0 1.353-1.005 2.528-3.068 2.821"/>
        <path fill="#DDE2EB" d="M151 28a6 6 0 1 1-12 0 6 6 0 0 1 12 0M15 93a5 5 0 1 1-10 0 5 5 0 0 1 10 0M234.995 83.824a3 3 0 1 1-5.99.351 3 3 0 0 1 5.99-.35"/>
        <path fill="#60BEBC" d="M100 0l.565 1.47a3.422 3.422 0 0 0 1.966 1.965L104 4l-1.47.565a3.422 3.422 0 0 0-1.965 1.965L100 8l-.566-1.47a3.421 3.421 0 0 0-1.965-1.965L96 4l1.47-.565a3.421 3.421 0 0 0 1.965-1.965l.566-1.47M15 39l.424 1.102c.26.678.796 1.214 1.474 1.474L18 42l-1.102.424a2.566 2.566 0 0 0-1.474 1.474L15 45l-.424-1.102a2.565 2.565 0 0 0-1.473-1.474L12 42l1.103-.424a2.565 2.565 0 0 0 1.473-1.474L15 39M205 17l.423 1.102c.261.678.797 1.213 1.474 1.474L208 20l-1.103.423a2.569 2.569 0 0 0-1.474 1.475L205 23l-.424-1.102a2.566 2.566 0 0 0-1.474-1.475L202 20l1.102-.424a2.565 2.565 0 0 0 1.474-1.474L205 17"/>
        <path fill="#DDE2EB" d="M215.115 157.856s21.13-30.597 9.273-53.757c-15.77-30.8-39.13-25.57-65.558-35.672-26.427-10.101-50.152-36.466-71.354-26.024-32.12 15.819-10.85 35.298-49.907 64.817C9.606 128.355 33.53 158 33.53 158l181.585-.144"/>
        <path fill="#DBEFED" d="M238 162c0 4.418-53.278 8-119 8-65.722 0-119-3.582-119-8s53.278-8 119-8c65.722 0 119 3.582 119 8"/>
        <path fill="#ABB6D2" d="M81.006 142.935L82 158H66.947S52.997 140.085 50 110l31.006 32.935"/>
        <path fill="#879DC4" d="M64 130s1.897 15.006 18 20l-.384-6.578L64 130M107 142.5V158H92.24s-9.956-8.75-11.24-26l26 10.5"/>
        <path fill="#ABB6D2" d="M154 142.5V158h14.76s9.957-8.75 11.24-26l-26 10.5"/>
        <path fill="#879DC4" d="M154 150v-3.8l26-10.2s-2.432 6.387-13.483 11.733C161.832 150 154 150 154 150"/>
        <path fill="#ABB6D2" d="M143.255 144.9L91.08 146C68.944 146 51 128.091 51 106s17.944-40 40.08-40h64.708C175.235 66 191 81.734 191 101.142v9.716c0 19.408-28.298 34.041-47.745 34.041"/>
        <path stroke="#ABB6D2" stroke-linecap="round" stroke-linejoin="round" stroke-width="6.187" d="M56 95.288S36.87 89.446 38.145 78.28c1.276-11.166 13.87-5.572 10.288 2.307C45.06 88.008 34 96 34 96"/>
        <path fill="#7791B2" d="M118.201 73H87.798C86.805 73 86 72.104 86 71s.805-2 1.798-2h30.403c.994 0 1.799.896 1.799 2s-.805 2-1.799 2"/>
        <path fill="#ABB6D2" d="M143 142.5V158h-14.761s-9.956-8.75-11.239-26l26 10.5"/>
        <path fill="#879DC4" d="M119.451 106s-5.716 32.87 23.549 44v-12.207L119.451 106M186 49v26.157C186 81.697 180.64 87 174.026 87c-8.935 0-14.808-9.37-10.679-17.206C166.943 62.968 173.631 55.269 186 49"/>
        <g transform="translate(162 49)">
            <mask id="b" fill="#fff">
                <use xlink:href="#a"/>
            </mask>
            <path fill="#7892B6" d="M-10.017 16.843c.786-.049 26.047-1.97 38 14.336L15.436 37.75-1.058 25.44l-8.959-8.597" mask="url(#b)"/>
        </g>
        <path fill="#ABB6D2" d="M195 106c0 22.643-18.357 41-41 41s-41-18.357-41-41 18.357-41 41-41 41 18.357 41 41"/>
        <path fill="#879DC4" d="M152 47v27.533C152 81.418 146.639 87 140.026 87c-8.934 0-14.808-9.862-10.68-18.111C132.945 61.704 139.632 53.599 152 47"/>
        <path fill="#333167" d="M156 96a3 3 0 1 1-6 0 3 3 0 0 1 6 0M190 96a3 3 0 1 1-6 0 3 3 0 0 1 6 0"/>
        <path fill="#879DC4" d="M190 115c0 6.075-7.163 11-16 11s-16-4.925-16-11 7.163-11 16-11 16 4.925 16 11"/>
        <path fill="#333167" d="M173 114c0 2.761-.896 5-2 5-1.105 0-2-2.239-2-5s.895-5 2-5c1.104 0 2 2.239 2 5M184 114c0 2.761-.896 5-2 5-1.105 0-2-2.239-2-5s.895-5 2-5c1.104 0 2 2.239 2 5"/>
        <path fill="#60BEBC" d="M45 153.801v4.399c0 .044-.003.09-.013.134-.006.048-.02.093-.032.138-.016.042-.033.087-.055.124a.735.735 0 0 1-.165.211c0 .003-.003.003-.007.007 0 0 0 .003-.003.003a.423.423 0 0 1-.065.049c-.016.013-.032.024-.048.035-.004 0-.004.003-.007.003a.794.794 0 0 1-.207.08c-.006.003-.013.003-.022.003a.534.534 0 0 1-.13.013H15.751a.534.534 0 0 1-.13-.013c-.006 0-.015 0-.022-.004a.68.68 0 0 1-.207-.08c-.013-.01-.026-.017-.036-.024a.772.772 0 0 1-.255-.283c-.023-.037-.04-.082-.056-.124-.013-.045-.026-.09-.032-.138A.633.633 0 0 1 15 158.2V153.8a.64.64 0 0 1 .013-.138c.058-.376.366-.663.738-.663h28.495c.375 0 .683.287.741.663a.64.64 0 0 1 .013.138"/>
        <path fill="#81C9C7" d="M36 159h6v-6h-6z"/>
        <path fill="#81C9C7" d="M45 154.5H15c.058-.284.366-.5.739-.5h28.52c.375 0 .683.216.741.5M45 159c-.006.036-.02.07-.032.104-.016.03-.033.065-.055.093a.61.61 0 0 1-.165.158c0 .002-.003.002-.007.005 0 0 0 .003-.003 0v.003a.437.437 0 0 1-.065.036c-.016.01-.032.018-.049.026-.003 0-.003.003-.006.003a.931.931 0 0 1-.207.06c-.007.002-.013.002-.023.002a.706.706 0 0 1-.13.01h-28.52a.706.706 0 0 1-.13-.01c-.006 0-.015 0-.022-.003a.856.856 0 0 1-.207-.06c-.013-.007-.026-.012-.035-.018a.68.68 0 0 1-.256-.212c-.023-.028-.04-.062-.056-.093-.013-.034-.026-.068-.032-.104h30"/>
        <path fill="#60BEBC" d="M45 143.8v4.4c0 .044-.003.09-.013.134-.006.049-.02.093-.032.138-.016.042-.033.086-.055.125a.738.738 0 0 1-.165.21c0 .004-.003.004-.007.007 0 0 0 .004-.003.004a.577.577 0 0 1-.065.048c-.016.013-.032.024-.048.034-.004 0-.004.004-.007.004a.795.795 0 0 1-.207.08c-.006.003-.013.003-.022.003a.564.564 0 0 1-.13.013H15.751a.564.564 0 0 1-.13-.013c-.006 0-.015 0-.022-.004a.63.63 0 0 1-.113-.034c-.033-.014-.065-.028-.094-.045l-.036-.025a.77.77 0 0 1-.255-.282c-.023-.039-.04-.083-.056-.125-.013-.045-.026-.09-.032-.138A.635.635 0 0 1 15 148.2V143.8a.64.64 0 0 1 .013-.138c.058-.376.366-.662.738-.662h28.495c.375 0 .683.286.741.662a.64.64 0 0 1 .013.138"/>
        <path fill="#81C9C7" d="M36 149h6v-6h-6z"/>
        <path fill="#81C9C7" d="M45 144.5H15c.058-.284.366-.5.739-.5h28.52c.375 0 .683.216.741.5M45 149c-.006.036-.02.07-.032.104-.016.03-.033.064-.055.093a.614.614 0 0 1-.165.158c0 .003-.003.003-.007.005 0 0 0 .003-.003 0v.003a.596.596 0 0 1-.065.036.526.526 0 0 1-.049.026c-.003 0-.003.003-.006.003a.931.931 0 0 1-.207.06c-.007.002-.013.002-.023.002a.746.746 0 0 1-.13.01h-28.52a.746.746 0 0 1-.13-.01c-.006 0-.015 0-.022-.003a.792.792 0 0 1-.207-.06c-.013-.007-.026-.012-.035-.018a.68.68 0 0 1-.256-.212c-.023-.029-.04-.062-.056-.093-.013-.034-.026-.068-.032-.104h30"/>
        <path fill="#60BEBC" d="M45 128.8v4.4a.63.63 0 0 1-.013.134c-.006.048-.02.093-.032.138a.817.817 0 0 1-.22.334c0 .004-.003.004-.007.008 0 0 0 .003-.003.003a.515.515 0 0 1-.065.049c-.016.013-.032.023-.048.034-.004 0-.004.003-.007.003-.029.018-.06.031-.093.046a.67.67 0 0 1-.114.034c-.006.003-.013.003-.022.003a.534.534 0 0 1-.13.014H15.751a.534.534 0 0 1-.13-.014c-.006 0-.015 0-.022-.003a.679.679 0 0 1-.113-.034c-.033-.015-.065-.028-.094-.046-.013-.01-.026-.017-.036-.024a.775.775 0 0 1-.255-.283c-.023-.038-.04-.082-.056-.124-.013-.045-.026-.09-.032-.138a.63.63 0 0 1-.013-.135v-4.398c0-.048.003-.093.013-.139.058-.376.366-.662.738-.662h28.495c.375 0 .683.286.741.662.01.046.013.09.013.139"/>
        <path fill="#81C9C7" d="M36 134h6v-6h-6z"/>
        <path fill="#81C9C7" d="M45 128.5H15c.058-.284.366-.5.739-.5h28.52c.375 0 .683.216.741.5M45 133c-.006.036-.02.07-.032.103a.607.607 0 0 1-.22.251c0 .003-.003.003-.007.006 0 0 0 .003-.003 0v.003a.532.532 0 0 1-.065.036c-.016.01-.032.018-.049.026l-.006.002a.845.845 0 0 1-.207.06c-.007.003-.013.003-.023.003a.706.706 0 0 1-.13.01h-28.52a.706.706 0 0 1-.13-.01c-.006 0-.015 0-.022-.003a.856.856 0 0 1-.113-.026c-.032-.01-.065-.02-.094-.034l-.035-.018a.684.684 0 0 1-.256-.212c-.023-.029-.04-.062-.056-.094-.013-.033-.026-.067-.032-.103h30"/>
        <path fill="#60BEBC" d="M49 148.801v4.398a.925.925 0 0 1-.045.272c-.017.042-.033.087-.056.125a.717.717 0 0 1-.165.21c0 .004-.003.004-.006.007 0 0 0 .004-.003.004a.465.465 0 0 1-.065.048c-.016.014-.032.024-.048.035-.004 0-.004.003-.007.003-.029.017-.061.031-.093.045a.579.579 0 0 1-.114.034c-.006.004-.013.004-.023.004a.503.503 0 0 1-.129.014H19.751a.507.507 0 0 1-.13-.014c-.006 0-.016 0-.022-.004a.803.803 0 0 1-.207-.079c-.013-.01-.026-.017-.036-.024a.774.774 0 0 1-.256-.283c-.023-.038-.038-.083-.055-.125a.925.925 0 0 1-.045-.272V148.8c0-.048.003-.093.013-.138.058-.376.366-.663.738-.663h28.495c.375 0 .683.287.741.663.01.045.013.09.013.138"/>
        <path fill="#81C9C7" d="M41 154h6v-6h-6z"/>
        <path fill="#81C9C7" d="M49 149.5H19c.058-.284.366-.5.739-.5h28.52c.375 0 .683.216.741.5M49 154a.552.552 0 0 1-.032.103c-.017.032-.033.066-.056.094a.594.594 0 0 1-.165.158c0 .002-.003.002-.006.005 0 0 0 .002-.003 0v.002a.48.48 0 0 1-.065.037c-.016.01-.032.018-.049.026l-.006.002a.73.73 0 0 1-.207.06c-.007.002-.013.002-.023.002a.665.665 0 0 1-.13.011h-28.52a.67.67 0 0 1-.13-.01c-.006 0-.015 0-.022-.003a.71.71 0 0 1-.113-.026c-.032-.01-.065-.02-.094-.034l-.035-.018a.682.682 0 0 1-.257-.212c-.023-.028-.038-.062-.055-.094A.552.552 0 0 1 19 154h30"/>
        <path fill="#60BEBC" d="M49 138.8v4.4c0 .044-.003.09-.013.134-.006.048-.02.093-.032.138-.017.041-.033.086-.056.124a.722.722 0 0 1-.165.21c0 .004-.003.004-.006.008 0 0 0 .004-.003.004a.511.511 0 0 1-.065.048.356.356 0 0 1-.048.034c-.004 0-.004.004-.007.004a.835.835 0 0 1-.207.08c-.006.003-.013.003-.023.003a.56.56 0 0 1-.129.013H19.751a.564.564 0 0 1-.13-.013c-.006 0-.016 0-.022-.004a.8.8 0 0 1-.207-.08c-.013-.01-.026-.017-.036-.024a.774.774 0 0 1-.256-.283c-.023-.038-.038-.083-.055-.124-.013-.045-.026-.09-.032-.138A.638.638 0 0 1 19 143.2v-4.398a.64.64 0 0 1 .013-.138c.058-.376.366-.663.738-.663h28.495c.375 0 .683.287.741.663a.64.64 0 0 1 .013.138"/>
        <path fill="#81C9C7" d="M41 144h6v-6h-6z"/>
        <path fill="#81C9C7" d="M49 138.5H19c.058-.284.366-.5.739-.5h28.52c.375 0 .683.216.741.5M49 144c-.006.036-.02.07-.032.104-.017.03-.033.064-.056.093a.6.6 0 0 1-.165.158c0 .002-.003.002-.006.005 0 0 0 .003-.003 0v.003a.53.53 0 0 1-.065.036.376.376 0 0 1-.049.026c-.003 0-.003.003-.006.003a.981.981 0 0 1-.207.06c-.007.002-.013.002-.023.002a.74.74 0 0 1-.13.01h-28.52a.746.746 0 0 1-.13-.01c-.006 0-.015 0-.022-.003a.942.942 0 0 1-.207-.06c-.013-.008-.026-.012-.035-.018a.682.682 0 0 1-.257-.212c-.023-.029-.038-.063-.055-.093-.013-.034-.026-.068-.032-.104h30"/>
        <path fill="#60BEBC" d="M49 133.801v4.398a.925.925 0 0 1-.045.272c-.017.043-.033.088-.056.125a.707.707 0 0 1-.165.21c0 .004-.003.004-.006.008 0 0 0 .003-.003.003a.465.465 0 0 1-.065.049.506.506 0 0 1-.048.034c-.004 0-.004.003-.007.003-.029.018-.061.031-.093.046a.67.67 0 0 1-.114.034c-.006.003-.013.003-.023.003a.503.503 0 0 1-.129.014H19.751a.507.507 0 0 1-.13-.014c-.006 0-.016 0-.022-.003a.65.65 0 0 1-.113-.034c-.033-.015-.065-.028-.094-.046-.013-.01-.026-.017-.036-.024a.772.772 0 0 1-.256-.283c-.023-.037-.038-.082-.055-.124a.925.925 0 0 1-.045-.273v-4.398c0-.048.003-.093.013-.138.058-.376.366-.663.738-.663h28.495c.375 0 .683.287.741.663.01.045.013.09.013.138"/>
        <path fill="#81C9C7" d="M41 139h6v-6h-6z"/>
        <path fill="#81C9C7" d="M49 133.5H19c.058-.284.366-.5.739-.5h28.52c.375 0 .683.216.741.5M49 138a.553.553 0 0 1-.032.103c-.017.032-.033.066-.056.094a.587.587 0 0 1-.165.158c0 .003-.003.003-.006.005 0 0 0 .003-.003 0v.003a.48.48 0 0 1-.065.036.532.532 0 0 1-.049.026l-.006.002c-.03.014-.062.024-.094.034a.845.845 0 0 1-.113.026c-.007.003-.013.003-.023.003a.665.665 0 0 1-.13.01h-28.52a.67.67 0 0 1-.13-.01c-.006 0-.015 0-.022-.003a.819.819 0 0 1-.113-.026c-.032-.01-.065-.02-.094-.034-.013-.007-.026-.012-.035-.018a.681.681 0 0 1-.257-.212c-.023-.028-.038-.062-.055-.094A.553.553 0 0 1 19 138h30"/>
        <path stroke="#5969A3" stroke-linecap="round" stroke-linejoin="round" stroke-width="2.081" d="M78.983 113.25h-16m16 10h-16m16 10h-16m17 10h-16m17 9h-16m13-48.5l4 58m-20-58l4 58"/>
        <path stroke="#333A82" stroke-linecap="round" stroke-linejoin="round" stroke-width="2.081" d="M68.3 162l9.7-58H61.7L52 162"/>
        <path stroke="#333A82" stroke-linecap="round" stroke-width="2.081" d="M75.983 113.25h-16m14 10h-16m15 10h-16m14 10h-16m14 10h-15"/>
        <path fill="#354388" d="M76.572 84s1.813 6.459 2.406 12.584c.129 1.328-.315 2.646-1.224 3.567L61.62 116 59 111.545l10.357-12.483 2.179-13.423L76.572 84"/>
        <path fill="#0F0E13" d="M59.393 111l-2.996 1.247a.845.845 0 0 0-.268 1.166l4.555 7.253a.715.715 0 0 0 1.316-.312l-.332-5.73L59.393 111"/>
        <path fill="#38468A" d="M73.763 85l1.22 15.167a5.55 5.55 0 0 1-.088 1.52L71.47 119h-5.66l1.04-17.341L65 86.14 73.763 85"/>
        <path fill="#0F0E13" d="M66.525 119L66 122.163c0 .462.374.837.836.837h8.46a.705.705 0 0 0 .427-1.266L70.75 119h-4.225"/>
        <path fill="#8E554C" d="M76 46a2 2 0 1 1-4 0 2 2 0 0 1 4 0"/>
        <path fill="#8E554C" d="M74 47.842L75.305 52 78 50.653 75.916 46 74 47.842"/>
        <path fill="#E8D797" d="M72 65.556l4.23-7.09-3.448-9.506 5.23-1.96 3.892 11.034a4.173 4.173 0 0 1-.376 2.815L74.639 73 72 65.556M63.703 68.003l-12.065.336L51 73.532 63.755 74c1.394.034 2.648-.804 3.084-2.061.69-1.99-.929-4.022-3.136-3.935"/>
        <path fill="#8E554C" d="M58.398 58.43a2 2 0 1 1-2.796-2.861 2 2 0 0 1 2.796 2.861"/>
        <path fill="#8E554C" d="M54.634 59L53 62.057l2.58.943L57 59.192 54.634 59"/>
        <path fill="#E8D797" d="M57 61.211L53.793 72.18c-.356 1.216-1.5 1.977-2.697 1.792-1.591-.245-2.53-2.01-1.896-3.567L53.435 60 57 61.211M67.57 67.252L63 68.349l1.38 17.7S67.922 89.16 77 84.128L73.612 65l-3.518 2.002-2.523.25"/>
        <path fill="#43B0AA" d="M58 22c-9.389 0-17 7.612-17 17 0 9.389 7.611 17 17 17s17-7.611 17-17c0-9.388-7.611-17-17-17"/>
        <path fill="#81C9C7" d="M56 22c-9.389 0-17 7.612-17 17 0 9.389 7.611 17 17 17s17-7.611 17-17c0-9.388-7.611-17-17-17"/>
        <path fill="#60BEBC" d="M56 26c7.18 0 13 5.82 13 13s-5.82 13-13 13-13-5.82-13-13 5.82-13 13-13"/>
        <path fill="#4CB9B2" d="M55.756 26c-.254 0-.506.008-.756.022 6.964.385 11.801 6.047 11.801 12.978 0 6.93-4.837 12.593-11.801 12.977.25.015.502.023.756.023C63.07 52 69 46.18 69 39s-5.93-13-13.244-13"/>
        <path fill="#FFFFFE" d="M56.398 45.875V48h-2.38v-2.049c-1.983-.134-3.867-.69-5.018-1.455l1.29-2.796c1.23.785 2.975 1.321 4.581 1.321 1.627 0 2.262-.44 2.262-1.091 0-2.126-7.895-.574-7.895-5.553 0-2.106 1.568-3.888 4.78-4.27V30h2.38v2.068c1.468.115 2.916.498 4.027 1.13l-1.21 2.815c-1.329-.69-2.638-1.034-3.848-1.034-1.646 0-2.241.536-2.241 1.206 0 2.049 7.874.517 7.874 5.458 0 2.03-1.508 3.791-4.602 4.232"/>
        <path fill="#8E554C" d="M67.606 56.914c-1.579.538-.587 3.125-.587 3.125L65 61.018c.81 2.008 2.664 3.266 4.578 2.927 2.285-.405 3.783-2.929 3.346-5.638-.155-.963-.523-1.73-1.031-2.307-.055.008-2.724.381-4.287.914"/>
        <path fill="#8E554C" d="M66.632 67.558L66 63.539 69.335 63l.632 4.019c.147.933-.193 1.763-1.113 1.912l-.288.047a1.69 1.69 0 0 1-1.934-1.42"/>
        <path fill="#7D4641" d="M66 63s.608 4.375 4 3.974l-.382-2.501L66 63M73.98 59.8a1 1 0 1 1-1.96.399 1 1 0 0 1 1.96-.399"/>
        <path fill="#8E554C" d="M70.15 65.889l-.132.03c-1.926.442-3.805-.964-4.197-3.142l-.802-4.453c-.102-.564.22-1.114.719-1.23l4.59-1.056c.892-.205 1.761.445 1.942 1.452l.658 3.652c.392 2.178-.852 4.303-2.779 4.747"/>
        <path fill="#191B1F" d="M66.194 60l.47 2.43c.083.426.357.805.756.957.254.097.47.255.841.099 1.043-.442.355-1.046 2.582-1.49 2.042-.406 2.156.687 2.156.687s.147 2.27-2.588 3.086c-2.735.817-4.55-.611-4.822-3.067L65 60.301 66.194 60"/>
        <path fill="#191B1F" d="M67.312 57.084c1.709-.509 4.628-.865 4.688-.872-1.01-.999-2.532-1.388-4.143-1.139-2.5.386-4.256 2.152-3.778 4.738.077.42.211.817.383 1.189l2.209-.934s-1.085-2.469.64-2.982"/>
        <path fill="#8E554C" d="M65.935 61.647a1 1 0 1 1-1.87.706 1 1 0 0 1 1.87-.706"/>
        <path fill="#E3AB8F" d="M137 154.678L135.007 151 133 153.195l1.91 3.805 2.09-2.322"/>
        <path fill="#0F0E13" d="M137.515 155l2.312 2a.739.739 0 0 1-.144 1.08l-6.565 4.783a.724.724 0 0 1-.973-.114.618.618 0 0 1-.122-.563l2.213-4.797 3.279-2.389"/>
        <path fill="#354388" d="M115 124.064l6.037 17.082L131.767 156l5.233-3.035-8.978-13.267L123.436 124l-8.436.064"/>
        <path fill="#E3AB8F" d="M110.699 159l1.301-3.123-2.57-.877-1.43 3.101 2.699.899"/>
        <path fill="#0F0E13" d="M112 160.084l-.534 2.475c-.15.342-.623.523-1.056.404l-7.94-2.17c-.364-.1-.558-.415-.431-.703a.647.647 0 0 1 .441-.344l5.555-.746 3.965 1.084"/>
        <path fill="#38468A" d="M115.135 124.044l2.363 2.878-5.236 11.846-5.262 17.2 5.996 2.032 5.84-17.839L127 124l-2.811.033-9.054.011"/>
        <path fill="#E8D797" d="M117.708 106s-.361.052-.843.303c-1.179.614-1.87 1.886-1.839 3.22L115 125.423s5.409 1.719 11.626-.782l-.055-15.862c.007-.194.55-1.604.404-1.734-.39-.349-.905-.84-1.728-1.016a1.588 1.588 0 0 0-.33-.03h-7.21"/>
        <path fill="#E8D797" d="M115.087 108L111 118l8-1.818-3.913-8.182"/>
        <path fill="#DEA68A" d="M119.024 103.136l3.344-2.136.632.383-.053 3.817c-.014.998-.894 1.8-1.973 1.8-1.098 0-1.986-.829-1.974-1.843l.024-2.02"/>
        <path fill="#C57E71" d="M119 104s4.63.087 3.927-4l-1.162.682-2.743 1.855L119 104"/>
        <path fill="#FFFFFE" d="M120 106.73l2.072 2.27 1.928-4h-1.017L120 106.73M120 106.943L118 109l.223-4h.783l.994 1.943"/>
        <path fill="#C57E71" d="M116 98.97a1 1 0 1 0 2 .06 1 1 0 0 0-2-.06"/>
        <path fill="#191B1F" d="M116.536 95.008s-1.65 3.74.84 3.992l.624-1.956-.548-2.044-.916.008"/>
        <path fill="#DEA68A" d="M119.813 103.995l.108.004c1.6.05 2.935-1.306 2.982-3.031l.097-4.014c.012-.446-.314-.819-.728-.833l-3.813-.12c-.74-.024-1.357.603-1.379 1.4l-.079 3.379c-.047 1.725 1.211 3.164 2.812 3.215"/>
        <path fill="#191B1F" d="M116.412 96.728c-.325-.395-2.598-2.024-.597-4.077.987-1.015 1.927-.47 3.005-.013.423-.186 1.632-.694 2.964-.633 1.343.061 2.34.865 2.906 1.928l.001-.002s1.454.048 2.103 1.61c1.179 2.836-3.09 6.459-3.09 6.459l.002-3.569c-1.696-.118-1.743-1.601-1.603-2.529-2.707.549-5.047.26-5.047.26s.175.506-.325.06l-.23-.172c-.367-.151.007.835-.09.678"/>
        <path fill="#DEA68A" d="M123 99.97a1 1 0 1 0 2 .06 1 1 0 0 0-2-.06"/>
        <path fill="#81C9C7" d="M123 111c-9.388 0-17 7.611-17 17s7.612 17 17 17c9.389 0 17-7.611 17-17s-7.611-17-17-17"/>
        <path fill="#60BEBC" d="M123 115c7.18 0 13 5.82 13 13s-5.82 13-13 13-13-5.82-13-13 5.82-13 13-13"/>
        <path fill="#4CB9B2" d="M122.755 115c-.253 0-.505.008-.755.023 6.964.384 11.801 6.046 11.801 12.977 0 6.93-4.837 12.593-11.801 12.978.25.013.502.022.755.022 7.315 0 13.245-5.82 13.245-13s-5.93-13-13.245-13"/>
        <path fill="#FFFFFE" d="M124.399 134.874V137h-2.38v-2.049c-1.984-.134-3.868-.69-5.019-1.455l1.29-2.796c1.229.785 2.974 1.321 4.581 1.321 1.626 0 2.26-.44 2.26-1.092 0-2.125-7.893-.574-7.893-5.553 0-2.106 1.567-3.886 4.78-4.27V119h2.38v2.068c1.468.115 2.916.498 4.027 1.13l-1.21 2.815c-1.33-.69-2.638-1.034-3.848-1.034-1.646 0-2.241.536-2.241 1.206 0 2.049 7.874.517 7.874 5.457 0 2.03-1.507 3.792-4.601 4.232"/>
        <path fill="#DEA68A" d="M127.343 123.455c.883.712.83 1.692.117 2.573-.713.882-1.814 1.332-2.696.62a2.05 2.05 0 0 1-.308-2.885 2.054 2.054 0 0 1 2.887-.308"/>
        <path fill="#DEA68A" d="M129.734 122.79l-1.593 1.802c-.416.47-1.179.545-1.694.165-.516-.38-.597-1.076-.181-1.547l1.593-1.802c.416-.47 1.179-.545 1.695-.165.515.38.596 1.076.18 1.547"/>
        <path fill="#E8D797" d="M130.165 123l-3.631-2.008 4.307-6.019-6.75-4.992c-1.07-.868-1.846-3.093.121-4.615.73-.708 2.645-.29 3.371.421l8.874 7.065c.516.506.681 1.259.423 1.926L130.165 123"/>
        <path fill="#60BEBC" d="M218 151.801v4.398a.968.968 0 0 1-.045.273c-.016.041-.032.086-.055.124a.722.722 0 0 1-.165.21c0 .004-.003.004-.006.008 0 0 0 .003-.004.003a.391.391 0 0 1-.065.048c-.016.014-.032.024-.048.035-.003 0-.003.004-.006.004-.03.016-.062.03-.094.045a.655.655 0 0 1-.114.034c-.006.003-.012.003-.022.003a.533.533 0 0 1-.13.014H188.75a.533.533 0 0 1-.13-.014c-.006 0-.015 0-.022-.003a.679.679 0 0 1-.113-.034c-.032-.015-.065-.029-.094-.045-.012-.011-.025-.018-.035-.025a.777.777 0 0 1-.256-.283c-.023-.038-.039-.083-.055-.124a.9.9 0 0 1-.045-.273v-4.398c0-.048.003-.093.012-.138.06-.376.367-.663.738-.663h28.497c.374 0 .682.287.74.663.01.045.013.09.013.138"/>
        <path fill="#81C9C7" d="M209 157h6v-6h-6z"/>
        <path fill="#81C9C7" d="M218 152.5h-30c.059-.284.366-.5.738-.5h28.52c.376 0 .683.216.742.5M218 157a.58.58 0 0 1-.033.104c-.016.03-.032.064-.055.093a.6.6 0 0 1-.165.158c0 .003-.003.003-.006.005 0 0 0 .003-.004 0v.003a.404.404 0 0 1-.064.036l-.049.026c-.003 0-.003.003-.006.003a.827.827 0 0 1-.208.06c-.006.002-.012.002-.022.002a.704.704 0 0 1-.13.01h-28.52a.704.704 0 0 1-.13-.01c-.006 0-.015 0-.022-.003a.856.856 0 0 1-.113-.026c-.032-.01-.065-.02-.094-.033-.013-.009-.026-.014-.035-.018a.685.685 0 0 1-.256-.213c-.023-.029-.04-.062-.055-.093A.54.54 0 0 1 188 157h30"/>
        <path fill="#60BEBC" d="M229 141.8v4.4a.63.63 0 0 1-.013.134c-.006.048-.02.093-.032.138-.017.041-.033.086-.056.124a.705.705 0 0 1-.165.21c0 .004-.002.004-.005.008 0 0 0 .003-.004.003a.526.526 0 0 1-.065.049.415.415 0 0 1-.048.034c-.004 0-.004.003-.007.003-.028.017-.061.031-.094.045a.597.597 0 0 1-.113.035c-.006.003-.013.003-.023.003a.533.533 0 0 1-.129.014h-28.495a.533.533 0 0 1-.13-.014c-.006 0-.016 0-.022-.003a.604.604 0 0 1-.113-.035c-.033-.014-.065-.028-.094-.045-.013-.01-.026-.017-.036-.024a.769.769 0 0 1-.255-.283c-.023-.038-.04-.083-.056-.124-.013-.045-.026-.09-.032-.138a.63.63 0 0 1-.013-.135V141.8c0-.048.003-.093.013-.138.058-.376.366-.662.738-.662h28.495c.375 0 .683.286.741.662.01.045.013.09.013.138"/>
        <path fill="#81C9C7" d="M220 147h6v-6h-6z"/>
        <path fill="#81C9C7" d="M229 141.5h-30c.058-.284.366-.5.738-.5h28.52c.376 0 .684.216.742.5M229 146c-.006.036-.02.07-.032.103-.017.032-.033.065-.056.094a.586.586 0 0 1-.165.158c0 .003-.002.003-.006.005 0 0 0 .003-.003 0v.003a.541.541 0 0 1-.065.036.438.438 0 0 1-.049.026l-.006.002a.752.752 0 0 1-.208.06c-.006.003-.012.003-.022.003a.704.704 0 0 1-.13.01h-28.52a.704.704 0 0 1-.13-.01c-.006 0-.015 0-.022-.003a.76.76 0 0 1-.113-.026c-.032-.01-.065-.02-.094-.034l-.036-.018a.678.678 0 0 1-.255-.212c-.023-.029-.04-.062-.056-.094-.013-.033-.026-.067-.032-.103h30"/>
        <path fill="#60BEBC" d="M222 146.801v4.398c0 .045-.003.09-.013.134-.006.049-.02.094-.032.139-.016.041-.033.086-.055.124a.731.731 0 0 1-.165.21c0 .004-.003.004-.006.008 0 0 0 .003-.004.003a.423.423 0 0 1-.065.048c-.016.014-.032.024-.048.035-.004 0-.004.004-.007.004a.81.81 0 0 1-.207.078c-.006.004-.013.004-.022.004a.51.51 0 0 1-.13.014h-28.495a.5.5 0 0 1-.13-.014c-.006 0-.016 0-.022-.004a.568.568 0 0 1-.113-.034.96.96 0 0 1-.094-.044c-.013-.011-.026-.018-.036-.025a.775.775 0 0 1-.255-.283c-.023-.038-.04-.083-.056-.124a.869.869 0 0 1-.031-.139.594.594 0 0 1-.014-.134V146.8c0-.048.003-.093.014-.138.057-.376.365-.663.737-.663h28.495c.376 0 .683.287.741.663.01.045.013.09.013.138"/>
        <path fill="#81C9C7" d="M214 152h6v-6h-6z"/>
        <path fill="#81C9C7" d="M222 147.5h-30c.058-.284.365-.5.738-.5h28.52c.377 0 .684.216.742.5M222 152c-.006.036-.02.07-.032.104-.016.03-.033.065-.055.093a.607.607 0 0 1-.165.158c0 .003-.003.003-.007.005 0 0 0 .002-.003 0v.002a.437.437 0 0 1-.065.037c-.016.01-.032.018-.049.026-.003 0-.003.003-.006.003a.955.955 0 0 1-.207.059c-.007.002-.013.002-.023.002a.675.675 0 0 1-.13.011h-28.52a.662.662 0 0 1-.13-.01c-.006 0-.016 0-.022-.003a.717.717 0 0 1-.114-.026 1.131 1.131 0 0 1-.094-.033.682.682 0 0 1-.291-.23c-.023-.03-.039-.063-.055-.094A.518.518 0 0 1 192 152h30"/>
        <path fill="#60BEBC" d="M222 136.8v4.399c0 .045-.003.09-.013.135-.006.048-.02.093-.032.138-.016.041-.033.086-.055.124a.724.724 0 0 1-.165.21c0 .004-.003.004-.006.008 0 0 0 .003-.004.003a.465.465 0 0 1-.065.049.356.356 0 0 1-.048.034c-.004 0-.004.003-.007.003a.659.659 0 0 1-.207.08c-.006.004-.013.004-.022.004a.567.567 0 0 1-.13.013h-28.495a.557.557 0 0 1-.13-.013c-.006 0-.016 0-.022-.004a.755.755 0 0 1-.208-.08c-.012-.01-.025-.017-.035-.024a.775.775 0 0 1-.255-.283c-.023-.038-.04-.083-.056-.124-.013-.045-.026-.09-.031-.138a.599.599 0 0 1-.014-.135V136.8c0-.049.003-.094.014-.138.057-.376.365-.663.737-.663h28.495c.376 0 .683.287.741.663.01.044.013.09.013.138"/>
        <path fill="#81C9C7" d="M214 142h6v-6h-6z"/>
        <path fill="#81C9C7" d="M222 136.5h-30c.058-.284.365-.5.738-.5h28.52c.377 0 .684.216.742.5M222 141c-.006.036-.02.07-.032.104-.016.03-.033.064-.055.093a.6.6 0 0 1-.165.158c0 .003-.003.003-.007.005 0 0 0 .003-.003 0v.003a.48.48 0 0 1-.065.036.376.376 0 0 1-.049.026l-.006.002a.774.774 0 0 1-.207.06c-.007.003-.013.003-.023.003a.751.751 0 0 1-.13.01h-28.52a.737.737 0 0 1-.13-.01c-.006 0-.016 0-.022-.003a.887.887 0 0 1-.208-.06c-.013-.008-.025-.012-.035-.017a.683.683 0 0 1-.256-.213c-.023-.029-.039-.062-.055-.093A.527.527 0 0 1 192 141h30"/>
        <path fill="#D9C686" d="M209.4 131a1.7 1.7 0 0 1-1.56-1.023l-4.626-11.818c-.397-.886-.265-2.269.588-2.68l-.115-.366c.853-.412 2.87.255 3.945 2.778l3.368 8.9-1.6 4.209"/>
        <path fill="#DEA68A" d="M221 132.64l.87 5.36 3.13-.692-.875-5.308-3.125.64"/>
        <path fill="#0F0E13" d="M220.413 137.145L220 140.22a.826.826 0 0 0 .865.78l8.455-.29a.692.692 0 0 0 .68-.706.676.676 0 0 0-.296-.531L224.636 137l-4.223.145"/>
        <path fill="#354388" d="M208.061 128.915L218.27 120l4.73 3.246-10.486 12.564c-2.338 2.579-7.39 3.167-9.25.199-.262-.42-.013-.975-.264-1.507l5.061-5.587"/>
        <path fill="#354388" d="M218 123.815L220.544 136l5.456-.928-2.588-13.022a2.136 2.136 0 0 0-.844-1.546c-.556-.43-1.735-.59-2.586-.46-.24.037-.468.126-.678.242l-.765.426-.539 3.103"/>
        <path fill="#DEA68A" d="M219 146.83l1.066 5.17 2.934-.869-1.007-5.131-2.993.83"/>
        <path fill="#0F0E13" d="M219.73 151l-.728 2.742c-.03.405.32.754.783.78l8.463.477c.39.021.725-.237.75-.579a.586.586 0 0 0-.24-.506l-4.801-2.676-4.227-.238"/>
        <path fill="#38468A" d="M206.584 131l11.55.98c1.359-.044 2.551.913 2.845 2.28.073.342.136.735.185 1.186.307 2.791 1.836 12.776 1.836 12.776l-5.162.778-2.262-10.653-10.798.37c-2.157.146-4.257-.964-5.264-2.933-.385-.753-.608-1.614-.476-2.548l7.546-2.236"/>
        <path fill="#E8D797" d="M197.073 121.464l.585 13.536c10.274-.243 11.342-5.956 11.342-5.956l-1.423-10.315a4.772 4.772 0 0 0-.624-1.637c-.905-1.515-2.714-2.305-4.503-2.03l-.485-.062c-4.894.385-5.166 3.122-4.892 6.464"/>
        <path fill="#D9C686" d="M198 125.332l2-3.332-.974 6-.951-.671-.075-1.997"/>
        <path fill="#DEA68A" d="M202.229 132.12c-.526 1.035-.107 1.952.868 2.51.974.56 2.136.55 2.662-.486.526-1.036.162-2.329-.812-2.887-.976-.56-2.192-.173-2.718.863"/>
        <path fill="#DEA68A" d="M200.545 132.507l1.924 1.334c.503.348 1.136.105 1.407-.54.271-.646.082-1.46-.42-1.808l-1.925-1.334c-.503-.348-1.136-.105-1.407.54-.272.646-.082 1.46.42 1.808"/>
        <path fill="#E8D797" d="M200.55 134l2.45-2.958-6.096-3.607 5.114-7.148c.615-1.104.764-3.672-1.553-4.28v.155c-.914-.347-1.451-.296-3.13 1.782l-6.203 9.638a1.589 1.589 0 0 0 .357 1.778l9.06 4.64"/>
        <path fill="#191B1F" d="M209.168 108.768c-.704-.865-.478-2.217-.478-2.217.13-.802.05-1.422-.15-1.902-.752-2.765-4.016-2.878-6.71-2.48-3.165.47-3.83 3.714-3.83 3.714l1.693 1.17s2.04.865 4.178 1.264l-.098 3.683h6.154c.218-1.196-.055-2.367-.76-3.232"/>
        <path fill="#DEA68A" d="M201 115.223V111h4v4.223c0 .981-.895 1.777-2 1.777-1.104 0-2-.796-2-1.777"/>
        <path fill="#C57E71" d="M201 110s.426 4.246 4 3.989l-.003-2.127L201 110M208 108.991a1 1 0 1 1-2 .019 1 1 0 0 1 2-.019"/>
        <path fill="#DEA68A" d="M204.129 112.999h-.146c-2.158.017-3.924-1.465-3.943-3.312l-.04-3.774c-.005-.477.443-.869 1.002-.873l5.143-.04c.997-.008 1.813.678 1.822 1.532l.033 3.093c.02 1.846-1.714 3.357-3.871 3.374"/>
        <path fill="#191B1F" d="M202 107s.048 1.791-1.227 1.987c-1.276.197-.588-1.987-.588-1.987H202"/>
        <path fill="#191B1F" d="M200.975 103s-2.946-.113-4.418 3.91c-1.472 4.022.432 6.014.507 6.09h3.982c.236-1.156-.144-2.226-.568-3.102-.486-1.007-.101-2.16-.101-2.16l.029-.171c1.453-.095 4.977-.573 5.506-2.974l.088-.892-5.025-.7"/>
        <path fill="#DEA68A" d="M201 108.99a1 1 0 1 1-2 .02 1 1 0 0 1 2-.02"/>
    </g>
</svg>
