<svg xmlns="http://www.w3.org/2000/svg" width="269" height="156" viewBox="0 0 269 156">
    <g fill="none" fill-rule="evenodd">
        <path fill="#E9E3EA" d="M32.928 103.604h-7.375C11.5 103.604 0 115.168 0 129.302S11.499 155 25.553 155h202.069C250.38 155 269 136.275 269 113.388c0-22.888-18.62-41.612-41.378-41.613-9.623 0-17.494-7.917-17.494-17.595 0-9.677 7.871-17.595 17.494-17.595h4.09c10.006 0 18.19-8.231 18.19-18.293 0-10.06-8.186-18.292-18.19-18.292h-70.434c-9.77.267-11.287 3.19-13.147 8.743-1.954 5.832-12.103 6.302-12.103 6.302H92.464c-21.218 0-23.377 6.541-27.737 19.552-4.36 13.01-26.998 14.059-26.998 14.059h-6.395c-7.658 0-13.925 6.302-13.925 14.004s6.266 14.004 13.925 14.004h1.594c7.367 0 13.394 6.062 13.394 13.47 0 7.409-6.027 13.47-13.394 13.47"/>
        <path fill="#F8F6F7" d="M92 136V81.79C92 60.456 109.325 43 130.5 43S169 60.456 169 81.79V136H92"/>
        <path fill="#E9E3EA" d="M79 155v-36.189a.577.577 0 0 1 .582-.533l2.918-.029.032-16.964a.576.576 0 0 1 .583-.557l1.49-.051a.586.586 0 0 1 .42.163.53.53 0 0 1 .175.398l.005 4.397 3.688.007.017-19.045c0-.033.002-.06.008-.091.051-.298.13-.581.404-.766.094-.063.19-.095.284-.129l.279-2.258a.573.573 0 0 1 .533-.494l.94-.078.065-5.698a.536.536 0 0 1 .214-.426c.221-.176.434-.305.717-.37.029-.008.056-.013.082-.019l.04-4.473a.577.577 0 0 1 .592-.556l4.658.029c.31.001.564.23.583.526.053.793.037 1.58.03 2.373.1-.168.287-.28.502-.284l4.345-.069a.58.58 0 0 1 .596.503c.034.32.03.655.032.976 0 .218-.01.772.057.967.01.03.027.079.046.12a.49.49 0 0 1 .036.015c.297.14.412.397.458.691.058.37.047.812.042 1.186-.013 1.15-.056 2.3-.065 3.449 0 .168-.01.815.052 1.058.076.006.175.002.223.001.25-.005.498-.014.75-.008.32.007.576.257.574.563l-.006 2.245c.035.006.072.012.108.016.226.025.403.035.59.187.218.178.264.414.271.67.007.245-.003.494-.003.738l.001 19.434 4.372-.005.047-31.892c0-.31.265-.56.59-.56h.528l.028-2.293a.574.574 0 0 1 .57-.554l1.06-.034V60.35c0-.303.25-.55.567-.561l1.07-.039.005-4.05a.54.54 0 0 1 .259-.463c.404-.26.556-.31.782-.31l.027-4.369a.577.577 0 0 1 .59-.558h8.713a.58.58 0 0 1 .42.168.531.531 0 0 1 .168.405c-.023 1.135-.07 2.271-.09 3.406-.003.16-.019.697.017.979a.53.53 0 0 1 .03-.002c.154-.008.306-.016.46-.015a.577.577 0 0 1 .586.56l.018 4.205 1.02.044c.313.014.56.26.562.559l.053 10.945.98.03c.309.01.556.244.569.539.025.591.034 1.18.041 1.771.002.107-.003.383.018.527.037.02.081.04.12.057l.637.207c.244.078.4.286.4.53l.016 22.393v2.152a.583.583 0 0 1 .58-.46h1.272c.325 0 .589.251.589.56v1.021h2.146v-3.989c0-.155.058-.288.173-.397a.584.584 0 0 1 .417-.165l2.681.006.027-11.681a.578.578 0 0 1 .586-.56l2.622-.015a.577.577 0 0 1 .42.163.53.53 0 0 1 .172.398v2.18h2.952v-4.747c0-.309.264-.56.588-.56h7.263c.319 0 .58.243.589.547l.052 2.014 6.832.001.015-1.353a.575.575 0 0 1 .579-.556l2.036-.03a.589.589 0 0 1 .422.16c.116.111.176.245.176.401v4.47h.898v-1.937c0-.277.238-.503.529-.503h.65c.289 0 .527.227.527.503v7.413a.518.518 0 0 1-.528.503h-.65v5.572h4.6V78.1c0-.348.131-.648.39-.893.26-.246.575-.37.94-.367l3.049.032c.724.004 1.313.568 1.314 1.259v2.118h.002v7.295h6.627v-4.896c0-.348.131-.648.39-.894.26-.246.574-.369.94-.367l5.888.033c.725.003 1.314.567 1.314 1.258l.061 24.952 6.02-.012a1.31 1.31 0 0 1 .938.369c.258.245.388.544.388.891v8.958H201V155H79"/>
        <path fill="#332C70" d="M152.894 92h-26.787c-1.158 0-2.107.9-2.107 2s.949 2 2.107 2h26.787c1.158 0 2.106-.9 2.106-2s-.948-2-2.106-2"/>
        <path fill="#332C70" d="M142 153.802V92.198c0-1.208-.899-2.198-2-2.198-1.1 0-2 .99-2 2.198v61.604c0 1.209.9 2.198 2 2.198 1.101 0 2-.99 2-2.198"/>
        <path fill="#FFFFFE" d="M171.836 89h-63.672c-1.191 0-2.164.9-2.164 2s.973 2 2.164 2h63.672c1.192 0 2.164-.9 2.164-2s-.972-2-2.164-2"/>
        <path fill="#D32C4D" d="M137.344 75h-18.342c-.487 0-1.007.418-1.155.929l-3.807 13.14c-.148.512.13.931.617.931h18.341c.487 0 1.007-.419 1.156-.93l3.806-13.141c.148-.511-.129-.929-.616-.929"/>
        <path fill="#B12446" d="M134.073 89h-24.146c-.51 0-.927-.45-.927-1s.417-1 .927-1h24.146c.51 0 .927.45.927 1s-.418 1-.927 1"/>
        <path fill="#8A2241" d="M114.16 89h-4.32c-.462 0-.84-.45-.84-1s.378-1 .84-1h4.32c.463 0 .84.45.84 1s-.377 1-.84 1"/>
        <path fill="#FFFFFE" d="M126.972 79c-.174 0-.347.019-.517.053.166.239.235.554.17.9-.14.74-.842 1.34-1.569 1.34a1.07 1.07 0 0 1-.836-.37 2.81 2.81 0 0 0-.174.577c-.262 1.38.626 2.5 1.981 2.5 1.356 0 2.667-1.12 2.928-2.5.26-1.38-.627-2.5-1.983-2.5"/>
        <path fill="#AAA0C2" d="M159.5 46c2.479 0 4.5-2.021 4.5-4.5s-2.021-4.5-4.5-4.5a4.508 4.508 0 0 0-4.5 4.5c0 2.479 2.021 4.5 4.5 4.5"/>
        <path fill="#FFFFFE" d="M159.5 67c2.479 0 4.5-2.022 4.5-4.5 0-2.479-2.021-4.5-4.5-4.5a4.509 4.509 0 0 0-4.5 4.5c0 2.478 2.021 4.5 4.5 4.5M158.215 41.426c-1.167.28-2.056 1.164-2.215 2.253.689.803 1.777 1.321 3 1.321s2.311-.518 3-1.321c-.159-1.09-1.048-1.974-2.217-2.253.416-.231.693-.643.693-1.112 0-.726-.661-1.314-1.476-1.314s-1.476.588-1.476 1.314c0 .469.276.88.691 1.112"/>
        <path fill="#AAA0C2" d="M158.215 62.427c-1.167.278-2.056 1.163-2.215 2.252.689.803 1.777 1.321 3 1.321s2.311-.518 3-1.321c-.159-1.09-1.048-1.974-2.217-2.252.416-.233.693-.644.693-1.114 0-.725-.661-1.313-1.476-1.313s-1.476.588-1.476 1.313c0 .47.276.881.691 1.114"/>
        <path fill="#E58FB1" d="M146.494 65h1.01a.499.499 0 0 1 0 1h-1.01a.497.497 0 0 1-.494-.5c0-.276.22-.5.494-.5"/>
        <path fill="#E58FB1" d="M152.672 66h-5.344c-.182 0-.328-.224-.328-.5s.146-.5.328-.5h5.344c.18 0 .328.224.328.5s-.147.5-.328.5M152.695 63h-5.39c-.168 0-.305-.224-.305-.5 0-.275.137-.5.305-.5h5.39c.168 0 .305.225.305.5 0 .276-.137.5-.305.5M152.704 62h-2.408c-.163 0-.296-.224-.296-.5s.133-.5.296-.5h2.408c.163 0 .296.224.296.5s-.133.5-.296.5M152.654 59h-5.308c-.191 0-.346-.224-.346-.5s.155-.5.346-.5h5.308c.19 0 .346.224.346.5s-.155.5-.346.5"/>
        <path fill="#F0C2C9" d="M159.5 56c2.479 0 4.5-2.022 4.5-4.5 0-2.479-2.021-4.5-4.5-4.5a4.509 4.509 0 0 0-4.5 4.5c0 2.478 2.021 4.5 4.5 4.5"/>
        <path fill="#FFFFFE" d="M158.215 51.427c-1.167.278-2.056 1.162-2.215 2.251.689.803 1.777 1.322 3 1.322s2.311-.519 3-1.322c-.159-1.089-1.048-1.973-2.217-2.251.416-.233.693-.644.693-1.113 0-.726-.661-1.314-1.476-1.314s-1.476.588-1.476 1.314c0 .469.276.88.691 1.113"/>
        <path fill="#9187B3" d="M152.684 55h-2.368c-.174 0-.316-.224-.316-.5s.142-.5.316-.5h2.368c.174 0 .316.224.316.5s-.142.5-.316.5M152.706 54h-3.411c-.162 0-.295-.224-.295-.5 0-.277.133-.5.295-.5h3.41c.163 0 .295.223.295.5 0 .276-.132.5-.294.5M152.748 52h-1.496c-.14 0-.252-.224-.252-.5s.113-.5.252-.5h1.496c.14 0 .252.224.252.5s-.113.5-.252.5M145.494 50h1.01c.273 0 .496.224.496.5s-.223.5-.496.5h-1.01a.497.497 0 0 1-.494-.5c0-.276.221-.5.494-.5M152.672 51h-5.344c-.182 0-.328-.224-.328-.5s.146-.5.328-.5h5.344c.18 0 .328.224.328.5s-.147.5-.328.5"/>
        <path fill="#E58FB1" d="M152.702 45h-1.404c-.164 0-.298-.225-.298-.5 0-.276.134-.5.298-.5h1.404c.164 0 .298.224.298.5 0 .277-.134.5-.298.5M152.666 43h-3.333c-.184 0-.333-.223-.333-.5 0-.276.149-.5.333-.5h3.333c.184 0 .334.224.334.5 0 .277-.15.5-.334.5M152.702 41h-1.404c-.164 0-.298-.224-.298-.5s.134-.5.298-.5h1.404c.164 0 .298.224.298.5 0 .277-.134.5-.298.5M152.714 39h-5.43c-.157 0-.284-.224-.284-.5 0-.277.127-.5.285-.5h5.429c.158 0 .286.223.286.5 0 .276-.128.5-.286.5"/>
        <path fill="#FFFFFE" d="M213.952 140.452v.595h.595c.249 0 .453.204.453.453a.454.454 0 0 1-.453.452h-.595v.596a.454.454 0 0 1-.453.452.454.454 0 0 1-.452-.452v-.596h-.595a.454.454 0 0 1-.452-.452c0-.249.204-.453.452-.453h.595v-.595a.453.453 0 0 1 .904 0M73.568 92h-5.135c-.238 0-.433.225-.433.5s.195.5.433.5h5.135c.238 0 .432-.225.432-.5s-.194-.5-.432-.5M72.565 94h-3.13c-.24 0-.435.225-.435.5s.196.5.435.5h3.13c.24 0 .435-.225.435-.5s-.195-.5-.435-.5M206.432 96h5.136c.237 0 .432.225.432.5s-.195.5-.432.5h-5.136c-.237 0-.432-.225-.432-.5s.195-.5.432-.5M206.435 97h3.13c.239 0 .435.225.435.5s-.196.5-.435.5h-3.13c-.239 0-.435-.225-.435-.5s.196-.5.435-.5M194.432 53h5.136c.237 0 .432-.225.432-.5s-.195-.5-.432-.5h-5.136c-.237 0-.432.225-.432.5s.195.5.432.5M194.434 51h3.132c.238 0 .434-.224.434-.5 0-.275-.196-.5-.434-.5h-3.132c-.238 0-.434.225-.434.5 0 .276.196.5.434.5M70.952 107.453v.595h.596c.248 0 .452.203.452.452a.454.454 0 0 1-.452.452h-.596v.596a.454.454 0 0 1-.452.452.453.453 0 0 1-.452-.452v-.596h-.596A.454.454 0 0 1 69 108.5c0-.249.204-.452.452-.452h.596v-.595c0-.25.203-.453.452-.453s.452.204.452.453M53.952 70.453v.595h.596c.249 0 .452.203.452.452a.453.453 0 0 1-.452.452h-.596v.596A.454.454 0 0 1 53.5 73a.453.453 0 0 1-.451-.452v-.596h-.597A.454.454 0 0 1 52 71.5c0-.249.204-.452.452-.452h.597v-.595c0-.25.203-.453.451-.453.249 0 .452.204.452.453M116.953 42.452v.596h.595a.453.453 0 0 1 0 .905h-.595v.595a.453.453 0 0 1-.905 0v-.596h-.596a.453.453 0 0 1 0-.904h.596v-.596c0-.248.203-.452.452-.452s.453.204.453.452M167.953 32.452v.596h.595c.248 0 .452.203.452.452a.454.454 0 0 1-.452.452h-.595v.595a.454.454 0 0 1-.453.453.454.454 0 0 1-.452-.453v-.595h-.596A.454.454 0 0 1 166 33.5c0-.249.204-.452.452-.452h.596v-.596a.453.453 0 0 1 .905 0"/>
        <path fill="#9F95BB" d="M207.4 111h1.2a.4.4 0 0 1 .4.4v1.2c0 .22-.18.4-.4.4h-1.2c-.22 0-.4-.18-.4-.4v-1.2c0-.221.18-.4.4-.4M212.4 111h1.2a.4.4 0 0 1 .4.4v1.2c0 .22-.18.4-.4.4h-1.2c-.22 0-.4-.18-.4-.4v-1.2c0-.221.18-.4.4-.4M218.4 111h1.2a.4.4 0 0 1 .4.4v1.2c0 .22-.18.4-.4.4h-1.2c-.22 0-.4-.18-.4-.4v-1.2c0-.221.18-.4.4-.4M224.4 111h1.2a.4.4 0 0 1 .4.4v1.2a.4.4 0 0 1-.4.4h-1.2c-.22 0-.4-.18-.4-.4v-1.2c0-.221.18-.4.4-.4M149.738 115.879a.272.272 0 0 1 .383.384l-.863.862a.272.272 0 0 1-.384-.383l.864-.863zm.991 1.85a.272.272 0 0 1 0 .543h-1.221a.272.272 0 0 1 0-.543h1.221zm-.608 2.008a.272.272 0 0 1 0 .385.272.272 0 0 1-.383 0l-.864-.864a.272.272 0 1 1 .384-.384l.863.863zm-1.85.992a.271.271 0 1 1-.542 0v-1.222a.271.271 0 0 1 .542 0v1.222zm-2.01-.607a.271.271 0 1 1-.383-.384l.863-.864a.272.272 0 0 1 .384.384l-.863.864zm-.99-1.85a.272.272 0 0 1 0-.543h1.221a.271.271 0 1 1 0 .543h-1.221zm.608-2.01a.27.27 0 1 1 .383-.383l.863.863a.272.272 0 0 1-.384.383l-.862-.862zm1.85-.99a.271.271 0 1 1 .542 0v1.22a.271.271 0 1 1-.542 0v-1.22zM65.737 77.879a.27.27 0 1 1 .384.384l-.863.863a.271.271 0 1 1-.384-.384l.863-.863zm.991 1.85a.272.272 0 1 1 0 .543h-1.22a.271.271 0 0 1 0-.543h1.22zm-.607 2.009a.272.272 0 0 1-.384.383l-.863-.863a.271.271 0 0 1 .384-.384l.863.864zm-1.85.99a.271.271 0 0 1-.543 0v-1.22a.272.272 0 0 1 .543 0v1.22zm-2.009-.607a.271.271 0 1 1-.384-.383l.863-.864a.272.272 0 0 1 .385.384l-.864.863zm-.99-1.85a.271.271 0 0 1 0-.542h1.22a.271.271 0 1 1 0 .543h-1.22zm.606-2.008a.272.272 0 0 1 .384-.384l.864.863a.272.272 0 0 1-.385.384l-.863-.863zm1.85-.991a.272.272 0 0 1 .543 0v1.22a.272.272 0 0 1-.543 0v-1.22zM223.738 41.879a.271.271 0 1 1 .383.384l-.863.863a.27.27 0 1 1-.383-.384l.863-.863zm.99 1.85a.271.271 0 1 1 0 .543h-1.22a.272.272 0 1 1 0-.544h1.22zm-.607 2.008a.27.27 0 1 1-.383.384l-.863-.863a.27.27 0 1 1 .383-.384l.863.863zm-1.85.991a.271.271 0 1 1-.543 0v-1.22a.272.272 0 0 1 .543 0v1.22zm-2.008-.607a.272.272 0 0 1-.384-.384l.863-.863a.272.272 0 0 1 .384.384l-.863.863zm-.992-1.85a.272.272 0 0 1 0-.543h1.221a.271.271 0 0 1 0 .544h-1.22zm.608-2.008a.271.271 0 1 1 .384-.384l.863.863a.272.272 0 0 1-.384.384l-.863-.863zm1.85-.992a.272.272 0 0 1 .542 0v1.221a.271.271 0 1 1-.543 0v-1.22zM51.4 144h1.2c.22 0 .4.18.4.4v1.2c0 .22-.18.4-.4.4h-1.2a.4.4 0 0 1-.4-.4v-1.2c0-.22.18-.4.4-.4M57.4 144h1.2c.22 0 .4.18.4.4v1.2c0 .22-.18.4-.4.4h-1.2a.4.4 0 0 1-.4-.4v-1.2c0-.22.18-.4.4-.4M61.4 144h1.2c.22 0 .4.18.4.4v1.2c0 .22-.18.4-.4.4h-1.2c-.22 0-.4-.18-.4-.4v-1.2c0-.22.18-.4.4-.4M67.4 144h1.2c.22 0 .4.18.4.4v1.2c0 .22-.18.4-.4.4h-1.2c-.22 0-.4-.18-.4-.4v-1.2c0-.22.18-.4.4-.4"/>
        <path fill="#D32C4D" d="M66.194 36h16.612c1.207 0 2.194.991 2.194 2.204v15.55a.241.241 0 0 1-.151.226.24.24 0 0 1-.267-.053l-3.739-3.756H66.194A2.205 2.205 0 0 1 64 47.967v-9.763c0-1.213.987-2.204 2.194-2.204"/>
        <path fill="#FFFFFE" d="M72.954 42.64A4.04 4.04 0 0 0 70 46.017 5.019 5.019 0 0 0 74 48c1.63 0 3.08-.778 4-1.983a4.042 4.042 0 0 0-2.955-3.377c.554-.348.923-.966.923-1.67A1.97 1.97 0 0 0 74 39a1.97 1.97 0 0 0-1.046 3.64"/>
        <path fill="#4D4A8A" d="M211.806 30h-16.612A2.205 2.205 0 0 0 193 32.204v15.55c0 .1.058.188.151.227.093.039.196.018.267-.054l3.739-3.756h14.65A2.205 2.205 0 0 0 214 41.967v-9.763A2.205 2.205 0 0 0 211.806 30"/>
        <path fill="#FFFFFE" d="M204 43c2.754 0 5-2.47 5-5.5s-2.246-5.5-5-5.5-5 2.47-5 5.5 2.246 5.5 5 5.5"/>
        <path fill="#D32C4D" d="M201.136 37.176a.486.486 0 0 1 .021-.695.51.51 0 0 1 .71.02l1.207 1.265 3.041-3.589a.507.507 0 0 1 .705-.063c.212.173.24.482.065.69l-3.384 3.996a.508.508 0 0 1-.769.046l-1.596-1.67"/>
        <path fill="#9F95BB" d="M48 140c6.059 0 11-4.942 11-11s-4.941-11-11-11c-6.058 0-11 4.942-11 11s4.942 11 11 11"/>
        <path fill="#FFFFFE" d="M46 140c6.059 0 11-4.942 11-11 0-6.059-4.941-11-11-11-6.058 0-11 4.941-11 11 0 6.058 4.942 11 11 11"/>
        <path fill="#E593A4" d="M39.955 129.64A4.04 4.04 0 0 0 37 133.017 5.02 5.02 0 0 0 41 135c1.631 0 3.08-.778 4-1.983a4.04 4.04 0 0 0-2.955-3.377A1.97 1.97 0 0 0 41 126a1.97 1.97 0 0 0-1.045 3.64M50.955 129.64A4.04 4.04 0 0 0 48 133.017 5.02 5.02 0 0 0 52 135a5.02 5.02 0 0 0 4-1.983 4.04 4.04 0 0 0-2.955-3.377A1.97 1.97 0 0 0 52 126a1.97 1.97 0 0 0-1.045 3.64"/>
        <path fill="#E593A4" d="M51 129.772a.227.227 0 1 1-.455 0v-5.294c0-.28-.116-.537-.301-.722a1.023 1.023 0 0 0-.724-.302h-8.04c-.282 0-.538.116-.724.302a1.022 1.022 0 0 0-.3.722v5.294a.228.228 0 0 1-.456 0v-5.294c0-.407.167-.776.435-1.044A1.475 1.475 0 0 1 41.48 123h8.04c.407 0 .778.166 1.045.434.268.268.435.637.435 1.044v5.294"/>
        <path fill="#EBA87F" d="M126 60.766s1.284-1.861 1.832-2.478c.547-.616 1.718-.576 2.312-.774.594-.197 1.522-.433 1.693-.508.172-.075.335.572.088.89-.247.316-1.01.902-1.224 1.01.33.349.827.379 1.142.521 1.362.618 2.63-.398 4.175-.445.55-.016.989.225.982.626-.003.17-.2.407-.516.696a.998.998 0 0 1-.13.276c-.18.116-.369.215-.56.298l-.232.182c-.214.302-.714.584-.86.662-1.197.921-4.25.495-5.621.283 0 0-.567-.123-.988.352l-.57.643L126 60.766"/>
        <path fill="#E3816B" d="M126 60.462s.892-1.58 1.461-2.462c-.334.89-.223 1.598.15 2.157.935 1.4 3.519 1.863 4.831 1.906.949.032.362.01.529.012-1.325.293-3.157-.024-4.111-.205 0 0-.526-.14-.917.4l-.53.73L126 60.462"/>
        <path fill="#E3816B" d="M133.898 61.887c-.07.04-.145.078-.225.113a.407.407 0 0 0-.216-.274c-.236-.104-.62.016-1.124.007-.504-.009-1.333-.134-1.333-.134l.1-.146s.033.011.212.055c.18.044.982.094 1.66.026.677-.067.781-.013.964.304l-.038.049zm1.26-.757c-.315-.405-.481-.464-1.4-.291-.932.175-2.064.202-2.323.161-.26-.04-.31-.052-.31-.052l-.106.216s1.184.077 1.891.029c.707-.048 1.216-.262 1.57-.144a.6.6 0 0 1 .326.287l.019-.02.243-.153.09-.033zm.763-.546c-.041.031-.084.064-.13.097a.67.67 0 0 1-.087.167c-.063-.152-.213-.421-.506-.502-.415-.116-.973.157-1.775.252-.802.094-2.161.073-2.161.073l.1-.252s.057.01.357.042c.301.032 1.59-.063 2.634-.315 1.045-.252 1.232-.189 1.647.273l-.08.165zM131.981 57c.02.22.062.374-.126.655-.188.28-1.044 1.174-1.267 1.306l.033.039c-.37-.235-1.099-.357-.163-.714.676-.258 1.182-.887 1.523-1.286"/>
        <path fill="#AEAFAB" d="M126.03 60c.911 1.034 2.97 2.322 2.97 2.322l-2.132.678s-1.838-.92-1.867-1.414c-.03-.494 1.029-1.586 1.029-1.586"/>
        <path fill="#E3816B" d="M131.994 59.28C132.124 61.111 130 62 130 62s2.06-1.943 1.431-2.554c-.253-.246-.483-.351-.484-.41-.002-.087.386-.022 1.047.243"/>
        <path fill="#4D4A8A" d="M129 63.39s-9.478 8.782-10.846 9.671c-1.367.889-3.59 1.245-5.856.634-2.265-.611-10.01-2.796-11.207-3.615-1.197-.818-3.802-3.816-2.908-7.204 0 0 1.412-1.566 5.168-.136 3.757 1.43 9.788 4.24 10.574 4.481.786.242 1.708.4 2.89-.224 1.182-.624 9.28-6.997 9.28-6.997.139 1.054 1.489 2.696 2.905 3.39"/>
        <path fill="#9F95BB" d="M91.01 152.192c-.094.897.543 1.703 1.423 1.799.88.095 1.67-.556 1.763-1.453l3.618-34.644c.103-.987.6-1.891 1.318-2.553.713-.657 1.638-1.065 2.603-1.065h13.53c.965 0 1.89.408 2.603 1.065.718.662 1.215 1.566 1.318 2.553l3.618 34.644c.093.897.883 1.548 1.763 1.453.88-.096 1.517-.902 1.424-1.799l-3.618-34.643c-.188-1.81-1.08-3.447-2.36-4.627-1.286-1.186-2.972-1.922-4.748-1.922h-13.53c-1.776 0-3.462.736-4.748 1.922-1.28 1.18-2.171 2.818-2.36 4.627l-3.618 34.643"/>
        <path fill="#FFFFFE" d="M76.009 152.192c-.093.897.544 1.703 1.424 1.799.88.095 1.67-.556 1.764-1.453l3.617-34.644c.103-.987.6-1.891 1.319-2.553.712-.657 1.637-1.065 2.602-1.065h13.53c.965 0 1.89.408 2.603 1.065.717.662 1.215 1.566 1.318 2.553l3.618 34.644c.093.897.883 1.548 1.763 1.453.88-.096 1.517-.902 1.424-1.799l-3.618-34.643c-.189-1.81-1.079-3.447-2.36-4.627-1.286-1.186-2.972-1.922-4.748-1.922h-13.53c-1.775 0-3.462.736-4.748 1.922-1.281 1.18-2.171 2.818-2.36 4.627l-3.618 34.643"/>
        <path fill="#7D223F" d="M119.826 111a2.167 2.167 0 0 0 2.174-2.159c0-1.193-.973-2.16-2.174-2.16l-11.082-1.733c-1.937 0-4.138 1.712-5.57.767-1.4-.924-2.403-2.945-2.403-7.159V68.16c0-1.193-.974-2.16-2.175-2.16H78v35.966l5.323 6.17h15.273v-.929c.63.88 1.37 1.565 2.183 2.102 2.508 1.655-.189 1.691 2.362 1.691h16.685"/>
        <path fill="#D32C4D" d="M104.856 111a2.152 2.152 0 0 0 2.144-2.159c0-1.193-.96-2.16-2.144-2.16h-16.73c-1.91 0-4.058-.02-5.47-.966-1.38-.924-2.369-2.945-2.369-7.159V68.16c0-1.193-.96-2.16-2.143-2.16A2.152 2.152 0 0 0 76 68.16v30.396c0 5.957 1.791 9.078 4.295 10.753 2.473 1.655 5.316 1.691 7.83 1.691h16.731"/>
        <path fill="#0D111A" d="M110.878 142.605s11.255-33.117 12.062-36.701c.776-3.44 5.785-8.372-15.536-11.775-.897-.143-2.704-1.992-3.688-2.129 0 0-16.237 1.76-18.247 2.533-2.009.773 2.136 7.325 18.174 8.873 16.038 1.547 8.682 7.041 8.682 7.041s-4.817 30.542-5.405 32.077c-.589 1.536 2.086 2.324 3.958.08"/>
        <path fill="#1C2039" d="M103.648 91.937c.415.192-4.097 1.735-3.522 2.644 1.251 1.975 11.593 3.286 14.325 5.203 2.283 1.603 3.17 3.945 3.823 5.814.856 2.45 11.008 28.068 11.613 29.143.605 1.075-1.377 2.8-2.154 3.191-.776.393-1.773-1.05-1.773-1.05s-13.066-24.008-16.89-29.932l-14.858.021c-12.207.016-7.973-18.718-5.118-18.994 2.698-.262 9.197-2.09 13.44.047 2.572 1.295-.074 3.924 1.114 3.913"/>
        <path fill="#DC6E59" d="M93.925 56c-.033 1.746.027 3.4-.094 5.149-.024.356-.204.475-.667.761-.64.907.722 4.872 1.875 5.043 1.153.17 6.544-.156 6.94-.43.277-.191-2.247-3.663-2.053-4.225-.234-.06-.443-.134-.609-.278-1.077-.945-.691-1.84-.692-4.592.66-.665-4.7-1.428-4.7-1.428"/>
        <path fill="#F8F6F4" d="M103.644 67.235c-.91-.535-1.478-.115-2.57.844-1.091.96-2.057.852-2.638 1.058-.582.206-1.173 9.223 2.44 10.654 1.337.529 2.224.01 2.826-1.056 1.08-1.914 2.307-10.11-.058-11.5"/>
        <path fill="#0D111A" d="M85.163 92.073c.408.97 1.894 1.775 3.685 2.38 10.285 1.868 14.352-1.739 16.28-.666 1.085.603.717-2.35.672-2.626-.261-1.584-1.667-.476-.819-7.96.849-7.484 3.334-20.251-4.921-21.201 0 0 .077.183.193.52l-.346.012s.666 2.277-.917 3.02c-1.584.743-3.242-.313-3.948-1.186a.457.457 0 0 0-.367-.181 28.675 28.675 0 0 0-1.645-1.957c-1.772.263-4.612 1.517-4.612 1.517-1.432.6-3.003 1.86-3.329 3.225-.46 1.938 1.327 8.516 2.566 12.75 2.072 7.092-3.68 9.519-2.492 12.353"/>
        <path fill="#D32C4D" d="M99.246 66.914s2.32 15.71 2.748 18.573c0 0 .076.603-.319 1.323s-.945 1.777-1.143 2.056c-.196.278-.328.074-.56-.168-.234-.241-1.5-1.974-1.747-2.309-.14-.187-.252-.434-.22-1.078.2-3.996.393-7.661.336-11.981-.03-2.335-.122-4.566-.282-6.072L98.39 66s.853.45.857.914"/>
        <path fill="#D32C4D" d="M100 66.516l-.586 1.21s-.73-.213-1.278.274L97 67.077l.542-.82s.678-.303 1.444-.251c.765.052 1.014.51 1.014.51"/>
        <path fill="#FFFFFE" d="M93.744 62.174c-.141.078-.43.24-.667.452 0 0-.16.234-.018.6.142.366 3.877 4.71 3.877 4.71s.124.155.304-.017c.181-.171 1.76-2.15 1.76-2.15l-4.742-3.717c-.141-.143-.375.045-.514.122M99.655 62.047c-.001-.003.005-.002.016-.006.3-.113.89.017 1.083.263.588.685-.037 4.864-.237 5.576v.01s-.153.2-.342.06C99.985 67.812 99 66.05 99 66.05c.168-.35 1.414-2.119.655-4.002"/>
        <path fill="#4D4A8A" d="M92.358 62s4.188 11.625 4.606 17.094c.418 5.468-2.92 18.009-3.23 18.635-.31.626-7.892 4.257-10.486 4.271-.736-.022-1.428-1.063-1.206-1.808.132-.441 4.437-16.366 4.821-18.17.384-1.805-1.694-11.343-1.998-13.11-.305-1.768-.703-5.01 7.493-6.912M101 62s2.4 10.338 2.245 15.472c-.154 5.135.729 15.263.898 16.262C104.313 94.732 107 95 107 95s-1.113-13.168-1.119-13.532c-.005-.364.272-10.149.31-11.35.039-1.203-1.169-5.595-1.374-6.068-.205-.473-1.654-1.613-3.817-2.05"/>
        <path fill="#AB2446" d="M105.198 150.929s11.828.16 12.228 0c.4-.16.574-.466.574-1.152v-1.469c0-.514-.131-1.042-1.312-1.556-1.181-.515-1.285-.735-2.17-1.005-.887-.269-2.478-3.356-2.691-3.552-.214-.195-.837-.195-1.477-.195-.64 0-1.674.049-1.985 1.077-.312 1.029-1.637 1.172-2.139.855 0 0-.486-.046-.601.419-.115.466-.345 3.7-.378 4.042-.033.343.074.502.074.502s-.221.233-.263.344c-.04.11-.057.416-.057.735 0 .318-.028.93.197.955"/>
        <path fill="#D32C4D" d="M118 146.646c-.198-.137-.485-.275-.899-.411-1.2-.394-1.657-.644-2.203-.77-.547-.126-.421-.19-.66-.39l-1.8-.075-.057.6s-.542.104-.333.489c.208.385 1.882.911 3.364.911h2.104c.44 0 .464-.127.484-.354"/>
        <path fill="#70203D" d="M105.202 150.973s1.004.012 2.473.027c1.236-.47 2.325-.994 2.325-.994s-2.07-4.097-1.953-4.476c.117-.38 1.586-2.225 1.586-2.225s-.214-.553-.514-1.305c-.304.16-.563.428-.695.869-.317 1.061-1.665 1.21-2.176.882 0 0-.495-.048-.612.432-.116.481-.35 3.82-.384 4.173-.033.353.075.518.075.518s-.225.24-.267.355c-.042.113-.059.429-.059.759 0 .328-.029.96.201.985"/>
        <path fill="#D32C4D" d="M114 145.846a3.879 3.879 0 0 1-.177-.053c-.87-.272-2.435-3.397-2.644-3.595-.21-.198-.823-.198-1.452-.198-.47 0-1.16.028-1.604.48v.001c-.078.084-.386.51.418 1.26.903.842 2.128 1.934 2.596 2.158.468.223 1.566.018 2.863-.053"/>
        <path fill="#FFFFFE" d="M118.384 148.856c-.381.145-12.264.01-12.984.001-.72-.008-.238.237-.283.35-.043.111-.06.424-.06.749 0 .323-.031.947.21.971 0 0 12.688.164 13.117 0 .43-.163.616-.474.616-1.172v-1.496c0-.304-.004-.172-.015-.259-.053.481-.22.711-.601.856M110.217 143.16l.447-.387 1.245.246-.446.387-1.246-.246zm.993.839l.391-.339 1.153.229-.338.349-1.206-.24zm1.147.707l.205-.212.575.113-.78.099zm-1.06-2.48c.038-.034.027-.108-.026-.166-.053-.058-.127-.077-.166-.043l-.58.501-1.432-.283c-.064-.012-.105.03-.09.097a.199.199 0 0 0 .142.141l1.167.23-.42.363c-.038.034-.027.108.026.166a.175.175 0 0 0 .042.035.199.199 0 0 0 .122.094l1.167.23-.419.363c-.039.033-.027.108.025.165a.172.172 0 0 0 .115.06l1.261.25-.337.347-.001.002-.001.001-.001.001v.001l-.002.001-.001.002-.002.002v.001l-.001.001-.001.002-.002.002v.003h-.002v.004l-.002.001v.005l-.002.005-.001.003v.004l-.002.003v.02l.001.005v.002c0 .005.003.011.004.017l.002.006v.003l.002.002.007.017.001.003v.001l.002.002.007.011v.001l.001.003.004.005.003.003.002.003.002.003.004.005.002.003.002.002.001.001.002.002.002.002v.002h.002v.002l.002.002.002.001.001.001.002.001v.002h.002l.001.002h.002v.002l.002.001.001.001.003.002.002.002.003.002.003.002.003.002.002.002.003.002.003.001.003.003.003.001.002.002h.003v.001l.002.002h.001l.003.001.003.002.002.001.003.002h.003l.003.002h.003l.003.002h.002l.003.002h.003l.006.002h.003l.002.001h.006l.003.001V145h.023l.002-.001 1.88-.237h.002a.16.16 0 0 0 .024-.006h.002l.007-.004.002-.001.004-.004h.001l.002-.002.008-.008c.013-.016.018-.039.014-.067l-.002-.007a.155.155 0 0 0-.027-.059v-.003h-.001l-.006-.008-.002-.002v-.001l-.009-.01a.181.181 0 0 0-.09-.056l-.006-.002-1.11-.219.366-.378c.036-.037.02-.113-.035-.168a.163.163 0 0 0-.108-.053l-1.154-.229.42-.363c.038-.032.026-.108-.026-.165a.223.223 0 0 0-.042-.035.199.199 0 0 0-.123-.094l-1.166-.23.419-.363z"/>
        <path fill="#AB2446" d="M126.57 141.99s11.925-6.275 12.21-6.61c.284-.336.303-.692-.002-1.304l-.656-1.309c-.23-.459-.581-.865-1.863-.755-1.28.11-2.796.681-3.705.868-.908.187-3.702-1.797-3.98-1.87-.276-.071-.832.23-1.402.537-.569.31-1.467.85-1.286 1.918.182 1.068-.933 1.834-1.522 1.794 0 0-.454.192-.348.663.105.47 1.343 3.464 1.467 3.785.123.322.29.412.29.412s-.094.314-.081.432c.013.118.135.399.277.683.142.284.39.844.6.757"/>
        <path fill="#D32C4D" d="M137.947 132.066c-.247-.062-.569-.085-.998-.049-1.243.106-2.713.652-3.595.83-.19.04-.464-.02-.782-.134l-1.572.733.29.694s-.403.362-.008.695c.394.334 2.115.16 3.376-.514a5438.9 5438.9 0 0 0 3.076-1.64c.267-.144.323-.354.213-.615"/>
        <path fill="#70203D" d="M126.428 141.991s.836-.435 2.057-1.074A32.938 32.938 0 0 0 130 139.08s-3.384-2.393-3.443-2.752c-.058-.359.403-2.501.403-2.501s-.403-.354-.958-.828c-.186.265-.29.595-.22 1.01.172 1-.881 1.717-1.438 1.68 0 0-.43.18-.329.62.1.44 1.27 3.243 1.386 3.544.117.3.274.385.274.385s-.088.294-.076.405c.012.11.127.373.262.639.134.266.368.79.567.708"/>
        <path fill="#D32C4D" d="M133 133.677a5.8 5.8 0 0 1-.161.037c-.8.17-3.255-1.639-3.5-1.704-.243-.066-.731.209-1.232.489-.375.21-.913.54-1.091 1.103v.001c-.03.102-.11.58.82.824 1.047.273 2.446.601 2.904.571.46-.03 1.255-.685 2.26-1.321"/>
        <path fill="#FFFFFE" d="M138.899 133.97c-.263.303-10.644 5.636-11.82 6.239 0 0-.09.3-.078.412.013.112.132.38.27.65.14.27.381.803.587.72 0 0 11.649-5.975 11.927-6.294.278-.32.296-.659-.002-1.241l-.641-1.247a1.73 1.73 0 0 0-.124-.209c.163.424.112.703-.12.97M127.636 133.16l.168-.425 1.274-.191-.168.426-1.274.19zm1.408.332l.147-.373 1.18-.176-.093.363-1.234.186zm1.466.184l.056-.221.589-.088-.645.31zm-2.469-1.543c.015-.037-.041-.09-.123-.116-.083-.028-.163-.02-.177.017l-.218.552-1.466.22c-.066.01-.076.054-.023.099a.31.31 0 0 0 .214.064l1.195-.18-.158.4c-.015.036.04.089.124.116.02.007.04.011.06.014.052.026.118.04.167.033l1.194-.179-.157.399c-.015.037.04.09.124.117.053.018.105.02.14.01l1.29-.193-.091.363v.002h-.001v.021h.001v.002l.001.002v.002l.002.002v.002l.002.002.001.002.002.002v.002l.002.002.005.006.003.004.002.002.003.002.002.002.013.012.005.003.001.001.002.001v.001h.002l.016.012h.001l.003.001v.001l.003.001h.001l.013.007.003.002.007.003.004.002h.003v.001l.004.001.007.003.004.001.003.002h.001l.003.001.003.001h.004l.002.001h.002l.002.002h.005l.002.002h.004l.001.001h.004l.003.001.004.001.003.001h.004l.001.001h.004l.002.001h.004l.004.001.004.001h.007l.003.001h.007l.004.001H130.372l.006-.002H130.387l.002-.002h.006l.002-.001h.003v-.001h.002l.002-.002h.003l.002-.001.001-.001h.002v-.001l.003-.001 1.553-.746h.002a.06.06 0 0 0 .018-.012h.002l.003-.006h.001l.002-.004v-.001l.001-.002.003-.008c.002-.017-.007-.035-.029-.055l-.005-.005a.241.241 0 0 0-.06-.036l-.003-.002-.01-.004-.004-.002-.014-.004h-.001l-.017-.006h-.001c-.034-.01-.068-.013-.098-.01l-.006.001-1.136.17.1-.394c.01-.038-.05-.09-.133-.115a.244.244 0 0 0-.131-.008l-1.18.177.157-.4c.014-.036-.041-.09-.124-.116a.34.34 0 0 0-.06-.014.309.309 0 0 0-.167-.033l-1.194.179.157-.4z"/>
        <path fill="#101521" d="M106 38.143c-.716-.3-1.704-.155-2.921.688a7.252 7.252 0 0 0-.798-.642c-.626 2.305-2.622 4.733-6.375 4.115-3.157-.52-4.708-2.115-5.446-3.32-.177.24-.33.497-.46.773 1.817 3.028 7.239 5.331 11.66 3.706 3.042-1.117 4.036-3.528 4.34-5.32"/>
        <path fill="#DC6558" d="M104.196 50a2.004 2.004 0 0 1 1.801 1.889 2.003 2.003 0 0 1-1.89 2.108 2.002 2.002 0 0 1-2.104-1.895 2.002 2.002 0 0 1 .687-1.622c-.03.593.088 1.323.844 1.37l-.062-1.155c-.024-.467.403-.697.724-.695M89.668 51.002a2.35 2.35 0 0 0-.145.03h-.002a2.011 2.011 0 0 0-1.52 1.986A2.005 2.005 0 0 0 90.03 55 2.006 2.006 0 0 0 92 52.956a2.011 2.011 0 0 0-.797-1.576c.071.591.003 1.33-.748 1.43l-.018-1.161c-.007-.47-.45-.671-.769-.647"/>
        <path fill="#EBA87F" d="M103.144 45.38c.324.79.59 1.327.621 2.228l.23 6.732c.14 4.07-3.067 7.516-7.126 7.656-4.057.14-7.492-3.077-7.631-7.148l-.23-6.732c-.031-.9.028-1.45.297-2.26 1.217-.388 3.844-.717 6.899-.822 3.054-.106 5.7.043 6.94.347"/>
        <path fill="#E3816B" d="M99.79 61.506c-.785.29-1.631.46-2.515.49-4.267.14-7.878-3.077-8.025-7.148l-.242-6.732c-.033-.901.03-1.45.313-2.26 1.28-.388 4.042-.717 7.254-.822 2.654-.087 5.014-.001 6.49.203l.025.003.017.003.822 1.451.071 2.434c-.028-.966-1.605-1.753-3.745-1.683l-6.298.206c-1.256.041-2.176.602-2.094 2.902l.213 5.907c.064 1.788 1.444 6.326 7.713 5.046"/>
        <path fill="#0D111A" d="M104.635 52s-.537-.382-.599-2.182l-.058-1.71c-.032-.94-1.262-2.57-3.157-2.505l-6.824.235c-1.895.066-2.489 1.731-2.456 2.67l.026.772c.062 1.8-.975 2.146-.975 2.146-.032-.96-.465-.916-.465-.916l-.122-3.579a8 8 0 0 1 .124-1.733c.2-.518 3.35-1.032 7.222-1.166 3.872-.134 7.05.163 7.285.666.156.601.224 1.19.241 1.72l.123 3.58s-.413.575-.365 2.002M98 56.292c-.006.938.885 1.703 1.99 1.708 1.105.005 2.005-.752 2.01-1.69h-.004c.001-.162-.153-.295-.343-.296L98.35 56c-.19 0-.346.13-.347.292H98"/>
        <path fill="#D6435A" d="M99 57.569c.296.268.673.428 1.084.431.336.002.65-.103.916-.285-.131-.394-.518-.691-.986-.714-.447-.02-.839.215-1.014.568"/>
        <path fill="#FFFFFE" d="M100.998 56.019L98.009 56c-.05.421.102.849.324.943.27.114 2.433.056 2.587-.16.075-.104.086-.443.078-.764"/>
        <path fill="#DC6558" d="M94.947 54.001A1 1 0 1 1 95.053 56 1 1 0 0 1 94.947 54M102.947 54.001a1 1 0 1 1 .105 2 1 1 0 0 1-.105-2"/>
        <path fill="#0D111A" d="M102.708 49.937c.1.079.223.01.272-.153.048-.165.006-.364-.094-.443-.543-.443-1.264-.482-1.79.046-.094.095-.125.3-.066.455.059.155.184.205.28.11.425-.428.962-.345 1.398-.015M95.295 49.964c.433-.346.968-.45 1.4-.04.096.092.221.039.277-.119.057-.157.024-.36-.073-.452-.532-.507-1.253-.44-1.789.022-.1.084-.139.283-.087.445.051.162.173.227.272.144M95.949 51c-.54.013-.967.324-.948.692l.032.662c.019.367.477.658 1.017.646.541-.013.968-.325.95-.692l-.034-.662c-.018-.368-.476-.658-1.017-.646"/>
        <path fill="#F2C3AA" d="M99.48 53.327c.178.344.488.971.518 1.208.041.335-.45.554-.793.43-.245-.089-.226-.912-.167-1.432.065-.573.163-.748.443-.206"/>
        <path fill="#1C2039" d="M88.932 45.892c1.143 4.881 4.568 2.983 2.81 1.222 3.503-1.392 8.723 1.626 12.972-.743 5.161-2.88 3.819-10.318-1.086-7.008-4.08-3.7-13.191-3.155-13.902 2.339-1.724-3.209-4.722 3.333-.794 4.19"/>
        <path fill="#332C70" d="M107.56 42.86c1.117-2.685.045-5.501-2.517-4.73-1.688 7.265-12.885 5.467-14.446.771-.238.306-.438.64-.597 1.004 3.26 6.363 12.815 6.05 17.56 2.955"/>
        <path fill="#0D111A" d="M101.95 51c-.54.013-.968.324-.95.692l.034.662c.019.367.476.658 1.017.646.54-.013.967-.324.948-.693l-.033-.66c-.018-.369-.476-.66-1.016-.647"/>
        <path fill="#0D111A" d="M104.056 53.028c-.95 2.861-3.337 1.67-3.495-1.803-.008-.174-.02-.374.017-.573.064-.347.267-.72.899-.909 1.004-.302 1.902-.485 2.538.471.347.527.354 1.872.041 2.814zm-5.66-1.855c-.038.474-.288 1.663-.964 2.571-.675.907-1.802.854-2.326.657-.523-.197-.963-.506-1.243-1.462-.28-.957-.229-2.3.136-2.81.364-.51 1.123-.728 1.671-.77.438-.033.946-.03 1.861.29.624.22.814.6.866.951.03.202.012.4-.001.573zm6.452-1.181c-.757-1.196-2.482-.867-3.658-.634-.537.106-1.155-.093-1.68-.105-.523-.013-1.148.157-1.68.026-.532-.132-1.158-.299-2.037-.277-1.447.036-2.334.45-2.619.866-.285.415-.16 1.13-.043 1.383.119.253.163.966.363 1.657.2.69.618 1.69 1.76 1.888 1.144.198 1.786-.179 2.298-.653.73-.678 1.33-1.978 1.565-3.29 0 0-.531-.185-.475-.883 0 0 .457-.042.857-.032.401.01.856.073.856.073.033.7-.504.858-.504.858.571 3.996 3.374 5.81 4.574 2.146.224-.68.292-1.39.419-1.639.126-.247.275-.955.004-1.384z"/>
        <path fill="#0D111A" d="M92.804 50.007c.102 0 .19.222.196.497.006.274-.073.496-.174.496l-2.63-.005c-.102 0-.19-.223-.196-.498-.006-.274.072-.497.174-.497l2.63.007"/>
        <path fill="#FFFFFE" d="M77.624 42.287c.07-.03.143-.058.216-.085a1.886 1.886 0 0 1-.374-.452 1.774 1.774 0 0 1-.246-.895c0-.513.222-.976.578-1.312.358-.335.851-.543 1.395-.543s1.038.208 1.395.543c.356.336.578.8.578 1.312 0 .324-.09.63-.246.895-.1.169-.226.321-.373.452a3.859 3.859 0 0 1 1.533 1.002c.486.521.815 1.176.917 1.898a.174.174 0 0 1-.037.144 4.71 4.71 0 0 1-1.669 1.294 4.965 4.965 0 0 1-2.61.434 4.857 4.857 0 0 1-.504-.077.202.202 0 0 1-.108-.063.174.174 0 0 1 .027-.257 5.079 5.079 0 0 0 .813-.795.222.222 0 0 0 .04-.071.208.208 0 0 0 .004-.08 3.728 3.728 0 0 0-.606-1.572 4.025 4.025 0 0 0-1.258-1.19.188.188 0 0 1-.057-.053.175.175 0 0 1 .055-.252c.17-.106.35-.199.537-.277zm.675.16a3.46 3.46 0 0 0-.747.28c.446.31.827.697 1.124 1.136.344.511.575 1.096.662 1.722a.55.55 0 0 1-.014.22.567.567 0 0 1-.105.199 5.23 5.23 0 0 1-.413.451l-.157.147.074.009a4.56 4.56 0 0 0 2.397-.399 4.344 4.344 0 0 0 1.483-1.128 3.147 3.147 0 0 0-.814-1.64 3.487 3.487 0 0 0-1.702-.997.182.182 0 0 1-.138-.224.185.185 0 0 1 .092-.111c.224-.134.41-.32.539-.537a1.422 1.422 0 0 0-.267-1.773 1.633 1.633 0 0 0-1.12-.436c-.438 0-.833.167-1.12.436-.286.27-.463.641-.463 1.053 0 .262.072.507.196.72.131.22.32.407.547.54.09.055.117.167.06.253a.192.192 0 0 1-.114.08zM66.919 43.204c.413-.443.938-.79 1.534-1.002a1.877 1.877 0 0 1-.374-.452 1.77 1.77 0 0 1-.245-.895c0-.513.221-.976.578-1.312.357-.335.85-.543 1.395-.543.544 0 1.037.208 1.394.543.357.336.578.8.578 1.312 0 .324-.09.63-.246.895-.1.169-.226.321-.373.452a3.963 3.963 0 0 1 .742.355c.026.014.05.034.067.06a.176.176 0 0 1-.058.253 4.032 4.032 0 0 0-1.258 1.189 3.718 3.718 0 0 0-.606 1.571.185.185 0 0 0 .004.076l.001.005c.006.024.02.049.038.071a5.087 5.087 0 0 0 .804.788.18.18 0 0 1 .078.11.184.184 0 0 1-.15.217 5.162 5.162 0 0 1-1.016.103 4.966 4.966 0 0 1-2.098-.46 4.71 4.71 0 0 1-1.668-1.294.177.177 0 0 1-.039-.134 3.5 3.5 0 0 1 .918-1.908zm1.994-.757a3.488 3.488 0 0 0-1.702.997 3.15 3.15 0 0 0-.814 1.64c.398.471.904.858 1.483 1.128a4.56 4.56 0 0 0 2.397.399l.074-.009-.157-.147a5.342 5.342 0 0 1-.413-.451.554.554 0 0 1-.105-.198l-.003-.011a.528.528 0 0 1-.01-.21c.085-.626.317-1.21.66-1.722.297-.439.679-.825 1.125-1.137a3.682 3.682 0 0 0-.748-.279.183.183 0 0 1-.138-.224.184.184 0 0 1 .092-.111c.225-.134.411-.32.54-.537a1.422 1.422 0 0 0-.268-1.773 1.632 1.632 0 0 0-1.12-.436 1.63 1.63 0 0 0-1.119.436c-.286.27-.463.641-.463 1.053 0 .262.07.507.195.72.131.22.32.407.547.54a.176.176 0 0 1 .06.253.191.191 0 0 1-.113.08z"/>
        <path fill="#EBA87F" d="M63 62.766s-1.285-1.861-1.832-2.478c-.547-.617-1.718-.576-2.312-.774-.594-.197-1.522-.433-1.693-.508-.172-.075-.335.571-.088.889.247.317 1.01.903 1.224 1.01-.33.35-.827.38-1.142.522-1.362.618-2.63-.399-4.175-.444-.55-.018-.989.224-.982.625.002.169.2.407.516.695a.998.998 0 0 0 .13.277c.18.116.369.214.56.298l.232.182c.215.302.714.584.86.663 1.197.92 4.25.494 5.621.282 0 0 .566-.123.988.353l.57.642L63 62.766"/>
        <path fill="#E3816B" d="M63 62.462S62.108 60.88 61.538 60c.335.89.224 1.598-.149 2.156-.935 1.402-3.519 1.864-4.832 1.907-.948.032-.36.01-.528.012 1.325.293 3.157-.024 4.11-.205 0 0 .526-.14.918.4l.53.73L63 62.462M54.102 62.887c.07.04.144.079.225.113a.406.406 0 0 1 .216-.274c.236-.105.62.016 1.124.007C56.172 62.724 57 62.6 57 62.6l-.1-.146s-.033.012-.212.056c-.18.043-.981.093-1.66.025-.677-.067-.782-.013-.964.304l.038.049zm-1.261-.756c.316-.405.482-.464 1.4-.292.933.175 2.065.201 2.324.161.26-.04.31-.052.31-.052l.107.216s-1.185.077-1.892.029c-.708-.048-1.217-.262-1.57-.143a.595.595 0 0 0-.326.286l-.02-.02-.243-.153-.09-.032zm-.762-.547c.041.031.084.064.13.097.018.054.047.11.086.167.063-.151.214-.42.507-.502.415-.116.973.157 1.775.252.802.094 2.162.073 2.162.073l-.1-.252s-.057.01-.358.042c-.301.031-1.59-.063-2.635-.315-1.045-.252-1.231-.189-1.646.273l.079.165zM57.019 59c-.02.22-.062.374.126.655.188.28 1.044 1.174 1.267 1.306l-.033.039c.37-.235 1.099-.357.163-.714-.676-.258-1.182-.888-1.523-1.286"/>
        <path fill="#AEAFAB" d="M62.97 62c-.912 1.035-2.97 2.322-2.97 2.322l2.132.678s1.838-.92 1.867-1.414C64.03 63.092 62.97 62 62.97 62"/>
        <path fill="#E3816B" d="M56.006 61.28C55.876 63.111 58 64 58 64s-2.06-1.943-1.43-2.554c.252-.246.482-.352.484-.41.002-.087-.387-.022-1.048.243"/>
        <path fill="#4D4A8A" d="M60 64.796S70.124 74.21 71.49 75.08c1.366.87 3.586 1.22 5.848.622 2.262-.599 9.996-2.739 11.19-3.54 1.196-.8 3.096-4.03 2.203-7.346 0 0 1.433-2.482-2.319-1.082-3.75 1.4-12.615 5.1-13.4 5.335-.785.237-1.705.393-2.886-.218C70.946 68.24 62.86 62 62.86 62c-.137 1.032-1.445 2.116-2.859 2.796"/>
        <path fill="#39386B" d="M129 64.048A6.016 6.016 0 0 1 127.458 63c-2.373 2.243-8.381 7.855-10.005 8.73-2.038 1.096-8.378-.55-12.453-2.634 0 0 .107 1.166.276 2.79 2.594.75 5.537 1.512 6.8 1.828 2.296.573 4.548.239 5.934-.595 1.386-.833 10.99-9.07 10.99-9.07M88.669 70s-1.444.363-3.396.842c.683 3.533 1.82 9.529 1.529 10.929-.38 1.827-4.63 17.951-4.76 18.399-.22.754.463 1.808 1.19 1.83a5.25 5.25 0 0 0 1.026-.134c.236-4.407 2.79-11 3.975-16.051C89.65 79.768 88.669 70 88.669 70"/>
        <path fill="#39386B" d="M89 70.818c-.051-.636-.09-1.008-.09-1.008s-11.844 2.851-13.855 3.08c-1.95.22-10.192-4.805-13.65-9.89a8.518 8.518 0 0 1-1.405.843s10.14 9.375 11.508 10.241c1.369.867 3.592 1.215 5.858.619 2.266-.596 10.012-2.727 11.209-3.524a2.92 2.92 0 0 0 .425-.36"/>
        <path fill="#EBA87F" d="M157 71.766s-1.285-1.861-1.832-2.478c-.547-.617-1.717-.576-2.311-.774-.596-.197-1.523-.433-1.694-.508-.171-.075-.335.572-.088.89.248.317 1.01.902 1.224 1.01-.33.35-.827.379-1.141.521-1.364.618-2.63-.398-4.176-.445-.55-.016-.989.225-.982.625.002.17.199.408.516.696a.995.995 0 0 0 .13.277c.18.116.368.215.56.298l.232.182c.215.301.714.584.86.663 1.197.92 4.25.494 5.621.282 0 0 .567-.123.988.352l.57.643L157 71.766"/>
        <path fill="#E3816B" d="M157 72.461s-.892-1.58-1.462-2.461c.336.89.224 1.598-.148 2.156-.936 1.402-3.52 1.864-4.832 1.907-.949.031-.362.01-.529.012 1.325.293 3.157-.024 4.11-.205 0 0 .527-.14.918.4l.53.73L157 72.461"/>
        <path fill="#E3816B" d="M149.102 73.886c.069.041.144.08.225.114a.405.405 0 0 1 .215-.274c.236-.105.62.016 1.125.007.505-.009 1.333-.134 1.333-.134l-.1-.146s-.034.012-.213.056c-.178.044-.98.093-1.659.025-.678-.067-.782-.013-.964.304l.038.048zm-1.262-.756c.316-.405.483-.463 1.401-.291.932.175 2.064.202 2.324.161.26-.04.309-.052.309-.052l.107.216s-1.184.077-1.891.029c-.708-.048-1.217-.262-1.57-.143a.596.596 0 0 0-.326.286l-.019-.02-.244-.153-.09-.033zm-.76-.546l.128.097c.019.054.048.11.087.167.063-.152.214-.421.506-.502.415-.116.974.157 1.776.252.801.094 2.161.073 2.161.073l-.1-.252s-.056.01-.358.042c-.3.032-1.589-.063-2.634-.315s-1.23-.189-1.646.273l.08.165zM151.019 69c-.02.221-.062.375.126.655.187.28 1.044 1.174 1.266 1.306l-.032.039c.37-.235 1.098-.357.164-.714-.677-.258-1.183-.888-1.524-1.286"/>
        <path fill="#E3816B" d="M151.006 71.28C150.876 73.111 153 74 153 74s-2.058-1.943-1.431-2.554c.253-.246.483-.351.484-.41.003-.087-.386-.022-1.047.243"/>
        <path fill="#D8D9D3" d="M174 64s-.812.357-1.145.607c-.33.25-1.416 1.289-2.897 4.241-1.481 2.952-3.37 7.73-3.677 8.33-.305.601-.931.101-1.11-.036-.178-.138-8.271-5.217-8.271-5.217-.196-.106-.13 1.416-.617 1.85-.605.536-1.556.535-1.209.99.307.4 7.811 7.668 9.063 8.518 1.251.851 3.256 1.233 4.688-.523 1.433-1.758 3.865-5.216 3.865-5.216L174 64"/>
        <path fill="#FFFFFE" d="M174 63s-.847.363-1.194.618c-.345.254-1.477 1.31-3.022 4.313-1.545 3.002-3.514 7.862-3.834 8.472-.32.611-.972.102-1.158-.037-.186-.14-8.627-5.306-8.627-5.306-.204-.108-.135 1.44-.644 1.881-.16.139-.343.242-.521.327 2.46 2.342 6.812 6.378 7.755 7.004 1.305.865 3.396 1.253 4.89-.534 1.494-1.786 4.03-5.303 4.03-5.303l1.668-4.813L174 63"/>
        <path fill="#1C2039" d="M173.596 42.257s-1.64.162-2.483.724c-.842.563-2.196 8.74-5.068 12.765 0 0-.127.204.046.524.173.321 1.1.347 1.827-.017 2.807 5.012 14.407 7.165 18.752 4.763 2.833-1.567 3.799-3.226 4.019-4.557.254-1.547-.499-2.65-.499-2.65s1.354.506 1.732-.274c.379-.78-.697-.904-1.615-5.172-.917-4.269-2.968-9.197-10.295-10.363l-6.416 4.257"/>
        <path fill="#0D111A" d="M172.79 42c-.536.11-1.223.3-1.677.61-.842.573-2.196 8.91-5.068 13.014 0 0-.127.207.046.534.173.327 1.1.354 1.827-.017 2.807 5.11 14.407 7.305 18.752 4.856 2.833-1.598 3.799-3.29 4.019-4.647.254-1.577-.499-2.701-.499-2.701s1.354.515 1.732-.28c.379-.794-.697-.92-1.615-5.273-.05-.239-.104-.48-.163-.721-2.153 1.323-6.037 2.756-10.717.213-4.616-2.507-6.14-4.486-6.638-5.588"/>
        <path fill="#9F95BB" d="M187.991 154.193c.093.898-.544 1.703-1.424 1.798-.88.095-1.67-.556-1.764-1.453l-3.617-34.644c-.103-.987-.601-1.892-1.318-2.553-.713-.657-1.638-1.065-2.604-1.065h-13.53c-.965 0-1.89.408-2.602 1.065-.718.66-1.215 1.566-1.319 2.553l-3.618 34.644c-.093.897-.882 1.548-1.762 1.453-.88-.095-1.518-.9-1.424-1.798l3.618-34.645c.188-1.808 1.078-3.445 2.359-4.626 1.286-1.186 2.973-1.922 4.749-1.922h13.529c1.777 0 3.462.736 4.749 1.922 1.28 1.18 2.17 2.818 2.36 4.626l3.618 34.645"/>
        <path fill="#FFFFFE" d="M203.991 154.193c.093.898-.544 1.703-1.424 1.798-.88.095-1.67-.556-1.763-1.453l-3.618-34.644c-.103-.987-.6-1.892-1.318-2.553-.712-.657-1.638-1.065-2.603-1.065h-13.53c-.965 0-1.89.408-2.603 1.065-.717.66-1.215 1.566-1.318 2.553l-3.617 34.644c-.094.897-.884 1.548-1.764 1.453-.88-.095-1.518-.9-1.424-1.798l3.618-34.645c.19-1.808 1.08-3.445 2.36-4.626 1.286-1.186 2.972-1.922 4.749-1.922h13.529c1.775 0 3.463.736 4.749 1.922 1.28 1.18 2.17 2.818 2.359 4.626l3.618 34.645"/>
        <path fill="#0D111A" d="M159.174 113c-1.2 0-2.174-.967-2.174-2.16 0-1.192.974-2.16 2.174-2.16h11.104c1.936 0 4.116-.02 5.548-.964 1.401-.925 2.403-2.947 2.403-7.16V70.16c0-1.192.974-2.159 2.175-2.159H201v35.965l-5.323 6.17H189.3v-.928a8.21 8.21 0 0 1-2.183 2.1c-2.507 1.656-5.392 1.693-7.943 1.693h-19.999"/>
        <path fill="#1C2039" d="M174.143 113a2.151 2.151 0 0 1-2.143-2.16c0-1.192.96-2.16 2.143-2.16h16.732c1.91 0 4.057-.02 5.468-.964 1.381-.925 2.37-2.947 2.37-7.16V70.16c0-1.192.96-2.159 2.144-2.159 1.183 0 2.143.967 2.143 2.16v30.396c0 5.955-1.791 9.077-4.295 10.752-2.472 1.655-5.316 1.692-7.83 1.692h-16.732"/>
        <path fill="#AB2446" d="M163.487 142l1.513.91-.887 7.532s-.034.558-.359.558h-.528s-.25-.055-.224-.386c.026-.332.253-7.464.253-7.464l.232-1.15"/>
        <path fill="#D32C4D" d="M163.024 139.323s1.57.882 1.706 1.205c.135.323.472 1.765.101 2.29-.37.528-1.468.935-1.721 1.257-.253.323-1.57 5.924-1.57 5.924s-.202 1.001-1.35 1.001h-6.87s-.328-.068-.32-.517c.005-.248.204-.61.382-.884.359-.553.843-.584 1.204-.584l3.587-.96 2.076-5.228 1.333-3.717s1.03-.356 1.442.213"/>
        <path fill="#EBA87F" d="M158.783 134.14c.89 1.475 1.022 5.156.952 5.453-.282 1.195-1.193 4.581-1.503 5.747-.768 2.885-1.776 2.727-2.24 2.727-.464 0-.847.336-.992.933h3.6c.704 0 1.185-.458 1.408-1.197.225-.739 1.664-7.34 1.808-7.99.144-.652.832-.933 1.184-.863l-.47-4.679c-1.148.659-2.798-.692-3.747-.131"/>
        <path fill="#E48569" d="M159.73 138.588c.538.017.987.036 1.059.06.173.06.272.529.16 1.126-.111.6-1.744 6.782-1.887 7.287-.143.498-.733.992-2.857 1.008h-.259c-.444.02-.806.354-.946.931h3.6c.704 0 1.185-.458 1.408-1.197.225-.739 1.664-7.34 1.808-7.99.144-.652.832-.933 1.184-.863l-.469-4.679c-1.149.659-2.799-.692-3.748-.131.626 1.04.878 3.174.947 4.448"/>
        <path fill="#AB2446" d="M163.906 140c.383.245.761.515.824.664.135.32.472 1.743.101 2.261-.37.52-1.468.922-1.721 1.24-.253.319-1.57 5.847-1.57 5.847s-.202.988-1.35.988h-6.87s-.328-.067-.32-.51c.003-.142.07-.32.16-.499h5.706c.912 0 1.452-.284 1.688-.771.235-.485 2.194-7.857 2.464-8.376.13-.25.52-.575.888-.844"/>
        <path fill="#D32C4D" d="M179.12 142.157l-1.068 2.083s-.38.466-.458.954c-.078.487-.502 3.7-.58 4.166-.076.465.136 1.64 1.082 1.64h3.03c.812 0 1.874-.842 1.874-2.504v-7.092c0-1.64-.284-3.404-1.56-3.404-1.278 0-2.32 4.157-2.32 4.157"/>
        <path fill="#E3816B" d="M177.354 136.323l-.354 1.48s.215.725.354 1.096c.14.372.001 7.318.06 7.627.06.31.337.474.714.474h1.25c.317 0 .872-.144.99-1.257.12-1.113.517-5.276.616-6.554.099-1.278-.277-2.082-.536-2.844-.257-.763-3.094-.022-3.094-.022"/>
        <path fill="#EBA87F" d="M178 140c.049 1.179.006 4.376.004 6h1.317c.482 0 .679-.15.679-.73v-4.26c0-.85-.295-1.01-.847-1.01H178"/>
        <path fill="#DC6E59" d="M182.747 56c.31 4.381.056 5.538 1.501 6.23 1.798 1.703-.03 3.533-1.3 3.741-1.27.209-7.49-.77-7.915-1.043-.297-.19 1.516-1.756 1.32-2.334.133-.035-.018.002.116-.039 1.632-.454 1.238-2.081 1.049-4.759-.703-.67 5.23-1.796 5.23-1.796"/>
        <path fill="#D32C4D" d="M183.795 62s-1.918 2.342-4.18 2.48c-2.261.136-3.042-1.854-3.062-2.155 0 0-2.603.82-2.817.877-.214.057-3.384 8.123-3.705 9.84-.321 1.715 1.968 6.579 2.215 8.319.248 1.74-.702 13.854-.909 15.037 0 0-.047.56 1.118.987 1.163.427 5.057.689 6.587.596 1.531-.092 11.444-3.295 12.86-4.638 0 0 .23-.237-.016-.973s-3.013-9.285-3.026-10.513c-.015-1.228 1.822-17.236 1.822-17.236s-.414-.488-1.334-1.002c-.919-.516-5.553-1.619-5.553-1.619"/>
        <path fill="#C6224A" d="M170 73.756c.315 2.163 1.989 5.901 2.2 7.385.018.13.03.32.035.559a73.913 73.913 0 0 1 2.712-.42c3.731-.515 8.026.154 8.026.154l-10.887 4.76c-.042.764-.093 1.564-.146 2.365l2.087 1.317 12.83-2.985s1.381 1.75 1.484 5.044a38.26 38.26 0 0 1-.04 3.065c1.725-.678 3.131-1.333 3.601-1.78 0 0 .23-.24-.016-.982-.247-.742-3.02-9.36-3.034-10.597-.003-.28.088-1.314.23-2.749L186.809 68s-.41 1.03-1.687 5.405c-1.278 4.375-2.761 4.015-7.873 4.17-4.797.144-5.003.288-7.248-3.819"/>
        <path fill="#22224C" d="M182.955 95s-13.372-.014-18.55.285c-5.18.3-8.028 4.829-8.373 8.162-.346 3.332 2.243 31.878 2.243 31.878s0 .63.432.663c.432.031 3.442 0 3.7-.065.26-.063.357-.32.388-.652.033-.33 2.627-25.99 2.67-26.589.043-.598.604-1.067 2.934-1.623 2.33-.555 15.467-9.315 14.556-12.059"/>
        <path fill="#332C70" d="M192.789 93s5.67 15.62-7.522 15.62h-8.474l.064.193c1.443 4.413 2.416 12.572 5.269 27.442.099.51.054.597-.497.852-1.132.522-3.186 1.128-4.509.8 0 0-.174-.175-.229-.36-.054-.184-12.35-32.197-12.787-34.02-.436-1.826.35-6.04 5.242-7.084 4.891-1.042 16.79-1.9 19.437-2.302C191.43 93.738 192.79 93 192.79 93"/>
        <path fill="#9A2444" d="M181.751 139.8c.504.467.632 1.656.632 2.779v6.224c0 1.458-.784 2.197-1.383 2.197h.424c.683 0 1.576-.842 1.576-2.504v-7.092c0-1.64-.24-3.404-1.313-3.404.074.449.115.957.079 1.565l-.015.234"/>
        <path fill="#DC6E59" d="M172.989 51a2 2 0 1 1 .023 3.999A2 2 0 0 1 172.99 51M185.99 51a2 2 0 1 1 .02 4 2 2 0 0 1-.02-4"/>
        <path fill="#EBA87F" d="M179.448 41c3.567-.02 6.5 2.903 6.52 6.496l.032 5.936c.02 3.593-2.882 6.548-6.448 6.568-3.566.02-6.5-2.903-6.52-6.496L173 47.568c-.02-3.593 2.882-6.549 6.448-6.568"/>
        <path fill="#E3816B" d="M184.788 44.344a6.24 6.24 0 0 1 1.18 3.614l.032 5.783c.017 3.06-2.198 5.644-5.138 6.259.859-.277 3.728-2.273 3.823-4.463.095-2.19-.454-3.999-2.506-4.558-2.05-.559-7.379-2.872-8.106-2.908-.308-.015-.71.13-1.072.303l-.001-.346a6.251 6.251 0 0 1 1.436-4.016c1.41-.494 2.65-.906 3.106-.993.744-.144 4.253.553 7.246 1.325"/>
        <path fill="#FFFFFE" d="M180 56.292c.007.938-.884 1.702-1.99 1.708-1.104.005-2.005-.751-2.01-1.69h.004c-.001-.161.153-.294.342-.295L179.65 56c.19 0 .346.13.347.292H180"/>
        <path fill="#D96256" d="M173.994 54a1 1 0 1 1 .01 2.002 1 1 0 0 1-.01-2.002M181.994 54a1.001 1.001 0 1 1 .01 2.002 1.001 1.001 0 0 1-.01-2.002"/>
        <path fill="#1C2039" d="M179.52 50.099s.24.023.301-.137c.06-.16-.264-1.018-.264-1.018s2.804 3.18 6.044 2.825l.312 1.231c-.008-1.334.964-1.3.964-1.3s1.334-5.507 1.094-7.916c-.238-2.408-5.91-5.929-8.66-5.78-2.752.15-6.013 3.477-6.214 4.513-.83 4.281 3.856 7.316 6.423 7.582"/>
        <path fill="#0D111A" d="M178.78 49.198s.25.023.314-.132c.063-.154-.275-.984-.275-.984s2.916 3.072 6.285 2.73L185.43 52c-.009-1.288 1.002-1.256 1.002-1.256s.283-1.083.569-2.486c-2.056.45-4.62.381-7.48-1.079-7.22-3.684-6.901-6.16-6.899-6.179-.29.357-.476.665-.52.875-.863 4.135 4.01 7.066 6.68 7.323"/>
        <path fill="#332C70" d="M189 44.633c-.159-.535-.316-.74-.45-1.021-2.566-.1-10.1-.431-11.582-5.612-1.102.487-2.166 1.289-2.968 2.066.115.141.236.285.363.432 2.267 2.611 8.384 5.547 14.637 4.135"/>
        <path fill="#0D111A" d="M175.283 52.037a.803.803 0 0 0-.455.136.295.295 0 0 1-.194-.122c-.029-.046-.097-.064-.154-.04-.056.024-.077.08-.048.127.058.095.15.15.231.183l-.005.006a.56.56 0 0 1-.297-.151.131.131 0 0 0-.162-.014c-.048.033-.055.093-.016.133.1.102.222.16.336.193v.002a.818.818 0 0 1-.344-.092c-.053-.028-.124-.015-.157.03-.034.044-.018.103.035.13.118.063.24.097.354.111l.16.019v.718c0 .327.322.594.716.594.395 0 .717-.267.717-.594v-.775c0-.327-.322-.594-.717-.594"/>
        <path fill="#E3816B" d="M173.93 86.08l-1.386-.08c-1.286.222-3.613.529-4.511 1.446-.281.286 1.327.824 1.478.9.15.076 2.367.735 2.887.646.52-.089 1.929-1.76 1.533-2.913"/>
        <path fill="#0D111A" d="M180.717 52.037c.173 0 .332.05.456.136a.299.299 0 0 0 .194-.122c.028-.046.097-.064.153-.04.055.024.077.08.048.127a.464.464 0 0 1-.232.183l.006.006a.562.562 0 0 0 .298-.151.13.13 0 0 1 .16-.014c.05.033.056.093.017.133a.755.755 0 0 1-.337.193l.001.002a.808.808 0 0 0 .343-.092c.054-.028.125-.015.159.03.033.044.017.103-.036.13-.12.063-.24.097-.355.111l-.159.019v.718c0 .327-.322.594-.716.594-.394 0-.717-.267-.717-.594v-.775c0-.327.323-.594.717-.594"/>
        <path fill="#F2C3AA" d="M177.442 53.362c-.156.365-.428 1.028-.441 1.264-.02.334.495.473.837.298.243-.125.166-.93.07-1.428-.108-.552-.22-.708-.466-.134"/>
        <path fill="#D8D9D3" d="M172.972 90s12.369-3.703 13.872-4.394c1.503-.69 3.05-2.58 3.821-4.826.772-2.245 3.335-9.97 3.335-11.418 0-1.448-.61-4.33-3.906-5.362 0 0-2.085.37-3.023 4.312-.937 3.942-2.02 10.544-2.263 11.338-.245.795-.633 1.661-1.813 2.334S172 86.157 172 86.157c.79.674 1.197 2.274.972 3.843"/>
        <path fill="#FFFFFE" d="M192.603 65.196c-.576-.907-1.495-1.735-2.934-2.196 0 0-2.053.372-2.976 4.346-.922 3.974-1.988 10.628-2.228 11.429-.24.8-.622 1.674-1.784 2.352-1.079.63-9.491 3.718-10.681 4.154.044.106.084.216.12.331.427.554.697 1.43.748 2.388 2.412-.743 11.8-3.649 13.088-4.254 1.48-.697 3.002-2.602 3.762-4.865.76-2.263 3.282-10.05 3.282-11.51 0-.57-.092-1.362-.397-2.175"/>
        <path fill="#6B629B" d="M146.657 75h18.342c.487 0 1.006.418 1.155.929l3.806 13.14c.149.512-.129.931-.616.931h-18.342c-.487 0-1.007-.419-1.155-.93l-3.807-13.141c-.148-.511.13-.929.617-.929"/>
        <path fill="#4C4C8B" d="M149.927 89h24.146c.509 0 .927-.45.927-1s-.418-1-.927-1h-24.146c-.509 0-.927.45-.927 1s.418 1 .927 1"/>
        <path fill="#443C80" d="M169.84 89h4.32c.461 0 .84-.45.84-1s-.379-1-.84-1h-4.32c-.461 0-.84.45-.84 1s.379 1 .84 1"/>
        <path fill="#FFFFFE" d="M157.027 79c.174 0 .348.019.517.053-.166.239-.235.554-.17.9.14.74.843 1.34 1.57 1.34.35 0 .644-.14.836-.37.077.185.137.378.174.577.261 1.38-.625 2.5-1.981 2.5s-2.667-1.12-2.927-2.5c-.261-1.38.626-2.5 1.981-2.5"/>
        <path fill="#0D111A" d="M184.181 53.547c-.216.635-.575.983-1.201 1.166-.629.183-1.448.178-2.039-.012-.636-.206-1.103-.732-1.312-1.482-.232-.832-.285-1.653-.202-1.964l.02-.034c.173-.333.595-.614 1.685-.806 1.09-.192 2.18-.013 2.689.269.378.208.516.777.564 1.056.017.38-.002 1.212-.204 1.807zm-7.395-.328c-.21.75-.675 1.276-1.312 1.482-.591.19-1.411.195-2.04.012-.626-.183-.985-.53-1.2-1.166-.202-.595-.222-1.426-.204-1.807.047-.279.187-.848.565-1.056.506-.282 1.599-.46 2.688-.269 1.09.192 1.512.473 1.686.806a.3.3 0 0 0 .019.034c.082.31.03 1.132-.202 1.964zm7.66-2.997c-.646-.115-2.86-.372-4.272-.104-1.374.26-1.239.604-1.224.734a1.338 1.338 0 0 0-.743-.198c-.257 0-.522.05-.745.198.014-.13.146-.473-1.227-.734-1.412-.268-3.646-.01-4.289.104-.645.115-.946.283-.946.283v.728s.26-.102.458.154c.167.215.213.402.414.48-.008.43.03 1.177.218 1.73.231.679.633 1.069 1.303 1.264.32.093.686.139 1.05.139.38 0 .759-.051 1.074-.153.687-.22 1.188-.784 1.411-1.585.204-.729.265-1.438.228-1.848.057.016.106.001.154-.048h.006a.216.216 0 0 0 .03-.034c.08-.087.334-.312.86-.312.525 0 .78.225.858.312.01.013 0 .024.01.034h-.017a.186.186 0 0 0 .177.048c-.037.41.04 1.12.243 1.848.223.8.73 1.364 1.415 1.585.316.102.696.153 1.077.153.363 0 .732-.046 1.05-.139.67-.195 1.072-.585 1.3-1.264.19-.553.226-1.3.218-1.73.201-.078.228-.265.395-.48.198-.256 1.068-.154 1.068-.154v-.728s-.912-.168-1.555-.283z"/>
        <path fill="#BCB3CC" d="M173.857 89h-27.715c-1.177 0-2.142.9-2.142 2s.965 2 2.142 2h27.715c1.178 0 2.143-.9 2.143-2s-.965-2-2.143-2"/>
    </g>
</svg>
