<svg width="41" height="32" xmlns="http://www.w3.org/2000/svg"><path d="M40.5 21.755a9.49 9.49 0 01-9.5 9.5 9.49 9.49 0 01-9.5-9.5c0-3.79 1.025-6.644 3.239-9.813 2.733-4.243 5.264-7.757 7.599-10.546a2.5 2.5 0 013.035-.632l.493.247a2.5 2.5 0 011.223 3.112c-1.476 3.946-2.525 6.803-3.14 8.552 4.418 1.36 6.551 4.82 6.551 9.08zM34.4 3.607a.499.499 0 01-.085-.11.5.5 0 01-.19-.014l-.003.01.264.132.015-.018zm-7.17 10.006c-1.914 2.741-2.73 5.013-2.73 8.142 0 3.6 2.904 6.5 6.5 6.5s6.5-2.9 6.5-6.5c0-3.404-1.737-5.847-5.749-6.521l-1.697-.286.515-1.642c.377-1.205 1.453-4.182 3.239-8.972-2.02 2.515-4.206 5.598-6.578 9.28zm-7.73 8.142a9.49 9.49 0 01-9.5 9.5 9.49 9.49 0 01-9.5-9.5c0-3.79 1.025-6.644 3.239-9.813C6.472 7.7 9.003 4.185 11.338 1.396a2.5 2.5 0 013.035-.632l.493.247a2.5 2.5 0 011.223 3.112c-1.476 3.946-2.525 6.803-3.14 8.552 4.418 1.36 6.551 4.82 6.551 9.08zM13.4 3.607a.499.499 0 01-.085-.11.5.5 0 01-.19-.014l-.003.01.264.132.015-.018zM6.23 13.613c-1.914 2.741-2.73 5.013-2.73 8.142 0 3.6 2.904 6.5 6.5 6.5s6.5-2.9 6.5-6.5c0-3.404-1.737-5.847-5.749-6.521l-1.697-.286.515-1.642c.377-1.205 1.453-4.182 3.239-8.972-2.02 2.515-4.206 5.598-6.578 9.28z" fill="#CA62D0"/></svg>