<svg xmlns="http://www.w3.org/2000/svg" width="104" height="88" viewBox="0 0 104 88">
    <defs>
        <linearGradient id="a" x1="50%" x2="50%" y1="0%" y2="100%">
            <stop offset="0%" stop-color="#DFDCFC"/>
            <stop offset="100%" stop-color="#DCF3FC"/>
        </linearGradient>
    </defs>
    <g fill="none" fill-rule="evenodd">
        <circle cx="43.5" cy="43.5" r="43.5" fill="url(#a)" transform="translate(0 1)"/>
        <g transform="translate(22 29)">
            <circle cx="27.5" cy="28.5" r="20.5" fill="#FFF"/>
            <g fill-rule="nonzero">
                <path fill="#3A3838" d="M51.236 21.332l-3.79-.643a21.402 21.402 0 0 0-1.523-3.678l2.233-3.125a3.326 3.326 0 0 0-.36-4.298l-3.362-3.361a3.311 3.311 0 0 0-2.358-.982c-.7 0-1.365.215-1.929.62L37.011 8.1a21.179 21.179 0 0 0-3.813-1.568l-.631-3.745A3.332 3.332 0 0 0 29.273 0h-4.75a3.332 3.332 0 0 0-3.293 2.786l-.655 3.836a20.874 20.874 0 0 0-3.666 1.545l-3.102-2.233a3.312 3.312 0 0 0-1.94-.62c-.891 0-1.737.349-2.358.98L6.137 9.657a3.34 3.34 0 0 0-.361 4.298l2.256 3.17a20.905 20.905 0 0 0-1.5 3.689l-3.746.631A3.332 3.332 0 0 0 0 24.738v4.75a3.332 3.332 0 0 0 2.786 3.293l3.836.655a20.875 20.875 0 0 0 1.545 3.666l-2.222 3.09a3.326 3.326 0 0 0 .36 4.298l3.362 3.362a3.311 3.311 0 0 0 2.358.982c.7 0 1.365-.215 1.929-.62l3.17-2.257a21.34 21.34 0 0 0 3.564 1.466l.632 3.79A3.332 3.332 0 0 0 24.614 54h4.76a3.332 3.332 0 0 0 3.294-2.786l.643-3.79a21.401 21.401 0 0 0 3.677-1.523l3.125 2.233c.564.406 1.241.62 1.94.62.892 0 1.726-.35 2.358-.98l3.362-3.362a3.34 3.34 0 0 0 .36-4.298L45.9 36.978a21.249 21.249 0 0 0 1.523-3.678l3.79-.632A3.333 3.333 0 0 0 54 29.375v-4.75a3.293 3.293 0 0 0-2.764-3.293zm.587 8.725l-4.9.817a1.566 1.566 0 0 0-1.259 1.155 18.673 18.673 0 0 1-2.03 4.887 1.577 1.577 0 0 0 .07 1.715l2.882 4.059a.318.318 0 0 1-.035.396l-3.476 3.476a.296.296 0 0 1-.222.094.287.287 0 0 1-.175-.059l-4.048-2.88a1.576 1.576 0 0 0-1.714-.07 18.673 18.673 0 0 1-4.888 2.029 1.548 1.548 0 0 0-1.154 1.26l-.829 4.899a.302.302 0 0 1-.303.256h-4.91a.302.302 0 0 1-.304-.256l-.816-4.9a1.566 1.566 0 0 0-1.155-1.259 19.39 19.39 0 0 1-4.783-1.96 1.615 1.615 0 0 0-.793-.21c-.315 0-.641.094-.91.292l-4.082 2.904a.347.347 0 0 1-.175.059.313.313 0 0 1-.222-.094l-3.476-3.476a.316.316 0 0 1-.035-.396l2.87-4.024c.361-.514.385-1.19.07-1.727a18.497 18.497 0 0 1-2.053-4.875 1.597 1.597 0 0 0-1.26-1.155l-4.934-.84a.302.302 0 0 1-.257-.303V24.96c0-.152.105-.28.257-.303l4.864-.817a1.577 1.577 0 0 0 1.271-1.166 18.654 18.654 0 0 1 1.995-4.9 1.557 1.557 0 0 0-.082-1.702l-2.904-4.083a.318.318 0 0 1 .035-.396l3.476-3.476a.296.296 0 0 1 .222-.094c.07 0 .128.024.175.059l4.024 2.869c.513.362 1.19.385 1.726.07a18.497 18.497 0 0 1 4.876-2.053 1.597 1.597 0 0 0 1.155-1.26l.84-4.934a.302.302 0 0 1 .303-.256h4.91c.152 0 .28.105.304.256l.816 4.864c.105.619.56 1.12 1.167 1.272a18.933 18.933 0 0 1 5.004 2.053 1.577 1.577 0 0 0 1.714-.07L42.69 8a.347.347 0 0 1 .175-.058c.046 0 .14.011.221.093l3.476 3.476a.316.316 0 0 1 .035.396l-2.88 4.048a1.576 1.576 0 0 0-.07 1.715 18.673 18.673 0 0 1 2.029 4.887 1.548 1.548 0 0 0 1.26 1.155l4.898.828a.302.302 0 0 1 .257.303v4.911h-.012c0 .152-.105.28-.256.303z"/>
                <path fill="#2396FF" d="M27 39.176c-6.719 0-12.176-5.457-12.176-12.176S20.28 14.824 27 14.824 39.176 20.28 39.176 27 33.72 39.176 27 39.176z"/>
            </g>
        </g>
        <path stroke="#3A3838" stroke-width="2" d="M59 31.782l6-14.863M74 44.863L87 38M73 65.806L87 73"/>
        <rect width="13" height="13" x="60" y="1" fill="#FFF" stroke="#3A3838" stroke-width="2" rx="2"/>
        <rect width="13" height="13" x="90" y="31" fill="#DCF3FC" stroke="#3A3838" stroke-width="2" rx="2"/>
        <rect width="13" height="13" x="90" y="65" fill="#FFF" stroke="#3A3838" stroke-width="2" rx="2"/>
    </g>
</svg>
