<svg xmlns="http://www.w3.org/2000/svg" xmlns:xlink="http://www.w3.org/1999/xlink" width="104" height="87" viewBox="0 0 104 87">
    <defs>
        <linearGradient id="b" x1="50%" x2="50%" y1="0%" y2="100%">
            <stop offset="0%" stop-color="#DFDCFC"/>
            <stop offset="100%" stop-color="#DCF3FC"/>
        </linearGradient>
        <ellipse id="a" cx="37.5" cy="38" rx="30.5" ry="30"/>
        <mask id="c" width="61" height="60" x="0" y="0" fill="#fff">
            <use xlink:href="#a"/>
        </mask>
    </defs>
    <g fill="none" fill-rule="evenodd">
        <circle cx="43.5" cy="43.5" r="43.5" fill="url(#b)"/>
        <g transform="translate(30 6)">
            <use fill="#FFF" fill-opacity=".5" stroke="#2396FF" stroke-dasharray="4" stroke-width="4" mask="url(#c)" xlink:href="#a"/>
            <path fill="#DCF3FC" stroke="#3A3838" stroke-width="2" d="M24.286 31h26.428c.19-.896.286-1.816.286-2.75C51 20.932 45.068 15 37.75 15h-.5C29.932 15 24 20.932 24 28.25c0 .934.096 1.854.286 2.75zM46.286 73h26.428c.19-.896.286-1.816.286-2.75C73 62.932 67.068 57 59.75 57h-.5C51.932 57 46 62.932 46 70.25c0 .934.096 1.854.286 2.75z"/>
            <path fill="#FFF" stroke="#3A3838" stroke-width="2" d="M1.286 73h26.428c.19-.896.286-1.816.286-2.75C28 62.932 22.068 57 14.75 57h-.5C6.932 57 1 62.932 1 70.25c0 .934.096 1.854.286 2.75z"/>
            <circle cx="37.5" cy="8.5" r="7.5" fill="#FFF" stroke="#3A3838" stroke-width="2"/>
            <circle cx="60.5" cy="50.5" r="7.5" fill="#FFF" stroke="#3A3838" stroke-width="2"/>
            <circle cx="13.5" cy="50.5" r="7.5" fill="#FFF" stroke="#3A3838" stroke-width="2"/>
            <path stroke="#2396FF" stroke-linecap="round" stroke-width="2" d="M44 37H31"/>
        </g>
    </g>
</svg>
