<svg xmlns="http://www.w3.org/2000/svg" width="98" height="87" viewBox="0 0 98 87">
    <defs>
        <linearGradient id="a" x1="50%" x2="50%" y1="0%" y2="100%">
            <stop offset="0%" stop-color="#DFDCFC"/>
            <stop offset="100%" stop-color="#DCF3FC"/>
        </linearGradient>
    </defs>
    <g fill="none" fill-rule="evenodd">
        <circle cx="43.5" cy="43.5" r="43.5" fill="url(#a)"/>
        <g fill-rule="nonzero">
            <path fill="#373737" d="M85 49.59V34.154c.016-7.253-5.445-13.367-12.703-14.223L76 12.595c.172-.342.153-.75-.05-1.075A1.113 1.113 0 0 0 75 11H55c-.385 0-.743.198-.946.523-.202.324-.22.73-.048 1.072l3.699 7.336C50.458 20.81 45.009 26.91 45 34.154V54h2.222V34.154c.008-6.695 5.475-12.12 12.222-12.128h11.112a12.25 12.25 0 0 1 8.647 3.547 12.062 12.062 0 0 1 3.575 8.58V49.59H85zM69.869 19.82H60.13l-3.333-6.615h16.404l-3.333 6.616z"/>
            <path fill="#373737" d="M56.093 27A7.41 7.41 0 0 1 58 26.189L57.455 24A9.65 9.65 0 0 0 55 25.043L56.093 27zM49 38h2.424v-4.591c-.006-2.174.924-4.255 2.576-5.763L52.312 26c-2.124 1.939-3.32 4.614-3.312 7.409V38zM35.137 64.998l18.675 10.24A14.235 14.235 0 0 0 60.666 77H96.9c.607 0 1.1-.495 1.1-1.106V55.986c0-.61-.493-1.106-1.1-1.106h-8.418l-.126-.098a17.39 17.39 0 0 0-4.241-2.452 17.758 17.758 0 0 0-16.272 1.444H59.5a5.491 5.491 0 0 0-4.435 2.258 5.556 5.556 0 0 0-.813 4.931l-13.598-6.85a5.859 5.859 0 0 0-6.232.6A6.093 6.093 0 0 0 32 59.57v.121a6.033 6.033 0 0 0 3.137 5.307zM89.2 57.092h6.6v17.696h-6.6V57.092z"/>
            <path fill="#373737" d="M91 68h3v3h-3z"/>
            <path fill="#2396FF" d="M66.583 50v-2.222h1.084c2.393 0 4.333-1.99 4.333-4.445 0-2.454-1.94-4.444-4.333-4.444h-4.334c-1.196 0-2.166-.995-2.166-2.222 0-1.228.97-2.223 2.166-2.223h7.584v-2.222h-4.334V30h-2.166v2.222h-1.084c-2.393 0-4.333 1.99-4.333 4.445 0 2.454 1.94 4.444 4.333 4.444h4.334c1.196 0 2.166.995 2.166 2.222 0 1.228-.97 2.223-2.166 2.223h-7.584v2.222h4.334V50h2.166z"/>
        </g>
        <path fill="#FFF" d="M34 59.894c.008-1.148.59-2.225 1.57-2.902a3.796 3.796 0 0 1 3.817-.324l16.879 7.997c.15.071.316.108.484.108H73v-2.05H58.917c-1.795 0-3.25-1.377-3.25-3.076 0-1.698 1.455-3.075 3.25-3.075h8.536c.212 0 .42-.06.597-.17 4.245-2.645 9.595-3.138 14.3-1.318A15.278 15.278 0 0 1 86 57.069V74H60.065a12.45 12.45 0 0 1-5.711-1.382l-18.397-9.494c-1.208-.62-1.96-1.817-1.957-3.118v-.112z"/>
    </g>
</svg>
